%TF.GenerationSoftware,KiCad,Pcbnew,10.0.0-1.fc43*%
%TF.CreationDate,2026-04-10T07:11:58+01:00*%
%TF.ProjectId,pico_cartridge_2890,7069636f-5f63-4617-9274-72696467655f,rev?*%
%TF.SameCoordinates,Original*%
%TF.FileFunction,Soldermask,Bot*%
%TF.FilePolarity,Negative*%
%FSLAX46Y46*%
G04 Gerber Fmt 4.6, Leading zero omitted, Abs format (unit mm)*
G04 Created by KiCad (PCBNEW 10.0.0-1.fc43) date 2026-04-10 07:11:58*
%MOMM*%
%LPD*%
G01*
G04 APERTURE LIST*
G04 Aperture macros list*
%AMRoundRect*
0 Rectangle with rounded corners*
0 $1 Rounding radius*
0 $2 $3 $4 $5 $6 $7 $8 $9 X,Y pos of 4 corners*
0 Add a 4 corners polygon primitive as box body*
4,1,4,$2,$3,$4,$5,$6,$7,$8,$9,$2,$3,0*
0 Add four circle primitives for the rounded corners*
1,1,$1+$1,$2,$3*
1,1,$1+$1,$4,$5*
1,1,$1+$1,$6,$7*
1,1,$1+$1,$8,$9*
0 Add four rect primitives between the rounded corners*
20,1,$1+$1,$2,$3,$4,$5,0*
20,1,$1+$1,$4,$5,$6,$7,0*
20,1,$1+$1,$6,$7,$8,$9,0*
20,1,$1+$1,$8,$9,$2,$3,0*%
G04 Aperture macros list end*
%ADD10R,1.700000X1.700000*%
%ADD11C,1.700000*%
%ADD12C,2.000000*%
%ADD13RoundRect,0.300000X-0.700000X5.200000X-0.700000X-5.200000X0.700000X-5.200000X0.700000X5.200000X0*%
%ADD14RoundRect,0.300000X-0.700000X4.700000X-0.700000X-4.700000X0.700000X-4.700000X0.700000X4.700000X0*%
G04 APERTURE END LIST*
D10*
%TO.C,EXT1*%
X80500000Y-51370000D03*
D11*
X77960000Y-51370000D03*
X80500000Y-53910000D03*
X77960000Y-53910000D03*
X80500000Y-56450000D03*
X77960000Y-56450000D03*
X80500000Y-58990000D03*
X77960000Y-58990000D03*
X80500000Y-61530000D03*
X77960000Y-61530000D03*
X80500000Y-64070000D03*
X77960000Y-64070000D03*
X80500000Y-66610000D03*
X77960000Y-66610000D03*
X80500000Y-69150000D03*
X77960000Y-69150000D03*
X80500000Y-71690000D03*
X77960000Y-71690000D03*
X80500000Y-74230000D03*
X77960000Y-74230000D03*
X80500000Y-76770000D03*
X77960000Y-76770000D03*
X80500000Y-79310000D03*
X77960000Y-79310000D03*
X80500000Y-81850000D03*
X77960000Y-81850000D03*
X80500000Y-84390000D03*
X77960000Y-84390000D03*
X80500000Y-86930000D03*
X77960000Y-86930000D03*
X80500000Y-89470000D03*
X77960000Y-89470000D03*
X80500000Y-92010000D03*
X77960000Y-92010000D03*
X80500000Y-94550000D03*
X77960000Y-94550000D03*
X80500000Y-97090000D03*
X77960000Y-97090000D03*
X80500000Y-99630000D03*
X77960000Y-99630000D03*
%TD*%
D12*
%TO.C,SW7*%
X125700000Y-49300000D03*
X125700000Y-42800000D03*
X130200000Y-49300000D03*
X130200000Y-42800000D03*
%TD*%
D10*
%TO.C,EXT2*%
X103500000Y-51370000D03*
D11*
X100960000Y-51370000D03*
X103500000Y-53910000D03*
X100960000Y-53910000D03*
X103500000Y-56450000D03*
X100960000Y-56450000D03*
X103500000Y-58990000D03*
X100960000Y-58990000D03*
X103500000Y-61530000D03*
X100960000Y-61530000D03*
X103500000Y-64070000D03*
X100960000Y-64070000D03*
X103500000Y-66610000D03*
X100960000Y-66610000D03*
X103500000Y-69150000D03*
X100960000Y-69150000D03*
X103500000Y-71690000D03*
X100960000Y-71690000D03*
X103500000Y-74230000D03*
X100960000Y-74230000D03*
X103500000Y-76770000D03*
X100960000Y-76770000D03*
X103500000Y-79310000D03*
X100960000Y-79310000D03*
X103500000Y-81850000D03*
X100960000Y-81850000D03*
X103500000Y-84390000D03*
X100960000Y-84390000D03*
X103500000Y-86930000D03*
X100960000Y-86930000D03*
X103500000Y-89470000D03*
X100960000Y-89470000D03*
X103500000Y-92010000D03*
X100960000Y-92010000D03*
X103500000Y-94550000D03*
X100960000Y-94550000D03*
X103500000Y-97090000D03*
X100960000Y-97090000D03*
X103500000Y-99630000D03*
X100960000Y-99630000D03*
%TD*%
D13*
%TO.C,J2*%
X124440000Y-170730000D03*
X121900000Y-170730000D03*
D14*
X119360000Y-170230000D03*
X116820000Y-170230000D03*
X114280000Y-170230000D03*
X111740000Y-170230000D03*
X109200000Y-170230000D03*
X106660000Y-170230000D03*
X104120000Y-170230000D03*
X101580000Y-170230000D03*
X99040000Y-170230000D03*
X96500000Y-170230000D03*
X93960000Y-170230000D03*
X91420000Y-170230000D03*
X88880000Y-170230000D03*
D13*
X86340000Y-170730000D03*
X83800000Y-170730000D03*
%TD*%
D12*
%TO.C,SW2*%
X117150000Y-49300000D03*
X117150000Y-42800000D03*
X121650000Y-49300000D03*
X121650000Y-42800000D03*
%TD*%
%TO.C,SW1*%
X108600000Y-49300000D03*
X108600000Y-42800000D03*
X113100000Y-49300000D03*
X113100000Y-42800000D03*
%TD*%
D10*
%TO.C,J5*%
X123340000Y-58000000D03*
D11*
X120800000Y-58000000D03*
X118260000Y-58000000D03*
X115720000Y-58000000D03*
%TD*%
M02*
