%TF.GenerationSoftware,KiCad,Pcbnew,10.0.0-1.fc43*%
%TF.CreationDate,2026-04-10T07:11:58+01:00*%
%TF.ProjectId,pico_cartridge_2890,7069636f-5f63-4617-9274-72696467655f,rev?*%
%TF.SameCoordinates,Original*%
%TF.FileFunction,Legend,Top*%
%TF.FilePolarity,Positive*%
%FSLAX46Y46*%
G04 Gerber Fmt 4.6, Leading zero omitted, Abs format (unit mm)*
G04 Created by KiCad (PCBNEW 10.0.0-1.fc43) date 2026-04-10 07:11:58*
%MOMM*%
%LPD*%
G01*
G04 APERTURE LIST*
%ADD10C,0.100000*%
%ADD11C,0.150000*%
%ADD12C,0.120000*%
G04 APERTURE END LIST*
D10*
X106600000Y-55500000D02*
X132600000Y-55500000D01*
X132600000Y-81500000D01*
X106600000Y-81500000D01*
X106600000Y-55500000D01*
X115873884Y-106552419D02*
X115873884Y-105552419D01*
X115873884Y-105552419D02*
X116254836Y-105552419D01*
X116254836Y-105552419D02*
X116350074Y-105600038D01*
X116350074Y-105600038D02*
X116397693Y-105647657D01*
X116397693Y-105647657D02*
X116445312Y-105742895D01*
X116445312Y-105742895D02*
X116445312Y-105885752D01*
X116445312Y-105885752D02*
X116397693Y-105980990D01*
X116397693Y-105980990D02*
X116350074Y-106028609D01*
X116350074Y-106028609D02*
X116254836Y-106076228D01*
X116254836Y-106076228D02*
X115873884Y-106076228D01*
X116873884Y-106552419D02*
X116873884Y-105885752D01*
X116873884Y-105552419D02*
X116826265Y-105600038D01*
X116826265Y-105600038D02*
X116873884Y-105647657D01*
X116873884Y-105647657D02*
X116921503Y-105600038D01*
X116921503Y-105600038D02*
X116873884Y-105552419D01*
X116873884Y-105552419D02*
X116873884Y-105647657D01*
X117350074Y-105885752D02*
X117350074Y-106552419D01*
X117350074Y-105980990D02*
X117397693Y-105933371D01*
X117397693Y-105933371D02*
X117492931Y-105885752D01*
X117492931Y-105885752D02*
X117635788Y-105885752D01*
X117635788Y-105885752D02*
X117731026Y-105933371D01*
X117731026Y-105933371D02*
X117778645Y-106028609D01*
X117778645Y-106028609D02*
X117778645Y-106552419D01*
X118683407Y-105885752D02*
X118683407Y-106552419D01*
X118445312Y-105504800D02*
X118207217Y-106219085D01*
X118207217Y-106219085D02*
X118826264Y-106219085D01*
X120492931Y-105600038D02*
X120397693Y-105552419D01*
X120397693Y-105552419D02*
X120254836Y-105552419D01*
X120254836Y-105552419D02*
X120111979Y-105600038D01*
X120111979Y-105600038D02*
X120016741Y-105695276D01*
X120016741Y-105695276D02*
X119969122Y-105790514D01*
X119969122Y-105790514D02*
X119921503Y-105980990D01*
X119921503Y-105980990D02*
X119921503Y-106123847D01*
X119921503Y-106123847D02*
X119969122Y-106314323D01*
X119969122Y-106314323D02*
X120016741Y-106409561D01*
X120016741Y-106409561D02*
X120111979Y-106504800D01*
X120111979Y-106504800D02*
X120254836Y-106552419D01*
X120254836Y-106552419D02*
X120350074Y-106552419D01*
X120350074Y-106552419D02*
X120492931Y-106504800D01*
X120492931Y-106504800D02*
X120540550Y-106457180D01*
X120540550Y-106457180D02*
X120540550Y-106123847D01*
X120540550Y-106123847D02*
X120350074Y-106123847D01*
X120969122Y-106552419D02*
X120969122Y-105552419D01*
X120969122Y-105552419D02*
X121540550Y-106552419D01*
X121540550Y-106552419D02*
X121540550Y-105552419D01*
X122016741Y-106552419D02*
X122016741Y-105552419D01*
X122016741Y-105552419D02*
X122254836Y-105552419D01*
X122254836Y-105552419D02*
X122397693Y-105600038D01*
X122397693Y-105600038D02*
X122492931Y-105695276D01*
X122492931Y-105695276D02*
X122540550Y-105790514D01*
X122540550Y-105790514D02*
X122588169Y-105980990D01*
X122588169Y-105980990D02*
X122588169Y-106123847D01*
X122588169Y-106123847D02*
X122540550Y-106314323D01*
X122540550Y-106314323D02*
X122492931Y-106409561D01*
X122492931Y-106409561D02*
X122397693Y-106504800D01*
X122397693Y-106504800D02*
X122254836Y-106552419D01*
X122254836Y-106552419D02*
X122016741Y-106552419D01*
X115873884Y-98297419D02*
X115873884Y-97297419D01*
X115873884Y-97297419D02*
X116254836Y-97297419D01*
X116254836Y-97297419D02*
X116350074Y-97345038D01*
X116350074Y-97345038D02*
X116397693Y-97392657D01*
X116397693Y-97392657D02*
X116445312Y-97487895D01*
X116445312Y-97487895D02*
X116445312Y-97630752D01*
X116445312Y-97630752D02*
X116397693Y-97725990D01*
X116397693Y-97725990D02*
X116350074Y-97773609D01*
X116350074Y-97773609D02*
X116254836Y-97821228D01*
X116254836Y-97821228D02*
X115873884Y-97821228D01*
X116873884Y-98297419D02*
X116873884Y-97630752D01*
X116873884Y-97297419D02*
X116826265Y-97345038D01*
X116826265Y-97345038D02*
X116873884Y-97392657D01*
X116873884Y-97392657D02*
X116921503Y-97345038D01*
X116921503Y-97345038D02*
X116873884Y-97297419D01*
X116873884Y-97297419D02*
X116873884Y-97392657D01*
X117350074Y-97630752D02*
X117350074Y-98297419D01*
X117350074Y-97725990D02*
X117397693Y-97678371D01*
X117397693Y-97678371D02*
X117492931Y-97630752D01*
X117492931Y-97630752D02*
X117635788Y-97630752D01*
X117635788Y-97630752D02*
X117731026Y-97678371D01*
X117731026Y-97678371D02*
X117778645Y-97773609D01*
X117778645Y-97773609D02*
X117778645Y-98297419D01*
X118159598Y-97297419D02*
X118778645Y-97297419D01*
X118778645Y-97297419D02*
X118445312Y-97678371D01*
X118445312Y-97678371D02*
X118588169Y-97678371D01*
X118588169Y-97678371D02*
X118683407Y-97725990D01*
X118683407Y-97725990D02*
X118731026Y-97773609D01*
X118731026Y-97773609D02*
X118778645Y-97868847D01*
X118778645Y-97868847D02*
X118778645Y-98106942D01*
X118778645Y-98106942D02*
X118731026Y-98202180D01*
X118731026Y-98202180D02*
X118683407Y-98249800D01*
X118683407Y-98249800D02*
X118588169Y-98297419D01*
X118588169Y-98297419D02*
X118302455Y-98297419D01*
X118302455Y-98297419D02*
X118207217Y-98249800D01*
X118207217Y-98249800D02*
X118159598Y-98202180D01*
X120492931Y-97345038D02*
X120397693Y-97297419D01*
X120397693Y-97297419D02*
X120254836Y-97297419D01*
X120254836Y-97297419D02*
X120111979Y-97345038D01*
X120111979Y-97345038D02*
X120016741Y-97440276D01*
X120016741Y-97440276D02*
X119969122Y-97535514D01*
X119969122Y-97535514D02*
X119921503Y-97725990D01*
X119921503Y-97725990D02*
X119921503Y-97868847D01*
X119921503Y-97868847D02*
X119969122Y-98059323D01*
X119969122Y-98059323D02*
X120016741Y-98154561D01*
X120016741Y-98154561D02*
X120111979Y-98249800D01*
X120111979Y-98249800D02*
X120254836Y-98297419D01*
X120254836Y-98297419D02*
X120350074Y-98297419D01*
X120350074Y-98297419D02*
X120492931Y-98249800D01*
X120492931Y-98249800D02*
X120540550Y-98202180D01*
X120540550Y-98202180D02*
X120540550Y-97868847D01*
X120540550Y-97868847D02*
X120350074Y-97868847D01*
X120969122Y-98297419D02*
X120969122Y-97297419D01*
X120969122Y-97297419D02*
X121540550Y-98297419D01*
X121540550Y-98297419D02*
X121540550Y-97297419D01*
X122016741Y-98297419D02*
X122016741Y-97297419D01*
X122016741Y-97297419D02*
X122254836Y-97297419D01*
X122254836Y-97297419D02*
X122397693Y-97345038D01*
X122397693Y-97345038D02*
X122492931Y-97440276D01*
X122492931Y-97440276D02*
X122540550Y-97535514D01*
X122540550Y-97535514D02*
X122588169Y-97725990D01*
X122588169Y-97725990D02*
X122588169Y-97868847D01*
X122588169Y-97868847D02*
X122540550Y-98059323D01*
X122540550Y-98059323D02*
X122492931Y-98154561D01*
X122492931Y-98154561D02*
X122397693Y-98249800D01*
X122397693Y-98249800D02*
X122254836Y-98297419D01*
X122254836Y-98297419D02*
X122016741Y-98297419D01*
X80948884Y-117302531D02*
X80948884Y-116302531D01*
X80948884Y-116302531D02*
X81282217Y-117016816D01*
X81282217Y-117016816D02*
X81615550Y-116302531D01*
X81615550Y-116302531D02*
X81615550Y-117302531D01*
X82234598Y-117302531D02*
X82139360Y-117254912D01*
X82139360Y-117254912D02*
X82091741Y-117207292D01*
X82091741Y-117207292D02*
X82044122Y-117112054D01*
X82044122Y-117112054D02*
X82044122Y-116826340D01*
X82044122Y-116826340D02*
X82091741Y-116731102D01*
X82091741Y-116731102D02*
X82139360Y-116683483D01*
X82139360Y-116683483D02*
X82234598Y-116635864D01*
X82234598Y-116635864D02*
X82377455Y-116635864D01*
X82377455Y-116635864D02*
X82472693Y-116683483D01*
X82472693Y-116683483D02*
X82520312Y-116731102D01*
X82520312Y-116731102D02*
X82567931Y-116826340D01*
X82567931Y-116826340D02*
X82567931Y-117112054D01*
X82567931Y-117112054D02*
X82520312Y-117207292D01*
X82520312Y-117207292D02*
X82472693Y-117254912D01*
X82472693Y-117254912D02*
X82377455Y-117302531D01*
X82377455Y-117302531D02*
X82234598Y-117302531D01*
X82996503Y-116635864D02*
X82996503Y-117302531D01*
X82996503Y-116731102D02*
X83044122Y-116683483D01*
X83044122Y-116683483D02*
X83139360Y-116635864D01*
X83139360Y-116635864D02*
X83282217Y-116635864D01*
X83282217Y-116635864D02*
X83377455Y-116683483D01*
X83377455Y-116683483D02*
X83425074Y-116778721D01*
X83425074Y-116778721D02*
X83425074Y-117302531D01*
X83901265Y-117302531D02*
X83901265Y-116635864D01*
X83901265Y-116826340D02*
X83948884Y-116731102D01*
X83948884Y-116731102D02*
X83996503Y-116683483D01*
X83996503Y-116683483D02*
X84091741Y-116635864D01*
X84091741Y-116635864D02*
X84186979Y-116635864D01*
X84663170Y-117302531D02*
X84567932Y-117254912D01*
X84567932Y-117254912D02*
X84520313Y-117207292D01*
X84520313Y-117207292D02*
X84472694Y-117112054D01*
X84472694Y-117112054D02*
X84472694Y-116826340D01*
X84472694Y-116826340D02*
X84520313Y-116731102D01*
X84520313Y-116731102D02*
X84567932Y-116683483D01*
X84567932Y-116683483D02*
X84663170Y-116635864D01*
X84663170Y-116635864D02*
X84806027Y-116635864D01*
X84806027Y-116635864D02*
X84901265Y-116683483D01*
X84901265Y-116683483D02*
X84948884Y-116731102D01*
X84948884Y-116731102D02*
X84996503Y-116826340D01*
X84996503Y-116826340D02*
X84996503Y-117112054D01*
X84996503Y-117112054D02*
X84948884Y-117207292D01*
X84948884Y-117207292D02*
X84901265Y-117254912D01*
X84901265Y-117254912D02*
X84806027Y-117302531D01*
X84806027Y-117302531D02*
X84663170Y-117302531D01*
X85806027Y-117254912D02*
X85710789Y-117302531D01*
X85710789Y-117302531D02*
X85520313Y-117302531D01*
X85520313Y-117302531D02*
X85425075Y-117254912D01*
X85425075Y-117254912D02*
X85377456Y-117159673D01*
X85377456Y-117159673D02*
X85377456Y-116778721D01*
X85377456Y-116778721D02*
X85425075Y-116683483D01*
X85425075Y-116683483D02*
X85520313Y-116635864D01*
X85520313Y-116635864D02*
X85710789Y-116635864D01*
X85710789Y-116635864D02*
X85806027Y-116683483D01*
X85806027Y-116683483D02*
X85853646Y-116778721D01*
X85853646Y-116778721D02*
X85853646Y-116873959D01*
X85853646Y-116873959D02*
X85377456Y-116969197D01*
X86996504Y-116397769D02*
X87044123Y-116350150D01*
X87044123Y-116350150D02*
X87139361Y-116302531D01*
X87139361Y-116302531D02*
X87377456Y-116302531D01*
X87377456Y-116302531D02*
X87472694Y-116350150D01*
X87472694Y-116350150D02*
X87520313Y-116397769D01*
X87520313Y-116397769D02*
X87567932Y-116493007D01*
X87567932Y-116493007D02*
X87567932Y-116588245D01*
X87567932Y-116588245D02*
X87520313Y-116731102D01*
X87520313Y-116731102D02*
X86948885Y-117302531D01*
X86948885Y-117302531D02*
X87567932Y-117302531D01*
X88139361Y-116731102D02*
X88044123Y-116683483D01*
X88044123Y-116683483D02*
X87996504Y-116635864D01*
X87996504Y-116635864D02*
X87948885Y-116540626D01*
X87948885Y-116540626D02*
X87948885Y-116493007D01*
X87948885Y-116493007D02*
X87996504Y-116397769D01*
X87996504Y-116397769D02*
X88044123Y-116350150D01*
X88044123Y-116350150D02*
X88139361Y-116302531D01*
X88139361Y-116302531D02*
X88329837Y-116302531D01*
X88329837Y-116302531D02*
X88425075Y-116350150D01*
X88425075Y-116350150D02*
X88472694Y-116397769D01*
X88472694Y-116397769D02*
X88520313Y-116493007D01*
X88520313Y-116493007D02*
X88520313Y-116540626D01*
X88520313Y-116540626D02*
X88472694Y-116635864D01*
X88472694Y-116635864D02*
X88425075Y-116683483D01*
X88425075Y-116683483D02*
X88329837Y-116731102D01*
X88329837Y-116731102D02*
X88139361Y-116731102D01*
X88139361Y-116731102D02*
X88044123Y-116778721D01*
X88044123Y-116778721D02*
X87996504Y-116826340D01*
X87996504Y-116826340D02*
X87948885Y-116921578D01*
X87948885Y-116921578D02*
X87948885Y-117112054D01*
X87948885Y-117112054D02*
X87996504Y-117207292D01*
X87996504Y-117207292D02*
X88044123Y-117254912D01*
X88044123Y-117254912D02*
X88139361Y-117302531D01*
X88139361Y-117302531D02*
X88329837Y-117302531D01*
X88329837Y-117302531D02*
X88425075Y-117254912D01*
X88425075Y-117254912D02*
X88472694Y-117207292D01*
X88472694Y-117207292D02*
X88520313Y-117112054D01*
X88520313Y-117112054D02*
X88520313Y-116921578D01*
X88520313Y-116921578D02*
X88472694Y-116826340D01*
X88472694Y-116826340D02*
X88425075Y-116778721D01*
X88425075Y-116778721D02*
X88329837Y-116731102D01*
X88996504Y-117302531D02*
X89186980Y-117302531D01*
X89186980Y-117302531D02*
X89282218Y-117254912D01*
X89282218Y-117254912D02*
X89329837Y-117207292D01*
X89329837Y-117207292D02*
X89425075Y-117064435D01*
X89425075Y-117064435D02*
X89472694Y-116873959D01*
X89472694Y-116873959D02*
X89472694Y-116493007D01*
X89472694Y-116493007D02*
X89425075Y-116397769D01*
X89425075Y-116397769D02*
X89377456Y-116350150D01*
X89377456Y-116350150D02*
X89282218Y-116302531D01*
X89282218Y-116302531D02*
X89091742Y-116302531D01*
X89091742Y-116302531D02*
X88996504Y-116350150D01*
X88996504Y-116350150D02*
X88948885Y-116397769D01*
X88948885Y-116397769D02*
X88901266Y-116493007D01*
X88901266Y-116493007D02*
X88901266Y-116731102D01*
X88901266Y-116731102D02*
X88948885Y-116826340D01*
X88948885Y-116826340D02*
X88996504Y-116873959D01*
X88996504Y-116873959D02*
X89091742Y-116921578D01*
X89091742Y-116921578D02*
X89282218Y-116921578D01*
X89282218Y-116921578D02*
X89377456Y-116873959D01*
X89377456Y-116873959D02*
X89425075Y-116826340D01*
X89425075Y-116826340D02*
X89472694Y-116731102D01*
X90091742Y-116302531D02*
X90186980Y-116302531D01*
X90186980Y-116302531D02*
X90282218Y-116350150D01*
X90282218Y-116350150D02*
X90329837Y-116397769D01*
X90329837Y-116397769D02*
X90377456Y-116493007D01*
X90377456Y-116493007D02*
X90425075Y-116683483D01*
X90425075Y-116683483D02*
X90425075Y-116921578D01*
X90425075Y-116921578D02*
X90377456Y-117112054D01*
X90377456Y-117112054D02*
X90329837Y-117207292D01*
X90329837Y-117207292D02*
X90282218Y-117254912D01*
X90282218Y-117254912D02*
X90186980Y-117302531D01*
X90186980Y-117302531D02*
X90091742Y-117302531D01*
X90091742Y-117302531D02*
X89996504Y-117254912D01*
X89996504Y-117254912D02*
X89948885Y-117207292D01*
X89948885Y-117207292D02*
X89901266Y-117112054D01*
X89901266Y-117112054D02*
X89853647Y-116921578D01*
X89853647Y-116921578D02*
X89853647Y-116683483D01*
X89853647Y-116683483D02*
X89901266Y-116493007D01*
X89901266Y-116493007D02*
X89948885Y-116397769D01*
X89948885Y-116397769D02*
X89996504Y-116350150D01*
X89996504Y-116350150D02*
X90091742Y-116302531D01*
X91615552Y-117302531D02*
X91615552Y-116302531D01*
X91615552Y-116302531D02*
X91996504Y-116302531D01*
X91996504Y-116302531D02*
X92091742Y-116350150D01*
X92091742Y-116350150D02*
X92139361Y-116397769D01*
X92139361Y-116397769D02*
X92186980Y-116493007D01*
X92186980Y-116493007D02*
X92186980Y-116635864D01*
X92186980Y-116635864D02*
X92139361Y-116731102D01*
X92139361Y-116731102D02*
X92091742Y-116778721D01*
X92091742Y-116778721D02*
X91996504Y-116826340D01*
X91996504Y-116826340D02*
X91615552Y-116826340D01*
X92615552Y-117302531D02*
X92615552Y-116635864D01*
X92615552Y-116302531D02*
X92567933Y-116350150D01*
X92567933Y-116350150D02*
X92615552Y-116397769D01*
X92615552Y-116397769D02*
X92663171Y-116350150D01*
X92663171Y-116350150D02*
X92615552Y-116302531D01*
X92615552Y-116302531D02*
X92615552Y-116397769D01*
X93520313Y-117254912D02*
X93425075Y-117302531D01*
X93425075Y-117302531D02*
X93234599Y-117302531D01*
X93234599Y-117302531D02*
X93139361Y-117254912D01*
X93139361Y-117254912D02*
X93091742Y-117207292D01*
X93091742Y-117207292D02*
X93044123Y-117112054D01*
X93044123Y-117112054D02*
X93044123Y-116826340D01*
X93044123Y-116826340D02*
X93091742Y-116731102D01*
X93091742Y-116731102D02*
X93139361Y-116683483D01*
X93139361Y-116683483D02*
X93234599Y-116635864D01*
X93234599Y-116635864D02*
X93425075Y-116635864D01*
X93425075Y-116635864D02*
X93520313Y-116683483D01*
X94091742Y-117302531D02*
X93996504Y-117254912D01*
X93996504Y-117254912D02*
X93948885Y-117207292D01*
X93948885Y-117207292D02*
X93901266Y-117112054D01*
X93901266Y-117112054D02*
X93901266Y-116826340D01*
X93901266Y-116826340D02*
X93948885Y-116731102D01*
X93948885Y-116731102D02*
X93996504Y-116683483D01*
X93996504Y-116683483D02*
X94091742Y-116635864D01*
X94091742Y-116635864D02*
X94234599Y-116635864D01*
X94234599Y-116635864D02*
X94329837Y-116683483D01*
X94329837Y-116683483D02*
X94377456Y-116731102D01*
X94377456Y-116731102D02*
X94425075Y-116826340D01*
X94425075Y-116826340D02*
X94425075Y-117112054D01*
X94425075Y-117112054D02*
X94377456Y-117207292D01*
X94377456Y-117207292D02*
X94329837Y-117254912D01*
X94329837Y-117254912D02*
X94234599Y-117302531D01*
X94234599Y-117302531D02*
X94091742Y-117302531D01*
X96044123Y-117254912D02*
X95948885Y-117302531D01*
X95948885Y-117302531D02*
X95758409Y-117302531D01*
X95758409Y-117302531D02*
X95663171Y-117254912D01*
X95663171Y-117254912D02*
X95615552Y-117207292D01*
X95615552Y-117207292D02*
X95567933Y-117112054D01*
X95567933Y-117112054D02*
X95567933Y-116826340D01*
X95567933Y-116826340D02*
X95615552Y-116731102D01*
X95615552Y-116731102D02*
X95663171Y-116683483D01*
X95663171Y-116683483D02*
X95758409Y-116635864D01*
X95758409Y-116635864D02*
X95948885Y-116635864D01*
X95948885Y-116635864D02*
X96044123Y-116683483D01*
X96901266Y-117302531D02*
X96901266Y-116778721D01*
X96901266Y-116778721D02*
X96853647Y-116683483D01*
X96853647Y-116683483D02*
X96758409Y-116635864D01*
X96758409Y-116635864D02*
X96567933Y-116635864D01*
X96567933Y-116635864D02*
X96472695Y-116683483D01*
X96901266Y-117254912D02*
X96806028Y-117302531D01*
X96806028Y-117302531D02*
X96567933Y-117302531D01*
X96567933Y-117302531D02*
X96472695Y-117254912D01*
X96472695Y-117254912D02*
X96425076Y-117159673D01*
X96425076Y-117159673D02*
X96425076Y-117064435D01*
X96425076Y-117064435D02*
X96472695Y-116969197D01*
X96472695Y-116969197D02*
X96567933Y-116921578D01*
X96567933Y-116921578D02*
X96806028Y-116921578D01*
X96806028Y-116921578D02*
X96901266Y-116873959D01*
X97377457Y-117302531D02*
X97377457Y-116635864D01*
X97377457Y-116826340D02*
X97425076Y-116731102D01*
X97425076Y-116731102D02*
X97472695Y-116683483D01*
X97472695Y-116683483D02*
X97567933Y-116635864D01*
X97567933Y-116635864D02*
X97663171Y-116635864D01*
X97853648Y-116635864D02*
X98234600Y-116635864D01*
X97996505Y-116302531D02*
X97996505Y-117159673D01*
X97996505Y-117159673D02*
X98044124Y-117254912D01*
X98044124Y-117254912D02*
X98139362Y-117302531D01*
X98139362Y-117302531D02*
X98234600Y-117302531D01*
X98567934Y-117302531D02*
X98567934Y-116635864D01*
X98567934Y-116826340D02*
X98615553Y-116731102D01*
X98615553Y-116731102D02*
X98663172Y-116683483D01*
X98663172Y-116683483D02*
X98758410Y-116635864D01*
X98758410Y-116635864D02*
X98853648Y-116635864D01*
X99186982Y-117302531D02*
X99186982Y-116635864D01*
X99186982Y-116302531D02*
X99139363Y-116350150D01*
X99139363Y-116350150D02*
X99186982Y-116397769D01*
X99186982Y-116397769D02*
X99234601Y-116350150D01*
X99234601Y-116350150D02*
X99186982Y-116302531D01*
X99186982Y-116302531D02*
X99186982Y-116397769D01*
X100091743Y-117302531D02*
X100091743Y-116302531D01*
X100091743Y-117254912D02*
X99996505Y-117302531D01*
X99996505Y-117302531D02*
X99806029Y-117302531D01*
X99806029Y-117302531D02*
X99710791Y-117254912D01*
X99710791Y-117254912D02*
X99663172Y-117207292D01*
X99663172Y-117207292D02*
X99615553Y-117112054D01*
X99615553Y-117112054D02*
X99615553Y-116826340D01*
X99615553Y-116826340D02*
X99663172Y-116731102D01*
X99663172Y-116731102D02*
X99710791Y-116683483D01*
X99710791Y-116683483D02*
X99806029Y-116635864D01*
X99806029Y-116635864D02*
X99996505Y-116635864D01*
X99996505Y-116635864D02*
X100091743Y-116683483D01*
X100996505Y-116635864D02*
X100996505Y-117445388D01*
X100996505Y-117445388D02*
X100948886Y-117540626D01*
X100948886Y-117540626D02*
X100901267Y-117588245D01*
X100901267Y-117588245D02*
X100806029Y-117635864D01*
X100806029Y-117635864D02*
X100663172Y-117635864D01*
X100663172Y-117635864D02*
X100567934Y-117588245D01*
X100996505Y-117254912D02*
X100901267Y-117302531D01*
X100901267Y-117302531D02*
X100710791Y-117302531D01*
X100710791Y-117302531D02*
X100615553Y-117254912D01*
X100615553Y-117254912D02*
X100567934Y-117207292D01*
X100567934Y-117207292D02*
X100520315Y-117112054D01*
X100520315Y-117112054D02*
X100520315Y-116826340D01*
X100520315Y-116826340D02*
X100567934Y-116731102D01*
X100567934Y-116731102D02*
X100615553Y-116683483D01*
X100615553Y-116683483D02*
X100710791Y-116635864D01*
X100710791Y-116635864D02*
X100901267Y-116635864D01*
X100901267Y-116635864D02*
X100996505Y-116683483D01*
X101853648Y-117254912D02*
X101758410Y-117302531D01*
X101758410Y-117302531D02*
X101567934Y-117302531D01*
X101567934Y-117302531D02*
X101472696Y-117254912D01*
X101472696Y-117254912D02*
X101425077Y-117159673D01*
X101425077Y-117159673D02*
X101425077Y-116778721D01*
X101425077Y-116778721D02*
X101472696Y-116683483D01*
X101472696Y-116683483D02*
X101567934Y-116635864D01*
X101567934Y-116635864D02*
X101758410Y-116635864D01*
X101758410Y-116635864D02*
X101853648Y-116683483D01*
X101853648Y-116683483D02*
X101901267Y-116778721D01*
X101901267Y-116778721D02*
X101901267Y-116873959D01*
X101901267Y-116873959D02*
X101425077Y-116969197D01*
X80806027Y-117912475D02*
X81139360Y-118912475D01*
X81139360Y-118912475D02*
X81472693Y-117912475D01*
X82329836Y-118912475D02*
X81758408Y-118912475D01*
X82044122Y-118912475D02*
X82044122Y-117912475D01*
X82044122Y-117912475D02*
X81948884Y-118055332D01*
X81948884Y-118055332D02*
X81853646Y-118150570D01*
X81853646Y-118150570D02*
X81758408Y-118198189D01*
X82758408Y-118817236D02*
X82806027Y-118864856D01*
X82806027Y-118864856D02*
X82758408Y-118912475D01*
X82758408Y-118912475D02*
X82710789Y-118864856D01*
X82710789Y-118864856D02*
X82758408Y-118817236D01*
X82758408Y-118817236D02*
X82758408Y-118912475D01*
X83758407Y-118912475D02*
X83186979Y-118912475D01*
X83472693Y-118912475D02*
X83472693Y-117912475D01*
X83472693Y-117912475D02*
X83377455Y-118055332D01*
X83377455Y-118055332D02*
X83282217Y-118150570D01*
X83282217Y-118150570D02*
X83186979Y-118198189D01*
X85663170Y-118626760D02*
X86139360Y-118626760D01*
X85567932Y-118912475D02*
X85901265Y-117912475D01*
X85901265Y-117912475D02*
X86234598Y-118912475D01*
X86567932Y-118245808D02*
X86567932Y-119245808D01*
X86567932Y-118293427D02*
X86663170Y-118245808D01*
X86663170Y-118245808D02*
X86853646Y-118245808D01*
X86853646Y-118245808D02*
X86948884Y-118293427D01*
X86948884Y-118293427D02*
X86996503Y-118341046D01*
X86996503Y-118341046D02*
X87044122Y-118436284D01*
X87044122Y-118436284D02*
X87044122Y-118721998D01*
X87044122Y-118721998D02*
X86996503Y-118817236D01*
X86996503Y-118817236D02*
X86948884Y-118864856D01*
X86948884Y-118864856D02*
X86853646Y-118912475D01*
X86853646Y-118912475D02*
X86663170Y-118912475D01*
X86663170Y-118912475D02*
X86567932Y-118864856D01*
X87472694Y-118912475D02*
X87472694Y-118245808D01*
X87472694Y-118436284D02*
X87520313Y-118341046D01*
X87520313Y-118341046D02*
X87567932Y-118293427D01*
X87567932Y-118293427D02*
X87663170Y-118245808D01*
X87663170Y-118245808D02*
X87758408Y-118245808D01*
X88091742Y-118912475D02*
X88091742Y-118245808D01*
X88091742Y-117912475D02*
X88044123Y-117960094D01*
X88044123Y-117960094D02*
X88091742Y-118007713D01*
X88091742Y-118007713D02*
X88139361Y-117960094D01*
X88139361Y-117960094D02*
X88091742Y-117912475D01*
X88091742Y-117912475D02*
X88091742Y-118007713D01*
X88710789Y-118912475D02*
X88615551Y-118864856D01*
X88615551Y-118864856D02*
X88567932Y-118769617D01*
X88567932Y-118769617D02*
X88567932Y-117912475D01*
X89806028Y-118007713D02*
X89853647Y-117960094D01*
X89853647Y-117960094D02*
X89948885Y-117912475D01*
X89948885Y-117912475D02*
X90186980Y-117912475D01*
X90186980Y-117912475D02*
X90282218Y-117960094D01*
X90282218Y-117960094D02*
X90329837Y-118007713D01*
X90329837Y-118007713D02*
X90377456Y-118102951D01*
X90377456Y-118102951D02*
X90377456Y-118198189D01*
X90377456Y-118198189D02*
X90329837Y-118341046D01*
X90329837Y-118341046D02*
X89758409Y-118912475D01*
X89758409Y-118912475D02*
X90377456Y-118912475D01*
X90996504Y-117912475D02*
X91091742Y-117912475D01*
X91091742Y-117912475D02*
X91186980Y-117960094D01*
X91186980Y-117960094D02*
X91234599Y-118007713D01*
X91234599Y-118007713D02*
X91282218Y-118102951D01*
X91282218Y-118102951D02*
X91329837Y-118293427D01*
X91329837Y-118293427D02*
X91329837Y-118531522D01*
X91329837Y-118531522D02*
X91282218Y-118721998D01*
X91282218Y-118721998D02*
X91234599Y-118817236D01*
X91234599Y-118817236D02*
X91186980Y-118864856D01*
X91186980Y-118864856D02*
X91091742Y-118912475D01*
X91091742Y-118912475D02*
X90996504Y-118912475D01*
X90996504Y-118912475D02*
X90901266Y-118864856D01*
X90901266Y-118864856D02*
X90853647Y-118817236D01*
X90853647Y-118817236D02*
X90806028Y-118721998D01*
X90806028Y-118721998D02*
X90758409Y-118531522D01*
X90758409Y-118531522D02*
X90758409Y-118293427D01*
X90758409Y-118293427D02*
X90806028Y-118102951D01*
X90806028Y-118102951D02*
X90853647Y-118007713D01*
X90853647Y-118007713D02*
X90901266Y-117960094D01*
X90901266Y-117960094D02*
X90996504Y-117912475D01*
X91710790Y-118007713D02*
X91758409Y-117960094D01*
X91758409Y-117960094D02*
X91853647Y-117912475D01*
X91853647Y-117912475D02*
X92091742Y-117912475D01*
X92091742Y-117912475D02*
X92186980Y-117960094D01*
X92186980Y-117960094D02*
X92234599Y-118007713D01*
X92234599Y-118007713D02*
X92282218Y-118102951D01*
X92282218Y-118102951D02*
X92282218Y-118198189D01*
X92282218Y-118198189D02*
X92234599Y-118341046D01*
X92234599Y-118341046D02*
X91663171Y-118912475D01*
X91663171Y-118912475D02*
X92282218Y-118912475D01*
X93139361Y-117912475D02*
X92948885Y-117912475D01*
X92948885Y-117912475D02*
X92853647Y-117960094D01*
X92853647Y-117960094D02*
X92806028Y-118007713D01*
X92806028Y-118007713D02*
X92710790Y-118150570D01*
X92710790Y-118150570D02*
X92663171Y-118341046D01*
X92663171Y-118341046D02*
X92663171Y-118721998D01*
X92663171Y-118721998D02*
X92710790Y-118817236D01*
X92710790Y-118817236D02*
X92758409Y-118864856D01*
X92758409Y-118864856D02*
X92853647Y-118912475D01*
X92853647Y-118912475D02*
X93044123Y-118912475D01*
X93044123Y-118912475D02*
X93139361Y-118864856D01*
X93139361Y-118864856D02*
X93186980Y-118817236D01*
X93186980Y-118817236D02*
X93234599Y-118721998D01*
X93234599Y-118721998D02*
X93234599Y-118483903D01*
X93234599Y-118483903D02*
X93186980Y-118388665D01*
X93186980Y-118388665D02*
X93139361Y-118341046D01*
X93139361Y-118341046D02*
X93044123Y-118293427D01*
X93044123Y-118293427D02*
X92853647Y-118293427D01*
X92853647Y-118293427D02*
X92758409Y-118341046D01*
X92758409Y-118341046D02*
X92710790Y-118388665D01*
X92710790Y-118388665D02*
X92663171Y-118483903D01*
X80948884Y-120522419D02*
X80948884Y-119855752D01*
X80948884Y-119950990D02*
X80996503Y-119903371D01*
X80996503Y-119903371D02*
X81091741Y-119855752D01*
X81091741Y-119855752D02*
X81234598Y-119855752D01*
X81234598Y-119855752D02*
X81329836Y-119903371D01*
X81329836Y-119903371D02*
X81377455Y-119998609D01*
X81377455Y-119998609D02*
X81377455Y-120522419D01*
X81377455Y-119998609D02*
X81425074Y-119903371D01*
X81425074Y-119903371D02*
X81520312Y-119855752D01*
X81520312Y-119855752D02*
X81663169Y-119855752D01*
X81663169Y-119855752D02*
X81758408Y-119903371D01*
X81758408Y-119903371D02*
X81806027Y-119998609D01*
X81806027Y-119998609D02*
X81806027Y-120522419D01*
X82663169Y-120474800D02*
X82567931Y-120522419D01*
X82567931Y-120522419D02*
X82377455Y-120522419D01*
X82377455Y-120522419D02*
X82282217Y-120474800D01*
X82282217Y-120474800D02*
X82234598Y-120379561D01*
X82234598Y-120379561D02*
X82234598Y-119998609D01*
X82234598Y-119998609D02*
X82282217Y-119903371D01*
X82282217Y-119903371D02*
X82377455Y-119855752D01*
X82377455Y-119855752D02*
X82567931Y-119855752D01*
X82567931Y-119855752D02*
X82663169Y-119903371D01*
X82663169Y-119903371D02*
X82710788Y-119998609D01*
X82710788Y-119998609D02*
X82710788Y-120093847D01*
X82710788Y-120093847D02*
X82234598Y-120189085D01*
X83139360Y-119855752D02*
X83139360Y-120522419D01*
X83139360Y-119950990D02*
X83186979Y-119903371D01*
X83186979Y-119903371D02*
X83282217Y-119855752D01*
X83282217Y-119855752D02*
X83425074Y-119855752D01*
X83425074Y-119855752D02*
X83520312Y-119903371D01*
X83520312Y-119903371D02*
X83567931Y-119998609D01*
X83567931Y-119998609D02*
X83567931Y-120522419D01*
X84472693Y-120522419D02*
X84472693Y-119998609D01*
X84472693Y-119998609D02*
X84425074Y-119903371D01*
X84425074Y-119903371D02*
X84329836Y-119855752D01*
X84329836Y-119855752D02*
X84139360Y-119855752D01*
X84139360Y-119855752D02*
X84044122Y-119903371D01*
X84472693Y-120474800D02*
X84377455Y-120522419D01*
X84377455Y-120522419D02*
X84139360Y-120522419D01*
X84139360Y-120522419D02*
X84044122Y-120474800D01*
X84044122Y-120474800D02*
X83996503Y-120379561D01*
X83996503Y-120379561D02*
X83996503Y-120284323D01*
X83996503Y-120284323D02*
X84044122Y-120189085D01*
X84044122Y-120189085D02*
X84139360Y-120141466D01*
X84139360Y-120141466D02*
X84377455Y-120141466D01*
X84377455Y-120141466D02*
X84472693Y-120093847D01*
X85377455Y-120522419D02*
X85377455Y-119522419D01*
X85377455Y-120474800D02*
X85282217Y-120522419D01*
X85282217Y-120522419D02*
X85091741Y-120522419D01*
X85091741Y-120522419D02*
X84996503Y-120474800D01*
X84996503Y-120474800D02*
X84948884Y-120427180D01*
X84948884Y-120427180D02*
X84901265Y-120331942D01*
X84901265Y-120331942D02*
X84901265Y-120046228D01*
X84901265Y-120046228D02*
X84948884Y-119950990D01*
X84948884Y-119950990D02*
X84996503Y-119903371D01*
X84996503Y-119903371D02*
X85091741Y-119855752D01*
X85091741Y-119855752D02*
X85282217Y-119855752D01*
X85282217Y-119855752D02*
X85377455Y-119903371D01*
X86282217Y-119855752D02*
X86282217Y-120522419D01*
X85853646Y-119855752D02*
X85853646Y-120379561D01*
X85853646Y-120379561D02*
X85901265Y-120474800D01*
X85901265Y-120474800D02*
X85996503Y-120522419D01*
X85996503Y-120522419D02*
X86139360Y-120522419D01*
X86139360Y-120522419D02*
X86234598Y-120474800D01*
X86234598Y-120474800D02*
X86282217Y-120427180D01*
X87139360Y-120474800D02*
X87044122Y-120522419D01*
X87044122Y-120522419D02*
X86853646Y-120522419D01*
X86853646Y-120522419D02*
X86758408Y-120474800D01*
X86758408Y-120474800D02*
X86710789Y-120379561D01*
X86710789Y-120379561D02*
X86710789Y-119998609D01*
X86710789Y-119998609D02*
X86758408Y-119903371D01*
X86758408Y-119903371D02*
X86853646Y-119855752D01*
X86853646Y-119855752D02*
X87044122Y-119855752D01*
X87044122Y-119855752D02*
X87139360Y-119903371D01*
X87139360Y-119903371D02*
X87186979Y-119998609D01*
X87186979Y-119998609D02*
X87186979Y-120093847D01*
X87186979Y-120093847D02*
X86710789Y-120189085D01*
X88234598Y-120046228D02*
X88186979Y-119998609D01*
X88186979Y-119998609D02*
X88091741Y-119950990D01*
X88091741Y-119950990D02*
X87996503Y-119950990D01*
X87996503Y-119950990D02*
X87901265Y-119998609D01*
X87901265Y-119998609D02*
X87853646Y-120046228D01*
X87853646Y-120046228D02*
X87806027Y-120141466D01*
X87806027Y-120141466D02*
X87806027Y-120236704D01*
X87806027Y-120236704D02*
X87853646Y-120331942D01*
X87853646Y-120331942D02*
X87901265Y-120379561D01*
X87901265Y-120379561D02*
X87996503Y-120427180D01*
X87996503Y-120427180D02*
X88091741Y-120427180D01*
X88091741Y-120427180D02*
X88186979Y-120379561D01*
X88186979Y-120379561D02*
X88234598Y-120331942D01*
X88234598Y-119950990D02*
X88234598Y-120331942D01*
X88234598Y-120331942D02*
X88282217Y-120379561D01*
X88282217Y-120379561D02*
X88329836Y-120379561D01*
X88329836Y-120379561D02*
X88425075Y-120331942D01*
X88425075Y-120331942D02*
X88472694Y-120236704D01*
X88472694Y-120236704D02*
X88472694Y-119998609D01*
X88472694Y-119998609D02*
X88377456Y-119855752D01*
X88377456Y-119855752D02*
X88234598Y-119760514D01*
X88234598Y-119760514D02*
X88044122Y-119712895D01*
X88044122Y-119712895D02*
X87853646Y-119760514D01*
X87853646Y-119760514D02*
X87710789Y-119855752D01*
X87710789Y-119855752D02*
X87615551Y-119998609D01*
X87615551Y-119998609D02*
X87567932Y-120189085D01*
X87567932Y-120189085D02*
X87615551Y-120379561D01*
X87615551Y-120379561D02*
X87710789Y-120522419D01*
X87710789Y-120522419D02*
X87853646Y-120617657D01*
X87853646Y-120617657D02*
X88044122Y-120665276D01*
X88044122Y-120665276D02*
X88234598Y-120617657D01*
X88234598Y-120617657D02*
X88377456Y-120522419D01*
X89329836Y-119855752D02*
X89329836Y-120665276D01*
X89329836Y-120665276D02*
X89282217Y-120760514D01*
X89282217Y-120760514D02*
X89234598Y-120808133D01*
X89234598Y-120808133D02*
X89139360Y-120855752D01*
X89139360Y-120855752D02*
X88996503Y-120855752D01*
X88996503Y-120855752D02*
X88901265Y-120808133D01*
X89329836Y-120474800D02*
X89234598Y-120522419D01*
X89234598Y-120522419D02*
X89044122Y-120522419D01*
X89044122Y-120522419D02*
X88948884Y-120474800D01*
X88948884Y-120474800D02*
X88901265Y-120427180D01*
X88901265Y-120427180D02*
X88853646Y-120331942D01*
X88853646Y-120331942D02*
X88853646Y-120046228D01*
X88853646Y-120046228D02*
X88901265Y-119950990D01*
X88901265Y-119950990D02*
X88948884Y-119903371D01*
X88948884Y-119903371D02*
X89044122Y-119855752D01*
X89044122Y-119855752D02*
X89234598Y-119855752D01*
X89234598Y-119855752D02*
X89329836Y-119903371D01*
X89806027Y-120522419D02*
X89806027Y-119855752D01*
X89806027Y-119950990D02*
X89853646Y-119903371D01*
X89853646Y-119903371D02*
X89948884Y-119855752D01*
X89948884Y-119855752D02*
X90091741Y-119855752D01*
X90091741Y-119855752D02*
X90186979Y-119903371D01*
X90186979Y-119903371D02*
X90234598Y-119998609D01*
X90234598Y-119998609D02*
X90234598Y-120522419D01*
X90234598Y-119998609D02*
X90282217Y-119903371D01*
X90282217Y-119903371D02*
X90377455Y-119855752D01*
X90377455Y-119855752D02*
X90520312Y-119855752D01*
X90520312Y-119855752D02*
X90615551Y-119903371D01*
X90615551Y-119903371D02*
X90663170Y-119998609D01*
X90663170Y-119998609D02*
X90663170Y-120522419D01*
X91567931Y-120522419D02*
X91567931Y-119998609D01*
X91567931Y-119998609D02*
X91520312Y-119903371D01*
X91520312Y-119903371D02*
X91425074Y-119855752D01*
X91425074Y-119855752D02*
X91234598Y-119855752D01*
X91234598Y-119855752D02*
X91139360Y-119903371D01*
X91567931Y-120474800D02*
X91472693Y-120522419D01*
X91472693Y-120522419D02*
X91234598Y-120522419D01*
X91234598Y-120522419D02*
X91139360Y-120474800D01*
X91139360Y-120474800D02*
X91091741Y-120379561D01*
X91091741Y-120379561D02*
X91091741Y-120284323D01*
X91091741Y-120284323D02*
X91139360Y-120189085D01*
X91139360Y-120189085D02*
X91234598Y-120141466D01*
X91234598Y-120141466D02*
X91472693Y-120141466D01*
X91472693Y-120141466D02*
X91567931Y-120093847D01*
X92044122Y-120522419D02*
X92044122Y-119855752D01*
X92044122Y-119522419D02*
X91996503Y-119570038D01*
X91996503Y-119570038D02*
X92044122Y-119617657D01*
X92044122Y-119617657D02*
X92091741Y-119570038D01*
X92091741Y-119570038D02*
X92044122Y-119522419D01*
X92044122Y-119522419D02*
X92044122Y-119617657D01*
X92663169Y-120522419D02*
X92567931Y-120474800D01*
X92567931Y-120474800D02*
X92520312Y-120379561D01*
X92520312Y-120379561D02*
X92520312Y-119522419D01*
X93044122Y-120427180D02*
X93091741Y-120474800D01*
X93091741Y-120474800D02*
X93044122Y-120522419D01*
X93044122Y-120522419D02*
X92996503Y-120474800D01*
X92996503Y-120474800D02*
X93044122Y-120427180D01*
X93044122Y-120427180D02*
X93044122Y-120522419D01*
X93948883Y-120474800D02*
X93853645Y-120522419D01*
X93853645Y-120522419D02*
X93663169Y-120522419D01*
X93663169Y-120522419D02*
X93567931Y-120474800D01*
X93567931Y-120474800D02*
X93520312Y-120427180D01*
X93520312Y-120427180D02*
X93472693Y-120331942D01*
X93472693Y-120331942D02*
X93472693Y-120046228D01*
X93472693Y-120046228D02*
X93520312Y-119950990D01*
X93520312Y-119950990D02*
X93567931Y-119903371D01*
X93567931Y-119903371D02*
X93663169Y-119855752D01*
X93663169Y-119855752D02*
X93853645Y-119855752D01*
X93853645Y-119855752D02*
X93948883Y-119903371D01*
X94520312Y-120522419D02*
X94425074Y-120474800D01*
X94425074Y-120474800D02*
X94377455Y-120427180D01*
X94377455Y-120427180D02*
X94329836Y-120331942D01*
X94329836Y-120331942D02*
X94329836Y-120046228D01*
X94329836Y-120046228D02*
X94377455Y-119950990D01*
X94377455Y-119950990D02*
X94425074Y-119903371D01*
X94425074Y-119903371D02*
X94520312Y-119855752D01*
X94520312Y-119855752D02*
X94663169Y-119855752D01*
X94663169Y-119855752D02*
X94758407Y-119903371D01*
X94758407Y-119903371D02*
X94806026Y-119950990D01*
X94806026Y-119950990D02*
X94853645Y-120046228D01*
X94853645Y-120046228D02*
X94853645Y-120331942D01*
X94853645Y-120331942D02*
X94806026Y-120427180D01*
X94806026Y-120427180D02*
X94758407Y-120474800D01*
X94758407Y-120474800D02*
X94663169Y-120522419D01*
X94663169Y-120522419D02*
X94520312Y-120522419D01*
X95282217Y-120522419D02*
X95282217Y-119855752D01*
X95282217Y-119950990D02*
X95329836Y-119903371D01*
X95329836Y-119903371D02*
X95425074Y-119855752D01*
X95425074Y-119855752D02*
X95567931Y-119855752D01*
X95567931Y-119855752D02*
X95663169Y-119903371D01*
X95663169Y-119903371D02*
X95710788Y-119998609D01*
X95710788Y-119998609D02*
X95710788Y-120522419D01*
X95710788Y-119998609D02*
X95758407Y-119903371D01*
X95758407Y-119903371D02*
X95853645Y-119855752D01*
X95853645Y-119855752D02*
X95996502Y-119855752D01*
X95996502Y-119855752D02*
X96091741Y-119903371D01*
X96091741Y-119903371D02*
X96139360Y-119998609D01*
X96139360Y-119998609D02*
X96139360Y-120522419D01*
X115873884Y-102107419D02*
X115873884Y-101107419D01*
X115873884Y-101107419D02*
X116254836Y-101107419D01*
X116254836Y-101107419D02*
X116350074Y-101155038D01*
X116350074Y-101155038D02*
X116397693Y-101202657D01*
X116397693Y-101202657D02*
X116445312Y-101297895D01*
X116445312Y-101297895D02*
X116445312Y-101440752D01*
X116445312Y-101440752D02*
X116397693Y-101535990D01*
X116397693Y-101535990D02*
X116350074Y-101583609D01*
X116350074Y-101583609D02*
X116254836Y-101631228D01*
X116254836Y-101631228D02*
X115873884Y-101631228D01*
X116873884Y-102107419D02*
X116873884Y-101440752D01*
X116873884Y-101107419D02*
X116826265Y-101155038D01*
X116826265Y-101155038D02*
X116873884Y-101202657D01*
X116873884Y-101202657D02*
X116921503Y-101155038D01*
X116921503Y-101155038D02*
X116873884Y-101107419D01*
X116873884Y-101107419D02*
X116873884Y-101202657D01*
X117350074Y-101440752D02*
X117350074Y-102107419D01*
X117350074Y-101535990D02*
X117397693Y-101488371D01*
X117397693Y-101488371D02*
X117492931Y-101440752D01*
X117492931Y-101440752D02*
X117635788Y-101440752D01*
X117635788Y-101440752D02*
X117731026Y-101488371D01*
X117731026Y-101488371D02*
X117778645Y-101583609D01*
X117778645Y-101583609D02*
X117778645Y-102107419D01*
X118159598Y-101107419D02*
X118778645Y-101107419D01*
X118778645Y-101107419D02*
X118445312Y-101488371D01*
X118445312Y-101488371D02*
X118588169Y-101488371D01*
X118588169Y-101488371D02*
X118683407Y-101535990D01*
X118683407Y-101535990D02*
X118731026Y-101583609D01*
X118731026Y-101583609D02*
X118778645Y-101678847D01*
X118778645Y-101678847D02*
X118778645Y-101916942D01*
X118778645Y-101916942D02*
X118731026Y-102012180D01*
X118731026Y-102012180D02*
X118683407Y-102059800D01*
X118683407Y-102059800D02*
X118588169Y-102107419D01*
X118588169Y-102107419D02*
X118302455Y-102107419D01*
X118302455Y-102107419D02*
X118207217Y-102059800D01*
X118207217Y-102059800D02*
X118159598Y-102012180D01*
X119873884Y-101107419D02*
X120492931Y-101107419D01*
X120492931Y-101107419D02*
X120159598Y-101488371D01*
X120159598Y-101488371D02*
X120302455Y-101488371D01*
X120302455Y-101488371D02*
X120397693Y-101535990D01*
X120397693Y-101535990D02*
X120445312Y-101583609D01*
X120445312Y-101583609D02*
X120492931Y-101678847D01*
X120492931Y-101678847D02*
X120492931Y-101916942D01*
X120492931Y-101916942D02*
X120445312Y-102012180D01*
X120445312Y-102012180D02*
X120397693Y-102059800D01*
X120397693Y-102059800D02*
X120302455Y-102107419D01*
X120302455Y-102107419D02*
X120016741Y-102107419D01*
X120016741Y-102107419D02*
X119921503Y-102059800D01*
X119921503Y-102059800D02*
X119873884Y-102012180D01*
X120778646Y-101107419D02*
X121111979Y-102107419D01*
X121111979Y-102107419D02*
X121445312Y-101107419D01*
X121683408Y-101107419D02*
X122302455Y-101107419D01*
X122302455Y-101107419D02*
X121969122Y-101488371D01*
X121969122Y-101488371D02*
X122111979Y-101488371D01*
X122111979Y-101488371D02*
X122207217Y-101535990D01*
X122207217Y-101535990D02*
X122254836Y-101583609D01*
X122254836Y-101583609D02*
X122302455Y-101678847D01*
X122302455Y-101678847D02*
X122302455Y-101916942D01*
X122302455Y-101916942D02*
X122254836Y-102012180D01*
X122254836Y-102012180D02*
X122207217Y-102059800D01*
X122207217Y-102059800D02*
X122111979Y-102107419D01*
X122111979Y-102107419D02*
X121826265Y-102107419D01*
X121826265Y-102107419D02*
X121731027Y-102059800D01*
X121731027Y-102059800D02*
X121683408Y-102012180D01*
X115873884Y-94487419D02*
X115873884Y-93487419D01*
X115873884Y-93487419D02*
X116254836Y-93487419D01*
X116254836Y-93487419D02*
X116350074Y-93535038D01*
X116350074Y-93535038D02*
X116397693Y-93582657D01*
X116397693Y-93582657D02*
X116445312Y-93677895D01*
X116445312Y-93677895D02*
X116445312Y-93820752D01*
X116445312Y-93820752D02*
X116397693Y-93915990D01*
X116397693Y-93915990D02*
X116350074Y-93963609D01*
X116350074Y-93963609D02*
X116254836Y-94011228D01*
X116254836Y-94011228D02*
X115873884Y-94011228D01*
X116873884Y-94487419D02*
X116873884Y-93820752D01*
X116873884Y-93487419D02*
X116826265Y-93535038D01*
X116826265Y-93535038D02*
X116873884Y-93582657D01*
X116873884Y-93582657D02*
X116921503Y-93535038D01*
X116921503Y-93535038D02*
X116873884Y-93487419D01*
X116873884Y-93487419D02*
X116873884Y-93582657D01*
X117350074Y-93820752D02*
X117350074Y-94487419D01*
X117350074Y-93915990D02*
X117397693Y-93868371D01*
X117397693Y-93868371D02*
X117492931Y-93820752D01*
X117492931Y-93820752D02*
X117635788Y-93820752D01*
X117635788Y-93820752D02*
X117731026Y-93868371D01*
X117731026Y-93868371D02*
X117778645Y-93963609D01*
X117778645Y-93963609D02*
X117778645Y-94487419D01*
X118683407Y-93820752D02*
X118683407Y-94487419D01*
X118445312Y-93439800D02*
X118207217Y-94154085D01*
X118207217Y-94154085D02*
X118826264Y-94154085D01*
X119873884Y-93487419D02*
X120492931Y-93487419D01*
X120492931Y-93487419D02*
X120159598Y-93868371D01*
X120159598Y-93868371D02*
X120302455Y-93868371D01*
X120302455Y-93868371D02*
X120397693Y-93915990D01*
X120397693Y-93915990D02*
X120445312Y-93963609D01*
X120445312Y-93963609D02*
X120492931Y-94058847D01*
X120492931Y-94058847D02*
X120492931Y-94296942D01*
X120492931Y-94296942D02*
X120445312Y-94392180D01*
X120445312Y-94392180D02*
X120397693Y-94439800D01*
X120397693Y-94439800D02*
X120302455Y-94487419D01*
X120302455Y-94487419D02*
X120016741Y-94487419D01*
X120016741Y-94487419D02*
X119921503Y-94439800D01*
X119921503Y-94439800D02*
X119873884Y-94392180D01*
X120778646Y-93487419D02*
X121111979Y-94487419D01*
X121111979Y-94487419D02*
X121445312Y-93487419D01*
X121683408Y-93487419D02*
X122302455Y-93487419D01*
X122302455Y-93487419D02*
X121969122Y-93868371D01*
X121969122Y-93868371D02*
X122111979Y-93868371D01*
X122111979Y-93868371D02*
X122207217Y-93915990D01*
X122207217Y-93915990D02*
X122254836Y-93963609D01*
X122254836Y-93963609D02*
X122302455Y-94058847D01*
X122302455Y-94058847D02*
X122302455Y-94296942D01*
X122302455Y-94296942D02*
X122254836Y-94392180D01*
X122254836Y-94392180D02*
X122207217Y-94439800D01*
X122207217Y-94439800D02*
X122111979Y-94487419D01*
X122111979Y-94487419D02*
X121826265Y-94487419D01*
X121826265Y-94487419D02*
X121731027Y-94439800D01*
X121731027Y-94439800D02*
X121683408Y-94392180D01*
D11*
X117454819Y-149221666D02*
X116978628Y-149554999D01*
X117454819Y-149793094D02*
X116454819Y-149793094D01*
X116454819Y-149793094D02*
X116454819Y-149412142D01*
X116454819Y-149412142D02*
X116502438Y-149316904D01*
X116502438Y-149316904D02*
X116550057Y-149269285D01*
X116550057Y-149269285D02*
X116645295Y-149221666D01*
X116645295Y-149221666D02*
X116788152Y-149221666D01*
X116788152Y-149221666D02*
X116883390Y-149269285D01*
X116883390Y-149269285D02*
X116931009Y-149316904D01*
X116931009Y-149316904D02*
X116978628Y-149412142D01*
X116978628Y-149412142D02*
X116978628Y-149793094D01*
X116454819Y-148888332D02*
X116454819Y-148221666D01*
X116454819Y-148221666D02*
X117454819Y-148650237D01*
X104454819Y-149062857D02*
X103978628Y-149396190D01*
X104454819Y-149634285D02*
X103454819Y-149634285D01*
X103454819Y-149634285D02*
X103454819Y-149253333D01*
X103454819Y-149253333D02*
X103502438Y-149158095D01*
X103502438Y-149158095D02*
X103550057Y-149110476D01*
X103550057Y-149110476D02*
X103645295Y-149062857D01*
X103645295Y-149062857D02*
X103788152Y-149062857D01*
X103788152Y-149062857D02*
X103883390Y-149110476D01*
X103883390Y-149110476D02*
X103931009Y-149158095D01*
X103931009Y-149158095D02*
X103978628Y-149253333D01*
X103978628Y-149253333D02*
X103978628Y-149634285D01*
X103550057Y-148681904D02*
X103502438Y-148634285D01*
X103502438Y-148634285D02*
X103454819Y-148539047D01*
X103454819Y-148539047D02*
X103454819Y-148300952D01*
X103454819Y-148300952D02*
X103502438Y-148205714D01*
X103502438Y-148205714D02*
X103550057Y-148158095D01*
X103550057Y-148158095D02*
X103645295Y-148110476D01*
X103645295Y-148110476D02*
X103740533Y-148110476D01*
X103740533Y-148110476D02*
X103883390Y-148158095D01*
X103883390Y-148158095D02*
X104454819Y-148729523D01*
X104454819Y-148729523D02*
X104454819Y-148110476D01*
X103788152Y-147253333D02*
X104454819Y-147253333D01*
X103407200Y-147491428D02*
X104121485Y-147729523D01*
X104121485Y-147729523D02*
X104121485Y-147110476D01*
X104594819Y-161932857D02*
X104118628Y-162266190D01*
X104594819Y-162504285D02*
X103594819Y-162504285D01*
X103594819Y-162504285D02*
X103594819Y-162123333D01*
X103594819Y-162123333D02*
X103642438Y-162028095D01*
X103642438Y-162028095D02*
X103690057Y-161980476D01*
X103690057Y-161980476D02*
X103785295Y-161932857D01*
X103785295Y-161932857D02*
X103928152Y-161932857D01*
X103928152Y-161932857D02*
X104023390Y-161980476D01*
X104023390Y-161980476D02*
X104071009Y-162028095D01*
X104071009Y-162028095D02*
X104118628Y-162123333D01*
X104118628Y-162123333D02*
X104118628Y-162504285D01*
X104594819Y-160980476D02*
X104594819Y-161551904D01*
X104594819Y-161266190D02*
X103594819Y-161266190D01*
X103594819Y-161266190D02*
X103737676Y-161361428D01*
X103737676Y-161361428D02*
X103832914Y-161456666D01*
X103832914Y-161456666D02*
X103880533Y-161551904D01*
X103594819Y-160123333D02*
X103594819Y-160313809D01*
X103594819Y-160313809D02*
X103642438Y-160409047D01*
X103642438Y-160409047D02*
X103690057Y-160456666D01*
X103690057Y-160456666D02*
X103832914Y-160551904D01*
X103832914Y-160551904D02*
X104023390Y-160599523D01*
X104023390Y-160599523D02*
X104404342Y-160599523D01*
X104404342Y-160599523D02*
X104499580Y-160551904D01*
X104499580Y-160551904D02*
X104547200Y-160504285D01*
X104547200Y-160504285D02*
X104594819Y-160409047D01*
X104594819Y-160409047D02*
X104594819Y-160218571D01*
X104594819Y-160218571D02*
X104547200Y-160123333D01*
X104547200Y-160123333D02*
X104499580Y-160075714D01*
X104499580Y-160075714D02*
X104404342Y-160028095D01*
X104404342Y-160028095D02*
X104166247Y-160028095D01*
X104166247Y-160028095D02*
X104071009Y-160075714D01*
X104071009Y-160075714D02*
X104023390Y-160123333D01*
X104023390Y-160123333D02*
X103975771Y-160218571D01*
X103975771Y-160218571D02*
X103975771Y-160409047D01*
X103975771Y-160409047D02*
X104023390Y-160504285D01*
X104023390Y-160504285D02*
X104071009Y-160551904D01*
X104071009Y-160551904D02*
X104166247Y-160599523D01*
X123626666Y-101054819D02*
X123626666Y-101769104D01*
X123626666Y-101769104D02*
X123579047Y-101911961D01*
X123579047Y-101911961D02*
X123483809Y-102007200D01*
X123483809Y-102007200D02*
X123340952Y-102054819D01*
X123340952Y-102054819D02*
X123245714Y-102054819D01*
X124102857Y-102054819D02*
X124102857Y-101054819D01*
X124102857Y-101054819D02*
X124483809Y-101054819D01*
X124483809Y-101054819D02*
X124579047Y-101102438D01*
X124579047Y-101102438D02*
X124626666Y-101150057D01*
X124626666Y-101150057D02*
X124674285Y-101245295D01*
X124674285Y-101245295D02*
X124674285Y-101388152D01*
X124674285Y-101388152D02*
X124626666Y-101483390D01*
X124626666Y-101483390D02*
X124579047Y-101531009D01*
X124579047Y-101531009D02*
X124483809Y-101578628D01*
X124483809Y-101578628D02*
X124102857Y-101578628D01*
X125626666Y-102054819D02*
X125055238Y-102054819D01*
X125340952Y-102054819D02*
X125340952Y-101054819D01*
X125340952Y-101054819D02*
X125245714Y-101197676D01*
X125245714Y-101197676D02*
X125150476Y-101292914D01*
X125150476Y-101292914D02*
X125055238Y-101340533D01*
X77682381Y-48531009D02*
X78015714Y-48531009D01*
X78158571Y-49054819D02*
X77682381Y-49054819D01*
X77682381Y-49054819D02*
X77682381Y-48054819D01*
X77682381Y-48054819D02*
X78158571Y-48054819D01*
X78491905Y-48054819D02*
X79158571Y-49054819D01*
X79158571Y-48054819D02*
X78491905Y-49054819D01*
X79396667Y-48054819D02*
X79968095Y-48054819D01*
X79682381Y-49054819D02*
X79682381Y-48054819D01*
X80825238Y-49054819D02*
X80253810Y-49054819D01*
X80539524Y-49054819D02*
X80539524Y-48054819D01*
X80539524Y-48054819D02*
X80444286Y-48197676D01*
X80444286Y-48197676D02*
X80349048Y-48292914D01*
X80349048Y-48292914D02*
X80253810Y-48340533D01*
X96954819Y-149142857D02*
X96478628Y-149476190D01*
X96954819Y-149714285D02*
X95954819Y-149714285D01*
X95954819Y-149714285D02*
X95954819Y-149333333D01*
X95954819Y-149333333D02*
X96002438Y-149238095D01*
X96002438Y-149238095D02*
X96050057Y-149190476D01*
X96050057Y-149190476D02*
X96145295Y-149142857D01*
X96145295Y-149142857D02*
X96288152Y-149142857D01*
X96288152Y-149142857D02*
X96383390Y-149190476D01*
X96383390Y-149190476D02*
X96431009Y-149238095D01*
X96431009Y-149238095D02*
X96478628Y-149333333D01*
X96478628Y-149333333D02*
X96478628Y-149714285D01*
X96050057Y-148761904D02*
X96002438Y-148714285D01*
X96002438Y-148714285D02*
X95954819Y-148619047D01*
X95954819Y-148619047D02*
X95954819Y-148380952D01*
X95954819Y-148380952D02*
X96002438Y-148285714D01*
X96002438Y-148285714D02*
X96050057Y-148238095D01*
X96050057Y-148238095D02*
X96145295Y-148190476D01*
X96145295Y-148190476D02*
X96240533Y-148190476D01*
X96240533Y-148190476D02*
X96383390Y-148238095D01*
X96383390Y-148238095D02*
X96954819Y-148809523D01*
X96954819Y-148809523D02*
X96954819Y-148190476D01*
X95954819Y-147857142D02*
X95954819Y-147238095D01*
X95954819Y-147238095D02*
X96335771Y-147571428D01*
X96335771Y-147571428D02*
X96335771Y-147428571D01*
X96335771Y-147428571D02*
X96383390Y-147333333D01*
X96383390Y-147333333D02*
X96431009Y-147285714D01*
X96431009Y-147285714D02*
X96526247Y-147238095D01*
X96526247Y-147238095D02*
X96764342Y-147238095D01*
X96764342Y-147238095D02*
X96859580Y-147285714D01*
X96859580Y-147285714D02*
X96907200Y-147333333D01*
X96907200Y-147333333D02*
X96954819Y-147428571D01*
X96954819Y-147428571D02*
X96954819Y-147714285D01*
X96954819Y-147714285D02*
X96907200Y-147809523D01*
X96907200Y-147809523D02*
X96859580Y-147857142D01*
X119834819Y-161932857D02*
X119358628Y-162266190D01*
X119834819Y-162504285D02*
X118834819Y-162504285D01*
X118834819Y-162504285D02*
X118834819Y-162123333D01*
X118834819Y-162123333D02*
X118882438Y-162028095D01*
X118882438Y-162028095D02*
X118930057Y-161980476D01*
X118930057Y-161980476D02*
X119025295Y-161932857D01*
X119025295Y-161932857D02*
X119168152Y-161932857D01*
X119168152Y-161932857D02*
X119263390Y-161980476D01*
X119263390Y-161980476D02*
X119311009Y-162028095D01*
X119311009Y-162028095D02*
X119358628Y-162123333D01*
X119358628Y-162123333D02*
X119358628Y-162504285D01*
X118834819Y-161599523D02*
X118834819Y-160980476D01*
X118834819Y-160980476D02*
X119215771Y-161313809D01*
X119215771Y-161313809D02*
X119215771Y-161170952D01*
X119215771Y-161170952D02*
X119263390Y-161075714D01*
X119263390Y-161075714D02*
X119311009Y-161028095D01*
X119311009Y-161028095D02*
X119406247Y-160980476D01*
X119406247Y-160980476D02*
X119644342Y-160980476D01*
X119644342Y-160980476D02*
X119739580Y-161028095D01*
X119739580Y-161028095D02*
X119787200Y-161075714D01*
X119787200Y-161075714D02*
X119834819Y-161170952D01*
X119834819Y-161170952D02*
X119834819Y-161456666D01*
X119834819Y-161456666D02*
X119787200Y-161551904D01*
X119787200Y-161551904D02*
X119739580Y-161599523D01*
X118834819Y-160647142D02*
X118834819Y-160028095D01*
X118834819Y-160028095D02*
X119215771Y-160361428D01*
X119215771Y-160361428D02*
X119215771Y-160218571D01*
X119215771Y-160218571D02*
X119263390Y-160123333D01*
X119263390Y-160123333D02*
X119311009Y-160075714D01*
X119311009Y-160075714D02*
X119406247Y-160028095D01*
X119406247Y-160028095D02*
X119644342Y-160028095D01*
X119644342Y-160028095D02*
X119739580Y-160075714D01*
X119739580Y-160075714D02*
X119787200Y-160123333D01*
X119787200Y-160123333D02*
X119834819Y-160218571D01*
X119834819Y-160218571D02*
X119834819Y-160504285D01*
X119834819Y-160504285D02*
X119787200Y-160599523D01*
X119787200Y-160599523D02*
X119739580Y-160647142D01*
X116004819Y-53855357D02*
X115528628Y-54188690D01*
X116004819Y-54426785D02*
X115004819Y-54426785D01*
X115004819Y-54426785D02*
X115004819Y-54045833D01*
X115004819Y-54045833D02*
X115052438Y-53950595D01*
X115052438Y-53950595D02*
X115100057Y-53902976D01*
X115100057Y-53902976D02*
X115195295Y-53855357D01*
X115195295Y-53855357D02*
X115338152Y-53855357D01*
X115338152Y-53855357D02*
X115433390Y-53902976D01*
X115433390Y-53902976D02*
X115481009Y-53950595D01*
X115481009Y-53950595D02*
X115528628Y-54045833D01*
X115528628Y-54045833D02*
X115528628Y-54426785D01*
X115004819Y-53522023D02*
X115004819Y-52902976D01*
X115004819Y-52902976D02*
X115385771Y-53236309D01*
X115385771Y-53236309D02*
X115385771Y-53093452D01*
X115385771Y-53093452D02*
X115433390Y-52998214D01*
X115433390Y-52998214D02*
X115481009Y-52950595D01*
X115481009Y-52950595D02*
X115576247Y-52902976D01*
X115576247Y-52902976D02*
X115814342Y-52902976D01*
X115814342Y-52902976D02*
X115909580Y-52950595D01*
X115909580Y-52950595D02*
X115957200Y-52998214D01*
X115957200Y-52998214D02*
X116004819Y-53093452D01*
X116004819Y-53093452D02*
X116004819Y-53379166D01*
X116004819Y-53379166D02*
X115957200Y-53474404D01*
X115957200Y-53474404D02*
X115909580Y-53522023D01*
X115004819Y-52569642D02*
X115004819Y-51902976D01*
X115004819Y-51902976D02*
X116004819Y-52331547D01*
X89454819Y-149602857D02*
X88978628Y-149936190D01*
X89454819Y-150174285D02*
X88454819Y-150174285D01*
X88454819Y-150174285D02*
X88454819Y-149793333D01*
X88454819Y-149793333D02*
X88502438Y-149698095D01*
X88502438Y-149698095D02*
X88550057Y-149650476D01*
X88550057Y-149650476D02*
X88645295Y-149602857D01*
X88645295Y-149602857D02*
X88788152Y-149602857D01*
X88788152Y-149602857D02*
X88883390Y-149650476D01*
X88883390Y-149650476D02*
X88931009Y-149698095D01*
X88931009Y-149698095D02*
X88978628Y-149793333D01*
X88978628Y-149793333D02*
X88978628Y-150174285D01*
X88550057Y-149221904D02*
X88502438Y-149174285D01*
X88502438Y-149174285D02*
X88454819Y-149079047D01*
X88454819Y-149079047D02*
X88454819Y-148840952D01*
X88454819Y-148840952D02*
X88502438Y-148745714D01*
X88502438Y-148745714D02*
X88550057Y-148698095D01*
X88550057Y-148698095D02*
X88645295Y-148650476D01*
X88645295Y-148650476D02*
X88740533Y-148650476D01*
X88740533Y-148650476D02*
X88883390Y-148698095D01*
X88883390Y-148698095D02*
X89454819Y-149269523D01*
X89454819Y-149269523D02*
X89454819Y-148650476D01*
X88883390Y-148079047D02*
X88835771Y-148174285D01*
X88835771Y-148174285D02*
X88788152Y-148221904D01*
X88788152Y-148221904D02*
X88692914Y-148269523D01*
X88692914Y-148269523D02*
X88645295Y-148269523D01*
X88645295Y-148269523D02*
X88550057Y-148221904D01*
X88550057Y-148221904D02*
X88502438Y-148174285D01*
X88502438Y-148174285D02*
X88454819Y-148079047D01*
X88454819Y-148079047D02*
X88454819Y-147888571D01*
X88454819Y-147888571D02*
X88502438Y-147793333D01*
X88502438Y-147793333D02*
X88550057Y-147745714D01*
X88550057Y-147745714D02*
X88645295Y-147698095D01*
X88645295Y-147698095D02*
X88692914Y-147698095D01*
X88692914Y-147698095D02*
X88788152Y-147745714D01*
X88788152Y-147745714D02*
X88835771Y-147793333D01*
X88835771Y-147793333D02*
X88883390Y-147888571D01*
X88883390Y-147888571D02*
X88883390Y-148079047D01*
X88883390Y-148079047D02*
X88931009Y-148174285D01*
X88931009Y-148174285D02*
X88978628Y-148221904D01*
X88978628Y-148221904D02*
X89073866Y-148269523D01*
X89073866Y-148269523D02*
X89264342Y-148269523D01*
X89264342Y-148269523D02*
X89359580Y-148221904D01*
X89359580Y-148221904D02*
X89407200Y-148174285D01*
X89407200Y-148174285D02*
X89454819Y-148079047D01*
X89454819Y-148079047D02*
X89454819Y-147888571D01*
X89454819Y-147888571D02*
X89407200Y-147793333D01*
X89407200Y-147793333D02*
X89359580Y-147745714D01*
X89359580Y-147745714D02*
X89264342Y-147698095D01*
X89264342Y-147698095D02*
X89073866Y-147698095D01*
X89073866Y-147698095D02*
X88978628Y-147745714D01*
X88978628Y-147745714D02*
X88931009Y-147793333D01*
X88931009Y-147793333D02*
X88883390Y-147888571D01*
X96974819Y-161932857D02*
X96498628Y-162266190D01*
X96974819Y-162504285D02*
X95974819Y-162504285D01*
X95974819Y-162504285D02*
X95974819Y-162123333D01*
X95974819Y-162123333D02*
X96022438Y-162028095D01*
X96022438Y-162028095D02*
X96070057Y-161980476D01*
X96070057Y-161980476D02*
X96165295Y-161932857D01*
X96165295Y-161932857D02*
X96308152Y-161932857D01*
X96308152Y-161932857D02*
X96403390Y-161980476D01*
X96403390Y-161980476D02*
X96451009Y-162028095D01*
X96451009Y-162028095D02*
X96498628Y-162123333D01*
X96498628Y-162123333D02*
X96498628Y-162504285D01*
X95974819Y-161599523D02*
X95974819Y-160980476D01*
X95974819Y-160980476D02*
X96355771Y-161313809D01*
X96355771Y-161313809D02*
X96355771Y-161170952D01*
X96355771Y-161170952D02*
X96403390Y-161075714D01*
X96403390Y-161075714D02*
X96451009Y-161028095D01*
X96451009Y-161028095D02*
X96546247Y-160980476D01*
X96546247Y-160980476D02*
X96784342Y-160980476D01*
X96784342Y-160980476D02*
X96879580Y-161028095D01*
X96879580Y-161028095D02*
X96927200Y-161075714D01*
X96927200Y-161075714D02*
X96974819Y-161170952D01*
X96974819Y-161170952D02*
X96974819Y-161456666D01*
X96974819Y-161456666D02*
X96927200Y-161551904D01*
X96927200Y-161551904D02*
X96879580Y-161599523D01*
X96070057Y-160599523D02*
X96022438Y-160551904D01*
X96022438Y-160551904D02*
X95974819Y-160456666D01*
X95974819Y-160456666D02*
X95974819Y-160218571D01*
X95974819Y-160218571D02*
X96022438Y-160123333D01*
X96022438Y-160123333D02*
X96070057Y-160075714D01*
X96070057Y-160075714D02*
X96165295Y-160028095D01*
X96165295Y-160028095D02*
X96260533Y-160028095D01*
X96260533Y-160028095D02*
X96403390Y-160075714D01*
X96403390Y-160075714D02*
X96974819Y-160647142D01*
X96974819Y-160647142D02*
X96974819Y-160028095D01*
X96434819Y-108688094D02*
X95434819Y-108688094D01*
X95434819Y-108688094D02*
X95434819Y-108449999D01*
X95434819Y-108449999D02*
X95482438Y-108307142D01*
X95482438Y-108307142D02*
X95577676Y-108211904D01*
X95577676Y-108211904D02*
X95672914Y-108164285D01*
X95672914Y-108164285D02*
X95863390Y-108116666D01*
X95863390Y-108116666D02*
X96006247Y-108116666D01*
X96006247Y-108116666D02*
X96196723Y-108164285D01*
X96196723Y-108164285D02*
X96291961Y-108211904D01*
X96291961Y-108211904D02*
X96387200Y-108307142D01*
X96387200Y-108307142D02*
X96434819Y-108449999D01*
X96434819Y-108449999D02*
X96434819Y-108688094D01*
X96434819Y-107164285D02*
X96434819Y-107735713D01*
X96434819Y-107449999D02*
X95434819Y-107449999D01*
X95434819Y-107449999D02*
X95577676Y-107545237D01*
X95577676Y-107545237D02*
X95672914Y-107640475D01*
X95672914Y-107640475D02*
X95720533Y-107735713D01*
X125866667Y-40407200D02*
X126009524Y-40454819D01*
X126009524Y-40454819D02*
X126247619Y-40454819D01*
X126247619Y-40454819D02*
X126342857Y-40407200D01*
X126342857Y-40407200D02*
X126390476Y-40359580D01*
X126390476Y-40359580D02*
X126438095Y-40264342D01*
X126438095Y-40264342D02*
X126438095Y-40169104D01*
X126438095Y-40169104D02*
X126390476Y-40073866D01*
X126390476Y-40073866D02*
X126342857Y-40026247D01*
X126342857Y-40026247D02*
X126247619Y-39978628D01*
X126247619Y-39978628D02*
X126057143Y-39931009D01*
X126057143Y-39931009D02*
X125961905Y-39883390D01*
X125961905Y-39883390D02*
X125914286Y-39835771D01*
X125914286Y-39835771D02*
X125866667Y-39740533D01*
X125866667Y-39740533D02*
X125866667Y-39645295D01*
X125866667Y-39645295D02*
X125914286Y-39550057D01*
X125914286Y-39550057D02*
X125961905Y-39502438D01*
X125961905Y-39502438D02*
X126057143Y-39454819D01*
X126057143Y-39454819D02*
X126295238Y-39454819D01*
X126295238Y-39454819D02*
X126438095Y-39502438D01*
X126771429Y-39454819D02*
X127009524Y-40454819D01*
X127009524Y-40454819D02*
X127200000Y-39740533D01*
X127200000Y-39740533D02*
X127390476Y-40454819D01*
X127390476Y-40454819D02*
X127628572Y-39454819D01*
X127914286Y-39454819D02*
X128580952Y-39454819D01*
X128580952Y-39454819D02*
X128152381Y-40454819D01*
X123626666Y-93434819D02*
X123626666Y-94149104D01*
X123626666Y-94149104D02*
X123579047Y-94291961D01*
X123579047Y-94291961D02*
X123483809Y-94387200D01*
X123483809Y-94387200D02*
X123340952Y-94434819D01*
X123340952Y-94434819D02*
X123245714Y-94434819D01*
X124102857Y-94434819D02*
X124102857Y-93434819D01*
X124102857Y-93434819D02*
X124483809Y-93434819D01*
X124483809Y-93434819D02*
X124579047Y-93482438D01*
X124579047Y-93482438D02*
X124626666Y-93530057D01*
X124626666Y-93530057D02*
X124674285Y-93625295D01*
X124674285Y-93625295D02*
X124674285Y-93768152D01*
X124674285Y-93768152D02*
X124626666Y-93863390D01*
X124626666Y-93863390D02*
X124579047Y-93911009D01*
X124579047Y-93911009D02*
X124483809Y-93958628D01*
X124483809Y-93958628D02*
X124102857Y-93958628D01*
X125007619Y-93434819D02*
X125626666Y-93434819D01*
X125626666Y-93434819D02*
X125293333Y-93815771D01*
X125293333Y-93815771D02*
X125436190Y-93815771D01*
X125436190Y-93815771D02*
X125531428Y-93863390D01*
X125531428Y-93863390D02*
X125579047Y-93911009D01*
X125579047Y-93911009D02*
X125626666Y-94006247D01*
X125626666Y-94006247D02*
X125626666Y-94244342D01*
X125626666Y-94244342D02*
X125579047Y-94339580D01*
X125579047Y-94339580D02*
X125531428Y-94387200D01*
X125531428Y-94387200D02*
X125436190Y-94434819D01*
X125436190Y-94434819D02*
X125150476Y-94434819D01*
X125150476Y-94434819D02*
X125055238Y-94387200D01*
X125055238Y-94387200D02*
X125007619Y-94339580D01*
X99454819Y-149142857D02*
X98978628Y-149476190D01*
X99454819Y-149714285D02*
X98454819Y-149714285D01*
X98454819Y-149714285D02*
X98454819Y-149333333D01*
X98454819Y-149333333D02*
X98502438Y-149238095D01*
X98502438Y-149238095D02*
X98550057Y-149190476D01*
X98550057Y-149190476D02*
X98645295Y-149142857D01*
X98645295Y-149142857D02*
X98788152Y-149142857D01*
X98788152Y-149142857D02*
X98883390Y-149190476D01*
X98883390Y-149190476D02*
X98931009Y-149238095D01*
X98931009Y-149238095D02*
X98978628Y-149333333D01*
X98978628Y-149333333D02*
X98978628Y-149714285D01*
X99454819Y-148190476D02*
X99454819Y-148761904D01*
X99454819Y-148476190D02*
X98454819Y-148476190D01*
X98454819Y-148476190D02*
X98597676Y-148571428D01*
X98597676Y-148571428D02*
X98692914Y-148666666D01*
X98692914Y-148666666D02*
X98740533Y-148761904D01*
X98550057Y-147809523D02*
X98502438Y-147761904D01*
X98502438Y-147761904D02*
X98454819Y-147666666D01*
X98454819Y-147666666D02*
X98454819Y-147428571D01*
X98454819Y-147428571D02*
X98502438Y-147333333D01*
X98502438Y-147333333D02*
X98550057Y-147285714D01*
X98550057Y-147285714D02*
X98645295Y-147238095D01*
X98645295Y-147238095D02*
X98740533Y-147238095D01*
X98740533Y-147238095D02*
X98883390Y-147285714D01*
X98883390Y-147285714D02*
X99454819Y-147857142D01*
X99454819Y-147857142D02*
X99454819Y-147238095D01*
X123644819Y-89542857D02*
X123168628Y-89876190D01*
X123644819Y-90114285D02*
X122644819Y-90114285D01*
X122644819Y-90114285D02*
X122644819Y-89733333D01*
X122644819Y-89733333D02*
X122692438Y-89638095D01*
X122692438Y-89638095D02*
X122740057Y-89590476D01*
X122740057Y-89590476D02*
X122835295Y-89542857D01*
X122835295Y-89542857D02*
X122978152Y-89542857D01*
X122978152Y-89542857D02*
X123073390Y-89590476D01*
X123073390Y-89590476D02*
X123121009Y-89638095D01*
X123121009Y-89638095D02*
X123168628Y-89733333D01*
X123168628Y-89733333D02*
X123168628Y-90114285D01*
X122644819Y-89209523D02*
X122644819Y-88590476D01*
X122644819Y-88590476D02*
X123025771Y-88923809D01*
X123025771Y-88923809D02*
X123025771Y-88780952D01*
X123025771Y-88780952D02*
X123073390Y-88685714D01*
X123073390Y-88685714D02*
X123121009Y-88638095D01*
X123121009Y-88638095D02*
X123216247Y-88590476D01*
X123216247Y-88590476D02*
X123454342Y-88590476D01*
X123454342Y-88590476D02*
X123549580Y-88638095D01*
X123549580Y-88638095D02*
X123597200Y-88685714D01*
X123597200Y-88685714D02*
X123644819Y-88780952D01*
X123644819Y-88780952D02*
X123644819Y-89066666D01*
X123644819Y-89066666D02*
X123597200Y-89161904D01*
X123597200Y-89161904D02*
X123549580Y-89209523D01*
X123073390Y-88019047D02*
X123025771Y-88114285D01*
X123025771Y-88114285D02*
X122978152Y-88161904D01*
X122978152Y-88161904D02*
X122882914Y-88209523D01*
X122882914Y-88209523D02*
X122835295Y-88209523D01*
X122835295Y-88209523D02*
X122740057Y-88161904D01*
X122740057Y-88161904D02*
X122692438Y-88114285D01*
X122692438Y-88114285D02*
X122644819Y-88019047D01*
X122644819Y-88019047D02*
X122644819Y-87828571D01*
X122644819Y-87828571D02*
X122692438Y-87733333D01*
X122692438Y-87733333D02*
X122740057Y-87685714D01*
X122740057Y-87685714D02*
X122835295Y-87638095D01*
X122835295Y-87638095D02*
X122882914Y-87638095D01*
X122882914Y-87638095D02*
X122978152Y-87685714D01*
X122978152Y-87685714D02*
X123025771Y-87733333D01*
X123025771Y-87733333D02*
X123073390Y-87828571D01*
X123073390Y-87828571D02*
X123073390Y-88019047D01*
X123073390Y-88019047D02*
X123121009Y-88114285D01*
X123121009Y-88114285D02*
X123168628Y-88161904D01*
X123168628Y-88161904D02*
X123263866Y-88209523D01*
X123263866Y-88209523D02*
X123454342Y-88209523D01*
X123454342Y-88209523D02*
X123549580Y-88161904D01*
X123549580Y-88161904D02*
X123597200Y-88114285D01*
X123597200Y-88114285D02*
X123644819Y-88019047D01*
X123644819Y-88019047D02*
X123644819Y-87828571D01*
X123644819Y-87828571D02*
X123597200Y-87733333D01*
X123597200Y-87733333D02*
X123549580Y-87685714D01*
X123549580Y-87685714D02*
X123454342Y-87638095D01*
X123454342Y-87638095D02*
X123263866Y-87638095D01*
X123263866Y-87638095D02*
X123168628Y-87685714D01*
X123168628Y-87685714D02*
X123121009Y-87733333D01*
X123121009Y-87733333D02*
X123073390Y-87828571D01*
X100682381Y-48531009D02*
X101015714Y-48531009D01*
X101158571Y-49054819D02*
X100682381Y-49054819D01*
X100682381Y-49054819D02*
X100682381Y-48054819D01*
X100682381Y-48054819D02*
X101158571Y-48054819D01*
X101491905Y-48054819D02*
X102158571Y-49054819D01*
X102158571Y-48054819D02*
X101491905Y-49054819D01*
X102396667Y-48054819D02*
X102968095Y-48054819D01*
X102682381Y-49054819D02*
X102682381Y-48054819D01*
X103253810Y-48150057D02*
X103301429Y-48102438D01*
X103301429Y-48102438D02*
X103396667Y-48054819D01*
X103396667Y-48054819D02*
X103634762Y-48054819D01*
X103634762Y-48054819D02*
X103730000Y-48102438D01*
X103730000Y-48102438D02*
X103777619Y-48150057D01*
X103777619Y-48150057D02*
X103825238Y-48245295D01*
X103825238Y-48245295D02*
X103825238Y-48340533D01*
X103825238Y-48340533D02*
X103777619Y-48483390D01*
X103777619Y-48483390D02*
X103206191Y-49054819D01*
X103206191Y-49054819D02*
X103825238Y-49054819D01*
X123626666Y-105499819D02*
X123626666Y-106214104D01*
X123626666Y-106214104D02*
X123579047Y-106356961D01*
X123579047Y-106356961D02*
X123483809Y-106452200D01*
X123483809Y-106452200D02*
X123340952Y-106499819D01*
X123340952Y-106499819D02*
X123245714Y-106499819D01*
X124102857Y-106499819D02*
X124102857Y-105499819D01*
X124102857Y-105499819D02*
X124483809Y-105499819D01*
X124483809Y-105499819D02*
X124579047Y-105547438D01*
X124579047Y-105547438D02*
X124626666Y-105595057D01*
X124626666Y-105595057D02*
X124674285Y-105690295D01*
X124674285Y-105690295D02*
X124674285Y-105833152D01*
X124674285Y-105833152D02*
X124626666Y-105928390D01*
X124626666Y-105928390D02*
X124579047Y-105976009D01*
X124579047Y-105976009D02*
X124483809Y-106023628D01*
X124483809Y-106023628D02*
X124102857Y-106023628D01*
X125531428Y-105833152D02*
X125531428Y-106499819D01*
X125293333Y-105452200D02*
X125055238Y-106166485D01*
X125055238Y-106166485D02*
X125674285Y-106166485D01*
X91894819Y-161456666D02*
X91418628Y-161789999D01*
X91894819Y-162028094D02*
X90894819Y-162028094D01*
X90894819Y-162028094D02*
X90894819Y-161647142D01*
X90894819Y-161647142D02*
X90942438Y-161551904D01*
X90942438Y-161551904D02*
X90990057Y-161504285D01*
X90990057Y-161504285D02*
X91085295Y-161456666D01*
X91085295Y-161456666D02*
X91228152Y-161456666D01*
X91228152Y-161456666D02*
X91323390Y-161504285D01*
X91323390Y-161504285D02*
X91371009Y-161551904D01*
X91371009Y-161551904D02*
X91418628Y-161647142D01*
X91418628Y-161647142D02*
X91418628Y-162028094D01*
X90894819Y-161123332D02*
X90894819Y-160504285D01*
X90894819Y-160504285D02*
X91275771Y-160837618D01*
X91275771Y-160837618D02*
X91275771Y-160694761D01*
X91275771Y-160694761D02*
X91323390Y-160599523D01*
X91323390Y-160599523D02*
X91371009Y-160551904D01*
X91371009Y-160551904D02*
X91466247Y-160504285D01*
X91466247Y-160504285D02*
X91704342Y-160504285D01*
X91704342Y-160504285D02*
X91799580Y-160551904D01*
X91799580Y-160551904D02*
X91847200Y-160599523D01*
X91847200Y-160599523D02*
X91894819Y-160694761D01*
X91894819Y-160694761D02*
X91894819Y-160980475D01*
X91894819Y-160980475D02*
X91847200Y-161075713D01*
X91847200Y-161075713D02*
X91799580Y-161123332D01*
D10*
X80737419Y-160988333D02*
X81451704Y-160988333D01*
X81451704Y-160988333D02*
X81594561Y-161035952D01*
X81594561Y-161035952D02*
X81689800Y-161131190D01*
X81689800Y-161131190D02*
X81737419Y-161274047D01*
X81737419Y-161274047D02*
X81737419Y-161369285D01*
X80832657Y-160559761D02*
X80785038Y-160512142D01*
X80785038Y-160512142D02*
X80737419Y-160416904D01*
X80737419Y-160416904D02*
X80737419Y-160178809D01*
X80737419Y-160178809D02*
X80785038Y-160083571D01*
X80785038Y-160083571D02*
X80832657Y-160035952D01*
X80832657Y-160035952D02*
X80927895Y-159988333D01*
X80927895Y-159988333D02*
X81023133Y-159988333D01*
X81023133Y-159988333D02*
X81165990Y-160035952D01*
X81165990Y-160035952D02*
X81737419Y-160607380D01*
X81737419Y-160607380D02*
X81737419Y-159988333D01*
D11*
X109454819Y-149142857D02*
X108978628Y-149476190D01*
X109454819Y-149714285D02*
X108454819Y-149714285D01*
X108454819Y-149714285D02*
X108454819Y-149333333D01*
X108454819Y-149333333D02*
X108502438Y-149238095D01*
X108502438Y-149238095D02*
X108550057Y-149190476D01*
X108550057Y-149190476D02*
X108645295Y-149142857D01*
X108645295Y-149142857D02*
X108788152Y-149142857D01*
X108788152Y-149142857D02*
X108883390Y-149190476D01*
X108883390Y-149190476D02*
X108931009Y-149238095D01*
X108931009Y-149238095D02*
X108978628Y-149333333D01*
X108978628Y-149333333D02*
X108978628Y-149714285D01*
X109454819Y-148190476D02*
X109454819Y-148761904D01*
X109454819Y-148476190D02*
X108454819Y-148476190D01*
X108454819Y-148476190D02*
X108597676Y-148571428D01*
X108597676Y-148571428D02*
X108692914Y-148666666D01*
X108692914Y-148666666D02*
X108740533Y-148761904D01*
X108454819Y-147857142D02*
X108454819Y-147238095D01*
X108454819Y-147238095D02*
X108835771Y-147571428D01*
X108835771Y-147571428D02*
X108835771Y-147428571D01*
X108835771Y-147428571D02*
X108883390Y-147333333D01*
X108883390Y-147333333D02*
X108931009Y-147285714D01*
X108931009Y-147285714D02*
X109026247Y-147238095D01*
X109026247Y-147238095D02*
X109264342Y-147238095D01*
X109264342Y-147238095D02*
X109359580Y-147285714D01*
X109359580Y-147285714D02*
X109407200Y-147333333D01*
X109407200Y-147333333D02*
X109454819Y-147428571D01*
X109454819Y-147428571D02*
X109454819Y-147714285D01*
X109454819Y-147714285D02*
X109407200Y-147809523D01*
X109407200Y-147809523D02*
X109359580Y-147857142D01*
X124354819Y-53842857D02*
X123878628Y-54176190D01*
X124354819Y-54414285D02*
X123354819Y-54414285D01*
X123354819Y-54414285D02*
X123354819Y-54033333D01*
X123354819Y-54033333D02*
X123402438Y-53938095D01*
X123402438Y-53938095D02*
X123450057Y-53890476D01*
X123450057Y-53890476D02*
X123545295Y-53842857D01*
X123545295Y-53842857D02*
X123688152Y-53842857D01*
X123688152Y-53842857D02*
X123783390Y-53890476D01*
X123783390Y-53890476D02*
X123831009Y-53938095D01*
X123831009Y-53938095D02*
X123878628Y-54033333D01*
X123878628Y-54033333D02*
X123878628Y-54414285D01*
X123450057Y-53461904D02*
X123402438Y-53414285D01*
X123402438Y-53414285D02*
X123354819Y-53319047D01*
X123354819Y-53319047D02*
X123354819Y-53080952D01*
X123354819Y-53080952D02*
X123402438Y-52985714D01*
X123402438Y-52985714D02*
X123450057Y-52938095D01*
X123450057Y-52938095D02*
X123545295Y-52890476D01*
X123545295Y-52890476D02*
X123640533Y-52890476D01*
X123640533Y-52890476D02*
X123783390Y-52938095D01*
X123783390Y-52938095D02*
X124354819Y-53509523D01*
X124354819Y-53509523D02*
X124354819Y-52890476D01*
X123354819Y-52557142D02*
X123354819Y-51890476D01*
X123354819Y-51890476D02*
X124354819Y-52319047D01*
X114954819Y-149142857D02*
X114478628Y-149476190D01*
X114954819Y-149714285D02*
X113954819Y-149714285D01*
X113954819Y-149714285D02*
X113954819Y-149333333D01*
X113954819Y-149333333D02*
X114002438Y-149238095D01*
X114002438Y-149238095D02*
X114050057Y-149190476D01*
X114050057Y-149190476D02*
X114145295Y-149142857D01*
X114145295Y-149142857D02*
X114288152Y-149142857D01*
X114288152Y-149142857D02*
X114383390Y-149190476D01*
X114383390Y-149190476D02*
X114431009Y-149238095D01*
X114431009Y-149238095D02*
X114478628Y-149333333D01*
X114478628Y-149333333D02*
X114478628Y-149714285D01*
X114954819Y-148190476D02*
X114954819Y-148761904D01*
X114954819Y-148476190D02*
X113954819Y-148476190D01*
X113954819Y-148476190D02*
X114097676Y-148571428D01*
X114097676Y-148571428D02*
X114192914Y-148666666D01*
X114192914Y-148666666D02*
X114240533Y-148761904D01*
X114954819Y-147238095D02*
X114954819Y-147809523D01*
X114954819Y-147523809D02*
X113954819Y-147523809D01*
X113954819Y-147523809D02*
X114097676Y-147619047D01*
X114097676Y-147619047D02*
X114192914Y-147714285D01*
X114192914Y-147714285D02*
X114240533Y-147809523D01*
X112454819Y-149062857D02*
X111978628Y-149396190D01*
X112454819Y-149634285D02*
X111454819Y-149634285D01*
X111454819Y-149634285D02*
X111454819Y-149253333D01*
X111454819Y-149253333D02*
X111502438Y-149158095D01*
X111502438Y-149158095D02*
X111550057Y-149110476D01*
X111550057Y-149110476D02*
X111645295Y-149062857D01*
X111645295Y-149062857D02*
X111788152Y-149062857D01*
X111788152Y-149062857D02*
X111883390Y-149110476D01*
X111883390Y-149110476D02*
X111931009Y-149158095D01*
X111931009Y-149158095D02*
X111978628Y-149253333D01*
X111978628Y-149253333D02*
X111978628Y-149634285D01*
X112454819Y-148110476D02*
X112454819Y-148681904D01*
X112454819Y-148396190D02*
X111454819Y-148396190D01*
X111454819Y-148396190D02*
X111597676Y-148491428D01*
X111597676Y-148491428D02*
X111692914Y-148586666D01*
X111692914Y-148586666D02*
X111740533Y-148681904D01*
X111883390Y-147539047D02*
X111835771Y-147634285D01*
X111835771Y-147634285D02*
X111788152Y-147681904D01*
X111788152Y-147681904D02*
X111692914Y-147729523D01*
X111692914Y-147729523D02*
X111645295Y-147729523D01*
X111645295Y-147729523D02*
X111550057Y-147681904D01*
X111550057Y-147681904D02*
X111502438Y-147634285D01*
X111502438Y-147634285D02*
X111454819Y-147539047D01*
X111454819Y-147539047D02*
X111454819Y-147348571D01*
X111454819Y-147348571D02*
X111502438Y-147253333D01*
X111502438Y-147253333D02*
X111550057Y-147205714D01*
X111550057Y-147205714D02*
X111645295Y-147158095D01*
X111645295Y-147158095D02*
X111692914Y-147158095D01*
X111692914Y-147158095D02*
X111788152Y-147205714D01*
X111788152Y-147205714D02*
X111835771Y-147253333D01*
X111835771Y-147253333D02*
X111883390Y-147348571D01*
X111883390Y-147348571D02*
X111883390Y-147539047D01*
X111883390Y-147539047D02*
X111931009Y-147634285D01*
X111931009Y-147634285D02*
X111978628Y-147681904D01*
X111978628Y-147681904D02*
X112073866Y-147729523D01*
X112073866Y-147729523D02*
X112264342Y-147729523D01*
X112264342Y-147729523D02*
X112359580Y-147681904D01*
X112359580Y-147681904D02*
X112407200Y-147634285D01*
X112407200Y-147634285D02*
X112454819Y-147539047D01*
X112454819Y-147539047D02*
X112454819Y-147348571D01*
X112454819Y-147348571D02*
X112407200Y-147253333D01*
X112407200Y-147253333D02*
X112359580Y-147205714D01*
X112359580Y-147205714D02*
X112264342Y-147158095D01*
X112264342Y-147158095D02*
X112073866Y-147158095D01*
X112073866Y-147158095D02*
X111978628Y-147205714D01*
X111978628Y-147205714D02*
X111931009Y-147253333D01*
X111931009Y-147253333D02*
X111883390Y-147348571D01*
X99514819Y-161932857D02*
X99038628Y-162266190D01*
X99514819Y-162504285D02*
X98514819Y-162504285D01*
X98514819Y-162504285D02*
X98514819Y-162123333D01*
X98514819Y-162123333D02*
X98562438Y-162028095D01*
X98562438Y-162028095D02*
X98610057Y-161980476D01*
X98610057Y-161980476D02*
X98705295Y-161932857D01*
X98705295Y-161932857D02*
X98848152Y-161932857D01*
X98848152Y-161932857D02*
X98943390Y-161980476D01*
X98943390Y-161980476D02*
X98991009Y-162028095D01*
X98991009Y-162028095D02*
X99038628Y-162123333D01*
X99038628Y-162123333D02*
X99038628Y-162504285D01*
X98610057Y-161551904D02*
X98562438Y-161504285D01*
X98562438Y-161504285D02*
X98514819Y-161409047D01*
X98514819Y-161409047D02*
X98514819Y-161170952D01*
X98514819Y-161170952D02*
X98562438Y-161075714D01*
X98562438Y-161075714D02*
X98610057Y-161028095D01*
X98610057Y-161028095D02*
X98705295Y-160980476D01*
X98705295Y-160980476D02*
X98800533Y-160980476D01*
X98800533Y-160980476D02*
X98943390Y-161028095D01*
X98943390Y-161028095D02*
X99514819Y-161599523D01*
X99514819Y-161599523D02*
X99514819Y-160980476D01*
X99514819Y-160028095D02*
X99514819Y-160599523D01*
X99514819Y-160313809D02*
X98514819Y-160313809D01*
X98514819Y-160313809D02*
X98657676Y-160409047D01*
X98657676Y-160409047D02*
X98752914Y-160504285D01*
X98752914Y-160504285D02*
X98800533Y-160599523D01*
X86814819Y-154312857D02*
X86338628Y-154646190D01*
X86814819Y-154884285D02*
X85814819Y-154884285D01*
X85814819Y-154884285D02*
X85814819Y-154503333D01*
X85814819Y-154503333D02*
X85862438Y-154408095D01*
X85862438Y-154408095D02*
X85910057Y-154360476D01*
X85910057Y-154360476D02*
X86005295Y-154312857D01*
X86005295Y-154312857D02*
X86148152Y-154312857D01*
X86148152Y-154312857D02*
X86243390Y-154360476D01*
X86243390Y-154360476D02*
X86291009Y-154408095D01*
X86291009Y-154408095D02*
X86338628Y-154503333D01*
X86338628Y-154503333D02*
X86338628Y-154884285D01*
X86814819Y-153360476D02*
X86814819Y-153931904D01*
X86814819Y-153646190D02*
X85814819Y-153646190D01*
X85814819Y-153646190D02*
X85957676Y-153741428D01*
X85957676Y-153741428D02*
X86052914Y-153836666D01*
X86052914Y-153836666D02*
X86100533Y-153931904D01*
X85814819Y-153027142D02*
X85814819Y-152360476D01*
X85814819Y-152360476D02*
X86814819Y-152789047D01*
X107354819Y-53942857D02*
X106878628Y-54276190D01*
X107354819Y-54514285D02*
X106354819Y-54514285D01*
X106354819Y-54514285D02*
X106354819Y-54133333D01*
X106354819Y-54133333D02*
X106402438Y-54038095D01*
X106402438Y-54038095D02*
X106450057Y-53990476D01*
X106450057Y-53990476D02*
X106545295Y-53942857D01*
X106545295Y-53942857D02*
X106688152Y-53942857D01*
X106688152Y-53942857D02*
X106783390Y-53990476D01*
X106783390Y-53990476D02*
X106831009Y-54038095D01*
X106831009Y-54038095D02*
X106878628Y-54133333D01*
X106878628Y-54133333D02*
X106878628Y-54514285D01*
X106354819Y-53609523D02*
X106354819Y-52990476D01*
X106354819Y-52990476D02*
X106735771Y-53323809D01*
X106735771Y-53323809D02*
X106735771Y-53180952D01*
X106735771Y-53180952D02*
X106783390Y-53085714D01*
X106783390Y-53085714D02*
X106831009Y-53038095D01*
X106831009Y-53038095D02*
X106926247Y-52990476D01*
X106926247Y-52990476D02*
X107164342Y-52990476D01*
X107164342Y-52990476D02*
X107259580Y-53038095D01*
X107259580Y-53038095D02*
X107307200Y-53085714D01*
X107307200Y-53085714D02*
X107354819Y-53180952D01*
X107354819Y-53180952D02*
X107354819Y-53466666D01*
X107354819Y-53466666D02*
X107307200Y-53561904D01*
X107307200Y-53561904D02*
X107259580Y-53609523D01*
X106354819Y-52133333D02*
X106354819Y-52323809D01*
X106354819Y-52323809D02*
X106402438Y-52419047D01*
X106402438Y-52419047D02*
X106450057Y-52466666D01*
X106450057Y-52466666D02*
X106592914Y-52561904D01*
X106592914Y-52561904D02*
X106783390Y-52609523D01*
X106783390Y-52609523D02*
X107164342Y-52609523D01*
X107164342Y-52609523D02*
X107259580Y-52561904D01*
X107259580Y-52561904D02*
X107307200Y-52514285D01*
X107307200Y-52514285D02*
X107354819Y-52419047D01*
X107354819Y-52419047D02*
X107354819Y-52228571D01*
X107354819Y-52228571D02*
X107307200Y-52133333D01*
X107307200Y-52133333D02*
X107259580Y-52085714D01*
X107259580Y-52085714D02*
X107164342Y-52038095D01*
X107164342Y-52038095D02*
X106926247Y-52038095D01*
X106926247Y-52038095D02*
X106831009Y-52085714D01*
X106831009Y-52085714D02*
X106783390Y-52133333D01*
X106783390Y-52133333D02*
X106735771Y-52228571D01*
X106735771Y-52228571D02*
X106735771Y-52419047D01*
X106735771Y-52419047D02*
X106783390Y-52514285D01*
X106783390Y-52514285D02*
X106831009Y-52561904D01*
X106831009Y-52561904D02*
X106926247Y-52609523D01*
X106954819Y-149142857D02*
X106478628Y-149476190D01*
X106954819Y-149714285D02*
X105954819Y-149714285D01*
X105954819Y-149714285D02*
X105954819Y-149333333D01*
X105954819Y-149333333D02*
X106002438Y-149238095D01*
X106002438Y-149238095D02*
X106050057Y-149190476D01*
X106050057Y-149190476D02*
X106145295Y-149142857D01*
X106145295Y-149142857D02*
X106288152Y-149142857D01*
X106288152Y-149142857D02*
X106383390Y-149190476D01*
X106383390Y-149190476D02*
X106431009Y-149238095D01*
X106431009Y-149238095D02*
X106478628Y-149333333D01*
X106478628Y-149333333D02*
X106478628Y-149714285D01*
X106954819Y-148190476D02*
X106954819Y-148761904D01*
X106954819Y-148476190D02*
X105954819Y-148476190D01*
X105954819Y-148476190D02*
X106097676Y-148571428D01*
X106097676Y-148571428D02*
X106192914Y-148666666D01*
X106192914Y-148666666D02*
X106240533Y-148761904D01*
X105954819Y-147285714D02*
X105954819Y-147761904D01*
X105954819Y-147761904D02*
X106431009Y-147809523D01*
X106431009Y-147809523D02*
X106383390Y-147761904D01*
X106383390Y-147761904D02*
X106335771Y-147666666D01*
X106335771Y-147666666D02*
X106335771Y-147428571D01*
X106335771Y-147428571D02*
X106383390Y-147333333D01*
X106383390Y-147333333D02*
X106431009Y-147285714D01*
X106431009Y-147285714D02*
X106526247Y-147238095D01*
X106526247Y-147238095D02*
X106764342Y-147238095D01*
X106764342Y-147238095D02*
X106859580Y-147285714D01*
X106859580Y-147285714D02*
X106907200Y-147333333D01*
X106907200Y-147333333D02*
X106954819Y-147428571D01*
X106954819Y-147428571D02*
X106954819Y-147666666D01*
X106954819Y-147666666D02*
X106907200Y-147761904D01*
X106907200Y-147761904D02*
X106859580Y-147809523D01*
X84274819Y-154471666D02*
X83798628Y-154804999D01*
X84274819Y-155043094D02*
X83274819Y-155043094D01*
X83274819Y-155043094D02*
X83274819Y-154662142D01*
X83274819Y-154662142D02*
X83322438Y-154566904D01*
X83322438Y-154566904D02*
X83370057Y-154519285D01*
X83370057Y-154519285D02*
X83465295Y-154471666D01*
X83465295Y-154471666D02*
X83608152Y-154471666D01*
X83608152Y-154471666D02*
X83703390Y-154519285D01*
X83703390Y-154519285D02*
X83751009Y-154566904D01*
X83751009Y-154566904D02*
X83798628Y-154662142D01*
X83798628Y-154662142D02*
X83798628Y-155043094D01*
X83608152Y-153614523D02*
X84274819Y-153614523D01*
X83227200Y-153852618D02*
X83941485Y-154090713D01*
X83941485Y-154090713D02*
X83941485Y-153471666D01*
X117666667Y-40407200D02*
X117809524Y-40454819D01*
X117809524Y-40454819D02*
X118047619Y-40454819D01*
X118047619Y-40454819D02*
X118142857Y-40407200D01*
X118142857Y-40407200D02*
X118190476Y-40359580D01*
X118190476Y-40359580D02*
X118238095Y-40264342D01*
X118238095Y-40264342D02*
X118238095Y-40169104D01*
X118238095Y-40169104D02*
X118190476Y-40073866D01*
X118190476Y-40073866D02*
X118142857Y-40026247D01*
X118142857Y-40026247D02*
X118047619Y-39978628D01*
X118047619Y-39978628D02*
X117857143Y-39931009D01*
X117857143Y-39931009D02*
X117761905Y-39883390D01*
X117761905Y-39883390D02*
X117714286Y-39835771D01*
X117714286Y-39835771D02*
X117666667Y-39740533D01*
X117666667Y-39740533D02*
X117666667Y-39645295D01*
X117666667Y-39645295D02*
X117714286Y-39550057D01*
X117714286Y-39550057D02*
X117761905Y-39502438D01*
X117761905Y-39502438D02*
X117857143Y-39454819D01*
X117857143Y-39454819D02*
X118095238Y-39454819D01*
X118095238Y-39454819D02*
X118238095Y-39502438D01*
X118571429Y-39454819D02*
X118809524Y-40454819D01*
X118809524Y-40454819D02*
X119000000Y-39740533D01*
X119000000Y-39740533D02*
X119190476Y-40454819D01*
X119190476Y-40454819D02*
X119428572Y-39454819D01*
X119761905Y-39550057D02*
X119809524Y-39502438D01*
X119809524Y-39502438D02*
X119904762Y-39454819D01*
X119904762Y-39454819D02*
X120142857Y-39454819D01*
X120142857Y-39454819D02*
X120238095Y-39502438D01*
X120238095Y-39502438D02*
X120285714Y-39550057D01*
X120285714Y-39550057D02*
X120333333Y-39645295D01*
X120333333Y-39645295D02*
X120333333Y-39740533D01*
X120333333Y-39740533D02*
X120285714Y-39883390D01*
X120285714Y-39883390D02*
X119714286Y-40454819D01*
X119714286Y-40454819D02*
X120333333Y-40454819D01*
X91954819Y-149126666D02*
X91478628Y-149459999D01*
X91954819Y-149698094D02*
X90954819Y-149698094D01*
X90954819Y-149698094D02*
X90954819Y-149317142D01*
X90954819Y-149317142D02*
X91002438Y-149221904D01*
X91002438Y-149221904D02*
X91050057Y-149174285D01*
X91050057Y-149174285D02*
X91145295Y-149126666D01*
X91145295Y-149126666D02*
X91288152Y-149126666D01*
X91288152Y-149126666D02*
X91383390Y-149174285D01*
X91383390Y-149174285D02*
X91431009Y-149221904D01*
X91431009Y-149221904D02*
X91478628Y-149317142D01*
X91478628Y-149317142D02*
X91478628Y-149698094D01*
X91383390Y-148555237D02*
X91335771Y-148650475D01*
X91335771Y-148650475D02*
X91288152Y-148698094D01*
X91288152Y-148698094D02*
X91192914Y-148745713D01*
X91192914Y-148745713D02*
X91145295Y-148745713D01*
X91145295Y-148745713D02*
X91050057Y-148698094D01*
X91050057Y-148698094D02*
X91002438Y-148650475D01*
X91002438Y-148650475D02*
X90954819Y-148555237D01*
X90954819Y-148555237D02*
X90954819Y-148364761D01*
X90954819Y-148364761D02*
X91002438Y-148269523D01*
X91002438Y-148269523D02*
X91050057Y-148221904D01*
X91050057Y-148221904D02*
X91145295Y-148174285D01*
X91145295Y-148174285D02*
X91192914Y-148174285D01*
X91192914Y-148174285D02*
X91288152Y-148221904D01*
X91288152Y-148221904D02*
X91335771Y-148269523D01*
X91335771Y-148269523D02*
X91383390Y-148364761D01*
X91383390Y-148364761D02*
X91383390Y-148555237D01*
X91383390Y-148555237D02*
X91431009Y-148650475D01*
X91431009Y-148650475D02*
X91478628Y-148698094D01*
X91478628Y-148698094D02*
X91573866Y-148745713D01*
X91573866Y-148745713D02*
X91764342Y-148745713D01*
X91764342Y-148745713D02*
X91859580Y-148698094D01*
X91859580Y-148698094D02*
X91907200Y-148650475D01*
X91907200Y-148650475D02*
X91954819Y-148555237D01*
X91954819Y-148555237D02*
X91954819Y-148364761D01*
X91954819Y-148364761D02*
X91907200Y-148269523D01*
X91907200Y-148269523D02*
X91859580Y-148221904D01*
X91859580Y-148221904D02*
X91764342Y-148174285D01*
X91764342Y-148174285D02*
X91573866Y-148174285D01*
X91573866Y-148174285D02*
X91478628Y-148221904D01*
X91478628Y-148221904D02*
X91431009Y-148269523D01*
X91431009Y-148269523D02*
X91383390Y-148364761D01*
X123626666Y-97244819D02*
X123626666Y-97959104D01*
X123626666Y-97959104D02*
X123579047Y-98101961D01*
X123579047Y-98101961D02*
X123483809Y-98197200D01*
X123483809Y-98197200D02*
X123340952Y-98244819D01*
X123340952Y-98244819D02*
X123245714Y-98244819D01*
X124102857Y-98244819D02*
X124102857Y-97244819D01*
X124102857Y-97244819D02*
X124483809Y-97244819D01*
X124483809Y-97244819D02*
X124579047Y-97292438D01*
X124579047Y-97292438D02*
X124626666Y-97340057D01*
X124626666Y-97340057D02*
X124674285Y-97435295D01*
X124674285Y-97435295D02*
X124674285Y-97578152D01*
X124674285Y-97578152D02*
X124626666Y-97673390D01*
X124626666Y-97673390D02*
X124579047Y-97721009D01*
X124579047Y-97721009D02*
X124483809Y-97768628D01*
X124483809Y-97768628D02*
X124102857Y-97768628D01*
X125055238Y-97340057D02*
X125102857Y-97292438D01*
X125102857Y-97292438D02*
X125198095Y-97244819D01*
X125198095Y-97244819D02*
X125436190Y-97244819D01*
X125436190Y-97244819D02*
X125531428Y-97292438D01*
X125531428Y-97292438D02*
X125579047Y-97340057D01*
X125579047Y-97340057D02*
X125626666Y-97435295D01*
X125626666Y-97435295D02*
X125626666Y-97530533D01*
X125626666Y-97530533D02*
X125579047Y-97673390D01*
X125579047Y-97673390D02*
X125007619Y-98244819D01*
X125007619Y-98244819D02*
X125626666Y-98244819D01*
X94454819Y-149391666D02*
X93978628Y-149724999D01*
X94454819Y-149963094D02*
X93454819Y-149963094D01*
X93454819Y-149963094D02*
X93454819Y-149582142D01*
X93454819Y-149582142D02*
X93502438Y-149486904D01*
X93502438Y-149486904D02*
X93550057Y-149439285D01*
X93550057Y-149439285D02*
X93645295Y-149391666D01*
X93645295Y-149391666D02*
X93788152Y-149391666D01*
X93788152Y-149391666D02*
X93883390Y-149439285D01*
X93883390Y-149439285D02*
X93931009Y-149486904D01*
X93931009Y-149486904D02*
X93978628Y-149582142D01*
X93978628Y-149582142D02*
X93978628Y-149963094D01*
X93454819Y-148534523D02*
X93454819Y-148724999D01*
X93454819Y-148724999D02*
X93502438Y-148820237D01*
X93502438Y-148820237D02*
X93550057Y-148867856D01*
X93550057Y-148867856D02*
X93692914Y-148963094D01*
X93692914Y-148963094D02*
X93883390Y-149010713D01*
X93883390Y-149010713D02*
X94264342Y-149010713D01*
X94264342Y-149010713D02*
X94359580Y-148963094D01*
X94359580Y-148963094D02*
X94407200Y-148915475D01*
X94407200Y-148915475D02*
X94454819Y-148820237D01*
X94454819Y-148820237D02*
X94454819Y-148629761D01*
X94454819Y-148629761D02*
X94407200Y-148534523D01*
X94407200Y-148534523D02*
X94359580Y-148486904D01*
X94359580Y-148486904D02*
X94264342Y-148439285D01*
X94264342Y-148439285D02*
X94026247Y-148439285D01*
X94026247Y-148439285D02*
X93931009Y-148486904D01*
X93931009Y-148486904D02*
X93883390Y-148534523D01*
X93883390Y-148534523D02*
X93835771Y-148629761D01*
X93835771Y-148629761D02*
X93835771Y-148820237D01*
X93835771Y-148820237D02*
X93883390Y-148915475D01*
X93883390Y-148915475D02*
X93931009Y-148963094D01*
X93931009Y-148963094D02*
X94026247Y-149010713D01*
X89454819Y-162142857D02*
X88978628Y-162476190D01*
X89454819Y-162714285D02*
X88454819Y-162714285D01*
X88454819Y-162714285D02*
X88454819Y-162333333D01*
X88454819Y-162333333D02*
X88502438Y-162238095D01*
X88502438Y-162238095D02*
X88550057Y-162190476D01*
X88550057Y-162190476D02*
X88645295Y-162142857D01*
X88645295Y-162142857D02*
X88788152Y-162142857D01*
X88788152Y-162142857D02*
X88883390Y-162190476D01*
X88883390Y-162190476D02*
X88931009Y-162238095D01*
X88931009Y-162238095D02*
X88978628Y-162333333D01*
X88978628Y-162333333D02*
X88978628Y-162714285D01*
X89454819Y-161190476D02*
X89454819Y-161761904D01*
X89454819Y-161476190D02*
X88454819Y-161476190D01*
X88454819Y-161476190D02*
X88597676Y-161571428D01*
X88597676Y-161571428D02*
X88692914Y-161666666D01*
X88692914Y-161666666D02*
X88740533Y-161761904D01*
X88454819Y-160571428D02*
X88454819Y-160476190D01*
X88454819Y-160476190D02*
X88502438Y-160380952D01*
X88502438Y-160380952D02*
X88550057Y-160333333D01*
X88550057Y-160333333D02*
X88645295Y-160285714D01*
X88645295Y-160285714D02*
X88835771Y-160238095D01*
X88835771Y-160238095D02*
X89073866Y-160238095D01*
X89073866Y-160238095D02*
X89264342Y-160285714D01*
X89264342Y-160285714D02*
X89359580Y-160333333D01*
X89359580Y-160333333D02*
X89407200Y-160380952D01*
X89407200Y-160380952D02*
X89454819Y-160476190D01*
X89454819Y-160476190D02*
X89454819Y-160571428D01*
X89454819Y-160571428D02*
X89407200Y-160666666D01*
X89407200Y-160666666D02*
X89359580Y-160714285D01*
X89359580Y-160714285D02*
X89264342Y-160761904D01*
X89264342Y-160761904D02*
X89073866Y-160809523D01*
X89073866Y-160809523D02*
X88835771Y-160809523D01*
X88835771Y-160809523D02*
X88645295Y-160761904D01*
X88645295Y-160761904D02*
X88550057Y-160714285D01*
X88550057Y-160714285D02*
X88502438Y-160666666D01*
X88502438Y-160666666D02*
X88454819Y-160571428D01*
X114754819Y-160821666D02*
X114278628Y-161154999D01*
X114754819Y-161393094D02*
X113754819Y-161393094D01*
X113754819Y-161393094D02*
X113754819Y-161012142D01*
X113754819Y-161012142D02*
X113802438Y-160916904D01*
X113802438Y-160916904D02*
X113850057Y-160869285D01*
X113850057Y-160869285D02*
X113945295Y-160821666D01*
X113945295Y-160821666D02*
X114088152Y-160821666D01*
X114088152Y-160821666D02*
X114183390Y-160869285D01*
X114183390Y-160869285D02*
X114231009Y-160916904D01*
X114231009Y-160916904D02*
X114278628Y-161012142D01*
X114278628Y-161012142D02*
X114278628Y-161393094D01*
X114754819Y-160345475D02*
X114754819Y-160154999D01*
X114754819Y-160154999D02*
X114707200Y-160059761D01*
X114707200Y-160059761D02*
X114659580Y-160012142D01*
X114659580Y-160012142D02*
X114516723Y-159916904D01*
X114516723Y-159916904D02*
X114326247Y-159869285D01*
X114326247Y-159869285D02*
X113945295Y-159869285D01*
X113945295Y-159869285D02*
X113850057Y-159916904D01*
X113850057Y-159916904D02*
X113802438Y-159964523D01*
X113802438Y-159964523D02*
X113754819Y-160059761D01*
X113754819Y-160059761D02*
X113754819Y-160250237D01*
X113754819Y-160250237D02*
X113802438Y-160345475D01*
X113802438Y-160345475D02*
X113850057Y-160393094D01*
X113850057Y-160393094D02*
X113945295Y-160440713D01*
X113945295Y-160440713D02*
X114183390Y-160440713D01*
X114183390Y-160440713D02*
X114278628Y-160393094D01*
X114278628Y-160393094D02*
X114326247Y-160345475D01*
X114326247Y-160345475D02*
X114373866Y-160250237D01*
X114373866Y-160250237D02*
X114373866Y-160059761D01*
X114373866Y-160059761D02*
X114326247Y-159964523D01*
X114326247Y-159964523D02*
X114278628Y-159916904D01*
X114278628Y-159916904D02*
X114183390Y-159869285D01*
X109366667Y-40407200D02*
X109509524Y-40454819D01*
X109509524Y-40454819D02*
X109747619Y-40454819D01*
X109747619Y-40454819D02*
X109842857Y-40407200D01*
X109842857Y-40407200D02*
X109890476Y-40359580D01*
X109890476Y-40359580D02*
X109938095Y-40264342D01*
X109938095Y-40264342D02*
X109938095Y-40169104D01*
X109938095Y-40169104D02*
X109890476Y-40073866D01*
X109890476Y-40073866D02*
X109842857Y-40026247D01*
X109842857Y-40026247D02*
X109747619Y-39978628D01*
X109747619Y-39978628D02*
X109557143Y-39931009D01*
X109557143Y-39931009D02*
X109461905Y-39883390D01*
X109461905Y-39883390D02*
X109414286Y-39835771D01*
X109414286Y-39835771D02*
X109366667Y-39740533D01*
X109366667Y-39740533D02*
X109366667Y-39645295D01*
X109366667Y-39645295D02*
X109414286Y-39550057D01*
X109414286Y-39550057D02*
X109461905Y-39502438D01*
X109461905Y-39502438D02*
X109557143Y-39454819D01*
X109557143Y-39454819D02*
X109795238Y-39454819D01*
X109795238Y-39454819D02*
X109938095Y-39502438D01*
X110271429Y-39454819D02*
X110509524Y-40454819D01*
X110509524Y-40454819D02*
X110700000Y-39740533D01*
X110700000Y-39740533D02*
X110890476Y-40454819D01*
X110890476Y-40454819D02*
X111128572Y-39454819D01*
X112033333Y-40454819D02*
X111461905Y-40454819D01*
X111747619Y-40454819D02*
X111747619Y-39454819D01*
X111747619Y-39454819D02*
X111652381Y-39597676D01*
X111652381Y-39597676D02*
X111557143Y-39692914D01*
X111557143Y-39692914D02*
X111461905Y-39740533D01*
X121104819Y-89542857D02*
X120628628Y-89876190D01*
X121104819Y-90114285D02*
X120104819Y-90114285D01*
X120104819Y-90114285D02*
X120104819Y-89733333D01*
X120104819Y-89733333D02*
X120152438Y-89638095D01*
X120152438Y-89638095D02*
X120200057Y-89590476D01*
X120200057Y-89590476D02*
X120295295Y-89542857D01*
X120295295Y-89542857D02*
X120438152Y-89542857D01*
X120438152Y-89542857D02*
X120533390Y-89590476D01*
X120533390Y-89590476D02*
X120581009Y-89638095D01*
X120581009Y-89638095D02*
X120628628Y-89733333D01*
X120628628Y-89733333D02*
X120628628Y-90114285D01*
X120104819Y-89209523D02*
X120104819Y-88590476D01*
X120104819Y-88590476D02*
X120485771Y-88923809D01*
X120485771Y-88923809D02*
X120485771Y-88780952D01*
X120485771Y-88780952D02*
X120533390Y-88685714D01*
X120533390Y-88685714D02*
X120581009Y-88638095D01*
X120581009Y-88638095D02*
X120676247Y-88590476D01*
X120676247Y-88590476D02*
X120914342Y-88590476D01*
X120914342Y-88590476D02*
X121009580Y-88638095D01*
X121009580Y-88638095D02*
X121057200Y-88685714D01*
X121057200Y-88685714D02*
X121104819Y-88780952D01*
X121104819Y-88780952D02*
X121104819Y-89066666D01*
X121104819Y-89066666D02*
X121057200Y-89161904D01*
X121057200Y-89161904D02*
X121009580Y-89209523D01*
X121104819Y-88114285D02*
X121104819Y-87923809D01*
X121104819Y-87923809D02*
X121057200Y-87828571D01*
X121057200Y-87828571D02*
X121009580Y-87780952D01*
X121009580Y-87780952D02*
X120866723Y-87685714D01*
X120866723Y-87685714D02*
X120676247Y-87638095D01*
X120676247Y-87638095D02*
X120295295Y-87638095D01*
X120295295Y-87638095D02*
X120200057Y-87685714D01*
X120200057Y-87685714D02*
X120152438Y-87733333D01*
X120152438Y-87733333D02*
X120104819Y-87828571D01*
X120104819Y-87828571D02*
X120104819Y-88019047D01*
X120104819Y-88019047D02*
X120152438Y-88114285D01*
X120152438Y-88114285D02*
X120200057Y-88161904D01*
X120200057Y-88161904D02*
X120295295Y-88209523D01*
X120295295Y-88209523D02*
X120533390Y-88209523D01*
X120533390Y-88209523D02*
X120628628Y-88161904D01*
X120628628Y-88161904D02*
X120676247Y-88114285D01*
X120676247Y-88114285D02*
X120723866Y-88019047D01*
X120723866Y-88019047D02*
X120723866Y-87828571D01*
X120723866Y-87828571D02*
X120676247Y-87733333D01*
X120676247Y-87733333D02*
X120628628Y-87685714D01*
X120628628Y-87685714D02*
X120533390Y-87638095D01*
X107134819Y-161932857D02*
X106658628Y-162266190D01*
X107134819Y-162504285D02*
X106134819Y-162504285D01*
X106134819Y-162504285D02*
X106134819Y-162123333D01*
X106134819Y-162123333D02*
X106182438Y-162028095D01*
X106182438Y-162028095D02*
X106230057Y-161980476D01*
X106230057Y-161980476D02*
X106325295Y-161932857D01*
X106325295Y-161932857D02*
X106468152Y-161932857D01*
X106468152Y-161932857D02*
X106563390Y-161980476D01*
X106563390Y-161980476D02*
X106611009Y-162028095D01*
X106611009Y-162028095D02*
X106658628Y-162123333D01*
X106658628Y-162123333D02*
X106658628Y-162504285D01*
X107134819Y-160980476D02*
X107134819Y-161551904D01*
X107134819Y-161266190D02*
X106134819Y-161266190D01*
X106134819Y-161266190D02*
X106277676Y-161361428D01*
X106277676Y-161361428D02*
X106372914Y-161456666D01*
X106372914Y-161456666D02*
X106420533Y-161551904D01*
X106468152Y-160123333D02*
X107134819Y-160123333D01*
X106087200Y-160361428D02*
X106801485Y-160599523D01*
X106801485Y-160599523D02*
X106801485Y-159980476D01*
X117454819Y-160571666D02*
X116978628Y-160904999D01*
X117454819Y-161143094D02*
X116454819Y-161143094D01*
X116454819Y-161143094D02*
X116454819Y-160762142D01*
X116454819Y-160762142D02*
X116502438Y-160666904D01*
X116502438Y-160666904D02*
X116550057Y-160619285D01*
X116550057Y-160619285D02*
X116645295Y-160571666D01*
X116645295Y-160571666D02*
X116788152Y-160571666D01*
X116788152Y-160571666D02*
X116883390Y-160619285D01*
X116883390Y-160619285D02*
X116931009Y-160666904D01*
X116931009Y-160666904D02*
X116978628Y-160762142D01*
X116978628Y-160762142D02*
X116978628Y-161143094D01*
X116454819Y-159666904D02*
X116454819Y-160143094D01*
X116454819Y-160143094D02*
X116931009Y-160190713D01*
X116931009Y-160190713D02*
X116883390Y-160143094D01*
X116883390Y-160143094D02*
X116835771Y-160047856D01*
X116835771Y-160047856D02*
X116835771Y-159809761D01*
X116835771Y-159809761D02*
X116883390Y-159714523D01*
X116883390Y-159714523D02*
X116931009Y-159666904D01*
X116931009Y-159666904D02*
X117026247Y-159619285D01*
X117026247Y-159619285D02*
X117264342Y-159619285D01*
X117264342Y-159619285D02*
X117359580Y-159666904D01*
X117359580Y-159666904D02*
X117407200Y-159714523D01*
X117407200Y-159714523D02*
X117454819Y-159809761D01*
X117454819Y-159809761D02*
X117454819Y-160047856D01*
X117454819Y-160047856D02*
X117407200Y-160143094D01*
X117407200Y-160143094D02*
X117359580Y-160190713D01*
X125174819Y-58333333D02*
X125889104Y-58333333D01*
X125889104Y-58333333D02*
X126031961Y-58380952D01*
X126031961Y-58380952D02*
X126127200Y-58476190D01*
X126127200Y-58476190D02*
X126174819Y-58619047D01*
X126174819Y-58619047D02*
X126174819Y-58714285D01*
X125174819Y-57380952D02*
X125174819Y-57857142D01*
X125174819Y-57857142D02*
X125651009Y-57904761D01*
X125651009Y-57904761D02*
X125603390Y-57857142D01*
X125603390Y-57857142D02*
X125555771Y-57761904D01*
X125555771Y-57761904D02*
X125555771Y-57523809D01*
X125555771Y-57523809D02*
X125603390Y-57428571D01*
X125603390Y-57428571D02*
X125651009Y-57380952D01*
X125651009Y-57380952D02*
X125746247Y-57333333D01*
X125746247Y-57333333D02*
X125984342Y-57333333D01*
X125984342Y-57333333D02*
X126079580Y-57380952D01*
X126079580Y-57380952D02*
X126127200Y-57428571D01*
X126127200Y-57428571D02*
X126174819Y-57523809D01*
X126174819Y-57523809D02*
X126174819Y-57761904D01*
X126174819Y-57761904D02*
X126127200Y-57857142D01*
X126127200Y-57857142D02*
X126079580Y-57904761D01*
X124914819Y-154312857D02*
X124438628Y-154646190D01*
X124914819Y-154884285D02*
X123914819Y-154884285D01*
X123914819Y-154884285D02*
X123914819Y-154503333D01*
X123914819Y-154503333D02*
X123962438Y-154408095D01*
X123962438Y-154408095D02*
X124010057Y-154360476D01*
X124010057Y-154360476D02*
X124105295Y-154312857D01*
X124105295Y-154312857D02*
X124248152Y-154312857D01*
X124248152Y-154312857D02*
X124343390Y-154360476D01*
X124343390Y-154360476D02*
X124391009Y-154408095D01*
X124391009Y-154408095D02*
X124438628Y-154503333D01*
X124438628Y-154503333D02*
X124438628Y-154884285D01*
X124010057Y-153931904D02*
X123962438Y-153884285D01*
X123962438Y-153884285D02*
X123914819Y-153789047D01*
X123914819Y-153789047D02*
X123914819Y-153550952D01*
X123914819Y-153550952D02*
X123962438Y-153455714D01*
X123962438Y-153455714D02*
X124010057Y-153408095D01*
X124010057Y-153408095D02*
X124105295Y-153360476D01*
X124105295Y-153360476D02*
X124200533Y-153360476D01*
X124200533Y-153360476D02*
X124343390Y-153408095D01*
X124343390Y-153408095D02*
X124914819Y-153979523D01*
X124914819Y-153979523D02*
X124914819Y-153360476D01*
X124010057Y-152979523D02*
X123962438Y-152931904D01*
X123962438Y-152931904D02*
X123914819Y-152836666D01*
X123914819Y-152836666D02*
X123914819Y-152598571D01*
X123914819Y-152598571D02*
X123962438Y-152503333D01*
X123962438Y-152503333D02*
X124010057Y-152455714D01*
X124010057Y-152455714D02*
X124105295Y-152408095D01*
X124105295Y-152408095D02*
X124200533Y-152408095D01*
X124200533Y-152408095D02*
X124343390Y-152455714D01*
X124343390Y-152455714D02*
X124914819Y-153027142D01*
X124914819Y-153027142D02*
X124914819Y-152408095D01*
%TO.C,R7*%
D12*
X117735000Y-152272936D02*
X117735000Y-152727064D01*
X116265000Y-152272936D02*
X116265000Y-152727064D01*
%TO.C,R24*%
X104735000Y-152272936D02*
X104735000Y-152727064D01*
X103265000Y-152272936D02*
X103265000Y-152727064D01*
%TO.C,R16*%
X103405000Y-157522936D02*
X103405000Y-157977064D01*
X104875000Y-157522936D02*
X104875000Y-157977064D01*
%TO.C,JP1*%
X127415000Y-100600000D02*
X130215000Y-100600000D01*
X127415000Y-102600000D02*
X127415000Y-100600000D01*
X130215000Y-100600000D02*
X130215000Y-102600000D01*
X130215000Y-102600000D02*
X127415000Y-102600000D01*
%TO.C,EXT1*%
X76630000Y-50040000D02*
X76630000Y-100960000D01*
X76630000Y-50040000D02*
X79230000Y-50040000D01*
X76630000Y-100960000D02*
X81830000Y-100960000D01*
X79230000Y-50040000D02*
X79230000Y-52640000D01*
X79230000Y-52640000D02*
X81830000Y-52640000D01*
X80500000Y-50040000D02*
X81830000Y-50040000D01*
X81830000Y-50040000D02*
X81830000Y-51370000D01*
X81830000Y-52640000D02*
X81830000Y-100960000D01*
%TO.C,R23*%
X95765000Y-152272936D02*
X95765000Y-152727064D01*
X97235000Y-152272936D02*
X97235000Y-152727064D01*
%TO.C,R33*%
X118645000Y-157522936D02*
X118645000Y-157977064D01*
X120115000Y-157522936D02*
X120115000Y-157977064D01*
%TO.C,R37*%
X116465000Y-53439564D02*
X116465000Y-52985436D01*
X117935000Y-53439564D02*
X117935000Y-52985436D01*
%TO.C,R28*%
X88265000Y-152272936D02*
X88265000Y-152727064D01*
X89735000Y-152272936D02*
X89735000Y-152727064D01*
%TO.C,R32*%
X95785000Y-157522936D02*
X95785000Y-157977064D01*
X97255000Y-157522936D02*
X97255000Y-157977064D01*
%TO.C,D1*%
X92980000Y-105590000D02*
X92980000Y-109600000D01*
X94980000Y-105590000D02*
X92980000Y-105590000D01*
X94980000Y-105590000D02*
X94980000Y-109600000D01*
%TO.C,SW7*%
X124700000Y-43800000D02*
X124700000Y-48300000D01*
X127200000Y-49550000D02*
X128700000Y-49550000D01*
X128700000Y-42550000D02*
X127200000Y-42550000D01*
X131200000Y-48300000D02*
X131200000Y-43800000D01*
%TO.C,JP3*%
X127415000Y-92980000D02*
X130215000Y-92980000D01*
X127415000Y-94980000D02*
X127415000Y-92980000D01*
X130215000Y-92980000D02*
X130215000Y-94980000D01*
X130215000Y-94980000D02*
X127415000Y-94980000D01*
%TO.C,R12*%
X98265000Y-152272936D02*
X98265000Y-152727064D01*
X99735000Y-152272936D02*
X99735000Y-152727064D01*
%TO.C,R38*%
X122607400Y-84605864D02*
X122607400Y-84151736D01*
X124077400Y-84605864D02*
X124077400Y-84151736D01*
%TO.C,EXT2*%
X99630000Y-50040000D02*
X99630000Y-100960000D01*
X99630000Y-50040000D02*
X102230000Y-50040000D01*
X99630000Y-100960000D02*
X104830000Y-100960000D01*
X102230000Y-50040000D02*
X102230000Y-52640000D01*
X102230000Y-52640000D02*
X104830000Y-52640000D01*
X103500000Y-50040000D02*
X104830000Y-50040000D01*
X104830000Y-50040000D02*
X104830000Y-51370000D01*
X104830000Y-52640000D02*
X104830000Y-100960000D01*
%TO.C,JP4*%
X127415000Y-105045000D02*
X130215000Y-105045000D01*
X127415000Y-107045000D02*
X127415000Y-105045000D01*
X130215000Y-105045000D02*
X130215000Y-107045000D01*
X130215000Y-107045000D02*
X127415000Y-107045000D01*
%TO.C,R3*%
X90705000Y-157522936D02*
X90705000Y-157977064D01*
X92175000Y-157522936D02*
X92175000Y-157977064D01*
%TO.C,R13*%
X109735000Y-152272936D02*
X109735000Y-152727064D01*
X108265000Y-152272936D02*
X108265000Y-152727064D01*
%TO.C,R27*%
X124965000Y-53427064D02*
X124965000Y-52972936D01*
X126435000Y-53427064D02*
X126435000Y-52972936D01*
%TO.C,XS1*%
D11*
X82950000Y-39200000D02*
X85650000Y-39200000D01*
X82950000Y-42200000D02*
X82950000Y-39200000D01*
X82950000Y-45000000D02*
X82950000Y-52200000D01*
X84500000Y-53200000D02*
X87500000Y-53200000D01*
X85650000Y-39200000D02*
X86700000Y-39500000D01*
X86700000Y-39500000D02*
X87800000Y-39700000D01*
X87500000Y-54500000D02*
X87500000Y-53200000D01*
X87800000Y-39700000D02*
X88950000Y-39850000D01*
X87950000Y-52300000D02*
X88250000Y-52300000D01*
X87950000Y-52600000D02*
X87950000Y-52300000D01*
X88250000Y-52300000D02*
X88250000Y-52600000D01*
X88250000Y-52600000D02*
X87950000Y-52600000D01*
X88950000Y-39850000D02*
X90300000Y-39900000D01*
X90300000Y-39900000D02*
X97650000Y-39900000D01*
X97650000Y-39900000D02*
X97650000Y-42200000D01*
X97650000Y-52200000D02*
X97650000Y-45000000D01*
%TO.C,R11*%
D12*
X113765000Y-152272936D02*
X113765000Y-152727064D01*
X115235000Y-152272936D02*
X115235000Y-152727064D01*
%TO.C,R18*%
X111265000Y-152272936D02*
X111265000Y-152727064D01*
X112735000Y-152272936D02*
X112735000Y-152727064D01*
%TO.C,R21*%
X98325000Y-157522936D02*
X98325000Y-157977064D01*
X99795000Y-157522936D02*
X99795000Y-157977064D01*
%TO.C,R17*%
X85625000Y-157522936D02*
X85625000Y-157977064D01*
X87095000Y-157522936D02*
X87095000Y-157977064D01*
%TO.C,R36*%
X107865000Y-53327064D02*
X107865000Y-52872936D01*
X109335000Y-53327064D02*
X109335000Y-52872936D01*
%TO.C,R15*%
X105765000Y-152272936D02*
X105765000Y-152727064D01*
X107235000Y-152272936D02*
X107235000Y-152727064D01*
%TO.C,R4*%
X83085000Y-157522936D02*
X83085000Y-157977064D01*
X84555000Y-157522936D02*
X84555000Y-157977064D01*
%TO.C,SW2*%
X116150000Y-43800000D02*
X116150000Y-48300000D01*
X118650000Y-49550000D02*
X120150000Y-49550000D01*
X120150000Y-42550000D02*
X118650000Y-42550000D01*
X122650000Y-48300000D02*
X122650000Y-43800000D01*
%TO.C,R8*%
X90765000Y-152272936D02*
X90765000Y-152727064D01*
X92235000Y-152272936D02*
X92235000Y-152727064D01*
%TO.C,JP2*%
X127415000Y-96917000D02*
X130215000Y-96917000D01*
X127415000Y-98917000D02*
X127415000Y-96917000D01*
X130215000Y-96917000D02*
X130215000Y-98917000D01*
X130215000Y-98917000D02*
X127415000Y-98917000D01*
%TO.C,R6*%
X93265000Y-152442936D02*
X93265000Y-152897064D01*
X94735000Y-152442936D02*
X94735000Y-152897064D01*
%TO.C,R10*%
X88165000Y-157522936D02*
X88165000Y-157977064D01*
X89635000Y-157522936D02*
X89635000Y-157977064D01*
%TO.C,R9*%
X113565000Y-157522936D02*
X113565000Y-157977064D01*
X115035000Y-157522936D02*
X115035000Y-157977064D01*
%TO.C,SW1*%
X107600000Y-43800000D02*
X107600000Y-48300000D01*
X110100000Y-49550000D02*
X111600000Y-49550000D01*
X111600000Y-42550000D02*
X110100000Y-42550000D01*
X114100000Y-48300000D02*
X114100000Y-43800000D01*
%TO.C,R39*%
X119915000Y-84727064D02*
X119915000Y-84272936D01*
X121385000Y-84727064D02*
X121385000Y-84272936D01*
%TO.C,R14*%
X105945000Y-157522936D02*
X105945000Y-157977064D01*
X107415000Y-157522936D02*
X107415000Y-157977064D01*
%TO.C,R5*%
X116265000Y-157272936D02*
X116265000Y-157727064D01*
X117735000Y-157272936D02*
X117735000Y-157727064D01*
%TO.C,J5*%
X114340000Y-56620000D02*
X114340000Y-59380000D01*
X122070000Y-56620000D02*
X114340000Y-56620000D01*
X122070000Y-56620000D02*
X122070000Y-59380000D01*
X122070000Y-59380000D02*
X114340000Y-59380000D01*
X123340000Y-56620000D02*
X124720000Y-56620000D01*
X124720000Y-56620000D02*
X124720000Y-58000000D01*
%TO.C,R22*%
X123725000Y-157522936D02*
X123725000Y-157977064D01*
X125195000Y-157522936D02*
X125195000Y-157977064D01*
%TD*%
M02*
