M48
; DRILL file KiCad 10.0.0-1.fc43 date 2026-04-10T07:11:55
; FORMAT={-:-/ absolute / metric / decimal}
; #@! TF.CreationDate,2026-04-10T07:11:55+01:00
; #@! TF.GenerationSoftware,Kicad,Pcbnew,10.0.0-1.fc43
; #@! TF.FileFunction,Plated,1,2,PTH
FMAT,2
METRIC
; #@! TA.AperFunction,Plated,PTH,ViaDrill
T1C0.300
; #@! TA.AperFunction,Plated,PTH,ComponentDrill
T2C1.000
; #@! TA.AperFunction,Plated,PTH,ComponentDrill
T3C1.100
%
G90
G05
T1
X78.0Y-111.5
X78.0Y-113.0
X78.0Y-160.5
X79.375Y-49.53
X79.375Y-65.405
X79.5Y-132.0
X80.5Y-111.5
X81.0Y-162.0
X81.915Y-65.405
X82.0Y-131.0
X82.5Y-160.5
X82.55Y-41.91
X82.677Y-70.231
X82.931Y-100.584
X83.185Y-79.248
X83.185Y-86.487
X83.22Y-164.0
X83.312Y-71.755
X84.455Y-63.5
X84.455Y-66.01
X85.5Y-136.5
X85.725Y-51.943
X85.725Y-54.102
X85.725Y-85.471
X85.76Y-62.081
X86.106Y-59.055
X86.96Y-82.916
X87.0Y-60.36
X87.503Y-82.0
X87.503Y-107.315
X88.103Y-89.662
X88.9Y-58.293
X88.935Y-60.36
X88.935Y-62.081
X89.0Y-164.5
X89.535Y-66.04
X89.535Y-68.58
X89.535Y-128.0
X90.135Y-82.0
X90.17Y-69.215
X90.77Y-60.96
X91.0Y-164.5
X91.275Y-62.166
X91.4Y-50.8
X91.44Y-48.26
X91.44Y-60.325
X91.5Y-155.5
X92.075Y-76.77
X92.583Y-80.772
X92.71Y-59.525
X92.71Y-60.325
X93.091Y-64.805
X93.24Y-156.5
X93.345Y-50.8
X93.472Y-104.394
X93.5Y-164.5
X94.0Y-113.0
X94.234Y-55.118
X94.281Y-56.896
X94.615Y-49.53
X95.5Y-103.5
X95.68Y-150.0
X95.885Y-66.04
X96.0Y-68.0
X96.0Y-164.0
X96.266Y-58.439
X96.5Y-137.5
X97.5Y-142.0
X97.5Y-150.0
X97.79Y-41.91
X97.79Y-51.435
X97.79Y-61.595
X97.79Y-69.215
X97.79Y-74.295
X97.917Y-85.725
X98.121Y-86.741
X98.806Y-56.261
X99.0Y-147.0
X99.0Y-155.0
X99.0Y-164.0
X99.883Y-101.092
X101.0Y-145.5
X101.0Y-155.0
X101.083Y-104.775
X101.5Y-144.0
X102.0Y-161.5
X103.0Y-131.0
X103.505Y-48.26
X104.0Y-132.5
X104.0Y-164.0
X105.283Y-53.594
X105.41Y-95.885
X106.045Y-81.25
X106.045Y-99.695
X106.5Y-144.5
X106.5Y-164.0
X107.0Y-127.5
X107.061Y-51.816
X107.569Y-53.848
X108.4Y-147.0
X108.5Y-75.5
X108.585Y-55.899
X109.0Y-145.5
X109.0Y-164.0
X111.0Y-161.5
X111.5Y-164.5
X112.0Y-141.0
X113.03Y-56.515
X113.792Y-59.182
X114.0Y-164.5
X114.5Y-103.5
X115.57Y-60.93
X115.951Y-86.233
X116.5Y-155.0
X117.0Y-164.5
X117.094Y-55.626
X117.5Y-65.0
X118.441Y-82.804
X118.5Y-88.5
X118.745Y-60.96
X119.0Y-155.0
X119.5Y-69.0
X120.5Y-88.5
X120.65Y-81.915
X121.92Y-76.835
X123.342Y-81.915
X124.46Y-85.725
X125.095Y-81.915
X125.095Y-96.52
X125.73Y-60.96
X125.984Y-55.372
X126.238Y-91.313
X126.283Y-97.155
X126.619Y-108.077
X127.483Y-99.695
X128.27Y-62.23
X128.27Y-97.461
X129.54Y-85.725
X129.54Y-95.885
X129.54Y-99.695
X131.445Y-99.695
X132.08Y-95.885
T2
X77.96Y-51.37
X77.96Y-53.91
X77.96Y-56.45
X77.96Y-58.99
X77.96Y-61.53
X77.96Y-64.07
X77.96Y-66.61
X77.96Y-69.15
X77.96Y-71.69
X77.96Y-74.23
X77.96Y-76.77
X77.96Y-79.31
X77.96Y-81.85
X77.96Y-84.39
X77.96Y-86.93
X77.96Y-89.47
X77.96Y-92.01
X77.96Y-94.55
X77.96Y-97.09
X77.96Y-99.63
X80.5Y-51.37
X80.5Y-53.91
X80.5Y-56.45
X80.5Y-58.99
X80.5Y-61.53
X80.5Y-64.07
X80.5Y-66.61
X80.5Y-69.15
X80.5Y-71.69
X80.5Y-74.23
X80.5Y-76.77
X80.5Y-79.31
X80.5Y-81.85
X80.5Y-84.39
X80.5Y-86.93
X80.5Y-89.47
X80.5Y-92.01
X80.5Y-94.55
X80.5Y-97.09
X80.5Y-99.63
X100.96Y-51.37
X100.96Y-53.91
X100.96Y-56.45
X100.96Y-58.99
X100.96Y-61.53
X100.96Y-64.07
X100.96Y-66.61
X100.96Y-69.15
X100.96Y-71.69
X100.96Y-74.23
X100.96Y-76.77
X100.96Y-79.31
X100.96Y-81.85
X100.96Y-84.39
X100.96Y-86.93
X100.96Y-89.47
X100.96Y-92.01
X100.96Y-94.55
X100.96Y-97.09
X100.96Y-99.63
X103.5Y-51.37
X103.5Y-53.91
X103.5Y-56.45
X103.5Y-58.99
X103.5Y-61.53
X103.5Y-64.07
X103.5Y-66.61
X103.5Y-69.15
X103.5Y-71.69
X103.5Y-74.23
X103.5Y-76.77
X103.5Y-79.31
X103.5Y-81.85
X103.5Y-84.39
X103.5Y-86.93
X103.5Y-89.47
X103.5Y-92.01
X103.5Y-94.55
X103.5Y-97.09
X103.5Y-99.63
X115.72Y-58.0
X118.26Y-58.0
X120.8Y-58.0
X123.34Y-58.0
T3
X108.6Y-42.8
X108.6Y-49.3
X113.1Y-42.8
X113.1Y-49.3
X117.15Y-42.8
X117.15Y-49.3
X121.65Y-42.8
X121.65Y-49.3
X125.7Y-42.8
X125.7Y-49.3
X130.2Y-42.8
X130.2Y-49.3
M30
