%TF.GenerationSoftware,KiCad,Pcbnew,10.0.0-1.fc43*%
%TF.CreationDate,2026-04-10T07:11:58+01:00*%
%TF.ProjectId,pico_cartridge_2890,7069636f-5f63-4617-9274-72696467655f,rev?*%
%TF.SameCoordinates,Original*%
%TF.FileFunction,Paste,Top*%
%TF.FilePolarity,Positive*%
%FSLAX46Y46*%
G04 Gerber Fmt 4.6, Leading zero omitted, Abs format (unit mm)*
G04 Created by KiCad (PCBNEW 10.0.0-1.fc43) date 2026-04-10 07:11:58*
%MOMM*%
%LPD*%
G01*
G04 APERTURE LIST*
G04 Aperture macros list*
%AMRoundRect*
0 Rectangle with rounded corners*
0 $1 Rounding radius*
0 $2 $3 $4 $5 $6 $7 $8 $9 X,Y pos of 4 corners*
0 Add a 4 corners polygon primitive as box body*
4,1,4,$2,$3,$4,$5,$6,$7,$8,$9,$2,$3,0*
0 Add four circle primitives for the rounded corners*
1,1,$1+$1,$2,$3*
1,1,$1+$1,$4,$5*
1,1,$1+$1,$6,$7*
1,1,$1+$1,$8,$9*
0 Add four rect primitives between the rounded corners*
20,1,$1+$1,$2,$3,$4,$5,0*
20,1,$1+$1,$4,$5,$6,$7,0*
20,1,$1+$1,$6,$7,$8,$9,0*
20,1,$1+$1,$8,$9,$2,$3,0*%
G04 Aperture macros list end*
%ADD10RoundRect,0.250000X-0.450000X0.350000X-0.450000X-0.350000X0.450000X-0.350000X0.450000X0.350000X0*%
%ADD11RoundRect,0.250000X0.450000X-0.262500X0.450000X0.262500X-0.450000X0.262500X-0.450000X-0.262500X0*%
%ADD12RoundRect,0.225000X-0.375000X0.225000X-0.375000X-0.225000X0.375000X-0.225000X0.375000X0.225000X0*%
%ADD13RoundRect,0.250000X0.450000X-0.350000X0.450000X0.350000X-0.450000X0.350000X-0.450000X-0.350000X0*%
%ADD14RoundRect,0.300000X-0.700000X5.200000X-0.700000X-5.200000X0.700000X-5.200000X0.700000X5.200000X0*%
%ADD15RoundRect,0.300000X-0.700000X4.700000X-0.700000X-4.700000X0.700000X-4.700000X0.700000X4.700000X0*%
%ADD16R,0.700000X1.600000*%
%ADD17R,1.200000X1.400000*%
%ADD18R,1.200000X2.200000*%
%ADD19R,1.600000X1.400000*%
G04 APERTURE END LIST*
D10*
%TO.C,R7*%
X117000000Y-153500000D03*
X117000000Y-151500000D03*
%TD*%
%TO.C,R24*%
X104000000Y-153500000D03*
X104000000Y-151500000D03*
%TD*%
%TO.C,R16*%
X104140000Y-156750000D03*
X104140000Y-158750000D03*
%TD*%
%TO.C,R23*%
X96500000Y-151500000D03*
X96500000Y-153500000D03*
%TD*%
%TO.C,R33*%
X119380000Y-156750000D03*
X119380000Y-158750000D03*
%TD*%
D11*
%TO.C,R37*%
X117200000Y-54125000D03*
X117200000Y-52300000D03*
%TD*%
D10*
%TO.C,R28*%
X89000000Y-151500000D03*
X89000000Y-153500000D03*
%TD*%
%TO.C,R32*%
X96520000Y-156750000D03*
X96520000Y-158750000D03*
%TD*%
D12*
%TO.C,D1*%
X93980000Y-106300000D03*
X93980000Y-109600000D03*
%TD*%
D10*
%TO.C,R12*%
X99000000Y-151500000D03*
X99000000Y-153500000D03*
%TD*%
D13*
%TO.C,R38*%
X123342400Y-85378800D03*
X123342400Y-83378800D03*
%TD*%
D10*
%TO.C,R3*%
X91440000Y-156750000D03*
X91440000Y-158750000D03*
%TD*%
D14*
%TO.C,J2*%
X124440000Y-170730000D03*
X121940000Y-170730000D03*
D15*
X119360000Y-170230000D03*
X116820000Y-170230000D03*
X114280000Y-170230000D03*
X111740000Y-170230000D03*
X109200000Y-170230000D03*
X106660000Y-170230000D03*
X104120000Y-170230000D03*
X101580000Y-170230000D03*
X99040000Y-170230000D03*
X96500000Y-170230000D03*
X93960000Y-170230000D03*
X91420000Y-170230000D03*
X88880000Y-170230000D03*
D14*
X86340000Y-170730000D03*
X83800000Y-170730000D03*
%TD*%
D10*
%TO.C,R13*%
X109000000Y-151500000D03*
X109000000Y-153500000D03*
%TD*%
D11*
%TO.C,R27*%
X125700000Y-54112500D03*
X125700000Y-52287500D03*
%TD*%
D16*
%TO.C,XS1*%
X88100000Y-53700000D03*
X89200000Y-53700000D03*
X90300000Y-53700000D03*
X91400000Y-53700000D03*
X92500000Y-53700000D03*
D17*
X98050000Y-53200000D03*
D18*
X98050000Y-43600000D03*
D16*
X93600000Y-53700000D03*
D19*
X83450000Y-53200000D03*
D18*
X82550000Y-43600000D03*
D16*
X94700000Y-53700000D03*
X95800000Y-53700000D03*
X96900000Y-53700000D03*
%TD*%
D10*
%TO.C,R11*%
X114500000Y-151500000D03*
X114500000Y-153500000D03*
%TD*%
%TO.C,R18*%
X112000000Y-151500000D03*
X112000000Y-153500000D03*
%TD*%
%TO.C,R21*%
X99060000Y-156750000D03*
X99060000Y-158750000D03*
%TD*%
%TO.C,R17*%
X86360000Y-156750000D03*
X86360000Y-158750000D03*
%TD*%
D11*
%TO.C,R36*%
X108600000Y-54012500D03*
X108600000Y-52187500D03*
%TD*%
D10*
%TO.C,R15*%
X106500000Y-151500000D03*
X106500000Y-153500000D03*
%TD*%
%TO.C,R4*%
X83820000Y-156750000D03*
X83820000Y-158750000D03*
%TD*%
%TO.C,R8*%
X91500000Y-151500000D03*
X91500000Y-153500000D03*
%TD*%
%TO.C,R6*%
X94000000Y-151670000D03*
X94000000Y-153670000D03*
%TD*%
%TO.C,R10*%
X88900000Y-156750000D03*
X88900000Y-158750000D03*
%TD*%
%TO.C,R9*%
X114300000Y-156750000D03*
X114300000Y-158750000D03*
%TD*%
D13*
%TO.C,R39*%
X120650000Y-85500000D03*
X120650000Y-83500000D03*
%TD*%
D10*
%TO.C,R14*%
X106680000Y-156750000D03*
X106680000Y-158750000D03*
%TD*%
%TO.C,R5*%
X117000000Y-156500000D03*
X117000000Y-158500000D03*
%TD*%
%TO.C,R22*%
X124460000Y-156750000D03*
X124460000Y-158750000D03*
%TD*%
M02*
