%TF.GenerationSoftware,KiCad,Pcbnew,9.0.6-1.fc43*%
%TF.CreationDate,2026-03-30T07:03:21+01:00*%
%TF.ProjectId,pico_cartridge_2890,7069636f-5f63-4617-9274-72696467655f,rev?*%
%TF.SameCoordinates,Original*%
%TF.FileFunction,Soldermask,Top*%
%TF.FilePolarity,Negative*%
%FSLAX46Y46*%
G04 Gerber Fmt 4.6, Leading zero omitted, Abs format (unit mm)*
G04 Created by KiCad (PCBNEW 9.0.6-1.fc43) date 2026-03-30 07:03:21*
%MOMM*%
%LPD*%
G01*
G04 APERTURE LIST*
G04 Aperture macros list*
%AMRoundRect*
0 Rectangle with rounded corners*
0 $1 Rounding radius*
0 $2 $3 $4 $5 $6 $7 $8 $9 X,Y pos of 4 corners*
0 Add a 4 corners polygon primitive as box body*
4,1,4,$2,$3,$4,$5,$6,$7,$8,$9,$2,$3,0*
0 Add four circle primitives for the rounded corners*
1,1,$1+$1,$2,$3*
1,1,$1+$1,$4,$5*
1,1,$1+$1,$6,$7*
1,1,$1+$1,$8,$9*
0 Add four rect primitives between the rounded corners*
20,1,$1+$1,$2,$3,$4,$5,0*
20,1,$1+$1,$4,$5,$6,$7,0*
20,1,$1+$1,$6,$7,$8,$9,0*
20,1,$1+$1,$8,$9,$2,$3,0*%
%AMFreePoly0*
4,1,6,1.000000,0.000000,0.500000,-0.750000,-0.500000,-0.750000,-0.500000,0.750000,0.500000,0.750000,1.000000,0.000000,1.000000,0.000000,$1*%
%AMFreePoly1*
4,1,6,0.500000,-0.750000,-0.650000,-0.750000,-0.150000,0.000000,-0.650000,0.750000,0.500000,0.750000,0.500000,-0.750000,0.500000,-0.750000,$1*%
G04 Aperture macros list end*
%ADD10R,0.700000X1.600000*%
%ADD11R,1.200000X1.400000*%
%ADD12R,1.200000X2.200000*%
%ADD13R,1.600000X1.400000*%
%ADD14RoundRect,0.250000X-0.450000X0.350000X-0.450000X-0.350000X0.450000X-0.350000X0.450000X0.350000X0*%
%ADD15R,1.700000X1.700000*%
%ADD16C,1.700000*%
%ADD17RoundRect,0.250000X0.450000X-0.262500X0.450000X0.262500X-0.450000X0.262500X-0.450000X-0.262500X0*%
%ADD18RoundRect,0.225000X-0.375000X0.225000X-0.375000X-0.225000X0.375000X-0.225000X0.375000X0.225000X0*%
%ADD19C,2.000000*%
%ADD20RoundRect,0.250000X0.450000X-0.350000X0.450000X0.350000X-0.450000X0.350000X-0.450000X-0.350000X0*%
%ADD21RoundRect,0.300000X-0.700000X5.200000X-0.700000X-5.200000X0.700000X-5.200000X0.700000X5.200000X0*%
%ADD22RoundRect,0.300000X-0.700000X4.700000X-0.700000X-4.700000X0.700000X-4.700000X0.700000X4.700000X0*%
%ADD23FreePoly0,0.000000*%
%ADD24FreePoly1,0.000000*%
G04 APERTURE END LIST*
%TO.C,JP4*%
G36*
X127590000Y-105295000D02*
G01*
X130040000Y-105295000D01*
X130040000Y-106795000D01*
X127590000Y-106795000D01*
X127590000Y-105295000D01*
G37*
%TO.C,JP2*%
G36*
X127590000Y-97167000D02*
G01*
X130040000Y-97167000D01*
X130040000Y-98667000D01*
X127590000Y-98667000D01*
X127590000Y-97167000D01*
G37*
%TO.C,JP1*%
G36*
X127590000Y-100850000D02*
G01*
X130040000Y-100850000D01*
X130040000Y-102350000D01*
X127590000Y-102350000D01*
X127590000Y-100850000D01*
G37*
%TO.C,JP3*%
G36*
X127590000Y-93230000D02*
G01*
X130040000Y-93230000D01*
X130040000Y-94730000D01*
X127590000Y-94730000D01*
X127590000Y-93230000D01*
G37*
%TD*%
D10*
%TO.C,XS1*%
X88100000Y-53700000D03*
X89200000Y-53700000D03*
X90300000Y-53700000D03*
X91400000Y-53700000D03*
X92500000Y-53700000D03*
D11*
X98050000Y-53200000D03*
D12*
X98050000Y-43600000D03*
D10*
X93600000Y-53700000D03*
D13*
X83450000Y-53200000D03*
D12*
X82550000Y-43600000D03*
D10*
X94700000Y-53700000D03*
X95800000Y-53700000D03*
X96900000Y-53700000D03*
%TD*%
D14*
%TO.C,R24*%
X104140000Y-151670000D03*
X104140000Y-153670000D03*
%TD*%
%TO.C,R23*%
X111760000Y-156750000D03*
X111760000Y-158750000D03*
%TD*%
%TO.C,R22*%
X124460000Y-156750000D03*
X124460000Y-158750000D03*
%TD*%
%TO.C,R21*%
X99060000Y-156750000D03*
X99060000Y-158750000D03*
%TD*%
%TO.C,R16*%
X104140000Y-156750000D03*
X104140000Y-158750000D03*
%TD*%
D15*
%TO.C,EXT1*%
X80500000Y-51370000D03*
D16*
X77960000Y-51370000D03*
X80500000Y-53910000D03*
X77960000Y-53910000D03*
X80500000Y-56450000D03*
X77960000Y-56450000D03*
X80500000Y-58990000D03*
X77960000Y-58990000D03*
X80500000Y-61530000D03*
X77960000Y-61530000D03*
X80500000Y-64070000D03*
X77960000Y-64070000D03*
X80500000Y-66610000D03*
X77960000Y-66610000D03*
X80500000Y-69150000D03*
X77960000Y-69150000D03*
X80500000Y-71690000D03*
X77960000Y-71690000D03*
X80500000Y-74230000D03*
X77960000Y-74230000D03*
X80500000Y-76770000D03*
X77960000Y-76770000D03*
X80500000Y-79310000D03*
X77960000Y-79310000D03*
X80500000Y-81850000D03*
X77960000Y-81850000D03*
X80500000Y-84390000D03*
X77960000Y-84390000D03*
X80500000Y-86930000D03*
X77960000Y-86930000D03*
X80500000Y-89470000D03*
X77960000Y-89470000D03*
X80500000Y-92010000D03*
X77960000Y-92010000D03*
X80500000Y-94550000D03*
X77960000Y-94550000D03*
X80500000Y-97090000D03*
X77960000Y-97090000D03*
X80500000Y-99630000D03*
X77960000Y-99630000D03*
%TD*%
D14*
%TO.C,R33*%
X119380000Y-156750000D03*
X119380000Y-158750000D03*
%TD*%
D17*
%TO.C,R37*%
X117200000Y-54125000D03*
X117200000Y-52300000D03*
%TD*%
D14*
%TO.C,R28*%
X119380000Y-151130000D03*
X119380000Y-153130000D03*
%TD*%
%TO.C,R32*%
X96520000Y-156750000D03*
X96520000Y-158750000D03*
%TD*%
D18*
%TO.C,D1*%
X93980000Y-106300000D03*
X93980000Y-109600000D03*
%TD*%
D14*
%TO.C,R7*%
X91440000Y-151670000D03*
X91440000Y-153670000D03*
%TD*%
D19*
%TO.C,SW7*%
X125700000Y-49300000D03*
X125700000Y-42800000D03*
X130200000Y-49300000D03*
X130200000Y-42800000D03*
%TD*%
D14*
%TO.C,R12*%
X109220000Y-156750000D03*
X109220000Y-158750000D03*
%TD*%
D20*
%TO.C,R38*%
X123342400Y-85378800D03*
X123342400Y-83378800D03*
%TD*%
D15*
%TO.C,EXT2*%
X103500000Y-51370000D03*
D16*
X100960000Y-51370000D03*
X103500000Y-53910000D03*
X100960000Y-53910000D03*
X103500000Y-56450000D03*
X100960000Y-56450000D03*
X103500000Y-58990000D03*
X100960000Y-58990000D03*
X103500000Y-61530000D03*
X100960000Y-61530000D03*
X103500000Y-64070000D03*
X100960000Y-64070000D03*
X103500000Y-66610000D03*
X100960000Y-66610000D03*
X103500000Y-69150000D03*
X100960000Y-69150000D03*
X103500000Y-71690000D03*
X100960000Y-71690000D03*
X103500000Y-74230000D03*
X100960000Y-74230000D03*
X103500000Y-76770000D03*
X100960000Y-76770000D03*
X103500000Y-79310000D03*
X100960000Y-79310000D03*
X103500000Y-81850000D03*
X100960000Y-81850000D03*
X103500000Y-84390000D03*
X100960000Y-84390000D03*
X103500000Y-86930000D03*
X100960000Y-86930000D03*
X103500000Y-89470000D03*
X100960000Y-89470000D03*
X103500000Y-92010000D03*
X100960000Y-92010000D03*
X103500000Y-94550000D03*
X100960000Y-94550000D03*
X103500000Y-97090000D03*
X100960000Y-97090000D03*
X103500000Y-99630000D03*
X100960000Y-99630000D03*
%TD*%
D14*
%TO.C,R3*%
X91440000Y-156750000D03*
X91440000Y-158750000D03*
%TD*%
D21*
%TO.C,J2*%
X124440000Y-170730000D03*
X121940000Y-170730000D03*
D22*
X119360000Y-170230000D03*
X116820000Y-170230000D03*
X114280000Y-170230000D03*
X111740000Y-170230000D03*
X109200000Y-170230000D03*
X106660000Y-170230000D03*
X104120000Y-170230000D03*
X101580000Y-170230000D03*
X99040000Y-170230000D03*
X96500000Y-170230000D03*
X93960000Y-170230000D03*
X91420000Y-170230000D03*
X88880000Y-170230000D03*
D21*
X86340000Y-170730000D03*
X83800000Y-170730000D03*
%TD*%
D20*
%TO.C,R13*%
X99060000Y-153670000D03*
X99060000Y-151670000D03*
%TD*%
D17*
%TO.C,R27*%
X125700000Y-54112500D03*
X125700000Y-52287500D03*
%TD*%
D14*
%TO.C,R11*%
X93980000Y-156750000D03*
X93980000Y-158750000D03*
%TD*%
%TO.C,R18*%
X96520000Y-151670000D03*
X96520000Y-153670000D03*
%TD*%
%TO.C,R17*%
X86360000Y-156750000D03*
X86360000Y-158750000D03*
%TD*%
D17*
%TO.C,R36*%
X108600000Y-54012500D03*
X108600000Y-52187500D03*
%TD*%
D14*
%TO.C,R15*%
X101600000Y-156750000D03*
X101600000Y-158750000D03*
%TD*%
%TO.C,R4*%
X83820000Y-156750000D03*
X83820000Y-158750000D03*
%TD*%
D19*
%TO.C,SW2*%
X117150000Y-49300000D03*
X117150000Y-42800000D03*
X121650000Y-49300000D03*
X121650000Y-42800000D03*
%TD*%
D14*
%TO.C,R8*%
X116840000Y-153130000D03*
X116840000Y-151130000D03*
%TD*%
%TO.C,R6*%
X111760000Y-151670000D03*
X111760000Y-153670000D03*
%TD*%
%TO.C,R10*%
X88900000Y-156750000D03*
X88900000Y-158750000D03*
%TD*%
%TO.C,R9*%
X114300000Y-156750000D03*
X114300000Y-158750000D03*
%TD*%
D19*
%TO.C,SW1*%
X108600000Y-49300000D03*
X108600000Y-42800000D03*
X113100000Y-49300000D03*
X113100000Y-42800000D03*
%TD*%
D20*
%TO.C,R39*%
X120650000Y-85500000D03*
X120650000Y-83500000D03*
%TD*%
D14*
%TO.C,R14*%
X106680000Y-156750000D03*
X106680000Y-158750000D03*
%TD*%
%TO.C,R5*%
X116840000Y-156750000D03*
X116840000Y-158750000D03*
%TD*%
D16*
%TO.C,J5*%
X115720000Y-58000000D03*
X118260000Y-58000000D03*
X120800000Y-58000000D03*
D15*
X123340000Y-58000000D03*
%TD*%
D23*
%TO.C,JP4*%
X128090000Y-106045000D03*
D24*
X129540000Y-106045000D03*
%TD*%
D23*
%TO.C,JP2*%
X128090000Y-97917000D03*
D24*
X129540000Y-97917000D03*
%TD*%
D23*
%TO.C,JP1*%
X128090000Y-101600000D03*
D24*
X129540000Y-101600000D03*
%TD*%
D23*
%TO.C,JP3*%
X128090000Y-93980000D03*
D24*
X129540000Y-93980000D03*
%TD*%
M02*
