%TF.GenerationSoftware,KiCad,Pcbnew,9.0.6-1.fc43*%
%TF.CreationDate,2026-03-30T07:03:20+01:00*%
%TF.ProjectId,pico_cartridge_2890,7069636f-5f63-4617-9274-72696467655f,rev?*%
%TF.SameCoordinates,Original*%
%TF.FileFunction,Copper,L1,Top*%
%TF.FilePolarity,Positive*%
%FSLAX46Y46*%
G04 Gerber Fmt 4.6, Leading zero omitted, Abs format (unit mm)*
G04 Created by KiCad (PCBNEW 9.0.6-1.fc43) date 2026-03-30 07:03:20*
%MOMM*%
%LPD*%
G01*
G04 APERTURE LIST*
G04 Aperture macros list*
%AMRoundRect*
0 Rectangle with rounded corners*
0 $1 Rounding radius*
0 $2 $3 $4 $5 $6 $7 $8 $9 X,Y pos of 4 corners*
0 Add a 4 corners polygon primitive as box body*
4,1,4,$2,$3,$4,$5,$6,$7,$8,$9,$2,$3,0*
0 Add four circle primitives for the rounded corners*
1,1,$1+$1,$2,$3*
1,1,$1+$1,$4,$5*
1,1,$1+$1,$6,$7*
1,1,$1+$1,$8,$9*
0 Add four rect primitives between the rounded corners*
20,1,$1+$1,$2,$3,$4,$5,0*
20,1,$1+$1,$4,$5,$6,$7,0*
20,1,$1+$1,$6,$7,$8,$9,0*
20,1,$1+$1,$8,$9,$2,$3,0*%
%AMFreePoly0*
4,1,6,1.000000,0.000000,0.500000,-0.750000,-0.500000,-0.750000,-0.500000,0.750000,0.500000,0.750000,1.000000,0.000000,1.000000,0.000000,$1*%
%AMFreePoly1*
4,1,6,0.500000,-0.750000,-0.650000,-0.750000,-0.150000,0.000000,-0.650000,0.750000,0.500000,0.750000,0.500000,-0.750000,0.500000,-0.750000,$1*%
G04 Aperture macros list end*
%TA.AperFunction,SMDPad,CuDef*%
%ADD10R,0.700000X1.600000*%
%TD*%
%TA.AperFunction,SMDPad,CuDef*%
%ADD11R,1.200000X1.400000*%
%TD*%
%TA.AperFunction,SMDPad,CuDef*%
%ADD12R,1.200000X2.200000*%
%TD*%
%TA.AperFunction,SMDPad,CuDef*%
%ADD13R,1.600000X1.400000*%
%TD*%
%TA.AperFunction,SMDPad,CuDef*%
%ADD14RoundRect,0.250000X-0.450000X0.350000X-0.450000X-0.350000X0.450000X-0.350000X0.450000X0.350000X0*%
%TD*%
%TA.AperFunction,ComponentPad*%
%ADD15R,1.700000X1.700000*%
%TD*%
%TA.AperFunction,ComponentPad*%
%ADD16C,1.700000*%
%TD*%
%TA.AperFunction,SMDPad,CuDef*%
%ADD17RoundRect,0.250000X0.450000X-0.262500X0.450000X0.262500X-0.450000X0.262500X-0.450000X-0.262500X0*%
%TD*%
%TA.AperFunction,SMDPad,CuDef*%
%ADD18RoundRect,0.225000X-0.375000X0.225000X-0.375000X-0.225000X0.375000X-0.225000X0.375000X0.225000X0*%
%TD*%
%TA.AperFunction,ComponentPad*%
%ADD19C,2.000000*%
%TD*%
%TA.AperFunction,SMDPad,CuDef*%
%ADD20RoundRect,0.250000X0.450000X-0.350000X0.450000X0.350000X-0.450000X0.350000X-0.450000X-0.350000X0*%
%TD*%
%TA.AperFunction,SMDPad,CuDef*%
%ADD21RoundRect,0.300000X-0.700000X5.200000X-0.700000X-5.200000X0.700000X-5.200000X0.700000X5.200000X0*%
%TD*%
%TA.AperFunction,SMDPad,CuDef*%
%ADD22RoundRect,0.300000X-0.700000X4.700000X-0.700000X-4.700000X0.700000X-4.700000X0.700000X4.700000X0*%
%TD*%
%TA.AperFunction,SMDPad,CuDef*%
%ADD23FreePoly0,0.000000*%
%TD*%
%TA.AperFunction,SMDPad,CuDef*%
%ADD24FreePoly1,0.000000*%
%TD*%
%TA.AperFunction,ViaPad*%
%ADD25C,0.600000*%
%TD*%
%TA.AperFunction,Conductor*%
%ADD26C,0.600000*%
%TD*%
%TA.AperFunction,Conductor*%
%ADD27C,0.200000*%
%TD*%
G04 APERTURE END LIST*
D10*
%TO.P,XS1,1,DAT2*%
%TO.N,SD_DAT2*%
X88100000Y-53700000D03*
%TO.P,XS1,2,CS/DAT3*%
%TO.N,SD_SS*%
X89200000Y-53700000D03*
%TO.P,XS1,3,DI/CMD*%
%TO.N,MOSI_DI*%
X90300000Y-53700000D03*
%TO.P,XS1,4,Vdd*%
%TO.N,+3.3V*%
X91400000Y-53700000D03*
%TO.P,XS1,5,CLK*%
%TO.N,SD_CLK*%
X92500000Y-53700000D03*
D11*
%TO.P,XS1,6,GND*%
%TO.N,GND*%
X98050000Y-53200000D03*
D12*
X98050000Y-43600000D03*
D10*
X93600000Y-53700000D03*
D13*
X83450000Y-53200000D03*
D12*
X82550000Y-43600000D03*
D10*
%TO.P,XS1,7,DO/DAT0*%
%TO.N,MISO_DO*%
X94700000Y-53700000D03*
%TO.P,XS1,8,DAT1*%
%TO.N,SD_DAT1*%
X95800000Y-53700000D03*
%TO.P,XS1,9,CD*%
%TO.N,unconnected-(XS1-CD-Pad9)*%
X96900000Y-53700000D03*
%TD*%
D14*
%TO.P,R24,1*%
%TO.N,CEOE3*%
X104140000Y-151670000D03*
%TO.P,R24,2*%
%TO.N,Net-(J2-Pin_18)*%
X104140000Y-153670000D03*
%TD*%
%TO.P,R23,1*%
%TO.N,CEOE2*%
X111760000Y-156750000D03*
%TO.P,R23,2*%
%TO.N,Net-(J2-Pin_12)*%
X111760000Y-158750000D03*
%TD*%
%TO.P,R22,1*%
%TO.N,CEOE1*%
X124460000Y-156750000D03*
%TO.P,R22,2*%
%TO.N,Net-(J2-Pin_1)*%
X124460000Y-158750000D03*
%TD*%
%TO.P,R21,1*%
%TO.N,CEOE0*%
X99060000Y-156750000D03*
%TO.P,R21,2*%
%TO.N,Net-(J2-Pin_21)*%
X99060000Y-158750000D03*
%TD*%
%TO.P,R16,1*%
%TO.N,GPIO3*%
X104140000Y-156750000D03*
%TO.P,R16,2*%
%TO.N,Net-(J2-Pin_17)*%
X104140000Y-158750000D03*
%TD*%
D15*
%TO.P,EXT1,1,1*%
%TO.N,+3.3V*%
X80500000Y-51370000D03*
D16*
%TO.P,EXT1,2,2*%
X77960000Y-51370000D03*
%TO.P,EXT1,3,3*%
%TO.N,MISO_DO*%
X80500000Y-53910000D03*
%TO.P,EXT1,4,4*%
%TO.N,GPIO0*%
X77960000Y-53910000D03*
%TO.P,EXT1,5,5*%
%TO.N,GPIO17*%
X80500000Y-56450000D03*
%TO.P,EXT1,6,6*%
%TO.N,GPIO1*%
X77960000Y-56450000D03*
%TO.P,EXT1,7,7*%
%TO.N,SD_CLK*%
X80500000Y-58990000D03*
%TO.P,EXT1,8,8*%
%TO.N,GPIO2*%
X77960000Y-58990000D03*
%TO.P,EXT1,9,9*%
%TO.N,MOSI_DI*%
X80500000Y-61530000D03*
%TO.P,EXT1,10,10*%
%TO.N,GPIO3*%
X77960000Y-61530000D03*
%TO.P,EXT1,11,11*%
%TO.N,SD_DAT1*%
X80500000Y-64070000D03*
%TO.P,EXT1,12,12*%
%TO.N,GPIO4*%
X77960000Y-64070000D03*
%TO.P,EXT1,13,13*%
%TO.N,SD_DAT2*%
X80500000Y-66610000D03*
%TO.P,EXT1,14,14*%
%TO.N,GPIO5*%
X77960000Y-66610000D03*
%TO.P,EXT1,15,15*%
%TO.N,SD_SS*%
X80500000Y-69150000D03*
%TO.P,EXT1,16,16*%
%TO.N,GPIO6*%
X77960000Y-69150000D03*
%TO.P,EXT1,17,17*%
%TO.N,GPIO23*%
X80500000Y-71690000D03*
%TO.P,EXT1,18,18*%
%TO.N,GPIO7*%
X77960000Y-71690000D03*
%TO.P,EXT1,19,19*%
%TO.N,GND*%
X80500000Y-74230000D03*
%TO.P,EXT1,20,20*%
X77960000Y-74230000D03*
%TO.P,EXT1,21,21*%
%TO.N,+3.3V*%
X80500000Y-76770000D03*
%TO.P,EXT1,22,22*%
X77960000Y-76770000D03*
%TO.P,EXT1,23,23*%
%TO.N,GPIO24*%
X80500000Y-79310000D03*
%TO.P,EXT1,24,24*%
%TO.N,CEOE0*%
X77960000Y-79310000D03*
%TO.P,EXT1,25,25*%
%TO.N,GPIO25*%
X80500000Y-81850000D03*
%TO.P,EXT1,26,26*%
%TO.N,CEOE1*%
X77960000Y-81850000D03*
%TO.P,EXT1,27,27*%
%TO.N,GPIO26*%
X80500000Y-84390000D03*
%TO.P,EXT1,28,28*%
%TO.N,CEOE2*%
X77960000Y-84390000D03*
%TO.P,EXT1,29,29*%
%TO.N,K3*%
X80500000Y-86930000D03*
%TO.P,EXT1,30,30*%
%TO.N,CEOE3*%
X77960000Y-86930000D03*
%TO.P,EXT1,31,31*%
%TO.N,K2*%
X80500000Y-89470000D03*
%TO.P,EXT1,32,32*%
%TO.N,/GPIO12*%
X77960000Y-89470000D03*
%TO.P,EXT1,33,33*%
%TO.N,K1*%
X80500000Y-92010000D03*
%TO.P,EXT1,34,34*%
%TO.N,/GPIO13*%
X77960000Y-92010000D03*
%TO.P,EXT1,35,35*%
%TO.N,I2C_SDA*%
X80500000Y-94550000D03*
%TO.P,EXT1,36,36*%
%TO.N,/GPIO14*%
X77960000Y-94550000D03*
%TO.P,EXT1,37,37*%
%TO.N,I2C_SCL*%
X80500000Y-97090000D03*
%TO.P,EXT1,38,38*%
%TO.N,/GPIO15*%
X77960000Y-97090000D03*
%TO.P,EXT1,39,39*%
%TO.N,GND*%
X80500000Y-99630000D03*
%TO.P,EXT1,40,40*%
X77960000Y-99630000D03*
%TD*%
D14*
%TO.P,R33,1*%
%TO.N,GPIO41*%
X119380000Y-156750000D03*
%TO.P,R33,2*%
%TO.N,Net-(J2-Pin_5)*%
X119380000Y-158750000D03*
%TD*%
D17*
%TO.P,R37,1*%
%TO.N,+3.3V*%
X117200000Y-54125000D03*
%TO.P,R37,2*%
%TO.N,K3*%
X117200000Y-52300000D03*
%TD*%
D14*
%TO.P,R28,1*%
%TO.N,GPIO0*%
X119380000Y-151130000D03*
%TO.P,R28,2*%
%TO.N,Net-(J2-Pin_6)*%
X119380000Y-153130000D03*
%TD*%
%TO.P,R32,1*%
%TO.N,GPIO42*%
X96520000Y-156750000D03*
%TO.P,R32,2*%
%TO.N,Net-(J2-Pin_23)*%
X96520000Y-158750000D03*
%TD*%
D18*
%TO.P,D1,1,K*%
%TO.N,VSYS*%
X93980000Y-106300000D03*
%TO.P,D1,2,A*%
%TO.N,+5V*%
X93980000Y-109600000D03*
%TD*%
D14*
%TO.P,R7,1*%
%TO.N,GPIO36*%
X91440000Y-151670000D03*
%TO.P,R7,2*%
%TO.N,Net-(J2-Pin_28)*%
X91440000Y-153670000D03*
%TD*%
D19*
%TO.P,SW7,1,A*%
%TO.N,K1*%
X125700000Y-49300000D03*
X125700000Y-42800000D03*
%TO.P,SW7,2,B*%
%TO.N,GND*%
X130200000Y-49300000D03*
X130200000Y-42800000D03*
%TD*%
D14*
%TO.P,R12,1*%
%TO.N,GPIO7*%
X109220000Y-156750000D03*
%TO.P,R12,2*%
%TO.N,Net-(J2-Pin_14)*%
X109220000Y-158750000D03*
%TD*%
D20*
%TO.P,R38,1*%
%TO.N,+3.3V*%
X123342400Y-85378800D03*
%TO.P,R38,2*%
%TO.N,I2C_SDA*%
X123342400Y-83378800D03*
%TD*%
D15*
%TO.P,EXT2,1,1*%
%TO.N,+3.3V*%
X103500000Y-51370000D03*
D16*
%TO.P,EXT2,2,2*%
%TO.N,VBUS*%
X100960000Y-51370000D03*
%TO.P,EXT2,3,3*%
%TO.N,GPIO32*%
X103500000Y-53910000D03*
%TO.P,EXT2,4,4*%
%TO.N,VSYS*%
X100960000Y-53910000D03*
%TO.P,EXT2,5,5*%
%TO.N,GPIO33*%
X103500000Y-56450000D03*
%TO.P,EXT2,6,6*%
%TO.N,GND*%
X100960000Y-56450000D03*
%TO.P,EXT2,7,7*%
%TO.N,GPIO34*%
X103500000Y-58990000D03*
%TO.P,EXT2,8,8*%
%TO.N,+3.3V*%
X100960000Y-58990000D03*
%TO.P,EXT2,9,9*%
%TO.N,GPIO35*%
X103500000Y-61530000D03*
%TO.P,EXT2,10,10*%
%TO.N,GND*%
X100960000Y-61530000D03*
%TO.P,EXT2,11,11*%
%TO.N,GPIO36*%
X103500000Y-64070000D03*
%TO.P,EXT2,12,12*%
%TO.N,/3V3_EN*%
X100960000Y-64070000D03*
%TO.P,EXT2,13,13*%
%TO.N,GPIO37*%
X103500000Y-66610000D03*
%TO.P,EXT2,14,14*%
%TO.N,/ADC_VREF*%
X100960000Y-66610000D03*
%TO.P,EXT2,15,15*%
%TO.N,GPIO38*%
X103500000Y-69150000D03*
%TO.P,EXT2,16,16*%
%TO.N,GND*%
X100960000Y-69150000D03*
%TO.P,EXT2,17,17*%
%TO.N,GPIO39*%
X103500000Y-71690000D03*
%TO.P,EXT2,18,18*%
%TO.N,/RUN*%
X100960000Y-71690000D03*
%TO.P,EXT2,19,19*%
%TO.N,GND*%
X103500000Y-74230000D03*
%TO.P,EXT2,20,20*%
%TO.N,/BOOTSEL#*%
X100960000Y-74230000D03*
%TO.P,EXT2,21,21*%
%TO.N,+3.3V*%
X103500000Y-76770000D03*
%TO.P,EXT2,22,22*%
X100960000Y-76770000D03*
%TO.P,EXT2,23,23*%
%TO.N,GPIO40*%
X103500000Y-79310000D03*
%TO.P,EXT2,24,24*%
%TO.N,/QSPI_SD0*%
X100960000Y-79310000D03*
%TO.P,EXT2,25,25*%
%TO.N,GPIO41*%
X103500000Y-81850000D03*
%TO.P,EXT2,26,26*%
%TO.N,/QSPI_SD1*%
X100960000Y-81850000D03*
%TO.P,EXT2,27,27*%
%TO.N,GPIO42*%
X103500000Y-84390000D03*
%TO.P,EXT2,28,28*%
%TO.N,/QSPI_SD2*%
X100960000Y-84390000D03*
%TO.P,EXT2,29,29*%
%TO.N,GPIO43*%
X103500000Y-86930000D03*
%TO.P,EXT2,30,30*%
%TO.N,/QSPI_SD3*%
X100960000Y-86930000D03*
%TO.P,EXT2,31,31*%
%TO.N,GPIO44*%
X103500000Y-89470000D03*
%TO.P,EXT2,32,32*%
%TO.N,/QSPI_CLK*%
X100960000Y-89470000D03*
%TO.P,EXT2,33,33*%
%TO.N,GPIO45*%
X103500000Y-92010000D03*
%TO.P,EXT2,34,34*%
%TO.N,/QSPI_CSn*%
X100960000Y-92010000D03*
%TO.P,EXT2,35,35*%
%TO.N,GPIO46*%
X103500000Y-94550000D03*
%TO.P,EXT2,36,36*%
%TO.N,/SWDIO*%
X100960000Y-94550000D03*
%TO.P,EXT2,37,37*%
%TO.N,GPIO47*%
X103500000Y-97090000D03*
%TO.P,EXT2,38,38*%
%TO.N,/SWCLK*%
X100960000Y-97090000D03*
%TO.P,EXT2,39,39*%
%TO.N,GND*%
X103500000Y-99630000D03*
%TO.P,EXT2,40,40*%
X100960000Y-99630000D03*
%TD*%
D14*
%TO.P,R3,1*%
%TO.N,GPIO40*%
X91440000Y-156750000D03*
%TO.P,R3,2*%
%TO.N,Net-(J2-Pin_27)*%
X91440000Y-158750000D03*
%TD*%
D21*
%TO.P,J2,1,Pin_1*%
%TO.N,Net-(J2-Pin_1)*%
X124440000Y-170730000D03*
%TO.P,J2,3,Pin_3*%
%TO.N,unconnected-(J2-Pin_3-Pad3)*%
X121940000Y-170730000D03*
D22*
%TO.P,J2,5,Pin_5*%
%TO.N,Net-(J2-Pin_5)*%
X119360000Y-170230000D03*
%TO.P,J2,7,Pin_7*%
%TO.N,Net-(J2-Pin_7)*%
X116820000Y-170230000D03*
%TO.P,J2,9,Pin_9*%
%TO.N,Net-(J2-Pin_9)*%
X114280000Y-170230000D03*
%TO.P,J2,11,Pin_11*%
%TO.N,Net-(J2-Pin_11)*%
X111740000Y-170230000D03*
%TO.P,J2,13,Pin_13*%
%TO.N,unconnected-(J2-Pin_13-Pad13)*%
X109200000Y-170230000D03*
%TO.P,J2,15,Pin_15*%
%TO.N,Net-(J2-Pin_15)*%
X106660000Y-170230000D03*
%TO.P,J2,17,Pin_17*%
%TO.N,Net-(J2-Pin_17)*%
X104120000Y-170230000D03*
%TO.P,J2,19,Pin_19*%
%TO.N,Net-(J2-Pin_11)*%
X101580000Y-170230000D03*
%TO.P,J2,21,Pin_21*%
%TO.N,Net-(J2-Pin_21)*%
X99040000Y-170230000D03*
%TO.P,J2,23,Pin_23*%
%TO.N,Net-(J2-Pin_23)*%
X96500000Y-170230000D03*
%TO.P,J2,25,Pin_25*%
%TO.N,unconnected-(J2-Pin_25-Pad25)*%
X93960000Y-170230000D03*
%TO.P,J2,27,Pin_27*%
%TO.N,Net-(J2-Pin_27)*%
X91420000Y-170230000D03*
%TO.P,J2,29,Pin_29*%
%TO.N,Net-(J2-Pin_29)*%
X88880000Y-170230000D03*
D21*
%TO.P,J2,31,Pin_31*%
%TO.N,Net-(J2-Pin_31)*%
X86340000Y-170730000D03*
%TO.P,J2,33,Pin_33*%
%TO.N,Net-(J2-Pin_33)*%
X83800000Y-170730000D03*
%TD*%
D20*
%TO.P,R13,1*%
%TO.N,GPIO6*%
X99060000Y-153670000D03*
%TO.P,R13,2*%
%TO.N,Net-(J2-Pin_22)*%
X99060000Y-151670000D03*
%TD*%
D17*
%TO.P,R27,1*%
%TO.N,+3.3V*%
X125700000Y-54112500D03*
%TO.P,R27,2*%
%TO.N,K1*%
X125700000Y-52287500D03*
%TD*%
D14*
%TO.P,R11,1*%
%TO.N,GPIO32*%
X93980000Y-156750000D03*
%TO.P,R11,2*%
%TO.N,Net-(J2-Pin_26)*%
X93980000Y-158750000D03*
%TD*%
%TO.P,R18,1*%
%TO.N,GPIO1*%
X96520000Y-151670000D03*
%TO.P,R18,2*%
%TO.N,Net-(J2-Pin_24)*%
X96520000Y-153670000D03*
%TD*%
%TO.P,R17,1*%
%TO.N,GPIO2*%
X86360000Y-156750000D03*
%TO.P,R17,2*%
%TO.N,Net-(J2-Pin_31)*%
X86360000Y-158750000D03*
%TD*%
D17*
%TO.P,R36,1*%
%TO.N,+3.3V*%
X108600000Y-54012500D03*
%TO.P,R36,2*%
%TO.N,K2*%
X108600000Y-52187500D03*
%TD*%
D14*
%TO.P,R15,1*%
%TO.N,GPIO4*%
X101600000Y-156750000D03*
%TO.P,R15,2*%
%TO.N,Net-(J2-Pin_20)*%
X101600000Y-158750000D03*
%TD*%
%TO.P,R4,1*%
%TO.N,GPIO39*%
X83820000Y-156750000D03*
%TO.P,R4,2*%
%TO.N,Net-(J2-Pin_33)*%
X83820000Y-158750000D03*
%TD*%
D19*
%TO.P,SW2,1,A*%
%TO.N,K3*%
X117150000Y-49300000D03*
X117150000Y-42800000D03*
%TO.P,SW2,2,B*%
%TO.N,GND*%
X121650000Y-49300000D03*
X121650000Y-42800000D03*
%TD*%
D14*
%TO.P,R8,2*%
%TO.N,Net-(J2-Pin_8)*%
X116840000Y-153130000D03*
%TO.P,R8,1*%
%TO.N,GPIO35*%
X116840000Y-151130000D03*
%TD*%
%TO.P,R6,1*%
%TO.N,GPIO37*%
X111760000Y-151670000D03*
%TO.P,R6,2*%
%TO.N,Net-(J2-Pin_10)*%
X111760000Y-153670000D03*
%TD*%
%TO.P,R10,1*%
%TO.N,GPIO33*%
X88900000Y-156750000D03*
%TO.P,R10,2*%
%TO.N,Net-(J2-Pin_29)*%
X88900000Y-158750000D03*
%TD*%
%TO.P,R9,1*%
%TO.N,GPIO34*%
X114300000Y-156750000D03*
%TO.P,R9,2*%
%TO.N,Net-(J2-Pin_9)*%
X114300000Y-158750000D03*
%TD*%
D19*
%TO.P,SW1,1,A*%
%TO.N,K2*%
X108600000Y-49300000D03*
X108600000Y-42800000D03*
%TO.P,SW1,2,B*%
%TO.N,GND*%
X113100000Y-49300000D03*
X113100000Y-42800000D03*
%TD*%
D20*
%TO.P,R39,1*%
%TO.N,+3.3V*%
X120650000Y-85500000D03*
%TO.P,R39,2*%
%TO.N,I2C_SCL*%
X120650000Y-83500000D03*
%TD*%
D14*
%TO.P,R14,1*%
%TO.N,GPIO5*%
X106680000Y-156750000D03*
%TO.P,R14,2*%
%TO.N,Net-(J2-Pin_15)*%
X106680000Y-158750000D03*
%TD*%
%TO.P,R5,1*%
%TO.N,GPIO38*%
X116840000Y-156750000D03*
%TO.P,R5,2*%
%TO.N,Net-(J2-Pin_7)*%
X116840000Y-158750000D03*
%TD*%
D16*
%TO.P,J5,4,Pin_4*%
%TO.N,Net-(J5-Pin_4)*%
X115720000Y-58000000D03*
%TO.P,J5,3,Pin_3*%
%TO.N,Net-(J5-Pin_3)*%
X118260000Y-58000000D03*
%TO.P,J5,2,Pin_2*%
%TO.N,I2C_SCL*%
X120800000Y-58000000D03*
D15*
%TO.P,J5,1,Pin_1*%
%TO.N,I2C_SDA*%
X123340000Y-58000000D03*
%TD*%
D23*
%TO.P,JP4,1,1*%
%TO.N,Net-(J5-Pin_4)*%
X128090000Y-106045000D03*
D24*
%TO.P,JP4,2,2*%
%TO.N,GND*%
X129540000Y-106045000D03*
%TD*%
D23*
%TO.P,JP2,1,1*%
%TO.N,Net-(J5-Pin_3)*%
X128090000Y-97917000D03*
D24*
%TO.P,JP2,2,2*%
%TO.N,GND*%
X129540000Y-97917000D03*
%TD*%
D23*
%TO.P,JP1,1,1*%
%TO.N,Net-(J5-Pin_3)*%
X128090000Y-101600000D03*
D24*
%TO.P,JP1,2,2*%
%TO.N,+3.3V*%
X129540000Y-101600000D03*
%TD*%
D23*
%TO.P,JP3,1,1*%
%TO.N,Net-(J5-Pin_4)*%
X128090000Y-93980000D03*
D24*
%TO.P,JP3,2,2*%
%TO.N,+3.3V*%
X129540000Y-93980000D03*
%TD*%
D25*
%TO.N,GND*%
X121285000Y-161290000D03*
X130175000Y-161290000D03*
X131445000Y-99695000D03*
%TO.N,+3.3V*%
X121920000Y-76835000D03*
X92075000Y-76770000D03*
X92710000Y-60325000D03*
%TO.N,GND*%
X82550000Y-41910000D03*
X97790000Y-41910000D03*
%TO.N,MISO_DO*%
X79375000Y-49530000D03*
X94615000Y-49530000D03*
%TO.N,GND*%
X93345000Y-50800000D03*
X97790000Y-51435000D03*
%TO.N,SD_DAT1*%
X95885000Y-66040000D03*
X84455000Y-66010000D03*
X84455000Y-63500000D03*
%TO.N,SD_CLK*%
X92710000Y-59525000D03*
%TO.N,GPIO3*%
X79375000Y-65405000D03*
X81915000Y-65405000D03*
%TO.N,MOSI_DI*%
X90770000Y-60960000D03*
%TO.N,SD_SS*%
X90170000Y-69215000D03*
%TO.N,SD_DAT2*%
X89535000Y-66040000D03*
%TO.N,GND*%
X129540000Y-99695000D03*
X127483000Y-99695000D03*
%TO.N,Net-(J5-Pin_4)*%
X115570000Y-60930000D03*
X128270000Y-62230000D03*
%TO.N,+3.3V*%
X91400000Y-50800000D03*
X103505000Y-48260000D03*
X91440000Y-48260000D03*
X91440000Y-60325000D03*
%TO.N,GND*%
X97790000Y-61595000D03*
X97790000Y-69215000D03*
X97790000Y-74295000D03*
X106045000Y-99695000D03*
X132080000Y-95885000D03*
X129540000Y-95885000D03*
%TO.N,Net-(J5-Pin_3)*%
X126283000Y-97155000D03*
X125730000Y-60960000D03*
X118745000Y-60960000D03*
X128270000Y-97461000D03*
%TO.N,+3.3V*%
X124460000Y-85725000D03*
X129540000Y-85725000D03*
%TO.N,I2C_SDA*%
X125095000Y-96520000D03*
X125095000Y-81915000D03*
X123342400Y-81915000D03*
%TO.N,I2C_SCL*%
X105410000Y-95885000D03*
X106045000Y-81250000D03*
X120650000Y-81915000D03*
%TO.N,K1*%
X126238000Y-91313000D03*
%TO.N,K3*%
X115951000Y-86233000D03*
%TO.N,K2*%
X107061000Y-51816000D03*
X85725000Y-51943000D03*
X88103000Y-89662000D03*
%TO.N,+3.3V*%
X105283000Y-53594000D03*
X107569000Y-53848000D03*
X108585000Y-55899000D03*
X117094000Y-55626000D03*
X125984000Y-55372000D03*
%TO.N,GND*%
X113030000Y-56515000D03*
%TO.N,VSYS*%
X98806000Y-56261000D03*
X94281000Y-56896000D03*
%TO.N,+5V*%
X126492000Y-110871000D03*
X125857000Y-162941000D03*
X93853000Y-111379000D03*
%TO.N,GND*%
X121412000Y-163322000D03*
%TO.N,GPIO41*%
X118441000Y-82804000D03*
%TO.N,CEOE1*%
X87503000Y-107315000D03*
X86960000Y-82916000D03*
X126619000Y-108077000D03*
%TO.N,GPIO38*%
X117602000Y-68707000D03*
%TO.N,GPIO0*%
X118618000Y-62484000D03*
X85760000Y-62081000D03*
X85725000Y-54102000D03*
%TO.N,GPIO35*%
X116459000Y-61976000D03*
%TO.N,Net-(J2-Pin_8)*%
X115824000Y-163322000D03*
%TO.N,GPIO34*%
X113792000Y-59182000D03*
%TO.N,CEOE2*%
X85344000Y-136398000D03*
X111160000Y-137033000D03*
X85725000Y-85471000D03*
%TO.N,GPIO37*%
X109855000Y-66675000D03*
%TO.N,GPIO7*%
X108331000Y-72898000D03*
%TO.N,GPIO5*%
X105410000Y-133731000D03*
X89500000Y-132969000D03*
X89535000Y-68580000D03*
%TO.N,GPIO3*%
X104521000Y-133858000D03*
X82931000Y-132461000D03*
%TO.N,GPIO4*%
X93472000Y-104394000D03*
X101083240Y-104775000D03*
X93091000Y-64805000D03*
%TO.N,CEOE3*%
X80137000Y-132207000D03*
X103886000Y-135382000D03*
%TO.N,GPIO6*%
X99883240Y-101092000D03*
X82677000Y-70231000D03*
X82931000Y-100584000D03*
%TO.N,CEOE0*%
X83185000Y-86487000D03*
X83185000Y-79248000D03*
X98121000Y-86741000D03*
%TO.N,GPIO1*%
X96266000Y-58439000D03*
%TO.N,GPIO42*%
X97917000Y-85725000D03*
%TO.N,GPIO36*%
X91186000Y-65405000D03*
%TO.N,GPIO32*%
X94234000Y-55118000D03*
%TO.N,GPIO40*%
X92583000Y-80772000D03*
%TO.N,GPIO33*%
X88900000Y-58293000D03*
%TO.N,GPIO2*%
X86106000Y-59055000D03*
%TO.N,GPIO39*%
X83312000Y-71755000D03*
%TO.N,Net-(J2-Pin_6)*%
X118364000Y-164084000D03*
%TO.N,Net-(J2-Pin_10)*%
X113284000Y-163068000D03*
%TO.N,Net-(J2-Pin_12)*%
X112522000Y-163957000D03*
%TO.N,Net-(J2-Pin_14)*%
X108966000Y-164084000D03*
%TO.N,Net-(J2-Pin_18)*%
X102870000Y-161925000D03*
%TO.N,Net-(J2-Pin_20)*%
X100584000Y-163703000D03*
%TO.N,Net-(J2-Pin_22)*%
X98171000Y-163703000D03*
%TO.N,Net-(J2-Pin_24)*%
X95631000Y-163830000D03*
%TO.N,Net-(J2-Pin_26)*%
X92710000Y-163830000D03*
%TO.N,Net-(J2-Pin_28)*%
X90170000Y-163830000D03*
%TO.N,Net-(J2-Pin_11)*%
X101600000Y-162560000D03*
X111760000Y-162560000D03*
%TD*%
D26*
%TO.N,GND*%
X121285000Y-161290000D02*
X121285000Y-163195000D01*
X131445000Y-106045000D02*
X131445000Y-160020000D01*
X131445000Y-160020000D02*
X130175000Y-161290000D01*
X121285000Y-163195000D02*
X121412000Y-163322000D01*
X131445000Y-99695000D02*
X131445000Y-106045000D01*
X131445000Y-106045000D02*
X129595903Y-106045000D01*
%TO.N,+3.3V*%
X121920000Y-76835000D02*
X121920000Y-84230000D01*
X121920000Y-84230000D02*
X120650000Y-85500000D01*
%TO.N,GND*%
X97790000Y-74295000D02*
X99018591Y-75523591D01*
X99018591Y-75523591D02*
X99018591Y-97688591D01*
X99018591Y-97688591D02*
X100960000Y-99630000D01*
X106045000Y-99695000D02*
X106846000Y-98894000D01*
X106846000Y-98894000D02*
X106846000Y-75731000D01*
X106846000Y-75731000D02*
X105345000Y-74230000D01*
X105345000Y-74230000D02*
X103500000Y-74230000D01*
%TO.N,+3.3V*%
X92075000Y-60960000D02*
X92075000Y-76770000D01*
X92710000Y-60325000D02*
X92075000Y-60960000D01*
%TO.N,GND*%
X82550000Y-43600000D02*
X82550000Y-44450000D01*
X82550000Y-44450000D02*
X83450000Y-45350000D01*
X83450000Y-45350000D02*
X83450000Y-53200000D01*
X98050000Y-43600000D02*
X98050000Y-42170000D01*
X98050000Y-42170000D02*
X97790000Y-41910000D01*
X82550000Y-41910000D02*
X82550000Y-43600000D01*
X97790000Y-51435000D02*
X97790000Y-50800000D01*
X97790000Y-50800000D02*
X98050000Y-50540000D01*
X98050000Y-50540000D02*
X98050000Y-43600000D01*
D27*
%TO.N,MISO_DO*%
X94700000Y-53700000D02*
X94700000Y-49615000D01*
X94700000Y-49615000D02*
X94615000Y-49530000D01*
X79349000Y-49556000D02*
X79349000Y-52759000D01*
X79375000Y-49530000D02*
X79349000Y-49556000D01*
X79349000Y-52759000D02*
X80500000Y-53910000D01*
D26*
%TO.N,GND*%
X93600000Y-51055000D02*
X93345000Y-50800000D01*
X93600000Y-51180000D02*
X93600000Y-51055000D01*
D27*
%TO.N,SD_DAT1*%
X84455000Y-66010000D02*
X84455000Y-63500000D01*
X95665000Y-65820000D02*
X95885000Y-66040000D01*
X95665000Y-53835000D02*
X95665000Y-65820000D01*
X95800000Y-53700000D02*
X95665000Y-53835000D01*
%TO.N,SD_CLK*%
X92500000Y-59315000D02*
X92710000Y-59525000D01*
X92500000Y-53700000D02*
X92500000Y-59315000D01*
%TO.N,GPIO3*%
X81651000Y-131181000D02*
X81651000Y-65669000D01*
X81651000Y-65669000D02*
X81915000Y-65405000D01*
X79375000Y-65405000D02*
X79349000Y-65379000D01*
X79349000Y-65379000D02*
X79349000Y-62919000D01*
X79349000Y-62919000D02*
X77960000Y-61530000D01*
%TO.N,MOSI_DI*%
X90300000Y-53700000D02*
X90571000Y-53971000D01*
X90571000Y-53971000D02*
X90571000Y-60761000D01*
X90571000Y-60761000D02*
X90770000Y-60960000D01*
%TO.N,SD_SS*%
X90170000Y-56387800D02*
X90170000Y-69215000D01*
X89200000Y-55417800D02*
X90170000Y-56387800D01*
X89200000Y-53700000D02*
X89200000Y-55417800D01*
%TO.N,SD_DAT2*%
X89535000Y-56319900D02*
X89535000Y-66040000D01*
X88100000Y-54884900D02*
X89535000Y-56319900D01*
X88100000Y-53700000D02*
X88100000Y-54884900D01*
%TO.N,Net-(J5-Pin_4)*%
X128090000Y-93980000D02*
X128090000Y-62410000D01*
X128090000Y-62410000D02*
X128270000Y-62230000D01*
X115570000Y-60930000D02*
X115720000Y-60780000D01*
X115720000Y-60780000D02*
X115720000Y-58000000D01*
D26*
%TO.N,+3.3V*%
X91400000Y-53700000D02*
X91400000Y-50800000D01*
X103505000Y-51365000D02*
X103500000Y-51370000D01*
X91400000Y-50800000D02*
X91400000Y-48300000D01*
X91400000Y-48300000D02*
X91440000Y-48260000D01*
X103505000Y-48260000D02*
X103505000Y-51365000D01*
X91400000Y-60285000D02*
X91440000Y-60325000D01*
X91400000Y-53700000D02*
X91400000Y-60285000D01*
%TO.N,GND*%
X100960000Y-61530000D02*
X99609000Y-60179000D01*
X99609000Y-60179000D02*
X99609000Y-57801000D01*
X99609000Y-57801000D02*
X100960000Y-56450000D01*
X93600000Y-53700000D02*
X93600000Y-51180000D01*
X97790000Y-51435000D02*
X98050000Y-51695000D01*
X98050000Y-51695000D02*
X98050000Y-53200000D01*
X98050000Y-53200000D02*
X98005000Y-53245000D01*
X98005000Y-53245000D02*
X98005000Y-56592786D01*
X98005000Y-56592786D02*
X98492214Y-57080000D01*
X98492214Y-57080000D02*
X100330000Y-57080000D01*
X100330000Y-57080000D02*
X100960000Y-56450000D01*
X97790000Y-61595000D02*
X97790000Y-69215000D01*
X97790000Y-74295000D02*
X97790000Y-69215000D01*
X77960000Y-74230000D02*
X80500000Y-74230000D01*
D27*
X129239000Y-96861000D02*
X129239000Y-96186000D01*
X129239000Y-96186000D02*
X129540000Y-95885000D01*
%TO.N,Net-(J5-Pin_3)*%
X125730000Y-90971057D02*
X125730000Y-60960000D01*
X128090000Y-97917000D02*
X128090000Y-97641000D01*
X125637000Y-91561943D02*
X125637000Y-91064057D01*
X118745000Y-60960000D02*
X118260000Y-60475000D01*
X125637000Y-91064057D02*
X125730000Y-90971057D01*
X126283000Y-92207943D02*
X125637000Y-91561943D01*
X128090000Y-97641000D02*
X128270000Y-97461000D01*
X126283000Y-97155000D02*
X126283000Y-92207943D01*
X118260000Y-60475000D02*
X118260000Y-58000000D01*
%TO.N,Net-(J5-Pin_4)*%
X128090000Y-106045000D02*
X126883000Y-104838000D01*
X126883000Y-104838000D02*
X126883000Y-95187000D01*
X126883000Y-95187000D02*
X128090000Y-93980000D01*
%TO.N,GND*%
X129540000Y-97917000D02*
X129540000Y-97162000D01*
X129540000Y-97162000D02*
X129239000Y-96861000D01*
X129239000Y-96861000D02*
X127463248Y-96861000D01*
X127463248Y-96861000D02*
X127284000Y-97040248D01*
X127284000Y-97040248D02*
X127284000Y-102476752D01*
X127284000Y-102476752D02*
X129540000Y-104732752D01*
X129540000Y-104732752D02*
X129540000Y-106045000D01*
%TO.N,+3.3V*%
X124460000Y-85725000D02*
X123688600Y-85725000D01*
X129540000Y-93980000D02*
X129540000Y-85725000D01*
X123688600Y-85725000D02*
X123342400Y-85378800D01*
%TO.N,Net-(J5-Pin_3)*%
X128090000Y-97917000D02*
X128090000Y-101600000D01*
%TO.N,+3.3V*%
X129540000Y-93980000D02*
X130346000Y-94786000D01*
X130346000Y-94786000D02*
X130346000Y-100794000D01*
X130346000Y-100794000D02*
X129540000Y-101600000D01*
%TO.N,I2C_SDA*%
X125095000Y-81915000D02*
X125095000Y-96520000D01*
%TO.N,I2C_SCL*%
X106045000Y-81250000D02*
X106045000Y-95250000D01*
X106045000Y-95250000D02*
X105410000Y-95885000D01*
X120650000Y-83500000D02*
X120650000Y-83185000D01*
%TO.N,+3.3V*%
X123342400Y-85378800D02*
X120771200Y-85378800D01*
X120771200Y-85378800D02*
X120650000Y-85500000D01*
%TO.N,I2C_SCL*%
X120650000Y-83500000D02*
X120650000Y-58150000D01*
X120650000Y-58150000D02*
X120800000Y-58000000D01*
%TO.N,I2C_SDA*%
X123342400Y-83378800D02*
X123342400Y-58002400D01*
X123342400Y-58002400D02*
X123340000Y-58000000D01*
%TO.N,K1*%
X126701000Y-90850000D02*
X126238000Y-91313000D01*
X126701000Y-53288500D02*
X126701000Y-90850000D01*
X125700000Y-52287500D02*
X126701000Y-53288500D01*
%TO.N,K3*%
X116871000Y-60714057D02*
X115824000Y-61761057D01*
X116871000Y-57435000D02*
X116871000Y-60714057D01*
X115824000Y-86106000D02*
X115951000Y-86233000D01*
X116199000Y-56763000D02*
X116871000Y-57435000D01*
X115824000Y-61761057D02*
X115824000Y-86106000D01*
X116199000Y-53301000D02*
X116199000Y-56763000D01*
X117200000Y-52300000D02*
X116199000Y-53301000D01*
%TO.N,K2*%
X85725000Y-53077000D02*
X88103000Y-55455000D01*
X85725000Y-51943000D02*
X85725000Y-53077000D01*
X107432500Y-52187500D02*
X107061000Y-51816000D01*
X108600000Y-52187500D02*
X107432500Y-52187500D01*
X88103000Y-55455000D02*
X88103000Y-89662000D01*
%TO.N,+3.3V*%
X105283000Y-53153000D02*
X103500000Y-51370000D01*
X108600000Y-54012500D02*
X107733500Y-54012500D01*
X107733500Y-54012500D02*
X107569000Y-53848000D01*
X105283000Y-53594000D02*
X105283000Y-53153000D01*
X108600000Y-55884000D02*
X108585000Y-55899000D01*
X108600000Y-54012500D02*
X108600000Y-55884000D01*
X125700000Y-54112500D02*
X125700000Y-55088000D01*
X117094000Y-54231000D02*
X117200000Y-54125000D01*
X125700000Y-55088000D02*
X125984000Y-55372000D01*
X117094000Y-55626000D02*
X117094000Y-54231000D01*
%TO.N,GND*%
X113100000Y-56445000D02*
X113030000Y-56515000D01*
X113100000Y-49300000D02*
X113100000Y-56445000D01*
X121650000Y-42800000D02*
X120349000Y-41499000D01*
X120349000Y-41499000D02*
X114401000Y-41499000D01*
X114401000Y-41499000D02*
X113100000Y-42800000D01*
X130200000Y-42800000D02*
X128899000Y-41499000D01*
X128899000Y-41499000D02*
X122951000Y-41499000D01*
X122951000Y-41499000D02*
X121650000Y-42800000D01*
X130200000Y-42800000D02*
X130200000Y-49300000D01*
X121650000Y-42800000D02*
X121650000Y-49300000D01*
X113100000Y-42800000D02*
X113100000Y-49300000D01*
%TO.N,K2*%
X108600000Y-49300000D02*
X108600000Y-52187500D01*
X108600000Y-42800000D02*
X108600000Y-49300000D01*
%TO.N,K3*%
X117150000Y-49300000D02*
X117150000Y-52250000D01*
X117150000Y-52250000D02*
X117200000Y-52300000D01*
X117150000Y-42800000D02*
X117150000Y-49300000D01*
%TO.N,K1*%
X125700000Y-49300000D02*
X125700000Y-42800000D01*
X125700000Y-52287500D02*
X125700000Y-49300000D01*
D26*
%TO.N,VSYS*%
X98806000Y-56064000D02*
X100960000Y-53910000D01*
X93980000Y-106300000D02*
X94281000Y-105999000D01*
X94281000Y-105999000D02*
X94281000Y-56896000D01*
X98806000Y-56261000D02*
X98806000Y-56064000D01*
%TO.N,+5V*%
X125857000Y-111506000D02*
X126492000Y-110871000D01*
X125857000Y-162941000D02*
X125857000Y-111506000D01*
X93853000Y-111379000D02*
X93853000Y-109727000D01*
X93853000Y-109727000D02*
X93980000Y-109600000D01*
D27*
%TO.N,Net-(J2-Pin_9)*%
X114300000Y-158750000D02*
X114300000Y-170210000D01*
X114300000Y-170210000D02*
X114280000Y-170230000D01*
%TO.N,GPIO41*%
X118379000Y-82866000D02*
X118441000Y-82804000D01*
X118379000Y-151715160D02*
X118379000Y-82866000D01*
X118694840Y-152031000D02*
X118379000Y-151715160D01*
X120381000Y-152346840D02*
X120065160Y-152031000D01*
X120381000Y-155749000D02*
X120381000Y-152346840D01*
X120065160Y-152031000D02*
X118694840Y-152031000D01*
X119380000Y-156750000D02*
X120381000Y-155749000D01*
%TO.N,CEOE1*%
X124460000Y-156750000D02*
X124460000Y-110236000D01*
X124460000Y-110236000D02*
X126619000Y-108077000D01*
X87503000Y-83459000D02*
X86960000Y-82916000D01*
X87503000Y-107315000D02*
X87503000Y-83459000D01*
%TO.N,GPIO38*%
X117841000Y-68946000D02*
X117602000Y-68707000D01*
X117841000Y-155749000D02*
X117841000Y-68946000D01*
X116840000Y-156750000D02*
X117841000Y-155749000D01*
%TO.N,GPIO0*%
X85505000Y-54322000D02*
X85725000Y-54102000D01*
X119380000Y-63246000D02*
X118618000Y-62484000D01*
X119380000Y-151130000D02*
X119380000Y-63246000D01*
X85505000Y-61826000D02*
X85505000Y-54322000D01*
X85760000Y-62081000D02*
X85505000Y-61826000D01*
%TO.N,GPIO35*%
X116840000Y-62357000D02*
X116459000Y-61976000D01*
X116840000Y-151130000D02*
X116840000Y-62357000D01*
%TO.N,Net-(J2-Pin_8)*%
X115824000Y-163322000D02*
X115824000Y-156083000D01*
X115824000Y-156083000D02*
X116840000Y-155067000D01*
X116840000Y-155067000D02*
X116840000Y-153130000D01*
%TO.N,GPIO34*%
X114300000Y-59690000D02*
X113792000Y-59182000D01*
X114300000Y-156750000D02*
X114300000Y-59690000D01*
%TO.N,CEOE2*%
X110759000Y-137434000D02*
X111160000Y-137033000D01*
X85344000Y-136398000D02*
X85344000Y-85852000D01*
X111760000Y-156750000D02*
X110759000Y-155749000D01*
X110759000Y-155749000D02*
X110759000Y-137434000D01*
X85344000Y-85852000D02*
X85725000Y-85471000D01*
%TO.N,GPIO37*%
X111760000Y-68580000D02*
X109855000Y-66675000D01*
X111760000Y-151670000D02*
X111760000Y-68580000D01*
%TO.N,GPIO7*%
X110356000Y-74923000D02*
X108331000Y-72898000D01*
X110356000Y-155614000D02*
X110356000Y-74923000D01*
X109220000Y-156750000D02*
X110356000Y-155614000D01*
%TO.N,GPIO5*%
X106680000Y-156750000D02*
X106680000Y-135001000D01*
X89500000Y-132969000D02*
X89373000Y-132842000D01*
X106680000Y-135001000D02*
X105410000Y-133731000D01*
X89373000Y-132842000D02*
X89373000Y-68742000D01*
X89373000Y-68742000D02*
X89535000Y-68580000D01*
%TO.N,GPIO3*%
X82931000Y-132461000D02*
X81651000Y-131181000D01*
X105141000Y-134478000D02*
X104521000Y-133858000D01*
X105141000Y-155749000D02*
X105141000Y-134478000D01*
X104140000Y-156750000D02*
X105141000Y-155749000D01*
%TO.N,GPIO4*%
X101600000Y-105291760D02*
X101083240Y-104775000D01*
X101600000Y-156750000D02*
X101600000Y-105291760D01*
X93472000Y-65186000D02*
X93091000Y-64805000D01*
X93472000Y-104394000D02*
X93472000Y-65186000D01*
%TO.N,CEOE3*%
X79349000Y-131419000D02*
X79349000Y-88319000D01*
X80137000Y-132207000D02*
X79349000Y-131419000D01*
X104140000Y-151670000D02*
X104140000Y-135636000D01*
X104140000Y-135636000D02*
X103886000Y-135382000D01*
X79349000Y-88319000D02*
X77960000Y-86930000D01*
%TO.N,GPIO6*%
X82550000Y-70358000D02*
X82677000Y-70231000D01*
X82931000Y-100584000D02*
X82550000Y-100203000D01*
X82550000Y-100203000D02*
X82550000Y-70358000D01*
X100082240Y-101291000D02*
X99883240Y-101092000D01*
X100082240Y-152647760D02*
X100082240Y-101291000D01*
X99060000Y-153670000D02*
X100082240Y-152647760D01*
%TO.N,CEOE0*%
X99060000Y-156750000D02*
X100483240Y-155326760D01*
X100483240Y-155326760D02*
X100483240Y-100781000D01*
X83185000Y-86487000D02*
X83185000Y-79248000D01*
X100483240Y-100781000D02*
X98121000Y-98418760D01*
X98121000Y-98418760D02*
X98121000Y-86741000D01*
%TO.N,GPIO1*%
X96520000Y-58693000D02*
X96266000Y-58439000D01*
X96520000Y-151670000D02*
X96520000Y-58693000D01*
%TO.N,GPIO42*%
X97521000Y-86121000D02*
X97917000Y-85725000D01*
X97521000Y-155749000D02*
X97521000Y-86121000D01*
X96520000Y-156750000D02*
X97521000Y-155749000D01*
%TO.N,GPIO36*%
X91440000Y-65659000D02*
X91186000Y-65405000D01*
X91440000Y-151670000D02*
X91440000Y-65659000D01*
%TO.N,GPIO32*%
X94881000Y-55765000D02*
X94234000Y-55118000D01*
X94881000Y-155849000D02*
X94881000Y-55765000D01*
X93980000Y-156750000D02*
X94881000Y-155849000D01*
%TO.N,GPIO40*%
X92583000Y-155607000D02*
X92583000Y-80772000D01*
X91440000Y-156750000D02*
X92583000Y-155607000D01*
%TO.N,GPIO33*%
X88900000Y-156750000D02*
X88900000Y-58293000D01*
%TO.N,GPIO2*%
X86360000Y-59309000D02*
X86106000Y-59055000D01*
X86360000Y-156750000D02*
X86360000Y-59309000D01*
%TO.N,GPIO39*%
X83820000Y-72263000D02*
X83312000Y-71755000D01*
X83820000Y-156750000D02*
X83820000Y-72263000D01*
%TO.N,Net-(J2-Pin_6)*%
X118364000Y-154146000D02*
X119380000Y-153130000D01*
X118364000Y-164084000D02*
X118364000Y-154146000D01*
%TO.N,GPIO35*%
X116586000Y-151130000D02*
X116840000Y-151130000D01*
%TO.N,Net-(J2-Pin_10)*%
X113284000Y-163068000D02*
X113284000Y-155194000D01*
X113284000Y-155194000D02*
X111760000Y-153670000D01*
%TO.N,Net-(J2-Pin_12)*%
X111760000Y-159385000D02*
X111760000Y-158750000D01*
X112522000Y-163957000D02*
X112522000Y-160147000D01*
X112522000Y-160147000D02*
X111760000Y-159385000D01*
%TO.N,Net-(J2-Pin_14)*%
X109220000Y-163830000D02*
X109220000Y-158750000D01*
X108966000Y-164084000D02*
X109220000Y-163830000D01*
%TO.N,Net-(J2-Pin_18)*%
X102870000Y-161925000D02*
X102870000Y-154940000D01*
X102870000Y-154940000D02*
X104140000Y-153670000D01*
%TO.N,Net-(J2-Pin_20)*%
X100584000Y-163703000D02*
X100584000Y-159766000D01*
X100584000Y-159766000D02*
X101600000Y-158750000D01*
%TO.N,Net-(J2-Pin_22)*%
X98171000Y-163703000D02*
X98059000Y-163591000D01*
X98059000Y-152671000D02*
X99060000Y-151670000D01*
X98059000Y-163591000D02*
X98059000Y-152671000D01*
%TO.N,Net-(J2-Pin_24)*%
X95631000Y-163830000D02*
X95519000Y-163718000D01*
X95519000Y-163718000D02*
X95519000Y-154671000D01*
X95519000Y-154671000D02*
X96520000Y-153670000D01*
%TO.N,Net-(J2-Pin_26)*%
X92710000Y-163830000D02*
X93980000Y-162560000D01*
X93980000Y-162560000D02*
X93980000Y-158750000D01*
%TO.N,Net-(J2-Pin_28)*%
X90170000Y-163830000D02*
X90170000Y-154940000D01*
X90170000Y-154940000D02*
X91440000Y-153670000D01*
%TO.N,Net-(J2-Pin_23)*%
X96520000Y-158750000D02*
X96520000Y-160020000D01*
X96520000Y-160020000D02*
X96500000Y-160040000D01*
X96500000Y-160040000D02*
X96500000Y-170230000D01*
%TO.N,Net-(J2-Pin_17)*%
X104140000Y-158750000D02*
X104140000Y-170210000D01*
X104140000Y-170210000D02*
X104120000Y-170230000D01*
%TO.N,Net-(J2-Pin_1)*%
X124460000Y-158750000D02*
X124460000Y-170710000D01*
X124460000Y-170710000D02*
X124440000Y-170730000D01*
%TO.N,Net-(J2-Pin_5)*%
X119380000Y-158750000D02*
X119380000Y-170210000D01*
X119380000Y-170210000D02*
X119360000Y-170230000D01*
%TO.N,Net-(J2-Pin_7)*%
X116840000Y-158750000D02*
X116840000Y-170210000D01*
X116840000Y-170210000D02*
X116820000Y-170230000D01*
%TO.N,Net-(J2-Pin_15)*%
X106680000Y-158750000D02*
X106680000Y-160020000D01*
X106660000Y-160040000D02*
X106660000Y-170230000D01*
X106680000Y-160020000D02*
X106660000Y-160040000D01*
%TO.N,Net-(J2-Pin_11)*%
X111740000Y-170230000D02*
X111740000Y-162580000D01*
X111740000Y-162580000D02*
X111760000Y-162560000D01*
X101600000Y-162560000D02*
X101580000Y-162580000D01*
X101580000Y-162580000D02*
X101580000Y-170230000D01*
%TO.N,Net-(J2-Pin_21)*%
X99060000Y-158750000D02*
X99060000Y-160020000D01*
X99060000Y-160020000D02*
X99040000Y-160040000D01*
X99040000Y-160040000D02*
X99040000Y-170230000D01*
%TO.N,Net-(J2-Pin_27)*%
X91440000Y-158750000D02*
X91440000Y-170210000D01*
X91440000Y-170210000D02*
X91420000Y-170230000D01*
%TO.N,Net-(J2-Pin_29)*%
X88900000Y-158750000D02*
X88900000Y-160020000D01*
X88900000Y-160020000D02*
X88880000Y-160040000D01*
X88880000Y-160040000D02*
X88880000Y-170230000D01*
%TO.N,Net-(J2-Pin_31)*%
X86360000Y-158750000D02*
X86360000Y-170710000D01*
X86360000Y-170710000D02*
X86340000Y-170730000D01*
%TO.N,Net-(J2-Pin_33)*%
X83820000Y-158750000D02*
X83820000Y-170710000D01*
X83820000Y-170710000D02*
X83800000Y-170730000D01*
%TD*%
%TA.AperFunction,Conductor*%
%TO.N,GND*%
G36*
X132842539Y-39050185D02*
G01*
X132888294Y-39102989D01*
X132899500Y-39154500D01*
X132899500Y-163405500D01*
X132879815Y-163472539D01*
X132827011Y-163518294D01*
X132775500Y-163529500D01*
X126934108Y-163529500D01*
X126806812Y-163563608D01*
X126692686Y-163629500D01*
X126692683Y-163629502D01*
X126599502Y-163722683D01*
X126599500Y-163722686D01*
X126533608Y-163836812D01*
X126499500Y-163964108D01*
X126499500Y-164976000D01*
X126479815Y-165043039D01*
X126427011Y-165088794D01*
X126375500Y-165100000D01*
X125883754Y-165100000D01*
X125816715Y-165080315D01*
X125778761Y-165041974D01*
X125769816Y-165027738D01*
X125642262Y-164900184D01*
X125602776Y-164875373D01*
X125489523Y-164804211D01*
X125319254Y-164744631D01*
X125319249Y-164744630D01*
X125184960Y-164729500D01*
X125184954Y-164729500D01*
X125184500Y-164729500D01*
X125184392Y-164729468D01*
X125181483Y-164729305D01*
X125181521Y-164728625D01*
X125117461Y-164709815D01*
X125071706Y-164657011D01*
X125060500Y-164605500D01*
X125060500Y-163575941D01*
X125080185Y-163508902D01*
X125132989Y-163463147D01*
X125202147Y-163453203D01*
X125265703Y-163482228D01*
X125272181Y-163488260D01*
X125346707Y-163562786D01*
X125346711Y-163562789D01*
X125477814Y-163650390D01*
X125477827Y-163650397D01*
X125609220Y-163704821D01*
X125623503Y-163710737D01*
X125764997Y-163738882D01*
X125778153Y-163741499D01*
X125778156Y-163741500D01*
X125778158Y-163741500D01*
X125935844Y-163741500D01*
X125935845Y-163741499D01*
X126090497Y-163710737D01*
X126236179Y-163650394D01*
X126367289Y-163562789D01*
X126478789Y-163451289D01*
X126566394Y-163320179D01*
X126626737Y-163174497D01*
X126657500Y-163019842D01*
X126657500Y-162862158D01*
X126657500Y-111888940D01*
X126677185Y-111821901D01*
X126693819Y-111801259D01*
X127113786Y-111381292D01*
X127113789Y-111381289D01*
X127201394Y-111250179D01*
X127261738Y-111104497D01*
X127292500Y-110949842D01*
X127292500Y-110792157D01*
X127261738Y-110637502D01*
X127201394Y-110491821D01*
X127201392Y-110491818D01*
X127201390Y-110491814D01*
X127113789Y-110360709D01*
X127002290Y-110249210D01*
X126871185Y-110161609D01*
X126871175Y-110161604D01*
X126725498Y-110101262D01*
X126725490Y-110101260D01*
X126570847Y-110070500D01*
X126570843Y-110070500D01*
X126413158Y-110070500D01*
X126413153Y-110070500D01*
X126258510Y-110101260D01*
X126258502Y-110101262D01*
X126112824Y-110161604D01*
X126112814Y-110161609D01*
X125981711Y-110249210D01*
X125981707Y-110249213D01*
X125346713Y-110884208D01*
X125346712Y-110884210D01*
X125346711Y-110884211D01*
X125285553Y-110945369D01*
X125272181Y-110958741D01*
X125210857Y-110992225D01*
X125141166Y-110987240D01*
X125085232Y-110945369D01*
X125060816Y-110879904D01*
X125060500Y-110871059D01*
X125060500Y-110536097D01*
X125080185Y-110469058D01*
X125096819Y-110448416D01*
X125789757Y-109755478D01*
X126633662Y-108911572D01*
X126694983Y-108878089D01*
X126697150Y-108877638D01*
X126755085Y-108866113D01*
X126852497Y-108846737D01*
X126998179Y-108786394D01*
X127129289Y-108698789D01*
X127240789Y-108587289D01*
X127328394Y-108456179D01*
X127388737Y-108310497D01*
X127419500Y-108155842D01*
X127419500Y-107998158D01*
X127419500Y-107998155D01*
X127419499Y-107998153D01*
X127407292Y-107936786D01*
X127388737Y-107843503D01*
X127381193Y-107825289D01*
X127328397Y-107697827D01*
X127328390Y-107697814D01*
X127240789Y-107566711D01*
X127240786Y-107566707D01*
X127129292Y-107455213D01*
X127129288Y-107455210D01*
X126998185Y-107367609D01*
X126998172Y-107367602D01*
X126852501Y-107307264D01*
X126852489Y-107307261D01*
X126697845Y-107276500D01*
X126697842Y-107276500D01*
X126540158Y-107276500D01*
X126540155Y-107276500D01*
X126385510Y-107307261D01*
X126385498Y-107307264D01*
X126239827Y-107367602D01*
X126239814Y-107367609D01*
X126108711Y-107455210D01*
X126108707Y-107455213D01*
X125997213Y-107566707D01*
X125997210Y-107566711D01*
X125909609Y-107697814D01*
X125909602Y-107697827D01*
X125849264Y-107843498D01*
X125849261Y-107843508D01*
X125818361Y-107998850D01*
X125785976Y-108060761D01*
X125784425Y-108062339D01*
X123979481Y-109867282D01*
X123979479Y-109867285D01*
X123929361Y-109954094D01*
X123929359Y-109954096D01*
X123900425Y-110004209D01*
X123900424Y-110004210D01*
X123900423Y-110004215D01*
X123859499Y-110156943D01*
X123859499Y-110156945D01*
X123859499Y-110325046D01*
X123859500Y-110325059D01*
X123859500Y-155569699D01*
X123839815Y-155636738D01*
X123787011Y-155682493D01*
X123774507Y-155687403D01*
X123741962Y-155698188D01*
X123690668Y-155715185D01*
X123690663Y-155715187D01*
X123541342Y-155807289D01*
X123417289Y-155931342D01*
X123325187Y-156080663D01*
X123325186Y-156080666D01*
X123270001Y-156247203D01*
X123270001Y-156247204D01*
X123270000Y-156247204D01*
X123259500Y-156349983D01*
X123259500Y-157150001D01*
X123259501Y-157150019D01*
X123270000Y-157252796D01*
X123270001Y-157252799D01*
X123325185Y-157419331D01*
X123325187Y-157419336D01*
X123417289Y-157568657D01*
X123510951Y-157662319D01*
X123544436Y-157723642D01*
X123539452Y-157793334D01*
X123510951Y-157837681D01*
X123417289Y-157931342D01*
X123325187Y-158080663D01*
X123325186Y-158080666D01*
X123270001Y-158247203D01*
X123270001Y-158247204D01*
X123270000Y-158247204D01*
X123259500Y-158349983D01*
X123259500Y-159150001D01*
X123259501Y-159150019D01*
X123270000Y-159252796D01*
X123270001Y-159252799D01*
X123299025Y-159340385D01*
X123325186Y-159419334D01*
X123417288Y-159568656D01*
X123541344Y-159692712D01*
X123690666Y-159784814D01*
X123774505Y-159812595D01*
X123831948Y-159852366D01*
X123858772Y-159916882D01*
X123859500Y-159930300D01*
X123859500Y-164605500D01*
X123839815Y-164672539D01*
X123787011Y-164718294D01*
X123735500Y-164729500D01*
X123695039Y-164729500D01*
X123560750Y-164744630D01*
X123560745Y-164744631D01*
X123390476Y-164804211D01*
X123255972Y-164888727D01*
X123188736Y-164907727D01*
X123124028Y-164888727D01*
X123102775Y-164875373D01*
X123019487Y-164823039D01*
X122989523Y-164804211D01*
X122819254Y-164744631D01*
X122819249Y-164744630D01*
X122684960Y-164729500D01*
X122684954Y-164729500D01*
X121195046Y-164729500D01*
X121195039Y-164729500D01*
X121060750Y-164744630D01*
X121060745Y-164744631D01*
X120890476Y-164804211D01*
X120737737Y-164900184D01*
X120737681Y-164900241D01*
X120737635Y-164900265D01*
X120732295Y-164904525D01*
X120731548Y-164903589D01*
X120676358Y-164933726D01*
X120606666Y-164928742D01*
X120568138Y-164903981D01*
X120567705Y-164904525D01*
X120562392Y-164900288D01*
X120562319Y-164900241D01*
X120562262Y-164900184D01*
X120409523Y-164804211D01*
X120239254Y-164744631D01*
X120239249Y-164744630D01*
X120104960Y-164729500D01*
X120104954Y-164729500D01*
X120104500Y-164729500D01*
X120104392Y-164729468D01*
X120101483Y-164729305D01*
X120101521Y-164728625D01*
X120037461Y-164709815D01*
X119991706Y-164657011D01*
X119980500Y-164605500D01*
X119980500Y-159930300D01*
X120000185Y-159863261D01*
X120052989Y-159817506D01*
X120065482Y-159812599D01*
X120149334Y-159784814D01*
X120298656Y-159692712D01*
X120422712Y-159568656D01*
X120514814Y-159419334D01*
X120569999Y-159252797D01*
X120580500Y-159150009D01*
X120580499Y-158349992D01*
X120569999Y-158247203D01*
X120514814Y-158080666D01*
X120422712Y-157931344D01*
X120329049Y-157837681D01*
X120295564Y-157776358D01*
X120300548Y-157706666D01*
X120329049Y-157662319D01*
X120422712Y-157568656D01*
X120514814Y-157419334D01*
X120569999Y-157252797D01*
X120580500Y-157150009D01*
X120580499Y-156450097D01*
X120600183Y-156383059D01*
X120616818Y-156362417D01*
X120650000Y-156329235D01*
X120861520Y-156117716D01*
X120940577Y-155980784D01*
X120981501Y-155828057D01*
X120981501Y-155669942D01*
X120981501Y-155662347D01*
X120981500Y-155662329D01*
X120981500Y-152267783D01*
X120981499Y-152267779D01*
X120968697Y-152220000D01*
X120956193Y-152173334D01*
X120940577Y-152115055D01*
X120891182Y-152029501D01*
X120861520Y-151978124D01*
X120749716Y-151866320D01*
X120749715Y-151866319D01*
X120745385Y-151861989D01*
X120745374Y-151861979D01*
X120606677Y-151723282D01*
X120573192Y-151661959D01*
X120571000Y-151622998D01*
X120580499Y-151530016D01*
X120580500Y-151530009D01*
X120580499Y-150729992D01*
X120575859Y-150684573D01*
X120569999Y-150627203D01*
X120569998Y-150627200D01*
X120514814Y-150460666D01*
X120422712Y-150311344D01*
X120298656Y-150187288D01*
X120149334Y-150095186D01*
X120065495Y-150067404D01*
X120008051Y-150027632D01*
X119981228Y-149963116D01*
X119980500Y-149949699D01*
X119980500Y-86720498D01*
X120000185Y-86653459D01*
X120052989Y-86607704D01*
X120117102Y-86597140D01*
X120149991Y-86600500D01*
X121150008Y-86600499D01*
X121150016Y-86600498D01*
X121150019Y-86600498D01*
X121206302Y-86594748D01*
X121252797Y-86589999D01*
X121419334Y-86534814D01*
X121568656Y-86442712D01*
X121692712Y-86318656D01*
X121784814Y-86169334D01*
X121819620Y-86064295D01*
X121833490Y-86044263D01*
X121843613Y-86022097D01*
X121853025Y-86016048D01*
X121859393Y-86006851D01*
X121881891Y-85997497D01*
X121902391Y-85984323D01*
X121919492Y-85981864D01*
X121923909Y-85980028D01*
X121937326Y-85979300D01*
X122096492Y-85979300D01*
X122163531Y-85998985D01*
X122202036Y-86043071D01*
X122203795Y-86041987D01*
X122207585Y-86048132D01*
X122207586Y-86048134D01*
X122299688Y-86197456D01*
X122423744Y-86321512D01*
X122573066Y-86413614D01*
X122739603Y-86468799D01*
X122842391Y-86479300D01*
X123842408Y-86479299D01*
X123842416Y-86479298D01*
X123842419Y-86479298D01*
X123866296Y-86476858D01*
X123945197Y-86468799D01*
X124022876Y-86443057D01*
X124092701Y-86440656D01*
X124109330Y-86446203D01*
X124226498Y-86494735D01*
X124226503Y-86494737D01*
X124290682Y-86507503D01*
X124381146Y-86525498D01*
X124381149Y-86525498D01*
X124381158Y-86525500D01*
X124381166Y-86525500D01*
X124382646Y-86525646D01*
X124383381Y-86525942D01*
X124387132Y-86526689D01*
X124386990Y-86527400D01*
X124447435Y-86551803D01*
X124487798Y-86608835D01*
X124494500Y-86649050D01*
X124494500Y-95940234D01*
X124474815Y-96007273D01*
X124473602Y-96009125D01*
X124385609Y-96140814D01*
X124385602Y-96140827D01*
X124325264Y-96286498D01*
X124325261Y-96286510D01*
X124294500Y-96441153D01*
X124294500Y-96598846D01*
X124325261Y-96753489D01*
X124325264Y-96753501D01*
X124385602Y-96899172D01*
X124385609Y-96899185D01*
X124473210Y-97030288D01*
X124473213Y-97030292D01*
X124584707Y-97141786D01*
X124584711Y-97141789D01*
X124715814Y-97229390D01*
X124715827Y-97229397D01*
X124848546Y-97284370D01*
X124861503Y-97289737D01*
X125016153Y-97320499D01*
X125016156Y-97320500D01*
X125016158Y-97320500D01*
X125173844Y-97320500D01*
X125173845Y-97320499D01*
X125328497Y-97289737D01*
X125341454Y-97284369D01*
X125410922Y-97276900D01*
X125473402Y-97308173D01*
X125509056Y-97368262D01*
X125510524Y-97374734D01*
X125513260Y-97388487D01*
X125513264Y-97388501D01*
X125573602Y-97534172D01*
X125573609Y-97534185D01*
X125661210Y-97665288D01*
X125661213Y-97665292D01*
X125772707Y-97776786D01*
X125772711Y-97776789D01*
X125903814Y-97864390D01*
X125903827Y-97864397D01*
X126049498Y-97924735D01*
X126049503Y-97924737D01*
X126159987Y-97946713D01*
X126182691Y-97951230D01*
X126244602Y-97983615D01*
X126279176Y-98044330D01*
X126282500Y-98072847D01*
X126282500Y-104751330D01*
X126282499Y-104751348D01*
X126282499Y-104917054D01*
X126282498Y-104917054D01*
X126323423Y-105069785D01*
X126352358Y-105119900D01*
X126352359Y-105119904D01*
X126352360Y-105119904D01*
X126402479Y-105206714D01*
X126402481Y-105206717D01*
X126521349Y-105325585D01*
X126521355Y-105325590D01*
X127048181Y-105852416D01*
X127081666Y-105913739D01*
X127084500Y-105940097D01*
X127084500Y-106795002D01*
X127089644Y-106866940D01*
X127130182Y-107004994D01*
X127207967Y-107126030D01*
X127207971Y-107126034D01*
X127291722Y-107198605D01*
X127316706Y-107220254D01*
X127357174Y-107238735D01*
X127447580Y-107280023D01*
X127447583Y-107280023D01*
X127447584Y-107280024D01*
X127590000Y-107300500D01*
X127590003Y-107300500D01*
X128589984Y-107300500D01*
X128590000Y-107300500D01*
X128653522Y-107296493D01*
X128792236Y-107258283D01*
X128914566Y-107182540D01*
X129010601Y-107075401D01*
X129510601Y-106325401D01*
X129519786Y-106311110D01*
X129577348Y-106179246D01*
X129595429Y-106036506D01*
X129572562Y-105894454D01*
X129510601Y-105764599D01*
X129130535Y-105194500D01*
X129010602Y-105014600D01*
X128972030Y-104963967D01*
X128863295Y-104869747D01*
X128863294Y-104869746D01*
X128863290Y-104869744D01*
X128732419Y-104809976D01*
X128732414Y-104809975D01*
X128590000Y-104789500D01*
X127735097Y-104789500D01*
X127705656Y-104780855D01*
X127675670Y-104774332D01*
X127670654Y-104770577D01*
X127668058Y-104769815D01*
X127647421Y-104753185D01*
X127519817Y-104625581D01*
X127486334Y-104564260D01*
X127483500Y-104537902D01*
X127483500Y-102979500D01*
X127503185Y-102912461D01*
X127555989Y-102866706D01*
X127607500Y-102855500D01*
X128589984Y-102855500D01*
X128590000Y-102855500D01*
X128653522Y-102851493D01*
X128653526Y-102851492D01*
X128653527Y-102851492D01*
X128673755Y-102845919D01*
X128700104Y-102838660D01*
X128750680Y-102835469D01*
X128890000Y-102855500D01*
X128890003Y-102855500D01*
X130040000Y-102855500D01*
X130111940Y-102850355D01*
X130249992Y-102809819D01*
X130371032Y-102732031D01*
X130465254Y-102623294D01*
X130525024Y-102492416D01*
X130545500Y-102350000D01*
X130545500Y-101495096D01*
X130554145Y-101465652D01*
X130560668Y-101435670D01*
X130564422Y-101430654D01*
X130565185Y-101428057D01*
X130581810Y-101407424D01*
X130704509Y-101284724D01*
X130704514Y-101284721D01*
X130714714Y-101274520D01*
X130714716Y-101274520D01*
X130826520Y-101162716D01*
X130866026Y-101094289D01*
X130886276Y-101059216D01*
X130886277Y-101059213D01*
X130905576Y-101025787D01*
X130905577Y-101025785D01*
X130946500Y-100873057D01*
X130946500Y-100714943D01*
X130946500Y-94706943D01*
X130946499Y-94706941D01*
X130946499Y-94706937D01*
X130946378Y-94706487D01*
X130946378Y-94706488D01*
X130946376Y-94706480D01*
X130905577Y-94554215D01*
X130876639Y-94504095D01*
X130826520Y-94417284D01*
X130714716Y-94305480D01*
X130714715Y-94305479D01*
X130710385Y-94301149D01*
X130710374Y-94301139D01*
X130581819Y-94172584D01*
X130548334Y-94111261D01*
X130545500Y-94084903D01*
X130545500Y-93230000D01*
X130540355Y-93158060D01*
X130499819Y-93020008D01*
X130422031Y-92898968D01*
X130411441Y-92889792D01*
X130313299Y-92804750D01*
X130313297Y-92804748D01*
X130313294Y-92804746D01*
X130313291Y-92804745D01*
X130313289Y-92804743D01*
X130212988Y-92758937D01*
X130160184Y-92713182D01*
X130140500Y-92646143D01*
X130140500Y-86304765D01*
X130160185Y-86237726D01*
X130161398Y-86235874D01*
X130164851Y-86230707D01*
X130249394Y-86104179D01*
X130309737Y-85958497D01*
X130340500Y-85803842D01*
X130340500Y-85646158D01*
X130340500Y-85646155D01*
X130340499Y-85646153D01*
X130323645Y-85561423D01*
X130309737Y-85491503D01*
X130288356Y-85439884D01*
X130249397Y-85345827D01*
X130249390Y-85345814D01*
X130161789Y-85214711D01*
X130161786Y-85214707D01*
X130050292Y-85103213D01*
X130050288Y-85103210D01*
X129919185Y-85015609D01*
X129919172Y-85015602D01*
X129773501Y-84955264D01*
X129773489Y-84955261D01*
X129618845Y-84924500D01*
X129618842Y-84924500D01*
X129461158Y-84924500D01*
X129461155Y-84924500D01*
X129306510Y-84955261D01*
X129306498Y-84955264D01*
X129160827Y-85015602D01*
X129160814Y-85015609D01*
X129029711Y-85103210D01*
X129029707Y-85103213D01*
X128918213Y-85214707D01*
X128918206Y-85214716D01*
X128917597Y-85215628D01*
X128917155Y-85215997D01*
X128914347Y-85219419D01*
X128913697Y-85218886D01*
X128863982Y-85260429D01*
X128794656Y-85269132D01*
X128731631Y-85238973D01*
X128694916Y-85179527D01*
X128690500Y-85146730D01*
X128690500Y-62978063D01*
X128710185Y-62911024D01*
X128745611Y-62874960D01*
X128751292Y-62871164D01*
X128780289Y-62851789D01*
X128891789Y-62740289D01*
X128979394Y-62609179D01*
X129039737Y-62463497D01*
X129070500Y-62308842D01*
X129070500Y-62151158D01*
X129070500Y-62151155D01*
X129070499Y-62151153D01*
X129061283Y-62104821D01*
X129039737Y-61996503D01*
X129012232Y-61930099D01*
X128979397Y-61850827D01*
X128979390Y-61850814D01*
X128891789Y-61719711D01*
X128891786Y-61719707D01*
X128780292Y-61608213D01*
X128780288Y-61608210D01*
X128649185Y-61520609D01*
X128649172Y-61520602D01*
X128503501Y-61460264D01*
X128503489Y-61460261D01*
X128348845Y-61429500D01*
X128348842Y-61429500D01*
X128191158Y-61429500D01*
X128191155Y-61429500D01*
X128036510Y-61460261D01*
X128036498Y-61460264D01*
X127890827Y-61520602D01*
X127890814Y-61520609D01*
X127759711Y-61608210D01*
X127759707Y-61608213D01*
X127648213Y-61719707D01*
X127648210Y-61719711D01*
X127560609Y-61850814D01*
X127560602Y-61850827D01*
X127540061Y-61900420D01*
X127496220Y-61954824D01*
X127429926Y-61976889D01*
X127362227Y-61959610D01*
X127314616Y-61908473D01*
X127301500Y-61852968D01*
X127301500Y-53377560D01*
X127301501Y-53377547D01*
X127301501Y-53209444D01*
X127299555Y-53202182D01*
X127260577Y-53056716D01*
X127237956Y-53017535D01*
X127181524Y-52919790D01*
X127181518Y-52919782D01*
X126936818Y-52675082D01*
X126903333Y-52613759D01*
X126900499Y-52587410D01*
X126900499Y-51974992D01*
X126889999Y-51872203D01*
X126834814Y-51705666D01*
X126742712Y-51556344D01*
X126618656Y-51432288D01*
X126525888Y-51375069D01*
X126469336Y-51340187D01*
X126469331Y-51340185D01*
X126412068Y-51321210D01*
X126385495Y-51312404D01*
X126328051Y-51272632D01*
X126301228Y-51208116D01*
X126300500Y-51194699D01*
X126300500Y-50754067D01*
X126320185Y-50687028D01*
X126368205Y-50643582D01*
X126486433Y-50583343D01*
X126677510Y-50444517D01*
X126844517Y-50277510D01*
X126983343Y-50086433D01*
X127090568Y-49875992D01*
X127163553Y-49651368D01*
X127170288Y-49608844D01*
X127200500Y-49418097D01*
X127200500Y-49181947D01*
X128700000Y-49181947D01*
X128700000Y-49418052D01*
X128736934Y-49651247D01*
X128809897Y-49875802D01*
X128917087Y-50086174D01*
X128977338Y-50169104D01*
X128977340Y-50169105D01*
X129676212Y-49470233D01*
X129687482Y-49512292D01*
X129759890Y-49637708D01*
X129862292Y-49740110D01*
X129987708Y-49812518D01*
X130029765Y-49823787D01*
X129330893Y-50522658D01*
X129413828Y-50582914D01*
X129624197Y-50690102D01*
X129848752Y-50763065D01*
X129848751Y-50763065D01*
X130081948Y-50800000D01*
X130318052Y-50800000D01*
X130551247Y-50763065D01*
X130775802Y-50690102D01*
X130986163Y-50582918D01*
X130986169Y-50582914D01*
X131069104Y-50522658D01*
X131069105Y-50522658D01*
X130370233Y-49823787D01*
X130412292Y-49812518D01*
X130537708Y-49740110D01*
X130640110Y-49637708D01*
X130712518Y-49512292D01*
X130723787Y-49470234D01*
X131422658Y-50169105D01*
X131422658Y-50169104D01*
X131482914Y-50086169D01*
X131482918Y-50086163D01*
X131590102Y-49875802D01*
X131663065Y-49651247D01*
X131700000Y-49418052D01*
X131700000Y-49181947D01*
X131663065Y-48948752D01*
X131590102Y-48724197D01*
X131482914Y-48513828D01*
X131422658Y-48430894D01*
X131422658Y-48430893D01*
X130723787Y-49129765D01*
X130712518Y-49087708D01*
X130640110Y-48962292D01*
X130537708Y-48859890D01*
X130412292Y-48787482D01*
X130370234Y-48776212D01*
X131069105Y-48077340D01*
X131069104Y-48077338D01*
X130986174Y-48017087D01*
X130775802Y-47909897D01*
X130551247Y-47836934D01*
X130551248Y-47836934D01*
X130318052Y-47800000D01*
X130081948Y-47800000D01*
X129848752Y-47836934D01*
X129624197Y-47909897D01*
X129413830Y-48017084D01*
X129330894Y-48077340D01*
X130029766Y-48776212D01*
X129987708Y-48787482D01*
X129862292Y-48859890D01*
X129759890Y-48962292D01*
X129687482Y-49087708D01*
X129676212Y-49129766D01*
X128977340Y-48430894D01*
X128917084Y-48513830D01*
X128809897Y-48724197D01*
X128736934Y-48948752D01*
X128700000Y-49181947D01*
X127200500Y-49181947D01*
X127200500Y-49181902D01*
X127163553Y-48948631D01*
X127090566Y-48724003D01*
X127034002Y-48612991D01*
X126983343Y-48513567D01*
X126844517Y-48322490D01*
X126677510Y-48155483D01*
X126555033Y-48066498D01*
X126486431Y-48016655D01*
X126368204Y-47956415D01*
X126317409Y-47908441D01*
X126300500Y-47845931D01*
X126300500Y-44254067D01*
X126320185Y-44187028D01*
X126368205Y-44143582D01*
X126486433Y-44083343D01*
X126677510Y-43944517D01*
X126844517Y-43777510D01*
X126983343Y-43586433D01*
X127090568Y-43375992D01*
X127163553Y-43151368D01*
X127167558Y-43126079D01*
X127200500Y-42918097D01*
X127200500Y-42681947D01*
X128700000Y-42681947D01*
X128700000Y-42918052D01*
X128736934Y-43151247D01*
X128809897Y-43375802D01*
X128917087Y-43586174D01*
X128977338Y-43669104D01*
X128977340Y-43669105D01*
X129676212Y-42970233D01*
X129687482Y-43012292D01*
X129759890Y-43137708D01*
X129862292Y-43240110D01*
X129987708Y-43312518D01*
X130029765Y-43323787D01*
X129330893Y-44022658D01*
X129413828Y-44082914D01*
X129624197Y-44190102D01*
X129848752Y-44263065D01*
X129848751Y-44263065D01*
X130081948Y-44300000D01*
X130318052Y-44300000D01*
X130551247Y-44263065D01*
X130775802Y-44190102D01*
X130986163Y-44082918D01*
X130986169Y-44082914D01*
X131069104Y-44022658D01*
X131069105Y-44022658D01*
X130370233Y-43323787D01*
X130412292Y-43312518D01*
X130537708Y-43240110D01*
X130640110Y-43137708D01*
X130712518Y-43012292D01*
X130723787Y-42970234D01*
X131422658Y-43669105D01*
X131422658Y-43669104D01*
X131482914Y-43586169D01*
X131482918Y-43586163D01*
X131590102Y-43375802D01*
X131663065Y-43151247D01*
X131700000Y-42918052D01*
X131700000Y-42681947D01*
X131663065Y-42448752D01*
X131590102Y-42224197D01*
X131482914Y-42013828D01*
X131422658Y-41930894D01*
X131422658Y-41930893D01*
X130723787Y-42629765D01*
X130712518Y-42587708D01*
X130640110Y-42462292D01*
X130537708Y-42359890D01*
X130412292Y-42287482D01*
X130370234Y-42276212D01*
X131069105Y-41577340D01*
X131069104Y-41577338D01*
X130986174Y-41517087D01*
X130775802Y-41409897D01*
X130551247Y-41336934D01*
X130551248Y-41336934D01*
X130318052Y-41300000D01*
X130081948Y-41300000D01*
X129848752Y-41336934D01*
X129624197Y-41409897D01*
X129413830Y-41517084D01*
X129330894Y-41577340D01*
X130029766Y-42276212D01*
X129987708Y-42287482D01*
X129862292Y-42359890D01*
X129759890Y-42462292D01*
X129687482Y-42587708D01*
X129676212Y-42629766D01*
X128977340Y-41930894D01*
X128917084Y-42013830D01*
X128809897Y-42224197D01*
X128736934Y-42448752D01*
X128700000Y-42681947D01*
X127200500Y-42681947D01*
X127200500Y-42681902D01*
X127163553Y-42448631D01*
X127090566Y-42224003D01*
X126983477Y-42013830D01*
X126983343Y-42013567D01*
X126844517Y-41822490D01*
X126677510Y-41655483D01*
X126486433Y-41516657D01*
X126275996Y-41409433D01*
X126051368Y-41336446D01*
X125818097Y-41299500D01*
X125818092Y-41299500D01*
X125581908Y-41299500D01*
X125581903Y-41299500D01*
X125348631Y-41336446D01*
X125124003Y-41409433D01*
X124913566Y-41516657D01*
X124830047Y-41577338D01*
X124722490Y-41655483D01*
X124722488Y-41655485D01*
X124722487Y-41655485D01*
X124555485Y-41822487D01*
X124555485Y-41822488D01*
X124555483Y-41822490D01*
X124495862Y-41904550D01*
X124416657Y-42013566D01*
X124309433Y-42224003D01*
X124236446Y-42448631D01*
X124199500Y-42681902D01*
X124199500Y-42918097D01*
X124236446Y-43151368D01*
X124309433Y-43375996D01*
X124331301Y-43418913D01*
X124416657Y-43586433D01*
X124555483Y-43777510D01*
X124722490Y-43944517D01*
X124830042Y-44022658D01*
X124913568Y-44083344D01*
X124988177Y-44121358D01*
X125031794Y-44143582D01*
X125082590Y-44191556D01*
X125099500Y-44254067D01*
X125099500Y-47845931D01*
X125079815Y-47912970D01*
X125031796Y-47956415D01*
X124913568Y-48016655D01*
X124830044Y-48077340D01*
X124722490Y-48155483D01*
X124722488Y-48155485D01*
X124722487Y-48155485D01*
X124555485Y-48322487D01*
X124555485Y-48322488D01*
X124555483Y-48322490D01*
X124543603Y-48338842D01*
X124416657Y-48513566D01*
X124309433Y-48724003D01*
X124236446Y-48948631D01*
X124199500Y-49181902D01*
X124199500Y-49418097D01*
X124236446Y-49651368D01*
X124309433Y-49875996D01*
X124372523Y-49999815D01*
X124416657Y-50086433D01*
X124555483Y-50277510D01*
X124722490Y-50444517D01*
X124830042Y-50522658D01*
X124913568Y-50583344D01*
X124988177Y-50621358D01*
X125031794Y-50643582D01*
X125082590Y-50691556D01*
X125099500Y-50754067D01*
X125099500Y-51194699D01*
X125079815Y-51261738D01*
X125027011Y-51307493D01*
X125014507Y-51312403D01*
X124987932Y-51321210D01*
X124930668Y-51340185D01*
X124930663Y-51340187D01*
X124781342Y-51432289D01*
X124657289Y-51556342D01*
X124565187Y-51705663D01*
X124565185Y-51705668D01*
X124543139Y-51772200D01*
X124510001Y-51872203D01*
X124510001Y-51872204D01*
X124510000Y-51872204D01*
X124499500Y-51974983D01*
X124499500Y-52600001D01*
X124499501Y-52600019D01*
X124510000Y-52702796D01*
X124510001Y-52702799D01*
X124565185Y-52869331D01*
X124565187Y-52869336D01*
X124572894Y-52881831D01*
X124656595Y-53017533D01*
X124657289Y-53018657D01*
X124750951Y-53112319D01*
X124784436Y-53173642D01*
X124779452Y-53243334D01*
X124750951Y-53287681D01*
X124657289Y-53381342D01*
X124565187Y-53530663D01*
X124565185Y-53530668D01*
X124553578Y-53565697D01*
X124510001Y-53697203D01*
X124510001Y-53697204D01*
X124510000Y-53697204D01*
X124499500Y-53799983D01*
X124499500Y-54425001D01*
X124499501Y-54425019D01*
X124510000Y-54527796D01*
X124510001Y-54527799D01*
X124548342Y-54643503D01*
X124565186Y-54694334D01*
X124657288Y-54843656D01*
X124781344Y-54967712D01*
X124930666Y-55059814D01*
X125020949Y-55089731D01*
X125026441Y-55093533D01*
X125033057Y-55094461D01*
X125054803Y-55113170D01*
X125078393Y-55129503D01*
X125082202Y-55136742D01*
X125086022Y-55140029D01*
X125097400Y-55165627D01*
X125100797Y-55172082D01*
X125101285Y-55173724D01*
X125140423Y-55319785D01*
X125142011Y-55322535D01*
X125166887Y-55365622D01*
X125183500Y-55427621D01*
X125183500Y-55450846D01*
X125214261Y-55605489D01*
X125214264Y-55605501D01*
X125274602Y-55751172D01*
X125274609Y-55751185D01*
X125362210Y-55882288D01*
X125362213Y-55882292D01*
X125473707Y-55993786D01*
X125473711Y-55993789D01*
X125604814Y-56081390D01*
X125604827Y-56081397D01*
X125750498Y-56141735D01*
X125750503Y-56141737D01*
X125905153Y-56172499D01*
X125905156Y-56172500D01*
X125976500Y-56172500D01*
X126043539Y-56192185D01*
X126089294Y-56244989D01*
X126100500Y-56296500D01*
X126100500Y-60066420D01*
X126080815Y-60133459D01*
X126028011Y-60179214D01*
X125958853Y-60189158D01*
X125952309Y-60188037D01*
X125808845Y-60159500D01*
X125808842Y-60159500D01*
X125651158Y-60159500D01*
X125651155Y-60159500D01*
X125496510Y-60190261D01*
X125496498Y-60190264D01*
X125350827Y-60250602D01*
X125350814Y-60250609D01*
X125219711Y-60338210D01*
X125219707Y-60338213D01*
X125108213Y-60449707D01*
X125108210Y-60449711D01*
X125020609Y-60580814D01*
X125020602Y-60580827D01*
X124960264Y-60726498D01*
X124960261Y-60726510D01*
X124929500Y-60881153D01*
X124929500Y-61038846D01*
X124960261Y-61193489D01*
X124960264Y-61193501D01*
X125020602Y-61339172D01*
X125020609Y-61339185D01*
X125099595Y-61457395D01*
X125101510Y-61460261D01*
X125108602Y-61470874D01*
X125129480Y-61537551D01*
X125129500Y-61539765D01*
X125129500Y-80990949D01*
X125109815Y-81057988D01*
X125057011Y-81103743D01*
X125022100Y-81113154D01*
X125022132Y-81113311D01*
X125019796Y-81113775D01*
X125017662Y-81114351D01*
X125016158Y-81114499D01*
X124861510Y-81145261D01*
X124861498Y-81145264D01*
X124715827Y-81205602D01*
X124715814Y-81205609D01*
X124584711Y-81293210D01*
X124584707Y-81293213D01*
X124473213Y-81404707D01*
X124473210Y-81404711D01*
X124385609Y-81535814D01*
X124385602Y-81535827D01*
X124333261Y-81662193D01*
X124289420Y-81716597D01*
X124223126Y-81738662D01*
X124155427Y-81721383D01*
X124107816Y-81670246D01*
X124104139Y-81662193D01*
X124051797Y-81535827D01*
X124051790Y-81535814D01*
X123963798Y-81404125D01*
X123942920Y-81337447D01*
X123942900Y-81335234D01*
X123942900Y-59474499D01*
X123962585Y-59407460D01*
X124015389Y-59361705D01*
X124066900Y-59350499D01*
X124237871Y-59350499D01*
X124237872Y-59350499D01*
X124297483Y-59344091D01*
X124432331Y-59293796D01*
X124547546Y-59207546D01*
X124633796Y-59092331D01*
X124684091Y-58957483D01*
X124690500Y-58897873D01*
X124690499Y-57102128D01*
X124684091Y-57042517D01*
X124682810Y-57039083D01*
X124633797Y-56907671D01*
X124633793Y-56907664D01*
X124547547Y-56792455D01*
X124547544Y-56792452D01*
X124432335Y-56706206D01*
X124432328Y-56706202D01*
X124297482Y-56655908D01*
X124297483Y-56655908D01*
X124237883Y-56649501D01*
X124237881Y-56649500D01*
X124237873Y-56649500D01*
X124237864Y-56649500D01*
X122442129Y-56649500D01*
X122442123Y-56649501D01*
X122382516Y-56655908D01*
X122247671Y-56706202D01*
X122247664Y-56706206D01*
X122132455Y-56792452D01*
X122132452Y-56792455D01*
X122046206Y-56907664D01*
X122046203Y-56907669D01*
X121997189Y-57039083D01*
X121955317Y-57095016D01*
X121889853Y-57119433D01*
X121821580Y-57104581D01*
X121793326Y-57083430D01*
X121679786Y-56969890D01*
X121507820Y-56844951D01*
X121318414Y-56748444D01*
X121318413Y-56748443D01*
X121318412Y-56748443D01*
X121116243Y-56682754D01*
X121116241Y-56682753D01*
X121116240Y-56682753D01*
X120954957Y-56657208D01*
X120906287Y-56649500D01*
X120693713Y-56649500D01*
X120645042Y-56657208D01*
X120483760Y-56682753D01*
X120281585Y-56748444D01*
X120092179Y-56844951D01*
X119920213Y-56969890D01*
X119769890Y-57120213D01*
X119644949Y-57292182D01*
X119640484Y-57300946D01*
X119592509Y-57351742D01*
X119524688Y-57368536D01*
X119458553Y-57345998D01*
X119419516Y-57300946D01*
X119415050Y-57292182D01*
X119290109Y-57120213D01*
X119139786Y-56969890D01*
X118967820Y-56844951D01*
X118778414Y-56748444D01*
X118778413Y-56748443D01*
X118778412Y-56748443D01*
X118576243Y-56682754D01*
X118576241Y-56682753D01*
X118576240Y-56682753D01*
X118414957Y-56657208D01*
X118366287Y-56649500D01*
X118153713Y-56649500D01*
X118105042Y-56657208D01*
X117943760Y-56682753D01*
X117741585Y-56748444D01*
X117552184Y-56844948D01*
X117393443Y-56960280D01*
X117327636Y-56983759D01*
X117259583Y-56967933D01*
X117232877Y-56947642D01*
X116923417Y-56638181D01*
X116889932Y-56576858D01*
X116894916Y-56507166D01*
X116936788Y-56451233D01*
X117002252Y-56426816D01*
X117011098Y-56426500D01*
X117172844Y-56426500D01*
X117172845Y-56426499D01*
X117327497Y-56395737D01*
X117462431Y-56339846D01*
X117473172Y-56335397D01*
X117473172Y-56335396D01*
X117473179Y-56335394D01*
X117604289Y-56247789D01*
X117715789Y-56136289D01*
X117803394Y-56005179D01*
X117812136Y-55984075D01*
X117833877Y-55931585D01*
X117863737Y-55859497D01*
X117894500Y-55704842D01*
X117894500Y-55547158D01*
X117894500Y-55547155D01*
X117894499Y-55547153D01*
X117873625Y-55442212D01*
X117863737Y-55392503D01*
X117810896Y-55264934D01*
X117803428Y-55195466D01*
X117834703Y-55132987D01*
X117886451Y-55099778D01*
X117969334Y-55072314D01*
X118118656Y-54980212D01*
X118242712Y-54856156D01*
X118334814Y-54706834D01*
X118389999Y-54540297D01*
X118400500Y-54437509D01*
X118400499Y-53812492D01*
X118396072Y-53769158D01*
X118389999Y-53709703D01*
X118389998Y-53709700D01*
X118377784Y-53672842D01*
X118334814Y-53543166D01*
X118242712Y-53393844D01*
X118149049Y-53300181D01*
X118115564Y-53238858D01*
X118120548Y-53169166D01*
X118149049Y-53124819D01*
X118195607Y-53078261D01*
X118242712Y-53031156D01*
X118334814Y-52881834D01*
X118389999Y-52715297D01*
X118400500Y-52612509D01*
X118400499Y-51987492D01*
X118389999Y-51884703D01*
X118334814Y-51718166D01*
X118242712Y-51568844D01*
X118118656Y-51444788D01*
X117969334Y-51352686D01*
X117835495Y-51308336D01*
X117778051Y-51268563D01*
X117751228Y-51204047D01*
X117750500Y-51190630D01*
X117750500Y-50754067D01*
X117770185Y-50687028D01*
X117818205Y-50643582D01*
X117936433Y-50583343D01*
X118127510Y-50444517D01*
X118294517Y-50277510D01*
X118433343Y-50086433D01*
X118540568Y-49875992D01*
X118613553Y-49651368D01*
X118620288Y-49608844D01*
X118650500Y-49418097D01*
X118650500Y-49181947D01*
X120150000Y-49181947D01*
X120150000Y-49418052D01*
X120186934Y-49651247D01*
X120259897Y-49875802D01*
X120367087Y-50086174D01*
X120427338Y-50169104D01*
X120427340Y-50169105D01*
X121126212Y-49470233D01*
X121137482Y-49512292D01*
X121209890Y-49637708D01*
X121312292Y-49740110D01*
X121437708Y-49812518D01*
X121479765Y-49823787D01*
X120780893Y-50522658D01*
X120863828Y-50582914D01*
X121074197Y-50690102D01*
X121298752Y-50763065D01*
X121298751Y-50763065D01*
X121531948Y-50800000D01*
X121768052Y-50800000D01*
X122001247Y-50763065D01*
X122225802Y-50690102D01*
X122436163Y-50582918D01*
X122436169Y-50582914D01*
X122519104Y-50522658D01*
X122519105Y-50522658D01*
X121820233Y-49823787D01*
X121862292Y-49812518D01*
X121987708Y-49740110D01*
X122090110Y-49637708D01*
X122162518Y-49512292D01*
X122173787Y-49470234D01*
X122872658Y-50169105D01*
X122872658Y-50169104D01*
X122932914Y-50086169D01*
X122932918Y-50086163D01*
X123040102Y-49875802D01*
X123113065Y-49651247D01*
X123150000Y-49418052D01*
X123150000Y-49181947D01*
X123113065Y-48948752D01*
X123040102Y-48724197D01*
X122932914Y-48513828D01*
X122872658Y-48430894D01*
X122872658Y-48430893D01*
X122173787Y-49129765D01*
X122162518Y-49087708D01*
X122090110Y-48962292D01*
X121987708Y-48859890D01*
X121862292Y-48787482D01*
X121820234Y-48776212D01*
X122519105Y-48077340D01*
X122519104Y-48077338D01*
X122436174Y-48017087D01*
X122225802Y-47909897D01*
X122001247Y-47836934D01*
X122001248Y-47836934D01*
X121768052Y-47800000D01*
X121531948Y-47800000D01*
X121298752Y-47836934D01*
X121074197Y-47909897D01*
X120863830Y-48017084D01*
X120780894Y-48077340D01*
X121479766Y-48776212D01*
X121437708Y-48787482D01*
X121312292Y-48859890D01*
X121209890Y-48962292D01*
X121137482Y-49087708D01*
X121126212Y-49129766D01*
X120427340Y-48430894D01*
X120367084Y-48513830D01*
X120259897Y-48724197D01*
X120186934Y-48948752D01*
X120150000Y-49181947D01*
X118650500Y-49181947D01*
X118650500Y-49181902D01*
X118613553Y-48948631D01*
X118540566Y-48724003D01*
X118484002Y-48612991D01*
X118433343Y-48513567D01*
X118294517Y-48322490D01*
X118127510Y-48155483D01*
X118005033Y-48066498D01*
X117936431Y-48016655D01*
X117818204Y-47956415D01*
X117767409Y-47908441D01*
X117750500Y-47845931D01*
X117750500Y-44254067D01*
X117770185Y-44187028D01*
X117818205Y-44143582D01*
X117936433Y-44083343D01*
X118127510Y-43944517D01*
X118294517Y-43777510D01*
X118433343Y-43586433D01*
X118540568Y-43375992D01*
X118613553Y-43151368D01*
X118617558Y-43126079D01*
X118650500Y-42918097D01*
X118650500Y-42681947D01*
X120150000Y-42681947D01*
X120150000Y-42918052D01*
X120186934Y-43151247D01*
X120259897Y-43375802D01*
X120367087Y-43586174D01*
X120427338Y-43669104D01*
X120427340Y-43669105D01*
X121126212Y-42970233D01*
X121137482Y-43012292D01*
X121209890Y-43137708D01*
X121312292Y-43240110D01*
X121437708Y-43312518D01*
X121479765Y-43323787D01*
X120780893Y-44022658D01*
X120863828Y-44082914D01*
X121074197Y-44190102D01*
X121298752Y-44263065D01*
X121298751Y-44263065D01*
X121531948Y-44300000D01*
X121768052Y-44300000D01*
X122001247Y-44263065D01*
X122225802Y-44190102D01*
X122436163Y-44082918D01*
X122436169Y-44082914D01*
X122519104Y-44022658D01*
X122519105Y-44022658D01*
X121820233Y-43323787D01*
X121862292Y-43312518D01*
X121987708Y-43240110D01*
X122090110Y-43137708D01*
X122162518Y-43012292D01*
X122173787Y-42970234D01*
X122872658Y-43669105D01*
X122872658Y-43669104D01*
X122932914Y-43586169D01*
X122932918Y-43586163D01*
X123040102Y-43375802D01*
X123113065Y-43151247D01*
X123150000Y-42918052D01*
X123150000Y-42681947D01*
X123113065Y-42448752D01*
X123040102Y-42224197D01*
X122932914Y-42013828D01*
X122872658Y-41930894D01*
X122872658Y-41930893D01*
X122173787Y-42629765D01*
X122162518Y-42587708D01*
X122090110Y-42462292D01*
X121987708Y-42359890D01*
X121862292Y-42287482D01*
X121820234Y-42276212D01*
X122519105Y-41577340D01*
X122519104Y-41577338D01*
X122436174Y-41517087D01*
X122225802Y-41409897D01*
X122001247Y-41336934D01*
X122001248Y-41336934D01*
X121768052Y-41300000D01*
X121531948Y-41300000D01*
X121298752Y-41336934D01*
X121074197Y-41409897D01*
X120863830Y-41517084D01*
X120780894Y-41577340D01*
X121479766Y-42276212D01*
X121437708Y-42287482D01*
X121312292Y-42359890D01*
X121209890Y-42462292D01*
X121137482Y-42587708D01*
X121126212Y-42629766D01*
X120427340Y-41930894D01*
X120367084Y-42013830D01*
X120259897Y-42224197D01*
X120186934Y-42448752D01*
X120150000Y-42681947D01*
X118650500Y-42681947D01*
X118650500Y-42681902D01*
X118613553Y-42448631D01*
X118540566Y-42224003D01*
X118433477Y-42013830D01*
X118433343Y-42013567D01*
X118294517Y-41822490D01*
X118127510Y-41655483D01*
X117936433Y-41516657D01*
X117725996Y-41409433D01*
X117501368Y-41336446D01*
X117268097Y-41299500D01*
X117268092Y-41299500D01*
X117031908Y-41299500D01*
X117031903Y-41299500D01*
X116798631Y-41336446D01*
X116574003Y-41409433D01*
X116363566Y-41516657D01*
X116280047Y-41577338D01*
X116172490Y-41655483D01*
X116172488Y-41655485D01*
X116172487Y-41655485D01*
X116005485Y-41822487D01*
X116005485Y-41822488D01*
X116005483Y-41822490D01*
X115945862Y-41904550D01*
X115866657Y-42013566D01*
X115759433Y-42224003D01*
X115686446Y-42448631D01*
X115649500Y-42681902D01*
X115649500Y-42918097D01*
X115686446Y-43151368D01*
X115759433Y-43375996D01*
X115781301Y-43418913D01*
X115866657Y-43586433D01*
X116005483Y-43777510D01*
X116172490Y-43944517D01*
X116280042Y-44022658D01*
X116363568Y-44083344D01*
X116438177Y-44121358D01*
X116481794Y-44143582D01*
X116532590Y-44191556D01*
X116549500Y-44254067D01*
X116549500Y-47845931D01*
X116529815Y-47912970D01*
X116481796Y-47956415D01*
X116363568Y-48016655D01*
X116280044Y-48077340D01*
X116172490Y-48155483D01*
X116172488Y-48155485D01*
X116172487Y-48155485D01*
X116005485Y-48322487D01*
X116005485Y-48322488D01*
X116005483Y-48322490D01*
X115993603Y-48338842D01*
X115866657Y-48513566D01*
X115759433Y-48724003D01*
X115686446Y-48948631D01*
X115649500Y-49181902D01*
X115649500Y-49418097D01*
X115686446Y-49651368D01*
X115759433Y-49875996D01*
X115822523Y-49999815D01*
X115866657Y-50086433D01*
X116005483Y-50277510D01*
X116172490Y-50444517D01*
X116280042Y-50522658D01*
X116363568Y-50583344D01*
X116438177Y-50621358D01*
X116481794Y-50643582D01*
X116532590Y-50691556D01*
X116549500Y-50754067D01*
X116549500Y-51223767D01*
X116529815Y-51290806D01*
X116477011Y-51336561D01*
X116464506Y-51341472D01*
X116430671Y-51352684D01*
X116430663Y-51352687D01*
X116281342Y-51444789D01*
X116157289Y-51568842D01*
X116065187Y-51718163D01*
X116065185Y-51718168D01*
X116047281Y-51772200D01*
X116010001Y-51884703D01*
X116010001Y-51884704D01*
X116010000Y-51884704D01*
X115999500Y-51987483D01*
X115999500Y-52599901D01*
X115990854Y-52629344D01*
X115984332Y-52659327D01*
X115980577Y-52664342D01*
X115979815Y-52666940D01*
X115963182Y-52687582D01*
X115830286Y-52820478D01*
X115830285Y-52820478D01*
X115830284Y-52820479D01*
X115718481Y-52932282D01*
X115718477Y-52932287D01*
X115669261Y-53017534D01*
X115669260Y-53017533D01*
X115639424Y-53069211D01*
X115639423Y-53069215D01*
X115598499Y-53221943D01*
X115598499Y-53221945D01*
X115598499Y-53390046D01*
X115598500Y-53390059D01*
X115598500Y-56546003D01*
X115578815Y-56613042D01*
X115526011Y-56658797D01*
X115493899Y-56668476D01*
X115403759Y-56682753D01*
X115201585Y-56748444D01*
X115012179Y-56844951D01*
X114840213Y-56969890D01*
X114689890Y-57120213D01*
X114564951Y-57292179D01*
X114468444Y-57481585D01*
X114402753Y-57683760D01*
X114369500Y-57893713D01*
X114369500Y-58106286D01*
X114402753Y-58316240D01*
X114402754Y-58316244D01*
X114421366Y-58373526D01*
X114423361Y-58443367D01*
X114387280Y-58503199D01*
X114324579Y-58534027D01*
X114255165Y-58526062D01*
X114234544Y-58514945D01*
X114171184Y-58472609D01*
X114171172Y-58472602D01*
X114025501Y-58412264D01*
X114025489Y-58412261D01*
X113870845Y-58381500D01*
X113870842Y-58381500D01*
X113713158Y-58381500D01*
X113713155Y-58381500D01*
X113558510Y-58412261D01*
X113558498Y-58412264D01*
X113412827Y-58472602D01*
X113412814Y-58472609D01*
X113281711Y-58560210D01*
X113281707Y-58560213D01*
X113170213Y-58671707D01*
X113170210Y-58671711D01*
X113082609Y-58802814D01*
X113082602Y-58802827D01*
X113022264Y-58948498D01*
X113022261Y-58948510D01*
X112991500Y-59103153D01*
X112991500Y-59260846D01*
X113022261Y-59415489D01*
X113022264Y-59415501D01*
X113082602Y-59561172D01*
X113082609Y-59561185D01*
X113170210Y-59692288D01*
X113170213Y-59692292D01*
X113281707Y-59803786D01*
X113281711Y-59803789D01*
X113412814Y-59891390D01*
X113412827Y-59891397D01*
X113480961Y-59919618D01*
X113558503Y-59951737D01*
X113599691Y-59959929D01*
X113661602Y-59992314D01*
X113696176Y-60053030D01*
X113699500Y-60081547D01*
X113699500Y-154460903D01*
X113679815Y-154527942D01*
X113627011Y-154573697D01*
X113557853Y-154583641D01*
X113494297Y-154554616D01*
X113487819Y-154548584D01*
X112996818Y-154057583D01*
X112963333Y-153996260D01*
X112960499Y-153969902D01*
X112960499Y-153269998D01*
X112960498Y-153269981D01*
X112949999Y-153167203D01*
X112949998Y-153167200D01*
X112894814Y-153000666D01*
X112802712Y-152851344D01*
X112709049Y-152757681D01*
X112675564Y-152696358D01*
X112680548Y-152626666D01*
X112709049Y-152582319D01*
X112802712Y-152488656D01*
X112894814Y-152339334D01*
X112949999Y-152172797D01*
X112960500Y-152070009D01*
X112960499Y-151269992D01*
X112949999Y-151167203D01*
X112894814Y-151000666D01*
X112802712Y-150851344D01*
X112678656Y-150727288D01*
X112529334Y-150635186D01*
X112445495Y-150607404D01*
X112388051Y-150567632D01*
X112361228Y-150503116D01*
X112360500Y-150489699D01*
X112360500Y-68669059D01*
X112360501Y-68669046D01*
X112360501Y-68500945D01*
X112360501Y-68500943D01*
X112319577Y-68348215D01*
X112319576Y-68348214D01*
X112319576Y-68348212D01*
X112319575Y-68348211D01*
X112287313Y-68292332D01*
X112287312Y-68292331D01*
X112240520Y-68211284D01*
X112128716Y-68099480D01*
X112128715Y-68099479D01*
X112124385Y-68095149D01*
X112124374Y-68095139D01*
X110689574Y-66660339D01*
X110656089Y-66599016D01*
X110655638Y-66596849D01*
X110624738Y-66441510D01*
X110624737Y-66441503D01*
X110624735Y-66441498D01*
X110564397Y-66295827D01*
X110564390Y-66295814D01*
X110476789Y-66164711D01*
X110476786Y-66164707D01*
X110365292Y-66053213D01*
X110365288Y-66053210D01*
X110234185Y-65965609D01*
X110234172Y-65965602D01*
X110088501Y-65905264D01*
X110088489Y-65905261D01*
X109933845Y-65874500D01*
X109933842Y-65874500D01*
X109776158Y-65874500D01*
X109776155Y-65874500D01*
X109621510Y-65905261D01*
X109621498Y-65905264D01*
X109475827Y-65965602D01*
X109475814Y-65965609D01*
X109344711Y-66053210D01*
X109344707Y-66053213D01*
X109233213Y-66164707D01*
X109233210Y-66164711D01*
X109145609Y-66295814D01*
X109145602Y-66295827D01*
X109085264Y-66441498D01*
X109085261Y-66441510D01*
X109054500Y-66596153D01*
X109054500Y-66753846D01*
X109085261Y-66908489D01*
X109085264Y-66908501D01*
X109145602Y-67054172D01*
X109145609Y-67054185D01*
X109233210Y-67185288D01*
X109233213Y-67185292D01*
X109344707Y-67296786D01*
X109344711Y-67296789D01*
X109475814Y-67384390D01*
X109475827Y-67384397D01*
X109621498Y-67444735D01*
X109621503Y-67444737D01*
X109686147Y-67457595D01*
X109776849Y-67475638D01*
X109838760Y-67508023D01*
X109840339Y-67509574D01*
X111123181Y-68792416D01*
X111156666Y-68853739D01*
X111159500Y-68880097D01*
X111159500Y-74659676D01*
X111139815Y-74726715D01*
X111087011Y-74772470D01*
X111017853Y-74782414D01*
X110954297Y-74753389D01*
X110919064Y-74698566D01*
X110918686Y-74698723D01*
X110917816Y-74696623D01*
X110916523Y-74694611D01*
X110915726Y-74691772D01*
X110915720Y-74691751D01*
X110915577Y-74691216D01*
X110897368Y-74659676D01*
X110836524Y-74554290D01*
X110836521Y-74554286D01*
X110836520Y-74554284D01*
X110724716Y-74442480D01*
X110724715Y-74442479D01*
X110720385Y-74438149D01*
X110720374Y-74438139D01*
X109165574Y-72883339D01*
X109132089Y-72822016D01*
X109131638Y-72819849D01*
X109100738Y-72664510D01*
X109100737Y-72664503D01*
X109061507Y-72569792D01*
X109040397Y-72518827D01*
X109040390Y-72518814D01*
X108952789Y-72387711D01*
X108952786Y-72387707D01*
X108841292Y-72276213D01*
X108841288Y-72276210D01*
X108710185Y-72188609D01*
X108710172Y-72188602D01*
X108564501Y-72128264D01*
X108564489Y-72128261D01*
X108409845Y-72097500D01*
X108409842Y-72097500D01*
X108252158Y-72097500D01*
X108252155Y-72097500D01*
X108097510Y-72128261D01*
X108097498Y-72128264D01*
X107951827Y-72188602D01*
X107951814Y-72188609D01*
X107820711Y-72276210D01*
X107820707Y-72276213D01*
X107709213Y-72387707D01*
X107709210Y-72387711D01*
X107621609Y-72518814D01*
X107621602Y-72518827D01*
X107561264Y-72664498D01*
X107561261Y-72664510D01*
X107530500Y-72819153D01*
X107530500Y-72976846D01*
X107561261Y-73131489D01*
X107561264Y-73131501D01*
X107621602Y-73277172D01*
X107621609Y-73277185D01*
X107709210Y-73408288D01*
X107709213Y-73408292D01*
X107820707Y-73519786D01*
X107820711Y-73519789D01*
X107951814Y-73607390D01*
X107951827Y-73607397D01*
X108097498Y-73667735D01*
X108097503Y-73667737D01*
X108162147Y-73680595D01*
X108252849Y-73698638D01*
X108314760Y-73731023D01*
X108316339Y-73732574D01*
X109719181Y-75135416D01*
X109752666Y-75196739D01*
X109755500Y-75223097D01*
X109755500Y-155313902D01*
X109735815Y-155380941D01*
X109719181Y-155401583D01*
X109507582Y-155613181D01*
X109446259Y-155646666D01*
X109419901Y-155649500D01*
X108719998Y-155649500D01*
X108719980Y-155649501D01*
X108617203Y-155660000D01*
X108617200Y-155660001D01*
X108450668Y-155715185D01*
X108450663Y-155715187D01*
X108301342Y-155807289D01*
X108177289Y-155931342D01*
X108085187Y-156080663D01*
X108085186Y-156080666D01*
X108072909Y-156117717D01*
X108067706Y-156133418D01*
X108027933Y-156190863D01*
X107963417Y-156217686D01*
X107894641Y-156205371D01*
X107843442Y-156157828D01*
X107832294Y-156133418D01*
X107814814Y-156080666D01*
X107722712Y-155931344D01*
X107598656Y-155807288D01*
X107449334Y-155715186D01*
X107365495Y-155687404D01*
X107308051Y-155647632D01*
X107281228Y-155583116D01*
X107280500Y-155569699D01*
X107280500Y-134921945D01*
X107280500Y-134921943D01*
X107275018Y-134901481D01*
X107239577Y-134769215D01*
X107205264Y-134709784D01*
X107205264Y-134709783D01*
X107160522Y-134632287D01*
X107160521Y-134632286D01*
X107160520Y-134632284D01*
X107048716Y-134520480D01*
X107048715Y-134520479D01*
X107044385Y-134516149D01*
X107044374Y-134516139D01*
X106244574Y-133716339D01*
X106211089Y-133655016D01*
X106210638Y-133652849D01*
X106179738Y-133497510D01*
X106179737Y-133497503D01*
X106124543Y-133364251D01*
X106119397Y-133351827D01*
X106119390Y-133351814D01*
X106031789Y-133220711D01*
X106031786Y-133220707D01*
X105920292Y-133109213D01*
X105920288Y-133109210D01*
X105789185Y-133021609D01*
X105789172Y-133021602D01*
X105643501Y-132961264D01*
X105643489Y-132961261D01*
X105488845Y-132930500D01*
X105488842Y-132930500D01*
X105331158Y-132930500D01*
X105331155Y-132930500D01*
X105176510Y-132961261D01*
X105176498Y-132961264D01*
X105030827Y-133021602D01*
X105030816Y-133021608D01*
X104918601Y-133096588D01*
X104851924Y-133117465D01*
X104802260Y-133108047D01*
X104754497Y-133088263D01*
X104754493Y-133088262D01*
X104754488Y-133088260D01*
X104599845Y-133057500D01*
X104599842Y-133057500D01*
X104442158Y-133057500D01*
X104442155Y-133057500D01*
X104287510Y-133088261D01*
X104287498Y-133088264D01*
X104141827Y-133148602D01*
X104141814Y-133148609D01*
X104010711Y-133236210D01*
X104010707Y-133236213D01*
X103899213Y-133347707D01*
X103899210Y-133347711D01*
X103811609Y-133478814D01*
X103811602Y-133478827D01*
X103751264Y-133624498D01*
X103751261Y-133624510D01*
X103720500Y-133779153D01*
X103720500Y-133936846D01*
X103751261Y-134091489D01*
X103751264Y-134091501D01*
X103811602Y-134237172D01*
X103811609Y-134237185D01*
X103899210Y-134368288D01*
X103899213Y-134368292D01*
X103900740Y-134369819D01*
X103901284Y-134370815D01*
X103903076Y-134372999D01*
X103902661Y-134373338D01*
X103934225Y-134431142D01*
X103929241Y-134500834D01*
X103887369Y-134556767D01*
X103821905Y-134581184D01*
X103813059Y-134581500D01*
X103807155Y-134581500D01*
X103652510Y-134612261D01*
X103652498Y-134612264D01*
X103506827Y-134672602D01*
X103506814Y-134672609D01*
X103375711Y-134760210D01*
X103375707Y-134760213D01*
X103264213Y-134871707D01*
X103264210Y-134871711D01*
X103176609Y-135002814D01*
X103176602Y-135002827D01*
X103116264Y-135148498D01*
X103116261Y-135148510D01*
X103085500Y-135303153D01*
X103085500Y-135460846D01*
X103116261Y-135615489D01*
X103116264Y-135615501D01*
X103176602Y-135761172D01*
X103176609Y-135761185D01*
X103264210Y-135892288D01*
X103264213Y-135892292D01*
X103375708Y-136003787D01*
X103375711Y-136003789D01*
X103484392Y-136076407D01*
X103529196Y-136130017D01*
X103539500Y-136179508D01*
X103539500Y-150489699D01*
X103519815Y-150556738D01*
X103467011Y-150602493D01*
X103454507Y-150607403D01*
X103421962Y-150618188D01*
X103370668Y-150635185D01*
X103370663Y-150635187D01*
X103221342Y-150727289D01*
X103097289Y-150851342D01*
X103005187Y-151000663D01*
X103005186Y-151000666D01*
X102950001Y-151167203D01*
X102950001Y-151167204D01*
X102950000Y-151167204D01*
X102939500Y-151269983D01*
X102939500Y-152070001D01*
X102939501Y-152070019D01*
X102950000Y-152172796D01*
X102950001Y-152172799D01*
X103005185Y-152339331D01*
X103005187Y-152339336D01*
X103097289Y-152488657D01*
X103190951Y-152582319D01*
X103224436Y-152643642D01*
X103219452Y-152713334D01*
X103190951Y-152757681D01*
X103097289Y-152851342D01*
X103005187Y-153000663D01*
X103005186Y-153000666D01*
X102950001Y-153167203D01*
X102950001Y-153167204D01*
X102950000Y-153167204D01*
X102939500Y-153269983D01*
X102939500Y-153969902D01*
X102919815Y-154036941D01*
X102903181Y-154057583D01*
X102412181Y-154548583D01*
X102350858Y-154582068D01*
X102281166Y-154577084D01*
X102225233Y-154535212D01*
X102200816Y-154469748D01*
X102200500Y-154460902D01*
X102200500Y-105380819D01*
X102200501Y-105380806D01*
X102200501Y-105212705D01*
X102200501Y-105212703D01*
X102159577Y-105059975D01*
X102104147Y-104963968D01*
X102080520Y-104923044D01*
X101968716Y-104811240D01*
X101968713Y-104811238D01*
X101917814Y-104760339D01*
X101884329Y-104699016D01*
X101883878Y-104696849D01*
X101862477Y-104589264D01*
X101852977Y-104541503D01*
X101852975Y-104541498D01*
X101792637Y-104395827D01*
X101792630Y-104395814D01*
X101705029Y-104264711D01*
X101705026Y-104264707D01*
X101593532Y-104153213D01*
X101593528Y-104153210D01*
X101462425Y-104065609D01*
X101462412Y-104065602D01*
X101316741Y-104005264D01*
X101316731Y-104005261D01*
X101183548Y-103978769D01*
X101121637Y-103946384D01*
X101087063Y-103885668D01*
X101083740Y-103857152D01*
X101083740Y-101083134D01*
X101103425Y-101016095D01*
X101156229Y-100970340D01*
X101188343Y-100960660D01*
X101276132Y-100946756D01*
X101478217Y-100881095D01*
X101667554Y-100784622D01*
X101721716Y-100745270D01*
X101721717Y-100745270D01*
X101089408Y-100112962D01*
X101152993Y-100095925D01*
X101267007Y-100030099D01*
X101360099Y-99937007D01*
X101425925Y-99822993D01*
X101442962Y-99759408D01*
X102075270Y-100391717D01*
X102075270Y-100391716D01*
X102114622Y-100337554D01*
X102119514Y-100327954D01*
X102167488Y-100277157D01*
X102235308Y-100260361D01*
X102301444Y-100282897D01*
X102340486Y-100327954D01*
X102345375Y-100337550D01*
X102384728Y-100391716D01*
X103017037Y-99759408D01*
X103034075Y-99822993D01*
X103099901Y-99937007D01*
X103192993Y-100030099D01*
X103307007Y-100095925D01*
X103370590Y-100112962D01*
X102738282Y-100745269D01*
X102738282Y-100745270D01*
X102792449Y-100784624D01*
X102981782Y-100881095D01*
X103183870Y-100946757D01*
X103393754Y-100980000D01*
X103606246Y-100980000D01*
X103816127Y-100946757D01*
X103816130Y-100946757D01*
X104018217Y-100881095D01*
X104207554Y-100784622D01*
X104261716Y-100745270D01*
X104261717Y-100745270D01*
X103629408Y-100112962D01*
X103692993Y-100095925D01*
X103807007Y-100030099D01*
X103900099Y-99937007D01*
X103965925Y-99822993D01*
X103982962Y-99759409D01*
X104615270Y-100391717D01*
X104615270Y-100391716D01*
X104654622Y-100337554D01*
X104751095Y-100148217D01*
X104816757Y-99946130D01*
X104816757Y-99946127D01*
X104850000Y-99736246D01*
X104850000Y-99523753D01*
X104816757Y-99313872D01*
X104816757Y-99313869D01*
X104751095Y-99111782D01*
X104654624Y-98922449D01*
X104615270Y-98868282D01*
X104615269Y-98868282D01*
X103982962Y-99500590D01*
X103965925Y-99437007D01*
X103900099Y-99322993D01*
X103807007Y-99229901D01*
X103692993Y-99164075D01*
X103629409Y-99147037D01*
X104261716Y-98514728D01*
X104207547Y-98475373D01*
X104207547Y-98475372D01*
X104198500Y-98470763D01*
X104147706Y-98422788D01*
X104130912Y-98354966D01*
X104153451Y-98288832D01*
X104198508Y-98249793D01*
X104207816Y-98245051D01*
X104324211Y-98160486D01*
X104379786Y-98120109D01*
X104379788Y-98120106D01*
X104379792Y-98120104D01*
X104530104Y-97969792D01*
X104530106Y-97969788D01*
X104530109Y-97969786D01*
X104655048Y-97797820D01*
X104655047Y-97797820D01*
X104655051Y-97797816D01*
X104751557Y-97608412D01*
X104817246Y-97406243D01*
X104850500Y-97196287D01*
X104850500Y-96983713D01*
X104817246Y-96773757D01*
X104794078Y-96702456D01*
X104792084Y-96632619D01*
X104828164Y-96572786D01*
X104890864Y-96541957D01*
X104960279Y-96549921D01*
X104980901Y-96561039D01*
X105030814Y-96594390D01*
X105030827Y-96594397D01*
X105145306Y-96641815D01*
X105176503Y-96654737D01*
X105313437Y-96681975D01*
X105331153Y-96685499D01*
X105331156Y-96685500D01*
X105331158Y-96685500D01*
X105488844Y-96685500D01*
X105488845Y-96685499D01*
X105643497Y-96654737D01*
X105778431Y-96598846D01*
X105789172Y-96594397D01*
X105789172Y-96594396D01*
X105789179Y-96594394D01*
X105920289Y-96506789D01*
X106031789Y-96395289D01*
X106119394Y-96264179D01*
X106179737Y-96118497D01*
X106210500Y-95963842D01*
X106210638Y-95963150D01*
X106243023Y-95901239D01*
X106244461Y-95899773D01*
X106525520Y-95618716D01*
X106604577Y-95481784D01*
X106645501Y-95329057D01*
X106645501Y-95170942D01*
X106645501Y-95163347D01*
X106645500Y-95163329D01*
X106645500Y-81829765D01*
X106665185Y-81762726D01*
X106666398Y-81760874D01*
X106754390Y-81629185D01*
X106754390Y-81629184D01*
X106754394Y-81629179D01*
X106814737Y-81483497D01*
X106845500Y-81328842D01*
X106845500Y-81171158D01*
X106845500Y-81171155D01*
X106845499Y-81171153D01*
X106814738Y-81016510D01*
X106814737Y-81016503D01*
X106795561Y-80970208D01*
X106754397Y-80870827D01*
X106754390Y-80870814D01*
X106666789Y-80739711D01*
X106666786Y-80739707D01*
X106555292Y-80628213D01*
X106555288Y-80628210D01*
X106424185Y-80540609D01*
X106424172Y-80540602D01*
X106278501Y-80480264D01*
X106278489Y-80480261D01*
X106123845Y-80449500D01*
X106123842Y-80449500D01*
X105966158Y-80449500D01*
X105966155Y-80449500D01*
X105811510Y-80480261D01*
X105811498Y-80480264D01*
X105665827Y-80540602D01*
X105665814Y-80540609D01*
X105534711Y-80628210D01*
X105534707Y-80628213D01*
X105423213Y-80739707D01*
X105423210Y-80739711D01*
X105335609Y-80870814D01*
X105335602Y-80870827D01*
X105275264Y-81016498D01*
X105275261Y-81016510D01*
X105244500Y-81171153D01*
X105244500Y-81328846D01*
X105275261Y-81483489D01*
X105275264Y-81483501D01*
X105335602Y-81629172D01*
X105335609Y-81629185D01*
X105423602Y-81760874D01*
X105444480Y-81827551D01*
X105444500Y-81829765D01*
X105444500Y-94949902D01*
X105435854Y-94979344D01*
X105429330Y-95009333D01*
X105425576Y-95014346D01*
X105424815Y-95016941D01*
X105408182Y-95037581D01*
X105395334Y-95050430D01*
X105334009Y-95083912D01*
X105331848Y-95084362D01*
X105176508Y-95115261D01*
X105176498Y-95115264D01*
X105030827Y-95175602D01*
X105030816Y-95175608D01*
X104919699Y-95249854D01*
X104853022Y-95270731D01*
X104785642Y-95252246D01*
X104738952Y-95200267D01*
X104727776Y-95131297D01*
X104740324Y-95090457D01*
X104751557Y-95068412D01*
X104817246Y-94866243D01*
X104850500Y-94656287D01*
X104850500Y-94443713D01*
X104817246Y-94233757D01*
X104751557Y-94031588D01*
X104655051Y-93842184D01*
X104655049Y-93842181D01*
X104655048Y-93842179D01*
X104530109Y-93670213D01*
X104379786Y-93519890D01*
X104207820Y-93394951D01*
X104207115Y-93394591D01*
X104199054Y-93390485D01*
X104148259Y-93342512D01*
X104131463Y-93274692D01*
X104153999Y-93208556D01*
X104199054Y-93169515D01*
X104207816Y-93165051D01*
X104229789Y-93149086D01*
X104379786Y-93040109D01*
X104379788Y-93040106D01*
X104379792Y-93040104D01*
X104530104Y-92889792D01*
X104530106Y-92889788D01*
X104530109Y-92889786D01*
X104646383Y-92729746D01*
X104655051Y-92717816D01*
X104751557Y-92528412D01*
X104817246Y-92326243D01*
X104850500Y-92116287D01*
X104850500Y-91903713D01*
X104817246Y-91693757D01*
X104751557Y-91491588D01*
X104655051Y-91302184D01*
X104655049Y-91302181D01*
X104655048Y-91302179D01*
X104530109Y-91130213D01*
X104379786Y-90979890D01*
X104207820Y-90854951D01*
X104207115Y-90854591D01*
X104199054Y-90850485D01*
X104148259Y-90802512D01*
X104131463Y-90734692D01*
X104153999Y-90668556D01*
X104199054Y-90629515D01*
X104207816Y-90625051D01*
X104288500Y-90566431D01*
X104379786Y-90500109D01*
X104379788Y-90500106D01*
X104379792Y-90500104D01*
X104530104Y-90349792D01*
X104530106Y-90349788D01*
X104530109Y-90349786D01*
X104655048Y-90177820D01*
X104655047Y-90177820D01*
X104655051Y-90177816D01*
X104751557Y-89988412D01*
X104817246Y-89786243D01*
X104850500Y-89576287D01*
X104850500Y-89363713D01*
X104817246Y-89153757D01*
X104751557Y-88951588D01*
X104655051Y-88762184D01*
X104655049Y-88762181D01*
X104655048Y-88762179D01*
X104530109Y-88590213D01*
X104379786Y-88439890D01*
X104207820Y-88314951D01*
X104207115Y-88314591D01*
X104199054Y-88310485D01*
X104148259Y-88262512D01*
X104131463Y-88194692D01*
X104153999Y-88128556D01*
X104199054Y-88089515D01*
X104207816Y-88085051D01*
X104229789Y-88069086D01*
X104379786Y-87960109D01*
X104379788Y-87960106D01*
X104379792Y-87960104D01*
X104530104Y-87809792D01*
X104530106Y-87809788D01*
X104530109Y-87809786D01*
X104655048Y-87637820D01*
X104655047Y-87637820D01*
X104655051Y-87637816D01*
X104751557Y-87448412D01*
X104817246Y-87246243D01*
X104850500Y-87036287D01*
X104850500Y-86823713D01*
X104817246Y-86613757D01*
X104751557Y-86411588D01*
X104655051Y-86222184D01*
X104655049Y-86222181D01*
X104655048Y-86222179D01*
X104530109Y-86050213D01*
X104379786Y-85899890D01*
X104207820Y-85774951D01*
X104203879Y-85772943D01*
X104199054Y-85770485D01*
X104148259Y-85722512D01*
X104131463Y-85654692D01*
X104153999Y-85588556D01*
X104199054Y-85549515D01*
X104207816Y-85545051D01*
X104229789Y-85529086D01*
X104379786Y-85420109D01*
X104379788Y-85420106D01*
X104379792Y-85420104D01*
X104530104Y-85269792D01*
X104530106Y-85269788D01*
X104530109Y-85269786D01*
X104655048Y-85097820D01*
X104655047Y-85097820D01*
X104655051Y-85097816D01*
X104751557Y-84908412D01*
X104817246Y-84706243D01*
X104850500Y-84496287D01*
X104850500Y-84283713D01*
X104817246Y-84073757D01*
X104751557Y-83871588D01*
X104655051Y-83682184D01*
X104655049Y-83682181D01*
X104655048Y-83682179D01*
X104530109Y-83510213D01*
X104379786Y-83359890D01*
X104207820Y-83234951D01*
X104207115Y-83234591D01*
X104199054Y-83230485D01*
X104148259Y-83182512D01*
X104131463Y-83114692D01*
X104153999Y-83048556D01*
X104199054Y-83009515D01*
X104207816Y-83005051D01*
X104229789Y-82989086D01*
X104379786Y-82880109D01*
X104379788Y-82880106D01*
X104379792Y-82880104D01*
X104530104Y-82729792D01*
X104530106Y-82729788D01*
X104530109Y-82729786D01*
X104655048Y-82557820D01*
X104655047Y-82557820D01*
X104655051Y-82557816D01*
X104751557Y-82368412D01*
X104817246Y-82166243D01*
X104850500Y-81956287D01*
X104850500Y-81743713D01*
X104817246Y-81533757D01*
X104751557Y-81331588D01*
X104655051Y-81142184D01*
X104655049Y-81142181D01*
X104655048Y-81142179D01*
X104530109Y-80970213D01*
X104379786Y-80819890D01*
X104207820Y-80694951D01*
X104207115Y-80694591D01*
X104199054Y-80690485D01*
X104148259Y-80642512D01*
X104131463Y-80574692D01*
X104153999Y-80508556D01*
X104199054Y-80469515D01*
X104207816Y-80465051D01*
X104229789Y-80449086D01*
X104379786Y-80340109D01*
X104379788Y-80340106D01*
X104379792Y-80340104D01*
X104530104Y-80189792D01*
X104530106Y-80189788D01*
X104530109Y-80189786D01*
X104655048Y-80017820D01*
X104655047Y-80017820D01*
X104655051Y-80017816D01*
X104751557Y-79828412D01*
X104817246Y-79626243D01*
X104850500Y-79416287D01*
X104850500Y-79203713D01*
X104817246Y-78993757D01*
X104751557Y-78791588D01*
X104655051Y-78602184D01*
X104655049Y-78602181D01*
X104655048Y-78602179D01*
X104530109Y-78430213D01*
X104379786Y-78279890D01*
X104207820Y-78154951D01*
X104207115Y-78154591D01*
X104199054Y-78150485D01*
X104148259Y-78102512D01*
X104131463Y-78034692D01*
X104153999Y-77968556D01*
X104199054Y-77929515D01*
X104207816Y-77925051D01*
X104229789Y-77909086D01*
X104379786Y-77800109D01*
X104379788Y-77800106D01*
X104379792Y-77800104D01*
X104530104Y-77649792D01*
X104530106Y-77649788D01*
X104530109Y-77649786D01*
X104653902Y-77479397D01*
X104655051Y-77477816D01*
X104751557Y-77288412D01*
X104817246Y-77086243D01*
X104850500Y-76876287D01*
X104850500Y-76663713D01*
X104817246Y-76453757D01*
X104751557Y-76251588D01*
X104655051Y-76062184D01*
X104655049Y-76062181D01*
X104655048Y-76062179D01*
X104530109Y-75890213D01*
X104379786Y-75739890D01*
X104207817Y-75614949D01*
X104198504Y-75610204D01*
X104147707Y-75562230D01*
X104130912Y-75494409D01*
X104153449Y-75428274D01*
X104198507Y-75389232D01*
X104207555Y-75384622D01*
X104261716Y-75345270D01*
X104261717Y-75345270D01*
X103629408Y-74712962D01*
X103692993Y-74695925D01*
X103807007Y-74630099D01*
X103900099Y-74537007D01*
X103965925Y-74422993D01*
X103982962Y-74359409D01*
X104615270Y-74991717D01*
X104615270Y-74991716D01*
X104654622Y-74937554D01*
X104751095Y-74748217D01*
X104816757Y-74546130D01*
X104816757Y-74546127D01*
X104850000Y-74336246D01*
X104850000Y-74123753D01*
X104816757Y-73913872D01*
X104816757Y-73913869D01*
X104751095Y-73711782D01*
X104654624Y-73522449D01*
X104615270Y-73468282D01*
X104615269Y-73468282D01*
X103982962Y-74100590D01*
X103965925Y-74037007D01*
X103900099Y-73922993D01*
X103807007Y-73829901D01*
X103692993Y-73764075D01*
X103629409Y-73747037D01*
X104261716Y-73114728D01*
X104207547Y-73075373D01*
X104207547Y-73075372D01*
X104198500Y-73070763D01*
X104147706Y-73022788D01*
X104130912Y-72954966D01*
X104153451Y-72888832D01*
X104198508Y-72849793D01*
X104207816Y-72845051D01*
X104287007Y-72787515D01*
X104379786Y-72720109D01*
X104379788Y-72720106D01*
X104379792Y-72720104D01*
X104530104Y-72569792D01*
X104530106Y-72569788D01*
X104530109Y-72569786D01*
X104655048Y-72397820D01*
X104655047Y-72397820D01*
X104655051Y-72397816D01*
X104751557Y-72208412D01*
X104817246Y-72006243D01*
X104850500Y-71796287D01*
X104850500Y-71583713D01*
X104817246Y-71373757D01*
X104751557Y-71171588D01*
X104655051Y-70982184D01*
X104655049Y-70982181D01*
X104655048Y-70982179D01*
X104530109Y-70810213D01*
X104379786Y-70659890D01*
X104207820Y-70534951D01*
X104207115Y-70534591D01*
X104199054Y-70530485D01*
X104148259Y-70482512D01*
X104131463Y-70414692D01*
X104153999Y-70348556D01*
X104199054Y-70309515D01*
X104207816Y-70305051D01*
X104262572Y-70265269D01*
X104379786Y-70180109D01*
X104379788Y-70180106D01*
X104379792Y-70180104D01*
X104530104Y-70029792D01*
X104530106Y-70029788D01*
X104530109Y-70029786D01*
X104655048Y-69857820D01*
X104655050Y-69857817D01*
X104655051Y-69857816D01*
X104751557Y-69668412D01*
X104817246Y-69466243D01*
X104850500Y-69256287D01*
X104850500Y-69043713D01*
X104817246Y-68833757D01*
X104751557Y-68631588D01*
X104655051Y-68442184D01*
X104655049Y-68442181D01*
X104655048Y-68442179D01*
X104530109Y-68270213D01*
X104379786Y-68119890D01*
X104207820Y-67994951D01*
X104199600Y-67990763D01*
X104199054Y-67990485D01*
X104148259Y-67942512D01*
X104131463Y-67874692D01*
X104153999Y-67808556D01*
X104199054Y-67769515D01*
X104207816Y-67765051D01*
X104229789Y-67749086D01*
X104379786Y-67640109D01*
X104379788Y-67640106D01*
X104379792Y-67640104D01*
X104530104Y-67489792D01*
X104530106Y-67489788D01*
X104530109Y-67489786D01*
X104655048Y-67317820D01*
X104655047Y-67317820D01*
X104655051Y-67317816D01*
X104751557Y-67128412D01*
X104817246Y-66926243D01*
X104850500Y-66716287D01*
X104850500Y-66503713D01*
X104817246Y-66293757D01*
X104751557Y-66091588D01*
X104655051Y-65902184D01*
X104655049Y-65902181D01*
X104655048Y-65902179D01*
X104530109Y-65730213D01*
X104379786Y-65579890D01*
X104207820Y-65454951D01*
X104207115Y-65454591D01*
X104199054Y-65450485D01*
X104148259Y-65402512D01*
X104131463Y-65334692D01*
X104153999Y-65268556D01*
X104199054Y-65229515D01*
X104207816Y-65225051D01*
X104229789Y-65209086D01*
X104379786Y-65100109D01*
X104379788Y-65100106D01*
X104379792Y-65100104D01*
X104530104Y-64949792D01*
X104530106Y-64949788D01*
X104530109Y-64949786D01*
X104655048Y-64777820D01*
X104655047Y-64777820D01*
X104655051Y-64777816D01*
X104751557Y-64588412D01*
X104817246Y-64386243D01*
X104850500Y-64176287D01*
X104850500Y-63963713D01*
X104817246Y-63753757D01*
X104751557Y-63551588D01*
X104655051Y-63362184D01*
X104655049Y-63362181D01*
X104655048Y-63362179D01*
X104530109Y-63190213D01*
X104379786Y-63039890D01*
X104207820Y-62914951D01*
X104201604Y-62911784D01*
X104199054Y-62910485D01*
X104148259Y-62862512D01*
X104131463Y-62794692D01*
X104153999Y-62728556D01*
X104199054Y-62689515D01*
X104207816Y-62685051D01*
X104262572Y-62645269D01*
X104379786Y-62560109D01*
X104379788Y-62560106D01*
X104379792Y-62560104D01*
X104530104Y-62409792D01*
X104530106Y-62409788D01*
X104530109Y-62409786D01*
X104655048Y-62237820D01*
X104655050Y-62237817D01*
X104655051Y-62237816D01*
X104751557Y-62048412D01*
X104817246Y-61846243D01*
X104850500Y-61636287D01*
X104850500Y-61423713D01*
X104817246Y-61213757D01*
X104751557Y-61011588D01*
X104655051Y-60822184D01*
X104655049Y-60822181D01*
X104655048Y-60822179D01*
X104530109Y-60650213D01*
X104379786Y-60499890D01*
X104207820Y-60374951D01*
X104199600Y-60370763D01*
X104199054Y-60370485D01*
X104148259Y-60322512D01*
X104131463Y-60254692D01*
X104153999Y-60188556D01*
X104199054Y-60149515D01*
X104207816Y-60145051D01*
X104276249Y-60095332D01*
X104379786Y-60020109D01*
X104379788Y-60020106D01*
X104379792Y-60020104D01*
X104530104Y-59869792D01*
X104530106Y-59869788D01*
X104530109Y-59869786D01*
X104655048Y-59697820D01*
X104655047Y-59697820D01*
X104655051Y-59697816D01*
X104751557Y-59508412D01*
X104817246Y-59306243D01*
X104850500Y-59096287D01*
X104850500Y-58883713D01*
X104817246Y-58673757D01*
X104751557Y-58471588D01*
X104655051Y-58282184D01*
X104655049Y-58282181D01*
X104655048Y-58282179D01*
X104530109Y-58110213D01*
X104379786Y-57959890D01*
X104207820Y-57834951D01*
X104207115Y-57834591D01*
X104199054Y-57830485D01*
X104148259Y-57782512D01*
X104131463Y-57714692D01*
X104153999Y-57648556D01*
X104199054Y-57609515D01*
X104207816Y-57605051D01*
X104330519Y-57515903D01*
X104379786Y-57480109D01*
X104379788Y-57480106D01*
X104379792Y-57480104D01*
X104530104Y-57329792D01*
X104530106Y-57329788D01*
X104530109Y-57329786D01*
X104655048Y-57157820D01*
X104655050Y-57157817D01*
X104655051Y-57157816D01*
X104751557Y-56968412D01*
X104817246Y-56766243D01*
X104850500Y-56556287D01*
X104850500Y-56343713D01*
X104817246Y-56133757D01*
X104751557Y-55931588D01*
X104655051Y-55742184D01*
X104655049Y-55742181D01*
X104655048Y-55742179D01*
X104530109Y-55570213D01*
X104379786Y-55419890D01*
X104207820Y-55294951D01*
X104199600Y-55290763D01*
X104199054Y-55290485D01*
X104148259Y-55242512D01*
X104131463Y-55174692D01*
X104153999Y-55108556D01*
X104199054Y-55069515D01*
X104207816Y-55065051D01*
X104268450Y-55020998D01*
X104379786Y-54940109D01*
X104379788Y-54940106D01*
X104379792Y-54940104D01*
X104530104Y-54789792D01*
X104530106Y-54789788D01*
X104530109Y-54789786D01*
X104640907Y-54637284D01*
X104655051Y-54617816D01*
X104751557Y-54428412D01*
X104763968Y-54390212D01*
X104803403Y-54332539D01*
X104867761Y-54305339D01*
X104929351Y-54313969D01*
X105049498Y-54363735D01*
X105049503Y-54363737D01*
X105182616Y-54390215D01*
X105204153Y-54394499D01*
X105204156Y-54394500D01*
X105204158Y-54394500D01*
X105361844Y-54394500D01*
X105361845Y-54394499D01*
X105516497Y-54363737D01*
X105629166Y-54317067D01*
X105662172Y-54303397D01*
X105662172Y-54303396D01*
X105662179Y-54303394D01*
X105793289Y-54215789D01*
X105904789Y-54104289D01*
X105992394Y-53973179D01*
X106052737Y-53827497D01*
X106083500Y-53672842D01*
X106083500Y-53515158D01*
X106083500Y-53515155D01*
X106083499Y-53515153D01*
X106080533Y-53500240D01*
X106052737Y-53360503D01*
X106027751Y-53300181D01*
X105992397Y-53214827D01*
X105992390Y-53214814D01*
X105904789Y-53083711D01*
X105904786Y-53083707D01*
X105902778Y-53081699D01*
X105901923Y-53080218D01*
X105900924Y-53079001D01*
X105901125Y-53078836D01*
X105870684Y-53026112D01*
X105842577Y-52921216D01*
X105812793Y-52869628D01*
X105763524Y-52784290D01*
X105763518Y-52784282D01*
X104886818Y-51907582D01*
X104872114Y-51880654D01*
X104855522Y-51854836D01*
X104854630Y-51848635D01*
X104853333Y-51846259D01*
X104850499Y-51819901D01*
X104850499Y-51737153D01*
X106260500Y-51737153D01*
X106260500Y-51894846D01*
X106291261Y-52049489D01*
X106291264Y-52049501D01*
X106351602Y-52195172D01*
X106351609Y-52195185D01*
X106439210Y-52326288D01*
X106439213Y-52326292D01*
X106550707Y-52437786D01*
X106550711Y-52437789D01*
X106681814Y-52525390D01*
X106681827Y-52525397D01*
X106786024Y-52568556D01*
X106827503Y-52585737D01*
X106982158Y-52616500D01*
X106982847Y-52616637D01*
X107044758Y-52649022D01*
X107046337Y-52650573D01*
X107063784Y-52668020D01*
X107063786Y-52668021D01*
X107063790Y-52668024D01*
X107139002Y-52711447D01*
X107200716Y-52747077D01*
X107312519Y-52777034D01*
X107353442Y-52788000D01*
X107353443Y-52788000D01*
X107414878Y-52788000D01*
X107422213Y-52788877D01*
X107447813Y-52799839D01*
X107474531Y-52807685D01*
X107480620Y-52813888D01*
X107486441Y-52816381D01*
X107493931Y-52827447D01*
X107513030Y-52846903D01*
X107527047Y-52869628D01*
X107545488Y-52937020D01*
X107524566Y-53003684D01*
X107470924Y-53048454D01*
X107445701Y-53056342D01*
X107335508Y-53078261D01*
X107335498Y-53078264D01*
X107189827Y-53138602D01*
X107189814Y-53138609D01*
X107058711Y-53226210D01*
X107058707Y-53226213D01*
X106947213Y-53337707D01*
X106947210Y-53337711D01*
X106859609Y-53468814D01*
X106859602Y-53468827D01*
X106799264Y-53614498D01*
X106799261Y-53614510D01*
X106768500Y-53769153D01*
X106768500Y-53926846D01*
X106799261Y-54081489D01*
X106799264Y-54081501D01*
X106859602Y-54227172D01*
X106859609Y-54227185D01*
X106947210Y-54358288D01*
X106947213Y-54358292D01*
X107058707Y-54469786D01*
X107058711Y-54469789D01*
X107189814Y-54557390D01*
X107189827Y-54557397D01*
X107310745Y-54607482D01*
X107335503Y-54617737D01*
X107335507Y-54617737D01*
X107335508Y-54617738D01*
X107446790Y-54639874D01*
X107508700Y-54672259D01*
X107528136Y-54696393D01*
X107540725Y-54716803D01*
X107557288Y-54743656D01*
X107681344Y-54867712D01*
X107830666Y-54959814D01*
X107914505Y-54987595D01*
X107934535Y-55001463D01*
X107956703Y-55011587D01*
X107962751Y-55020998D01*
X107971948Y-55027366D01*
X107981302Y-55049864D01*
X107994477Y-55070365D01*
X107996935Y-55087465D01*
X107998772Y-55091882D01*
X107999500Y-55105300D01*
X107999500Y-55301059D01*
X107979815Y-55368098D01*
X107967030Y-55383963D01*
X107967076Y-55384001D01*
X107963210Y-55388711D01*
X107875609Y-55519814D01*
X107875602Y-55519827D01*
X107815264Y-55665498D01*
X107815261Y-55665510D01*
X107784500Y-55820153D01*
X107784500Y-55977846D01*
X107815261Y-56132489D01*
X107815264Y-56132501D01*
X107875602Y-56278172D01*
X107875609Y-56278185D01*
X107963210Y-56409288D01*
X107963213Y-56409292D01*
X108074707Y-56520786D01*
X108074711Y-56520789D01*
X108205814Y-56608390D01*
X108205827Y-56608397D01*
X108350873Y-56668476D01*
X108351503Y-56668737D01*
X108506153Y-56699499D01*
X108506156Y-56699500D01*
X108506158Y-56699500D01*
X108663844Y-56699500D01*
X108663845Y-56699499D01*
X108818497Y-56668737D01*
X108964179Y-56608394D01*
X109095289Y-56520789D01*
X109206789Y-56409289D01*
X109294394Y-56278179D01*
X109354737Y-56132497D01*
X109385500Y-55977842D01*
X109385500Y-55820158D01*
X109385500Y-55820155D01*
X109385499Y-55820153D01*
X109369990Y-55742184D01*
X109354737Y-55665503D01*
X109308432Y-55553711D01*
X109294397Y-55519827D01*
X109294390Y-55519814D01*
X109221398Y-55410574D01*
X109215747Y-55392527D01*
X109205523Y-55376618D01*
X109201071Y-55345656D01*
X109200520Y-55343896D01*
X109200500Y-55341683D01*
X109200500Y-55105300D01*
X109220185Y-55038261D01*
X109272989Y-54992506D01*
X109285482Y-54987599D01*
X109369334Y-54959814D01*
X109518656Y-54867712D01*
X109642712Y-54743656D01*
X109734814Y-54594334D01*
X109789999Y-54427797D01*
X109800500Y-54325009D01*
X109800499Y-53699992D01*
X109789999Y-53597203D01*
X109734814Y-53430666D01*
X109642712Y-53281344D01*
X109549049Y-53187681D01*
X109515564Y-53126358D01*
X109520548Y-53056666D01*
X109549049Y-53012319D01*
X109571038Y-52990330D01*
X109642712Y-52918656D01*
X109734814Y-52769334D01*
X109789999Y-52602797D01*
X109800500Y-52500009D01*
X109800499Y-51874992D01*
X109794871Y-51819901D01*
X109789999Y-51772203D01*
X109789998Y-51772200D01*
X109778386Y-51737158D01*
X109734814Y-51605666D01*
X109642712Y-51456344D01*
X109518656Y-51332288D01*
X109369334Y-51240186D01*
X109285495Y-51212404D01*
X109228051Y-51172632D01*
X109201228Y-51108116D01*
X109200500Y-51094699D01*
X109200500Y-50754067D01*
X109220185Y-50687028D01*
X109268205Y-50643582D01*
X109386433Y-50583343D01*
X109577510Y-50444517D01*
X109744517Y-50277510D01*
X109883343Y-50086433D01*
X109990568Y-49875992D01*
X110063553Y-49651368D01*
X110070288Y-49608844D01*
X110100500Y-49418097D01*
X110100500Y-49181947D01*
X111600000Y-49181947D01*
X111600000Y-49418052D01*
X111636934Y-49651247D01*
X111709897Y-49875802D01*
X111817087Y-50086174D01*
X111877338Y-50169104D01*
X111877340Y-50169105D01*
X112576212Y-49470233D01*
X112587482Y-49512292D01*
X112659890Y-49637708D01*
X112762292Y-49740110D01*
X112887708Y-49812518D01*
X112929765Y-49823787D01*
X112230893Y-50522658D01*
X112313828Y-50582914D01*
X112524197Y-50690102D01*
X112748752Y-50763065D01*
X112748751Y-50763065D01*
X112981948Y-50800000D01*
X113218052Y-50800000D01*
X113451247Y-50763065D01*
X113675802Y-50690102D01*
X113886163Y-50582918D01*
X113886169Y-50582914D01*
X113969104Y-50522658D01*
X113969105Y-50522658D01*
X113270233Y-49823787D01*
X113312292Y-49812518D01*
X113437708Y-49740110D01*
X113540110Y-49637708D01*
X113612518Y-49512292D01*
X113623787Y-49470234D01*
X114322658Y-50169105D01*
X114322658Y-50169104D01*
X114382914Y-50086169D01*
X114382918Y-50086163D01*
X114490102Y-49875802D01*
X114563065Y-49651247D01*
X114600000Y-49418052D01*
X114600000Y-49181947D01*
X114563065Y-48948752D01*
X114490102Y-48724197D01*
X114382914Y-48513828D01*
X114322658Y-48430894D01*
X114322658Y-48430893D01*
X113623787Y-49129765D01*
X113612518Y-49087708D01*
X113540110Y-48962292D01*
X113437708Y-48859890D01*
X113312292Y-48787482D01*
X113270234Y-48776212D01*
X113969105Y-48077340D01*
X113969104Y-48077338D01*
X113886174Y-48017087D01*
X113675802Y-47909897D01*
X113451247Y-47836934D01*
X113451248Y-47836934D01*
X113218052Y-47800000D01*
X112981948Y-47800000D01*
X112748752Y-47836934D01*
X112524197Y-47909897D01*
X112313830Y-48017084D01*
X112230894Y-48077340D01*
X112929766Y-48776212D01*
X112887708Y-48787482D01*
X112762292Y-48859890D01*
X112659890Y-48962292D01*
X112587482Y-49087708D01*
X112576212Y-49129766D01*
X111877340Y-48430894D01*
X111817084Y-48513830D01*
X111709897Y-48724197D01*
X111636934Y-48948752D01*
X111600000Y-49181947D01*
X110100500Y-49181947D01*
X110100500Y-49181902D01*
X110063553Y-48948631D01*
X109990566Y-48724003D01*
X109934002Y-48612991D01*
X109883343Y-48513567D01*
X109744517Y-48322490D01*
X109577510Y-48155483D01*
X109455033Y-48066498D01*
X109386431Y-48016655D01*
X109268204Y-47956415D01*
X109217409Y-47908441D01*
X109200500Y-47845931D01*
X109200500Y-44254067D01*
X109220185Y-44187028D01*
X109268205Y-44143582D01*
X109386433Y-44083343D01*
X109577510Y-43944517D01*
X109744517Y-43777510D01*
X109883343Y-43586433D01*
X109990568Y-43375992D01*
X110063553Y-43151368D01*
X110067558Y-43126079D01*
X110100500Y-42918097D01*
X110100500Y-42681947D01*
X111600000Y-42681947D01*
X111600000Y-42918052D01*
X111636934Y-43151247D01*
X111709897Y-43375802D01*
X111817087Y-43586174D01*
X111877338Y-43669104D01*
X111877340Y-43669105D01*
X112576212Y-42970233D01*
X112587482Y-43012292D01*
X112659890Y-43137708D01*
X112762292Y-43240110D01*
X112887708Y-43312518D01*
X112929765Y-43323787D01*
X112230893Y-44022658D01*
X112313828Y-44082914D01*
X112524197Y-44190102D01*
X112748752Y-44263065D01*
X112748751Y-44263065D01*
X112981948Y-44300000D01*
X113218052Y-44300000D01*
X113451247Y-44263065D01*
X113675802Y-44190102D01*
X113886163Y-44082918D01*
X113886169Y-44082914D01*
X113969104Y-44022658D01*
X113969105Y-44022658D01*
X113270233Y-43323787D01*
X113312292Y-43312518D01*
X113437708Y-43240110D01*
X113540110Y-43137708D01*
X113612518Y-43012292D01*
X113623787Y-42970234D01*
X114322658Y-43669105D01*
X114322658Y-43669104D01*
X114382914Y-43586169D01*
X114382918Y-43586163D01*
X114490102Y-43375802D01*
X114563065Y-43151247D01*
X114600000Y-42918052D01*
X114600000Y-42681947D01*
X114563065Y-42448752D01*
X114490102Y-42224197D01*
X114382914Y-42013828D01*
X114322658Y-41930894D01*
X114322658Y-41930893D01*
X113623787Y-42629765D01*
X113612518Y-42587708D01*
X113540110Y-42462292D01*
X113437708Y-42359890D01*
X113312292Y-42287482D01*
X113270234Y-42276212D01*
X113969105Y-41577340D01*
X113969104Y-41577338D01*
X113886174Y-41517087D01*
X113675802Y-41409897D01*
X113451247Y-41336934D01*
X113451248Y-41336934D01*
X113218052Y-41300000D01*
X112981948Y-41300000D01*
X112748752Y-41336934D01*
X112524197Y-41409897D01*
X112313830Y-41517084D01*
X112230894Y-41577340D01*
X112929766Y-42276212D01*
X112887708Y-42287482D01*
X112762292Y-42359890D01*
X112659890Y-42462292D01*
X112587482Y-42587708D01*
X112576212Y-42629766D01*
X111877340Y-41930894D01*
X111817084Y-42013830D01*
X111709897Y-42224197D01*
X111636934Y-42448752D01*
X111600000Y-42681947D01*
X110100500Y-42681947D01*
X110100500Y-42681902D01*
X110063553Y-42448631D01*
X109990566Y-42224003D01*
X109883477Y-42013830D01*
X109883343Y-42013567D01*
X109744517Y-41822490D01*
X109577510Y-41655483D01*
X109386433Y-41516657D01*
X109175996Y-41409433D01*
X108951368Y-41336446D01*
X108718097Y-41299500D01*
X108718092Y-41299500D01*
X108481908Y-41299500D01*
X108481903Y-41299500D01*
X108248631Y-41336446D01*
X108024003Y-41409433D01*
X107813566Y-41516657D01*
X107730047Y-41577338D01*
X107622490Y-41655483D01*
X107622488Y-41655485D01*
X107622487Y-41655485D01*
X107455485Y-41822487D01*
X107455485Y-41822488D01*
X107455483Y-41822490D01*
X107395862Y-41904550D01*
X107316657Y-42013566D01*
X107209433Y-42224003D01*
X107136446Y-42448631D01*
X107099500Y-42681902D01*
X107099500Y-42918097D01*
X107136446Y-43151368D01*
X107209433Y-43375996D01*
X107231301Y-43418913D01*
X107316657Y-43586433D01*
X107455483Y-43777510D01*
X107622490Y-43944517D01*
X107730042Y-44022658D01*
X107813568Y-44083344D01*
X107888177Y-44121358D01*
X107931794Y-44143582D01*
X107982590Y-44191556D01*
X107999500Y-44254067D01*
X107999500Y-47845931D01*
X107979815Y-47912970D01*
X107931796Y-47956415D01*
X107813568Y-48016655D01*
X107730044Y-48077340D01*
X107622490Y-48155483D01*
X107622488Y-48155485D01*
X107622487Y-48155485D01*
X107455485Y-48322487D01*
X107455485Y-48322488D01*
X107455483Y-48322490D01*
X107443603Y-48338842D01*
X107316657Y-48513566D01*
X107209433Y-48724003D01*
X107136446Y-48948631D01*
X107099500Y-49181902D01*
X107099500Y-49418097D01*
X107136446Y-49651368D01*
X107209433Y-49875996D01*
X107272523Y-49999815D01*
X107316657Y-50086433D01*
X107455483Y-50277510D01*
X107622490Y-50444517D01*
X107730042Y-50522658D01*
X107813568Y-50583344D01*
X107888177Y-50621358D01*
X107931794Y-50643582D01*
X107982590Y-50691556D01*
X107999500Y-50754067D01*
X107999500Y-51094699D01*
X107994254Y-51112564D01*
X107994011Y-51131183D01*
X107984614Y-51145393D01*
X107979815Y-51161738D01*
X107965743Y-51173930D01*
X107955473Y-51189463D01*
X107933835Y-51201579D01*
X107927011Y-51207493D01*
X107925536Y-51208156D01*
X107920126Y-51210541D01*
X107830666Y-51240186D01*
X107774865Y-51274603D01*
X107767064Y-51278044D01*
X107740536Y-51281505D01*
X107714730Y-51288566D01*
X107706417Y-51285957D01*
X107697781Y-51287084D01*
X107673592Y-51275653D01*
X107648067Y-51267642D01*
X107636453Y-51258103D01*
X107634610Y-51257233D01*
X107633786Y-51255913D01*
X107629347Y-51252268D01*
X107571292Y-51194213D01*
X107571288Y-51194210D01*
X107440185Y-51106609D01*
X107440172Y-51106602D01*
X107294501Y-51046264D01*
X107294489Y-51046261D01*
X107139845Y-51015500D01*
X107139842Y-51015500D01*
X106982158Y-51015500D01*
X106982155Y-51015500D01*
X106827510Y-51046261D01*
X106827498Y-51046264D01*
X106681827Y-51106602D01*
X106681814Y-51106609D01*
X106550711Y-51194210D01*
X106550707Y-51194213D01*
X106439213Y-51305707D01*
X106439210Y-51305711D01*
X106351609Y-51436814D01*
X106351602Y-51436827D01*
X106291264Y-51582498D01*
X106291261Y-51582510D01*
X106260500Y-51737153D01*
X104850499Y-51737153D01*
X104850499Y-50472129D01*
X104850498Y-50472123D01*
X104847530Y-50444514D01*
X104844091Y-50412517D01*
X104842810Y-50409083D01*
X104793797Y-50277671D01*
X104793793Y-50277664D01*
X104707547Y-50162455D01*
X104707544Y-50162452D01*
X104592335Y-50076206D01*
X104592328Y-50076202D01*
X104457482Y-50025908D01*
X104457484Y-50025908D01*
X104416244Y-50021475D01*
X104351693Y-49994737D01*
X104311845Y-49937345D01*
X104305500Y-49898186D01*
X104305500Y-48181155D01*
X104305499Y-48181153D01*
X104282695Y-48066510D01*
X104274737Y-48026503D01*
X104245706Y-47956415D01*
X104214397Y-47880827D01*
X104214390Y-47880814D01*
X104126789Y-47749711D01*
X104126786Y-47749707D01*
X104015292Y-47638213D01*
X104015288Y-47638210D01*
X103884185Y-47550609D01*
X103884172Y-47550602D01*
X103738501Y-47490264D01*
X103738489Y-47490261D01*
X103583845Y-47459500D01*
X103583842Y-47459500D01*
X103426158Y-47459500D01*
X103426155Y-47459500D01*
X103271510Y-47490261D01*
X103271498Y-47490264D01*
X103125827Y-47550602D01*
X103125814Y-47550609D01*
X102994711Y-47638210D01*
X102994707Y-47638213D01*
X102883213Y-47749707D01*
X102883210Y-47749711D01*
X102795609Y-47880814D01*
X102795602Y-47880827D01*
X102735264Y-48026498D01*
X102735261Y-48026510D01*
X102704500Y-48181153D01*
X102704500Y-49897111D01*
X102684815Y-49964150D01*
X102632011Y-50009905D01*
X102593754Y-50020401D01*
X102542516Y-50025909D01*
X102407671Y-50076202D01*
X102407664Y-50076206D01*
X102292455Y-50162452D01*
X102292452Y-50162455D01*
X102206206Y-50277664D01*
X102206203Y-50277669D01*
X102157189Y-50409083D01*
X102115317Y-50465016D01*
X102049853Y-50489433D01*
X101981580Y-50474581D01*
X101953326Y-50453430D01*
X101839786Y-50339890D01*
X101667820Y-50214951D01*
X101478414Y-50118444D01*
X101478413Y-50118443D01*
X101478412Y-50118443D01*
X101276243Y-50052754D01*
X101276241Y-50052753D01*
X101276240Y-50052753D01*
X101114957Y-50027208D01*
X101066287Y-50019500D01*
X100853713Y-50019500D01*
X100805042Y-50027208D01*
X100643760Y-50052753D01*
X100441585Y-50118444D01*
X100252179Y-50214951D01*
X100080213Y-50339890D01*
X99929890Y-50490213D01*
X99804951Y-50662179D01*
X99708444Y-50851585D01*
X99642753Y-51053760D01*
X99614268Y-51233609D01*
X99609500Y-51263713D01*
X99609500Y-51476287D01*
X99642754Y-51686243D01*
X99707238Y-51884704D01*
X99708444Y-51888414D01*
X99804951Y-52077820D01*
X99929890Y-52249786D01*
X100080213Y-52400109D01*
X100252182Y-52525050D01*
X100260946Y-52529516D01*
X100311742Y-52577491D01*
X100328536Y-52645312D01*
X100305998Y-52711447D01*
X100260946Y-52750484D01*
X100252182Y-52754949D01*
X100080213Y-52879890D01*
X99929890Y-53030213D01*
X99804951Y-53202179D01*
X99708444Y-53391585D01*
X99642753Y-53593760D01*
X99609500Y-53803713D01*
X99609500Y-54016287D01*
X99609499Y-54016287D01*
X99614948Y-54050686D01*
X99605993Y-54119979D01*
X99580156Y-54157764D01*
X98613922Y-55124000D01*
X98295711Y-55442211D01*
X98240750Y-55497172D01*
X98184209Y-55553712D01*
X98096609Y-55684814D01*
X98096602Y-55684827D01*
X98036264Y-55830498D01*
X98036261Y-55830510D01*
X98005500Y-55985153D01*
X98005500Y-56339846D01*
X98036261Y-56494489D01*
X98036264Y-56494501D01*
X98096602Y-56640172D01*
X98096609Y-56640185D01*
X98184210Y-56771288D01*
X98184213Y-56771292D01*
X98295707Y-56882786D01*
X98295711Y-56882789D01*
X98426814Y-56970390D01*
X98426827Y-56970397D01*
X98572498Y-57030735D01*
X98572503Y-57030737D01*
X98727153Y-57061499D01*
X98727156Y-57061500D01*
X98727158Y-57061500D01*
X98884844Y-57061500D01*
X98884845Y-57061499D01*
X99039497Y-57030737D01*
X99185179Y-56970394D01*
X99316289Y-56882789D01*
X99427789Y-56771289D01*
X99431842Y-56765223D01*
X99485450Y-56720415D01*
X99554774Y-56711702D01*
X99617804Y-56741852D01*
X99652879Y-56795789D01*
X99708904Y-56968217D01*
X99805375Y-57157550D01*
X99844728Y-57211716D01*
X100477037Y-56579408D01*
X100494075Y-56642993D01*
X100559901Y-56757007D01*
X100652993Y-56850099D01*
X100767007Y-56915925D01*
X100830590Y-56932962D01*
X100198282Y-57565269D01*
X100198282Y-57565270D01*
X100252452Y-57604626D01*
X100252451Y-57604626D01*
X100261495Y-57609234D01*
X100312292Y-57657208D01*
X100329087Y-57725029D01*
X100306550Y-57791164D01*
X100261499Y-57830202D01*
X100252182Y-57834949D01*
X100080213Y-57959890D01*
X99929890Y-58110213D01*
X99804951Y-58282179D01*
X99708444Y-58471585D01*
X99642753Y-58673760D01*
X99619354Y-58821498D01*
X99609500Y-58883713D01*
X99609500Y-59096287D01*
X99618807Y-59155048D01*
X99641026Y-59295338D01*
X99642754Y-59306243D01*
X99692133Y-59458216D01*
X99708444Y-59508414D01*
X99804951Y-59697820D01*
X99929890Y-59869786D01*
X100080213Y-60020109D01*
X100252179Y-60145048D01*
X100252181Y-60145049D01*
X100252184Y-60145051D01*
X100261493Y-60149794D01*
X100312290Y-60197766D01*
X100329087Y-60265587D01*
X100306552Y-60331722D01*
X100261505Y-60370760D01*
X100252446Y-60375376D01*
X100252440Y-60375380D01*
X100198282Y-60414727D01*
X100198282Y-60414728D01*
X100830591Y-61047037D01*
X100767007Y-61064075D01*
X100652993Y-61129901D01*
X100559901Y-61222993D01*
X100494075Y-61337007D01*
X100477037Y-61400591D01*
X99844728Y-60768282D01*
X99844727Y-60768282D01*
X99805380Y-60822439D01*
X99708904Y-61011782D01*
X99643242Y-61213869D01*
X99643242Y-61213872D01*
X99610000Y-61423753D01*
X99610000Y-61636246D01*
X99643242Y-61846127D01*
X99643242Y-61846130D01*
X99708904Y-62048217D01*
X99805375Y-62237550D01*
X99844728Y-62291716D01*
X100477037Y-61659408D01*
X100494075Y-61722993D01*
X100559901Y-61837007D01*
X100652993Y-61930099D01*
X100767007Y-61995925D01*
X100830590Y-62012962D01*
X100198282Y-62645269D01*
X100198282Y-62645270D01*
X100252452Y-62684626D01*
X100252451Y-62684626D01*
X100261495Y-62689234D01*
X100312292Y-62737208D01*
X100329087Y-62805029D01*
X100306550Y-62871164D01*
X100261499Y-62910202D01*
X100252182Y-62914949D01*
X100080213Y-63039890D01*
X99929890Y-63190213D01*
X99804951Y-63362179D01*
X99708444Y-63551585D01*
X99642753Y-63753760D01*
X99609500Y-63963713D01*
X99609500Y-64176286D01*
X99642753Y-64386239D01*
X99642753Y-64386241D01*
X99642754Y-64386243D01*
X99707274Y-64584815D01*
X99708444Y-64588414D01*
X99804951Y-64777820D01*
X99929890Y-64949786D01*
X100080213Y-65100109D01*
X100252182Y-65225050D01*
X100260946Y-65229516D01*
X100311742Y-65277491D01*
X100328536Y-65345312D01*
X100305998Y-65411447D01*
X100260946Y-65450484D01*
X100252182Y-65454949D01*
X100080213Y-65579890D01*
X99929890Y-65730213D01*
X99804951Y-65902179D01*
X99708444Y-66091585D01*
X99642753Y-66293760D01*
X99619354Y-66441498D01*
X99609500Y-66503713D01*
X99609500Y-66716287D01*
X99609992Y-66719394D01*
X99642372Y-66923835D01*
X99642754Y-66926243D01*
X99655038Y-66964050D01*
X99708444Y-67128414D01*
X99804951Y-67317820D01*
X99929890Y-67489786D01*
X100080213Y-67640109D01*
X100252179Y-67765048D01*
X100252181Y-67765049D01*
X100252184Y-67765051D01*
X100261493Y-67769794D01*
X100312290Y-67817766D01*
X100329087Y-67885587D01*
X100306552Y-67951722D01*
X100261505Y-67990760D01*
X100252446Y-67995376D01*
X100252440Y-67995380D01*
X100198282Y-68034727D01*
X100198282Y-68034728D01*
X100830591Y-68667037D01*
X100767007Y-68684075D01*
X100652993Y-68749901D01*
X100559901Y-68842993D01*
X100494075Y-68957007D01*
X100477037Y-69020591D01*
X99844728Y-68388282D01*
X99844727Y-68388282D01*
X99805380Y-68442439D01*
X99708904Y-68631782D01*
X99643242Y-68833869D01*
X99643242Y-68833872D01*
X99610000Y-69043753D01*
X99610000Y-69256246D01*
X99643242Y-69466127D01*
X99643242Y-69466130D01*
X99708904Y-69668217D01*
X99805375Y-69857550D01*
X99844728Y-69911716D01*
X100477037Y-69279408D01*
X100494075Y-69342993D01*
X100559901Y-69457007D01*
X100652993Y-69550099D01*
X100767007Y-69615925D01*
X100830590Y-69632962D01*
X100198282Y-70265269D01*
X100198282Y-70265270D01*
X100252452Y-70304626D01*
X100252451Y-70304626D01*
X100261495Y-70309234D01*
X100312292Y-70357208D01*
X100329087Y-70425029D01*
X100306550Y-70491164D01*
X100261499Y-70530202D01*
X100252182Y-70534949D01*
X100080213Y-70659890D01*
X99929890Y-70810213D01*
X99804951Y-70982179D01*
X99708444Y-71171585D01*
X99642753Y-71373760D01*
X99642428Y-71375814D01*
X99609500Y-71583713D01*
X99609500Y-71796287D01*
X99642754Y-72006243D01*
X99702006Y-72188602D01*
X99708444Y-72208414D01*
X99804951Y-72397820D01*
X99929890Y-72569786D01*
X100080213Y-72720109D01*
X100252182Y-72845050D01*
X100260946Y-72849516D01*
X100311742Y-72897491D01*
X100328536Y-72965312D01*
X100305998Y-73031447D01*
X100260946Y-73070484D01*
X100252182Y-73074949D01*
X100080213Y-73199890D01*
X99929890Y-73350213D01*
X99804951Y-73522179D01*
X99708444Y-73711585D01*
X99642753Y-73913760D01*
X99609500Y-74123713D01*
X99609500Y-74336286D01*
X99642735Y-74546127D01*
X99642754Y-74546243D01*
X99701393Y-74726715D01*
X99708444Y-74748414D01*
X99804951Y-74937820D01*
X99929890Y-75109786D01*
X100080213Y-75260109D01*
X100252182Y-75385050D01*
X100260946Y-75389516D01*
X100311742Y-75437491D01*
X100328536Y-75505312D01*
X100305998Y-75571447D01*
X100260946Y-75610484D01*
X100252182Y-75614949D01*
X100080213Y-75739890D01*
X99929890Y-75890213D01*
X99804951Y-76062179D01*
X99708444Y-76251585D01*
X99642753Y-76453760D01*
X99642427Y-76455821D01*
X99609500Y-76663713D01*
X99609500Y-76876287D01*
X99642754Y-77086243D01*
X99706936Y-77283775D01*
X99708444Y-77288414D01*
X99804951Y-77477820D01*
X99929890Y-77649786D01*
X100080213Y-77800109D01*
X100252182Y-77925050D01*
X100260946Y-77929516D01*
X100311742Y-77977491D01*
X100328536Y-78045312D01*
X100305998Y-78111447D01*
X100260946Y-78150484D01*
X100252182Y-78154949D01*
X100080213Y-78279890D01*
X99929890Y-78430213D01*
X99804951Y-78602179D01*
X99708444Y-78791585D01*
X99642753Y-78993760D01*
X99609500Y-79203713D01*
X99609500Y-79416286D01*
X99642753Y-79626239D01*
X99708444Y-79828414D01*
X99804951Y-80017820D01*
X99929890Y-80189786D01*
X100080213Y-80340109D01*
X100252182Y-80465050D01*
X100260946Y-80469516D01*
X100311742Y-80517491D01*
X100328536Y-80585312D01*
X100305998Y-80651447D01*
X100260946Y-80690484D01*
X100252182Y-80694949D01*
X100080213Y-80819890D01*
X99929890Y-80970213D01*
X99804951Y-81142179D01*
X99708444Y-81331585D01*
X99642753Y-81533760D01*
X99609500Y-81743713D01*
X99609500Y-81956286D01*
X99641086Y-82155715D01*
X99642754Y-82166243D01*
X99700506Y-82343986D01*
X99708444Y-82368414D01*
X99804951Y-82557820D01*
X99929890Y-82729786D01*
X100080213Y-82880109D01*
X100252182Y-83005050D01*
X100260946Y-83009516D01*
X100311742Y-83057491D01*
X100328536Y-83125312D01*
X100305998Y-83191447D01*
X100260946Y-83230484D01*
X100252182Y-83234949D01*
X100080213Y-83359890D01*
X99929890Y-83510213D01*
X99804951Y-83682179D01*
X99708444Y-83871585D01*
X99642753Y-84073760D01*
X99609500Y-84283713D01*
X99609500Y-84496286D01*
X99637092Y-84670499D01*
X99642754Y-84706243D01*
X99689207Y-84849211D01*
X99708444Y-84908414D01*
X99804951Y-85097820D01*
X99929890Y-85269786D01*
X100080213Y-85420109D01*
X100252182Y-85545050D01*
X100260946Y-85549516D01*
X100311742Y-85597491D01*
X100328536Y-85665312D01*
X100305998Y-85731447D01*
X100260946Y-85770484D01*
X100252182Y-85774949D01*
X100080213Y-85899890D01*
X99929890Y-86050213D01*
X99804951Y-86222179D01*
X99708444Y-86411585D01*
X99708443Y-86411587D01*
X99708443Y-86411588D01*
X99690602Y-86466497D01*
X99642753Y-86613760D01*
X99610113Y-86819842D01*
X99609500Y-86823713D01*
X99609500Y-87036287D01*
X99642754Y-87246243D01*
X99656159Y-87287500D01*
X99708444Y-87448414D01*
X99804951Y-87637820D01*
X99929890Y-87809786D01*
X100080213Y-87960109D01*
X100252182Y-88085050D01*
X100260946Y-88089516D01*
X100311742Y-88137491D01*
X100328536Y-88205312D01*
X100305998Y-88271447D01*
X100260946Y-88310484D01*
X100252182Y-88314949D01*
X100080213Y-88439890D01*
X99929890Y-88590213D01*
X99804951Y-88762179D01*
X99708444Y-88951585D01*
X99642753Y-89153760D01*
X99609500Y-89363713D01*
X99609500Y-89576286D01*
X99642753Y-89786239D01*
X99708444Y-89988414D01*
X99804951Y-90177820D01*
X99929890Y-90349786D01*
X100080213Y-90500109D01*
X100252182Y-90625050D01*
X100260946Y-90629516D01*
X100311742Y-90677491D01*
X100328536Y-90745312D01*
X100305998Y-90811447D01*
X100260946Y-90850484D01*
X100252182Y-90854949D01*
X100080213Y-90979890D01*
X99929890Y-91130213D01*
X99804951Y-91302179D01*
X99708444Y-91491585D01*
X99708443Y-91491587D01*
X99708443Y-91491588D01*
X99690602Y-91546497D01*
X99642753Y-91693760D01*
X99622238Y-91823286D01*
X99609500Y-91903713D01*
X99609500Y-92116287D01*
X99611496Y-92128888D01*
X99642753Y-92326239D01*
X99708444Y-92528414D01*
X99804951Y-92717820D01*
X99929890Y-92889786D01*
X100080213Y-93040109D01*
X100252182Y-93165050D01*
X100260946Y-93169516D01*
X100311742Y-93217491D01*
X100328536Y-93285312D01*
X100305998Y-93351447D01*
X100260946Y-93390484D01*
X100252182Y-93394949D01*
X100080213Y-93519890D01*
X99929890Y-93670213D01*
X99804951Y-93842179D01*
X99708444Y-94031585D01*
X99642753Y-94233760D01*
X99632080Y-94301149D01*
X99609500Y-94443713D01*
X99609500Y-94656287D01*
X99642754Y-94866243D01*
X99702600Y-95050430D01*
X99708444Y-95068414D01*
X99804951Y-95257820D01*
X99929890Y-95429786D01*
X100080213Y-95580109D01*
X100252182Y-95705050D01*
X100260946Y-95709516D01*
X100311742Y-95757491D01*
X100328536Y-95825312D01*
X100305998Y-95891447D01*
X100260946Y-95930484D01*
X100252182Y-95934949D01*
X100080213Y-96059890D01*
X99929890Y-96210213D01*
X99804951Y-96382179D01*
X99708444Y-96571585D01*
X99642753Y-96773760D01*
X99609500Y-96983713D01*
X99609500Y-97196286D01*
X99642753Y-97406239D01*
X99708444Y-97608414D01*
X99804951Y-97797820D01*
X99929890Y-97969786D01*
X100080213Y-98120109D01*
X100252179Y-98245048D01*
X100252181Y-98245049D01*
X100252184Y-98245051D01*
X100261493Y-98249794D01*
X100312290Y-98297766D01*
X100329087Y-98365587D01*
X100306552Y-98431722D01*
X100261505Y-98470760D01*
X100252446Y-98475376D01*
X100252440Y-98475380D01*
X100198282Y-98514727D01*
X100198282Y-98514728D01*
X100830591Y-99147037D01*
X100767007Y-99164075D01*
X100652993Y-99229901D01*
X100559901Y-99322993D01*
X100494075Y-99437007D01*
X100477037Y-99500591D01*
X99844728Y-98868282D01*
X99844727Y-98868282D01*
X99805380Y-98922440D01*
X99805378Y-98922443D01*
X99770979Y-98989954D01*
X99723004Y-99040750D01*
X99655183Y-99057544D01*
X99589048Y-99035006D01*
X99572814Y-99021339D01*
X98757819Y-98206344D01*
X98724334Y-98145021D01*
X98721500Y-98118663D01*
X98721500Y-87320765D01*
X98741185Y-87253726D01*
X98742398Y-87251874D01*
X98830390Y-87120185D01*
X98830390Y-87120184D01*
X98830394Y-87120179D01*
X98890737Y-86974497D01*
X98921500Y-86819842D01*
X98921500Y-86662158D01*
X98921500Y-86662155D01*
X98921499Y-86662153D01*
X98908567Y-86597140D01*
X98890737Y-86507503D01*
X98879054Y-86479298D01*
X98830397Y-86361827D01*
X98830390Y-86361814D01*
X98742789Y-86230711D01*
X98742786Y-86230707D01*
X98682011Y-86169932D01*
X98648526Y-86108609D01*
X98653510Y-86038917D01*
X98655097Y-86034881D01*
X98686737Y-85958497D01*
X98717500Y-85803842D01*
X98717500Y-85646158D01*
X98717500Y-85646155D01*
X98717499Y-85646153D01*
X98700645Y-85561423D01*
X98686737Y-85491503D01*
X98665356Y-85439884D01*
X98626397Y-85345827D01*
X98626390Y-85345814D01*
X98538789Y-85214711D01*
X98538786Y-85214707D01*
X98427292Y-85103213D01*
X98427288Y-85103210D01*
X98296185Y-85015609D01*
X98296172Y-85015602D01*
X98150501Y-84955264D01*
X98150489Y-84955261D01*
X97995845Y-84924500D01*
X97995842Y-84924500D01*
X97838158Y-84924500D01*
X97838155Y-84924500D01*
X97683510Y-84955261D01*
X97683498Y-84955264D01*
X97537827Y-85015602D01*
X97537814Y-85015609D01*
X97406711Y-85103210D01*
X97406707Y-85103213D01*
X97332181Y-85177740D01*
X97270858Y-85211225D01*
X97201166Y-85206241D01*
X97145233Y-85164369D01*
X97120816Y-85098905D01*
X97120500Y-85090059D01*
X97120500Y-58613946D01*
X97120500Y-58613943D01*
X97101950Y-58544711D01*
X97079577Y-58461215D01*
X97079575Y-58461212D01*
X97079575Y-58461210D01*
X97076465Y-58453701D01*
X97079154Y-58452587D01*
X97066500Y-58405338D01*
X97066500Y-58360155D01*
X97066499Y-58360153D01*
X97052733Y-58290946D01*
X97035737Y-58205503D01*
X96994641Y-58106287D01*
X96975397Y-58059827D01*
X96975390Y-58059814D01*
X96887789Y-57928711D01*
X96887786Y-57928707D01*
X96776292Y-57817213D01*
X96776288Y-57817210D01*
X96645185Y-57729609D01*
X96645172Y-57729602D01*
X96499501Y-57669264D01*
X96499491Y-57669261D01*
X96365308Y-57642570D01*
X96303397Y-57610185D01*
X96268823Y-57549469D01*
X96265500Y-57520953D01*
X96265500Y-55106661D01*
X96285185Y-55039622D01*
X96337989Y-54993867D01*
X96407147Y-54983923D01*
X96432837Y-54990481D01*
X96442510Y-54994089D01*
X96442514Y-54994089D01*
X96442517Y-54994091D01*
X96502127Y-55000500D01*
X97297872Y-55000499D01*
X97357483Y-54994091D01*
X97492331Y-54943796D01*
X97607546Y-54857546D01*
X97693796Y-54742331D01*
X97744091Y-54607483D01*
X97750500Y-54547873D01*
X97750500Y-54500862D01*
X97770185Y-54433823D01*
X97786819Y-54413181D01*
X97800000Y-54400000D01*
X98300000Y-54400000D01*
X98697828Y-54400000D01*
X98697844Y-54399999D01*
X98757372Y-54393598D01*
X98757379Y-54393596D01*
X98892086Y-54343354D01*
X98892093Y-54343350D01*
X99007187Y-54257190D01*
X99007190Y-54257187D01*
X99093350Y-54142093D01*
X99093354Y-54142086D01*
X99143596Y-54007379D01*
X99143598Y-54007372D01*
X99149999Y-53947844D01*
X99150000Y-53947827D01*
X99150000Y-53450000D01*
X98300000Y-53450000D01*
X98300000Y-54400000D01*
X97800000Y-54400000D01*
X97800000Y-52950000D01*
X98300000Y-52950000D01*
X99150000Y-52950000D01*
X99150000Y-52452172D01*
X99149999Y-52452155D01*
X99143598Y-52392627D01*
X99143596Y-52392620D01*
X99093354Y-52257913D01*
X99093350Y-52257906D01*
X99007190Y-52142812D01*
X99007187Y-52142809D01*
X98892093Y-52056649D01*
X98892086Y-52056645D01*
X98757379Y-52006403D01*
X98757372Y-52006401D01*
X98697844Y-52000000D01*
X98300000Y-52000000D01*
X98300000Y-52950000D01*
X97800000Y-52950000D01*
X97800000Y-52000000D01*
X97402155Y-52000000D01*
X97342627Y-52006401D01*
X97342620Y-52006403D01*
X97207913Y-52056645D01*
X97207906Y-52056649D01*
X97092812Y-52142809D01*
X97092809Y-52142812D01*
X97006649Y-52257906D01*
X97006645Y-52257913D01*
X96983924Y-52318833D01*
X96942053Y-52374767D01*
X96876588Y-52399184D01*
X96867742Y-52399500D01*
X96502130Y-52399500D01*
X96502123Y-52399501D01*
X96442516Y-52405908D01*
X96393332Y-52424253D01*
X96323640Y-52429237D01*
X96306667Y-52424253D01*
X96257482Y-52405908D01*
X96257483Y-52405908D01*
X96197883Y-52399501D01*
X96197881Y-52399500D01*
X96197873Y-52399500D01*
X96197865Y-52399500D01*
X95424500Y-52399500D01*
X95357461Y-52379815D01*
X95311706Y-52327011D01*
X95300500Y-52275500D01*
X95300500Y-49982553D01*
X95320185Y-49915514D01*
X95321399Y-49913661D01*
X95324394Y-49909179D01*
X95384737Y-49763497D01*
X95415500Y-49608842D01*
X95415500Y-49451158D01*
X95415500Y-49451155D01*
X95415499Y-49451153D01*
X95399836Y-49372409D01*
X95384737Y-49296503D01*
X95337268Y-49181902D01*
X95324397Y-49150827D01*
X95324390Y-49150814D01*
X95236789Y-49019711D01*
X95236786Y-49019707D01*
X95125292Y-48908213D01*
X95125288Y-48908210D01*
X94994185Y-48820609D01*
X94994172Y-48820602D01*
X94848501Y-48760264D01*
X94848489Y-48760261D01*
X94693845Y-48729500D01*
X94693842Y-48729500D01*
X94536158Y-48729500D01*
X94536155Y-48729500D01*
X94381510Y-48760261D01*
X94381498Y-48760264D01*
X94235827Y-48820602D01*
X94235814Y-48820609D01*
X94104711Y-48908210D01*
X94104707Y-48908213D01*
X93993213Y-49019707D01*
X93993210Y-49019711D01*
X93905609Y-49150814D01*
X93905602Y-49150827D01*
X93845264Y-49296498D01*
X93845261Y-49296510D01*
X93814500Y-49451153D01*
X93814500Y-49608846D01*
X93845261Y-49763489D01*
X93845264Y-49763501D01*
X93905602Y-49909172D01*
X93905609Y-49909185D01*
X93993209Y-50040287D01*
X93993210Y-50040288D01*
X93993211Y-50040289D01*
X94063182Y-50110260D01*
X94096666Y-50171581D01*
X94099500Y-50197940D01*
X94099500Y-52276000D01*
X94079815Y-52343039D01*
X94027011Y-52388794D01*
X93975500Y-52400000D01*
X93850000Y-52400000D01*
X93850000Y-52840826D01*
X93849572Y-52848798D01*
X93849678Y-52848804D01*
X93849500Y-52852128D01*
X93849500Y-53576000D01*
X93829815Y-53643039D01*
X93777011Y-53688794D01*
X93725500Y-53700000D01*
X93474499Y-53700000D01*
X93407460Y-53680315D01*
X93361705Y-53627511D01*
X93350499Y-53576000D01*
X93350499Y-52852129D01*
X93350321Y-52848804D01*
X93350426Y-52848798D01*
X93350000Y-52840836D01*
X93350000Y-52400000D01*
X93202155Y-52400000D01*
X93142627Y-52406401D01*
X93142623Y-52406402D01*
X93094046Y-52424520D01*
X93024354Y-52429503D01*
X93007382Y-52424519D01*
X92957485Y-52405909D01*
X92957483Y-52405908D01*
X92897883Y-52399501D01*
X92897881Y-52399500D01*
X92897873Y-52399500D01*
X92897865Y-52399500D01*
X92324500Y-52399500D01*
X92257461Y-52379815D01*
X92211706Y-52327011D01*
X92200500Y-52275500D01*
X92200500Y-48540464D01*
X92208643Y-48499528D01*
X92207970Y-48499324D01*
X92209732Y-48493509D01*
X92209738Y-48493497D01*
X92240500Y-48338842D01*
X92240500Y-48181157D01*
X92209738Y-48026502D01*
X92149394Y-47880821D01*
X92149392Y-47880818D01*
X92149390Y-47880814D01*
X92061789Y-47749709D01*
X91950290Y-47638210D01*
X91819185Y-47550609D01*
X91819175Y-47550604D01*
X91673498Y-47490262D01*
X91673490Y-47490260D01*
X91518847Y-47459500D01*
X91518843Y-47459500D01*
X91361158Y-47459500D01*
X91361153Y-47459500D01*
X91206510Y-47490260D01*
X91206502Y-47490262D01*
X91060824Y-47550604D01*
X91060814Y-47550609D01*
X90929711Y-47638210D01*
X90929707Y-47638213D01*
X90889712Y-47678210D01*
X90889711Y-47678211D01*
X90833960Y-47733962D01*
X90778209Y-47789712D01*
X90690609Y-47920814D01*
X90690602Y-47920827D01*
X90630264Y-48066498D01*
X90630261Y-48066510D01*
X90599500Y-48221153D01*
X90599500Y-52275500D01*
X90579815Y-52342539D01*
X90527011Y-52388294D01*
X90475500Y-52399500D01*
X89902129Y-52399500D01*
X89902123Y-52399501D01*
X89842516Y-52405908D01*
X89793332Y-52424253D01*
X89723640Y-52429237D01*
X89706667Y-52424253D01*
X89657482Y-52405908D01*
X89657483Y-52405908D01*
X89597883Y-52399501D01*
X89597881Y-52399500D01*
X89597873Y-52399500D01*
X89597864Y-52399500D01*
X88802129Y-52399500D01*
X88802123Y-52399501D01*
X88742516Y-52405908D01*
X88693332Y-52424253D01*
X88623640Y-52429237D01*
X88606667Y-52424253D01*
X88557482Y-52405908D01*
X88557483Y-52405908D01*
X88497883Y-52399501D01*
X88497881Y-52399500D01*
X88497873Y-52399500D01*
X88497864Y-52399500D01*
X87702129Y-52399500D01*
X87702123Y-52399501D01*
X87642516Y-52405908D01*
X87507671Y-52456202D01*
X87507664Y-52456206D01*
X87392455Y-52542452D01*
X87392452Y-52542455D01*
X87306206Y-52657664D01*
X87306202Y-52657671D01*
X87255908Y-52792517D01*
X87249501Y-52852116D01*
X87249500Y-52852135D01*
X87249500Y-53452903D01*
X87229815Y-53519942D01*
X87177011Y-53565697D01*
X87107853Y-53575641D01*
X87044297Y-53546616D01*
X87037819Y-53540584D01*
X86361819Y-52864584D01*
X86328334Y-52803261D01*
X86325500Y-52776903D01*
X86325500Y-52522765D01*
X86345185Y-52455726D01*
X86346398Y-52453874D01*
X86366013Y-52424519D01*
X86434394Y-52322179D01*
X86494737Y-52176497D01*
X86525500Y-52021842D01*
X86525500Y-51864158D01*
X86525500Y-51864155D01*
X86525499Y-51864153D01*
X86500237Y-51737153D01*
X86494737Y-51709503D01*
X86493148Y-51705666D01*
X86434397Y-51563827D01*
X86434390Y-51563814D01*
X86346789Y-51432711D01*
X86346786Y-51432707D01*
X86235292Y-51321213D01*
X86235288Y-51321210D01*
X86104185Y-51233609D01*
X86104172Y-51233602D01*
X85958501Y-51173264D01*
X85958489Y-51173261D01*
X85803845Y-51142500D01*
X85803842Y-51142500D01*
X85646158Y-51142500D01*
X85646155Y-51142500D01*
X85491510Y-51173261D01*
X85491498Y-51173264D01*
X85345827Y-51233602D01*
X85345814Y-51233609D01*
X85214711Y-51321210D01*
X85214707Y-51321213D01*
X85103213Y-51432707D01*
X85103210Y-51432711D01*
X85015609Y-51563814D01*
X85015602Y-51563827D01*
X84955264Y-51709498D01*
X84955261Y-51709510D01*
X84924500Y-51864153D01*
X84924500Y-52021846D01*
X84955261Y-52176489D01*
X84955264Y-52176501D01*
X85015602Y-52322172D01*
X85015609Y-52322185D01*
X85103602Y-52453874D01*
X85124480Y-52520551D01*
X85124500Y-52522765D01*
X85124500Y-52990330D01*
X85124499Y-52990348D01*
X85124499Y-53156054D01*
X85124498Y-53156054D01*
X85165423Y-53308785D01*
X85178413Y-53331284D01*
X85178412Y-53331284D01*
X85178414Y-53331286D01*
X85198636Y-53366313D01*
X85215107Y-53434213D01*
X85192254Y-53500240D01*
X85178929Y-53515992D01*
X85103213Y-53591707D01*
X85103210Y-53591711D01*
X85015609Y-53722814D01*
X85015604Y-53722823D01*
X84988561Y-53788113D01*
X84944720Y-53842516D01*
X84878426Y-53864581D01*
X84810727Y-53847302D01*
X84763116Y-53796165D01*
X84750000Y-53740660D01*
X84750000Y-53450000D01*
X83700000Y-53450000D01*
X83700000Y-54400000D01*
X84297828Y-54400000D01*
X84297844Y-54399999D01*
X84357372Y-54393598D01*
X84357379Y-54393596D01*
X84492086Y-54343354D01*
X84492093Y-54343350D01*
X84607186Y-54257190D01*
X84681587Y-54157805D01*
X84706246Y-54139345D01*
X84729566Y-54119220D01*
X84733964Y-54118596D01*
X84737521Y-54115934D01*
X84768243Y-54113736D01*
X84798744Y-54109413D01*
X84802782Y-54111266D01*
X84807213Y-54110950D01*
X84834249Y-54125712D01*
X84862242Y-54138564D01*
X84864636Y-54142305D01*
X84868536Y-54144435D01*
X84883298Y-54171471D01*
X84899900Y-54197417D01*
X84900297Y-54202603D01*
X84902020Y-54205759D01*
X84904854Y-54232361D01*
X84904835Y-54241687D01*
X84904499Y-54242943D01*
X84904499Y-54401057D01*
X84904500Y-54401060D01*
X84904500Y-54411053D01*
X84904500Y-61739330D01*
X84904499Y-61739348D01*
X84904499Y-61905054D01*
X84904498Y-61905054D01*
X84904499Y-61905057D01*
X84942911Y-62048412D01*
X84945424Y-62057787D01*
X84948533Y-62065293D01*
X84946318Y-62066210D01*
X84959500Y-62115392D01*
X84959500Y-62159846D01*
X84990261Y-62314489D01*
X84990264Y-62314501D01*
X85050602Y-62460172D01*
X85050609Y-62460185D01*
X85138210Y-62591288D01*
X85138213Y-62591292D01*
X85249707Y-62702786D01*
X85249711Y-62702789D01*
X85380814Y-62790390D01*
X85380827Y-62790397D01*
X85489500Y-62835410D01*
X85526503Y-62850737D01*
X85636987Y-62872713D01*
X85659691Y-62877230D01*
X85721602Y-62909615D01*
X85756176Y-62970330D01*
X85759500Y-62998847D01*
X85759500Y-84546949D01*
X85739815Y-84613988D01*
X85687011Y-84659743D01*
X85652100Y-84669154D01*
X85652132Y-84669311D01*
X85649796Y-84669775D01*
X85647662Y-84670351D01*
X85646158Y-84670499D01*
X85491510Y-84701261D01*
X85491498Y-84701264D01*
X85345827Y-84761602D01*
X85345814Y-84761609D01*
X85214711Y-84849210D01*
X85214707Y-84849213D01*
X85103213Y-84960707D01*
X85103210Y-84960711D01*
X85015609Y-85091814D01*
X85015602Y-85091827D01*
X84955264Y-85237498D01*
X84955261Y-85237508D01*
X84924362Y-85392848D01*
X84904246Y-85439884D01*
X84898048Y-85448715D01*
X84863480Y-85483284D01*
X84818367Y-85561423D01*
X84815634Y-85566156D01*
X84815633Y-85566158D01*
X84784423Y-85620214D01*
X84784423Y-85620215D01*
X84743499Y-85772943D01*
X84743499Y-85772945D01*
X84743499Y-85941046D01*
X84743500Y-85941059D01*
X84743500Y-135818234D01*
X84738172Y-135836377D01*
X84737835Y-135855287D01*
X84724334Y-135883504D01*
X84723815Y-135885273D01*
X84722602Y-135887125D01*
X84647602Y-135999370D01*
X84593990Y-136044175D01*
X84524665Y-136052882D01*
X84461637Y-136022727D01*
X84424918Y-135963284D01*
X84420500Y-135930479D01*
X84420500Y-72183945D01*
X84420500Y-72183943D01*
X84379577Y-72031216D01*
X84365157Y-72006239D01*
X84300524Y-71894290D01*
X84300521Y-71894286D01*
X84300520Y-71894284D01*
X84188716Y-71782480D01*
X84188715Y-71782479D01*
X84184385Y-71778149D01*
X84184374Y-71778139D01*
X84146574Y-71740339D01*
X84113089Y-71679016D01*
X84112638Y-71676849D01*
X84081738Y-71521510D01*
X84081737Y-71521503D01*
X84081735Y-71521498D01*
X84021397Y-71375827D01*
X84021390Y-71375814D01*
X83933789Y-71244711D01*
X83933786Y-71244707D01*
X83822292Y-71133213D01*
X83822288Y-71133210D01*
X83691185Y-71045609D01*
X83691172Y-71045602D01*
X83545501Y-70985264D01*
X83545489Y-70985261D01*
X83390845Y-70954500D01*
X83390842Y-70954500D01*
X83384941Y-70954500D01*
X83317902Y-70934815D01*
X83272147Y-70882011D01*
X83262203Y-70812853D01*
X83291228Y-70749297D01*
X83297260Y-70742819D01*
X83298786Y-70741292D01*
X83298789Y-70741289D01*
X83386394Y-70610179D01*
X83446737Y-70464497D01*
X83477500Y-70309842D01*
X83477500Y-70152158D01*
X83477500Y-70152155D01*
X83477499Y-70152153D01*
X83461647Y-70072461D01*
X83446737Y-69997503D01*
X83416456Y-69924397D01*
X83386397Y-69851827D01*
X83386390Y-69851814D01*
X83298789Y-69720711D01*
X83298786Y-69720707D01*
X83187292Y-69609213D01*
X83187288Y-69609210D01*
X83056185Y-69521609D01*
X83056172Y-69521602D01*
X82910501Y-69461264D01*
X82910489Y-69461261D01*
X82755845Y-69430500D01*
X82755842Y-69430500D01*
X82598158Y-69430500D01*
X82598155Y-69430500D01*
X82443510Y-69461261D01*
X82443498Y-69461264D01*
X82422952Y-69469775D01*
X82353482Y-69477244D01*
X82291003Y-69445968D01*
X82255351Y-69385879D01*
X82251500Y-69355214D01*
X82251500Y-66209191D01*
X82271185Y-66142152D01*
X82306609Y-66106089D01*
X82355606Y-66073349D01*
X82425289Y-66026789D01*
X82536789Y-65915289D01*
X82624394Y-65784179D01*
X82627574Y-65776503D01*
X82684735Y-65638501D01*
X82684737Y-65638497D01*
X82715500Y-65483842D01*
X82715500Y-65326158D01*
X82715500Y-65326155D01*
X82715499Y-65326153D01*
X82704042Y-65268556D01*
X82684737Y-65171503D01*
X82655163Y-65100104D01*
X82624397Y-65025827D01*
X82624390Y-65025814D01*
X82536789Y-64894711D01*
X82536786Y-64894707D01*
X82425292Y-64783213D01*
X82425288Y-64783210D01*
X82294185Y-64695609D01*
X82294172Y-64695602D01*
X82148501Y-64635264D01*
X82148489Y-64635261D01*
X81993845Y-64604500D01*
X81993842Y-64604500D01*
X81917001Y-64604500D01*
X81849962Y-64584815D01*
X81804207Y-64532011D01*
X81794263Y-64462853D01*
X81799070Y-64442182D01*
X81817246Y-64386243D01*
X81850500Y-64176287D01*
X81850500Y-63963713D01*
X81817246Y-63753757D01*
X81751557Y-63551588D01*
X81685097Y-63421153D01*
X83654500Y-63421153D01*
X83654500Y-63578846D01*
X83685261Y-63733489D01*
X83685264Y-63733501D01*
X83745602Y-63879172D01*
X83745609Y-63879185D01*
X83833602Y-64010874D01*
X83854480Y-64077551D01*
X83854500Y-64079765D01*
X83854500Y-65430234D01*
X83834815Y-65497273D01*
X83833602Y-65499125D01*
X83745609Y-65630814D01*
X83745602Y-65630827D01*
X83685264Y-65776498D01*
X83685261Y-65776510D01*
X83654500Y-65931153D01*
X83654500Y-66088846D01*
X83685261Y-66243489D01*
X83685264Y-66243501D01*
X83745602Y-66389172D01*
X83745609Y-66389185D01*
X83833210Y-66520288D01*
X83833213Y-66520292D01*
X83944707Y-66631786D01*
X83944711Y-66631789D01*
X84075814Y-66719390D01*
X84075827Y-66719397D01*
X84221498Y-66779735D01*
X84221503Y-66779737D01*
X84363434Y-66807969D01*
X84376153Y-66810499D01*
X84376156Y-66810500D01*
X84376158Y-66810500D01*
X84533844Y-66810500D01*
X84533845Y-66810499D01*
X84688497Y-66779737D01*
X84834179Y-66719394D01*
X84965289Y-66631789D01*
X85076789Y-66520289D01*
X85164394Y-66389179D01*
X85224737Y-66243497D01*
X85255500Y-66088842D01*
X85255500Y-65931158D01*
X85255500Y-65931155D01*
X85255499Y-65931153D01*
X85226265Y-65784185D01*
X85224737Y-65776503D01*
X85205561Y-65730208D01*
X85164397Y-65630827D01*
X85164390Y-65630814D01*
X85076398Y-65499125D01*
X85055520Y-65432447D01*
X85055500Y-65430234D01*
X85055500Y-64079765D01*
X85075185Y-64012726D01*
X85076398Y-64010874D01*
X85164390Y-63879185D01*
X85164390Y-63879184D01*
X85164394Y-63879179D01*
X85224737Y-63733497D01*
X85255500Y-63578842D01*
X85255500Y-63421158D01*
X85255500Y-63421155D01*
X85255499Y-63421153D01*
X85236384Y-63325058D01*
X85224737Y-63266503D01*
X85194456Y-63193397D01*
X85164397Y-63120827D01*
X85164390Y-63120814D01*
X85076789Y-62989711D01*
X85076786Y-62989707D01*
X84965292Y-62878213D01*
X84965288Y-62878210D01*
X84834185Y-62790609D01*
X84834172Y-62790602D01*
X84688501Y-62730264D01*
X84688489Y-62730261D01*
X84533845Y-62699500D01*
X84533842Y-62699500D01*
X84376158Y-62699500D01*
X84376155Y-62699500D01*
X84221510Y-62730261D01*
X84221498Y-62730264D01*
X84075827Y-62790602D01*
X84075814Y-62790609D01*
X83944711Y-62878210D01*
X83944707Y-62878213D01*
X83833213Y-62989707D01*
X83833210Y-62989711D01*
X83745609Y-63120814D01*
X83745602Y-63120827D01*
X83685264Y-63266498D01*
X83685261Y-63266510D01*
X83654500Y-63421153D01*
X81685097Y-63421153D01*
X81655051Y-63362184D01*
X81655049Y-63362181D01*
X81655048Y-63362179D01*
X81530109Y-63190213D01*
X81379786Y-63039890D01*
X81207820Y-62914951D01*
X81201604Y-62911784D01*
X81199054Y-62910485D01*
X81148259Y-62862512D01*
X81131463Y-62794692D01*
X81153999Y-62728556D01*
X81199054Y-62689515D01*
X81207816Y-62685051D01*
X81262572Y-62645269D01*
X81379786Y-62560109D01*
X81379788Y-62560106D01*
X81379792Y-62560104D01*
X81530104Y-62409792D01*
X81530106Y-62409788D01*
X81530109Y-62409786D01*
X81655048Y-62237820D01*
X81655050Y-62237817D01*
X81655051Y-62237816D01*
X81751557Y-62048412D01*
X81817246Y-61846243D01*
X81850500Y-61636287D01*
X81850500Y-61423713D01*
X81817246Y-61213757D01*
X81751557Y-61011588D01*
X81655051Y-60822184D01*
X81655049Y-60822181D01*
X81655048Y-60822179D01*
X81530109Y-60650213D01*
X81379786Y-60499890D01*
X81207820Y-60374951D01*
X81199600Y-60370763D01*
X81199054Y-60370485D01*
X81148259Y-60322512D01*
X81131463Y-60254692D01*
X81153999Y-60188556D01*
X81199054Y-60149515D01*
X81207816Y-60145051D01*
X81276249Y-60095332D01*
X81379786Y-60020109D01*
X81379788Y-60020106D01*
X81379792Y-60020104D01*
X81530104Y-59869792D01*
X81530106Y-59869788D01*
X81530109Y-59869786D01*
X81655048Y-59697820D01*
X81655047Y-59697820D01*
X81655051Y-59697816D01*
X81751557Y-59508412D01*
X81817246Y-59306243D01*
X81850500Y-59096287D01*
X81850500Y-58883713D01*
X81817246Y-58673757D01*
X81751557Y-58471588D01*
X81655051Y-58282184D01*
X81655049Y-58282181D01*
X81655048Y-58282179D01*
X81530109Y-58110213D01*
X81379786Y-57959890D01*
X81207820Y-57834951D01*
X81207115Y-57834591D01*
X81199054Y-57830485D01*
X81148259Y-57782512D01*
X81131463Y-57714692D01*
X81153999Y-57648556D01*
X81199054Y-57609515D01*
X81207816Y-57605051D01*
X81330519Y-57515903D01*
X81379786Y-57480109D01*
X81379788Y-57480106D01*
X81379792Y-57480104D01*
X81530104Y-57329792D01*
X81530106Y-57329788D01*
X81530109Y-57329786D01*
X81655048Y-57157820D01*
X81655050Y-57157817D01*
X81655051Y-57157816D01*
X81751557Y-56968412D01*
X81817246Y-56766243D01*
X81850500Y-56556287D01*
X81850500Y-56343713D01*
X81817246Y-56133757D01*
X81751557Y-55931588D01*
X81655051Y-55742184D01*
X81655049Y-55742181D01*
X81655048Y-55742179D01*
X81530109Y-55570213D01*
X81379786Y-55419890D01*
X81207820Y-55294951D01*
X81199600Y-55290763D01*
X81199054Y-55290485D01*
X81148259Y-55242512D01*
X81131463Y-55174692D01*
X81153999Y-55108556D01*
X81199054Y-55069515D01*
X81207816Y-55065051D01*
X81268450Y-55020998D01*
X81379786Y-54940109D01*
X81379788Y-54940106D01*
X81379792Y-54940104D01*
X81530104Y-54789792D01*
X81530106Y-54789788D01*
X81530109Y-54789786D01*
X81640907Y-54637284D01*
X81655051Y-54617816D01*
X81751557Y-54428412D01*
X81817246Y-54226243D01*
X81850500Y-54016287D01*
X81850500Y-53947844D01*
X82150000Y-53947844D01*
X82156401Y-54007372D01*
X82156403Y-54007379D01*
X82206645Y-54142086D01*
X82206649Y-54142093D01*
X82292809Y-54257187D01*
X82292812Y-54257190D01*
X82407906Y-54343350D01*
X82407913Y-54343354D01*
X82542620Y-54393596D01*
X82542627Y-54393598D01*
X82602155Y-54399999D01*
X82602172Y-54400000D01*
X83200000Y-54400000D01*
X83200000Y-53450000D01*
X82150000Y-53450000D01*
X82150000Y-53947844D01*
X81850500Y-53947844D01*
X81850500Y-53803713D01*
X81817246Y-53593757D01*
X81751557Y-53391588D01*
X81751555Y-53391585D01*
X81751555Y-53391583D01*
X81683128Y-53257288D01*
X81655051Y-53202184D01*
X81655049Y-53202181D01*
X81655048Y-53202179D01*
X81530109Y-53030213D01*
X81416569Y-52916673D01*
X81383084Y-52855350D01*
X81388068Y-52785658D01*
X81429940Y-52729725D01*
X81460915Y-52712810D01*
X81592331Y-52663796D01*
X81707546Y-52577546D01*
X81793796Y-52462331D01*
X81797591Y-52452155D01*
X82150000Y-52452155D01*
X82150000Y-52950000D01*
X83200000Y-52950000D01*
X83700000Y-52950000D01*
X84750000Y-52950000D01*
X84750000Y-52452172D01*
X84749999Y-52452155D01*
X84743598Y-52392627D01*
X84743596Y-52392620D01*
X84693354Y-52257913D01*
X84693350Y-52257906D01*
X84607190Y-52142812D01*
X84607187Y-52142809D01*
X84492093Y-52056649D01*
X84492086Y-52056645D01*
X84357379Y-52006403D01*
X84357372Y-52006401D01*
X84297844Y-52000000D01*
X83700000Y-52000000D01*
X83700000Y-52950000D01*
X83200000Y-52950000D01*
X83200000Y-52000000D01*
X82602155Y-52000000D01*
X82542627Y-52006401D01*
X82542620Y-52006403D01*
X82407913Y-52056645D01*
X82407906Y-52056649D01*
X82292812Y-52142809D01*
X82292809Y-52142812D01*
X82206649Y-52257906D01*
X82206645Y-52257913D01*
X82156403Y-52392620D01*
X82156401Y-52392627D01*
X82150000Y-52452155D01*
X81797591Y-52452155D01*
X81814840Y-52405909D01*
X81814986Y-52405518D01*
X81844091Y-52327482D01*
X81844219Y-52326288D01*
X81850500Y-52267873D01*
X81850499Y-50472128D01*
X81844091Y-50412517D01*
X81842810Y-50409083D01*
X81793797Y-50277671D01*
X81793793Y-50277664D01*
X81707547Y-50162455D01*
X81707544Y-50162452D01*
X81592335Y-50076206D01*
X81592328Y-50076202D01*
X81457482Y-50025908D01*
X81457483Y-50025908D01*
X81397883Y-50019501D01*
X81397881Y-50019500D01*
X81397873Y-50019500D01*
X81397865Y-50019500D01*
X80224277Y-50019500D01*
X80157238Y-49999815D01*
X80111483Y-49947011D01*
X80101539Y-49877853D01*
X80109716Y-49848048D01*
X80144735Y-49763501D01*
X80144737Y-49763497D01*
X80175500Y-49608842D01*
X80175500Y-49451158D01*
X80175500Y-49451155D01*
X80175499Y-49451153D01*
X80159836Y-49372409D01*
X80144737Y-49296503D01*
X80097268Y-49181902D01*
X80084397Y-49150827D01*
X80084390Y-49150814D01*
X79996789Y-49019711D01*
X79996786Y-49019707D01*
X79885292Y-48908213D01*
X79885288Y-48908210D01*
X79754185Y-48820609D01*
X79754172Y-48820602D01*
X79608501Y-48760264D01*
X79608489Y-48760261D01*
X79453845Y-48729500D01*
X79453842Y-48729500D01*
X79296158Y-48729500D01*
X79296155Y-48729500D01*
X79141510Y-48760261D01*
X79141498Y-48760264D01*
X78995827Y-48820602D01*
X78995814Y-48820609D01*
X78864711Y-48908210D01*
X78864707Y-48908213D01*
X78753213Y-49019707D01*
X78753210Y-49019711D01*
X78665609Y-49150814D01*
X78665602Y-49150827D01*
X78605264Y-49296498D01*
X78605261Y-49296510D01*
X78574500Y-49451153D01*
X78574500Y-49608846D01*
X78605261Y-49763489D01*
X78605264Y-49763501D01*
X78665602Y-49909172D01*
X78665609Y-49909185D01*
X78710233Y-49975969D01*
X78731111Y-50042647D01*
X78712626Y-50110027D01*
X78660648Y-50156717D01*
X78591678Y-50167893D01*
X78550836Y-50155345D01*
X78478414Y-50118444D01*
X78478413Y-50118443D01*
X78478412Y-50118443D01*
X78276243Y-50052754D01*
X78276241Y-50052753D01*
X78276240Y-50052753D01*
X78114957Y-50027208D01*
X78066287Y-50019500D01*
X77853713Y-50019500D01*
X77805042Y-50027208D01*
X77643760Y-50052753D01*
X77441585Y-50118444D01*
X77252179Y-50214951D01*
X77080213Y-50339890D01*
X76929890Y-50490213D01*
X76804951Y-50662179D01*
X76708444Y-50851585D01*
X76642753Y-51053760D01*
X76614268Y-51233609D01*
X76609500Y-51263713D01*
X76609500Y-51476287D01*
X76642754Y-51686243D01*
X76707238Y-51884704D01*
X76708444Y-51888414D01*
X76804951Y-52077820D01*
X76929890Y-52249786D01*
X77080213Y-52400109D01*
X77252182Y-52525050D01*
X77260946Y-52529516D01*
X77311742Y-52577491D01*
X77328536Y-52645312D01*
X77305998Y-52711447D01*
X77260946Y-52750484D01*
X77252182Y-52754949D01*
X77080213Y-52879890D01*
X76929890Y-53030213D01*
X76804951Y-53202179D01*
X76708444Y-53391585D01*
X76642753Y-53593760D01*
X76609500Y-53803713D01*
X76609500Y-54016286D01*
X76641097Y-54215786D01*
X76642754Y-54226243D01*
X76708243Y-54427797D01*
X76708444Y-54428414D01*
X76804951Y-54617820D01*
X76929890Y-54789786D01*
X77080213Y-54940109D01*
X77252182Y-55065050D01*
X77260946Y-55069516D01*
X77311742Y-55117491D01*
X77328536Y-55185312D01*
X77305998Y-55251447D01*
X77260946Y-55290484D01*
X77252182Y-55294949D01*
X77080213Y-55419890D01*
X76929890Y-55570213D01*
X76804951Y-55742179D01*
X76708444Y-55931585D01*
X76642753Y-56133760D01*
X76609500Y-56343713D01*
X76609500Y-56556286D01*
X76642592Y-56765224D01*
X76642754Y-56766243D01*
X76708287Y-56967933D01*
X76708444Y-56968414D01*
X76804951Y-57157820D01*
X76929890Y-57329786D01*
X77080213Y-57480109D01*
X77252182Y-57605050D01*
X77260946Y-57609516D01*
X77311742Y-57657491D01*
X77328536Y-57725312D01*
X77305998Y-57791447D01*
X77260946Y-57830484D01*
X77252182Y-57834949D01*
X77080213Y-57959890D01*
X76929890Y-58110213D01*
X76804951Y-58282179D01*
X76708444Y-58471585D01*
X76642753Y-58673760D01*
X76619354Y-58821498D01*
X76609500Y-58883713D01*
X76609500Y-59096287D01*
X76618807Y-59155048D01*
X76641026Y-59295338D01*
X76642754Y-59306243D01*
X76692133Y-59458216D01*
X76708444Y-59508414D01*
X76804951Y-59697820D01*
X76929890Y-59869786D01*
X77080213Y-60020109D01*
X77252182Y-60145050D01*
X77260946Y-60149516D01*
X77311742Y-60197491D01*
X77328536Y-60265312D01*
X77305998Y-60331447D01*
X77260946Y-60370484D01*
X77252182Y-60374949D01*
X77080213Y-60499890D01*
X76929890Y-60650213D01*
X76804951Y-60822179D01*
X76708444Y-61011585D01*
X76642753Y-61213760D01*
X76632911Y-61275901D01*
X76609500Y-61423713D01*
X76609500Y-61636287D01*
X76616011Y-61677395D01*
X76642735Y-61846127D01*
X76642754Y-61846243D01*
X76688905Y-61988282D01*
X76708444Y-62048414D01*
X76804951Y-62237820D01*
X76929890Y-62409786D01*
X77080213Y-62560109D01*
X77252182Y-62685050D01*
X77260946Y-62689516D01*
X77311742Y-62737491D01*
X77328536Y-62805312D01*
X77305998Y-62871447D01*
X77260946Y-62910484D01*
X77252182Y-62914949D01*
X77080213Y-63039890D01*
X76929890Y-63190213D01*
X76804951Y-63362179D01*
X76708444Y-63551585D01*
X76642753Y-63753760D01*
X76609500Y-63963713D01*
X76609500Y-64176286D01*
X76642753Y-64386239D01*
X76642753Y-64386241D01*
X76642754Y-64386243D01*
X76707274Y-64584815D01*
X76708444Y-64588414D01*
X76804951Y-64777820D01*
X76929890Y-64949786D01*
X77080213Y-65100109D01*
X77252182Y-65225050D01*
X77260946Y-65229516D01*
X77311742Y-65277491D01*
X77328536Y-65345312D01*
X77305998Y-65411447D01*
X77260946Y-65450484D01*
X77252182Y-65454949D01*
X77080213Y-65579890D01*
X76929890Y-65730213D01*
X76804951Y-65902179D01*
X76708444Y-66091585D01*
X76642753Y-66293760D01*
X76619354Y-66441498D01*
X76609500Y-66503713D01*
X76609500Y-66716287D01*
X76609992Y-66719394D01*
X76642372Y-66923835D01*
X76642754Y-66926243D01*
X76655038Y-66964050D01*
X76708444Y-67128414D01*
X76804951Y-67317820D01*
X76929890Y-67489786D01*
X77080213Y-67640109D01*
X77252182Y-67765050D01*
X77260946Y-67769516D01*
X77311742Y-67817491D01*
X77328536Y-67885312D01*
X77305998Y-67951447D01*
X77260946Y-67990484D01*
X77252182Y-67994949D01*
X77080213Y-68119890D01*
X76929890Y-68270213D01*
X76804951Y-68442179D01*
X76708444Y-68631585D01*
X76642753Y-68833760D01*
X76609500Y-69043713D01*
X76609500Y-69256286D01*
X76642735Y-69466127D01*
X76642754Y-69466243D01*
X76689207Y-69609211D01*
X76708444Y-69668414D01*
X76804951Y-69857820D01*
X76929890Y-70029786D01*
X77080213Y-70180109D01*
X77252182Y-70305050D01*
X77260946Y-70309516D01*
X77311742Y-70357491D01*
X77328536Y-70425312D01*
X77305998Y-70491447D01*
X77260946Y-70530484D01*
X77252182Y-70534949D01*
X77080213Y-70659890D01*
X76929890Y-70810213D01*
X76804951Y-70982179D01*
X76708444Y-71171585D01*
X76642753Y-71373760D01*
X76642428Y-71375814D01*
X76609500Y-71583713D01*
X76609500Y-71796287D01*
X76642754Y-72006243D01*
X76702006Y-72188602D01*
X76708444Y-72208414D01*
X76804951Y-72397820D01*
X76929890Y-72569786D01*
X77080213Y-72720109D01*
X77252179Y-72845048D01*
X77252181Y-72845049D01*
X77252184Y-72845051D01*
X77261493Y-72849794D01*
X77312290Y-72897766D01*
X77329087Y-72965587D01*
X77306552Y-73031722D01*
X77261505Y-73070760D01*
X77252446Y-73075376D01*
X77252440Y-73075380D01*
X77198282Y-73114727D01*
X77198282Y-73114728D01*
X77830591Y-73747037D01*
X77767007Y-73764075D01*
X77652993Y-73829901D01*
X77559901Y-73922993D01*
X77494075Y-74037007D01*
X77477037Y-74100591D01*
X76844728Y-73468282D01*
X76844727Y-73468282D01*
X76805380Y-73522439D01*
X76708904Y-73711782D01*
X76643242Y-73913869D01*
X76643242Y-73913872D01*
X76610000Y-74123753D01*
X76610000Y-74336246D01*
X76643242Y-74546127D01*
X76643242Y-74546130D01*
X76708904Y-74748217D01*
X76805375Y-74937550D01*
X76844728Y-74991716D01*
X77477037Y-74359408D01*
X77494075Y-74422993D01*
X77559901Y-74537007D01*
X77652993Y-74630099D01*
X77767007Y-74695925D01*
X77830590Y-74712962D01*
X77198282Y-75345269D01*
X77198282Y-75345270D01*
X77252452Y-75384626D01*
X77252451Y-75384626D01*
X77261495Y-75389234D01*
X77312292Y-75437208D01*
X77329087Y-75505029D01*
X77306550Y-75571164D01*
X77261499Y-75610202D01*
X77252182Y-75614949D01*
X77080213Y-75739890D01*
X76929890Y-75890213D01*
X76804951Y-76062179D01*
X76708444Y-76251585D01*
X76642753Y-76453760D01*
X76642427Y-76455821D01*
X76609500Y-76663713D01*
X76609500Y-76876287D01*
X76642754Y-77086243D01*
X76706936Y-77283775D01*
X76708444Y-77288414D01*
X76804951Y-77477820D01*
X76929890Y-77649786D01*
X77080213Y-77800109D01*
X77252182Y-77925050D01*
X77260946Y-77929516D01*
X77311742Y-77977491D01*
X77328536Y-78045312D01*
X77305998Y-78111447D01*
X77260946Y-78150484D01*
X77252182Y-78154949D01*
X77080213Y-78279890D01*
X76929890Y-78430213D01*
X76804951Y-78602179D01*
X76708444Y-78791585D01*
X76642753Y-78993760D01*
X76609500Y-79203713D01*
X76609500Y-79416286D01*
X76642753Y-79626239D01*
X76708444Y-79828414D01*
X76804951Y-80017820D01*
X76929890Y-80189786D01*
X77080213Y-80340109D01*
X77252182Y-80465050D01*
X77260946Y-80469516D01*
X77311742Y-80517491D01*
X77328536Y-80585312D01*
X77305998Y-80651447D01*
X77260946Y-80690484D01*
X77252182Y-80694949D01*
X77080213Y-80819890D01*
X76929890Y-80970213D01*
X76804951Y-81142179D01*
X76708444Y-81331585D01*
X76642753Y-81533760D01*
X76609500Y-81743713D01*
X76609500Y-81956286D01*
X76641086Y-82155715D01*
X76642754Y-82166243D01*
X76700506Y-82343986D01*
X76708444Y-82368414D01*
X76804951Y-82557820D01*
X76929890Y-82729786D01*
X77080213Y-82880109D01*
X77252182Y-83005050D01*
X77260946Y-83009516D01*
X77311742Y-83057491D01*
X77328536Y-83125312D01*
X77305998Y-83191447D01*
X77260946Y-83230484D01*
X77252182Y-83234949D01*
X77080213Y-83359890D01*
X76929890Y-83510213D01*
X76804951Y-83682179D01*
X76708444Y-83871585D01*
X76642753Y-84073760D01*
X76609500Y-84283713D01*
X76609500Y-84496286D01*
X76637092Y-84670499D01*
X76642754Y-84706243D01*
X76689207Y-84849211D01*
X76708444Y-84908414D01*
X76804951Y-85097820D01*
X76929890Y-85269786D01*
X77080213Y-85420109D01*
X77252182Y-85545050D01*
X77260946Y-85549516D01*
X77311742Y-85597491D01*
X77328536Y-85665312D01*
X77305998Y-85731447D01*
X77260946Y-85770484D01*
X77252182Y-85774949D01*
X77080213Y-85899890D01*
X76929890Y-86050213D01*
X76804951Y-86222179D01*
X76708444Y-86411585D01*
X76708443Y-86411587D01*
X76708443Y-86411588D01*
X76690602Y-86466497D01*
X76642753Y-86613760D01*
X76610113Y-86819842D01*
X76609500Y-86823713D01*
X76609500Y-87036287D01*
X76642754Y-87246243D01*
X76656159Y-87287500D01*
X76708444Y-87448414D01*
X76804951Y-87637820D01*
X76929890Y-87809786D01*
X77080213Y-87960109D01*
X77252182Y-88085050D01*
X77260946Y-88089516D01*
X77311742Y-88137491D01*
X77328536Y-88205312D01*
X77305998Y-88271447D01*
X77260946Y-88310484D01*
X77252182Y-88314949D01*
X77080213Y-88439890D01*
X76929890Y-88590213D01*
X76804951Y-88762179D01*
X76708444Y-88951585D01*
X76642753Y-89153760D01*
X76609500Y-89363713D01*
X76609500Y-89576286D01*
X76642753Y-89786239D01*
X76708444Y-89988414D01*
X76804951Y-90177820D01*
X76929890Y-90349786D01*
X77080213Y-90500109D01*
X77252182Y-90625050D01*
X77260946Y-90629516D01*
X77311742Y-90677491D01*
X77328536Y-90745312D01*
X77305998Y-90811447D01*
X77260946Y-90850484D01*
X77252182Y-90854949D01*
X77080213Y-90979890D01*
X76929890Y-91130213D01*
X76804951Y-91302179D01*
X76708444Y-91491585D01*
X76708443Y-91491587D01*
X76708443Y-91491588D01*
X76690602Y-91546497D01*
X76642753Y-91693760D01*
X76622238Y-91823286D01*
X76609500Y-91903713D01*
X76609500Y-92116287D01*
X76611496Y-92128888D01*
X76642753Y-92326239D01*
X76708444Y-92528414D01*
X76804951Y-92717820D01*
X76929890Y-92889786D01*
X77080213Y-93040109D01*
X77252182Y-93165050D01*
X77260946Y-93169516D01*
X77311742Y-93217491D01*
X77328536Y-93285312D01*
X77305998Y-93351447D01*
X77260946Y-93390484D01*
X77252182Y-93394949D01*
X77080213Y-93519890D01*
X76929890Y-93670213D01*
X76804951Y-93842179D01*
X76708444Y-94031585D01*
X76642753Y-94233760D01*
X76632080Y-94301149D01*
X76609500Y-94443713D01*
X76609500Y-94656287D01*
X76642754Y-94866243D01*
X76702600Y-95050430D01*
X76708444Y-95068414D01*
X76804951Y-95257820D01*
X76929890Y-95429786D01*
X77080213Y-95580109D01*
X77252182Y-95705050D01*
X77260946Y-95709516D01*
X77311742Y-95757491D01*
X77328536Y-95825312D01*
X77305998Y-95891447D01*
X77260946Y-95930484D01*
X77252182Y-95934949D01*
X77080213Y-96059890D01*
X76929890Y-96210213D01*
X76804951Y-96382179D01*
X76708444Y-96571585D01*
X76642753Y-96773760D01*
X76609500Y-96983713D01*
X76609500Y-97196286D01*
X76642753Y-97406239D01*
X76708444Y-97608414D01*
X76804951Y-97797820D01*
X76929890Y-97969786D01*
X77080213Y-98120109D01*
X77252179Y-98245048D01*
X77252181Y-98245049D01*
X77252184Y-98245051D01*
X77261493Y-98249794D01*
X77312290Y-98297766D01*
X77329087Y-98365587D01*
X77306552Y-98431722D01*
X77261505Y-98470760D01*
X77252446Y-98475376D01*
X77252440Y-98475380D01*
X77198282Y-98514727D01*
X77198282Y-98514728D01*
X77830591Y-99147037D01*
X77767007Y-99164075D01*
X77652993Y-99229901D01*
X77559901Y-99322993D01*
X77494075Y-99437007D01*
X77477037Y-99500591D01*
X76844728Y-98868282D01*
X76844727Y-98868282D01*
X76805380Y-98922439D01*
X76708904Y-99111782D01*
X76643242Y-99313869D01*
X76643242Y-99313872D01*
X76610000Y-99523753D01*
X76610000Y-99736246D01*
X76643242Y-99946127D01*
X76643242Y-99946130D01*
X76708904Y-100148217D01*
X76805375Y-100337550D01*
X76844728Y-100391716D01*
X77477037Y-99759408D01*
X77494075Y-99822993D01*
X77559901Y-99937007D01*
X77652993Y-100030099D01*
X77767007Y-100095925D01*
X77830589Y-100112962D01*
X77198282Y-100745269D01*
X77198282Y-100745270D01*
X77252449Y-100784624D01*
X77441782Y-100881095D01*
X77643870Y-100946757D01*
X77853754Y-100980000D01*
X78066246Y-100980000D01*
X78276127Y-100946757D01*
X78276130Y-100946757D01*
X78478217Y-100881095D01*
X78568205Y-100835244D01*
X78636874Y-100822348D01*
X78701614Y-100848624D01*
X78741872Y-100905730D01*
X78748500Y-100945729D01*
X78748500Y-131332330D01*
X78748499Y-131332348D01*
X78748499Y-131498054D01*
X78748498Y-131498054D01*
X78748499Y-131498057D01*
X78784374Y-131631944D01*
X78789424Y-131650788D01*
X78795030Y-131660497D01*
X78795032Y-131660500D01*
X78868477Y-131787712D01*
X78868481Y-131787717D01*
X78987349Y-131906585D01*
X78987355Y-131906590D01*
X79302425Y-132221660D01*
X79335910Y-132282983D01*
X79336361Y-132285149D01*
X79367261Y-132440491D01*
X79367264Y-132440501D01*
X79427602Y-132586172D01*
X79427609Y-132586185D01*
X79515210Y-132717288D01*
X79515213Y-132717292D01*
X79626707Y-132828786D01*
X79626711Y-132828789D01*
X79757814Y-132916390D01*
X79757827Y-132916397D01*
X79903498Y-132976735D01*
X79903503Y-132976737D01*
X80058153Y-133007499D01*
X80058156Y-133007500D01*
X80058158Y-133007500D01*
X80215844Y-133007500D01*
X80215845Y-133007499D01*
X80370497Y-132976737D01*
X80516179Y-132916394D01*
X80647289Y-132828789D01*
X80758789Y-132717289D01*
X80846394Y-132586179D01*
X80906737Y-132440497D01*
X80937500Y-132285842D01*
X80937500Y-132128158D01*
X80937500Y-132128155D01*
X80937499Y-132128153D01*
X80906738Y-131973510D01*
X80906737Y-131973503D01*
X80876093Y-131899521D01*
X80846397Y-131827827D01*
X80846390Y-131827814D01*
X80758789Y-131696711D01*
X80758786Y-131696707D01*
X80647292Y-131585213D01*
X80647288Y-131585210D01*
X80516185Y-131497609D01*
X80516172Y-131497602D01*
X80370501Y-131437264D01*
X80370491Y-131437261D01*
X80215149Y-131406361D01*
X80198392Y-131397595D01*
X80179914Y-131393576D01*
X80154877Y-131374833D01*
X80153238Y-131373976D01*
X80151660Y-131372425D01*
X79985819Y-131206584D01*
X79952334Y-131145261D01*
X79949500Y-131118903D01*
X79949500Y-101041276D01*
X79969185Y-100974237D01*
X80021989Y-100928482D01*
X80091147Y-100918538D01*
X80111820Y-100923346D01*
X80183866Y-100946756D01*
X80183872Y-100946757D01*
X80393754Y-100980000D01*
X80606246Y-100980000D01*
X80816127Y-100946757D01*
X80816133Y-100946756D01*
X80888180Y-100923346D01*
X80958021Y-100921349D01*
X81017855Y-100957429D01*
X81048684Y-101020129D01*
X81050500Y-101041276D01*
X81050500Y-131094330D01*
X81050499Y-131094348D01*
X81050499Y-131260054D01*
X81050498Y-131260054D01*
X81050499Y-131260057D01*
X81091423Y-131412785D01*
X81105556Y-131437263D01*
X81140653Y-131498054D01*
X81170479Y-131549715D01*
X81289349Y-131668585D01*
X81289355Y-131668590D01*
X82096425Y-132475660D01*
X82129910Y-132536983D01*
X82130361Y-132539149D01*
X82161261Y-132694491D01*
X82161264Y-132694501D01*
X82221602Y-132840172D01*
X82221609Y-132840185D01*
X82309210Y-132971288D01*
X82309213Y-132971292D01*
X82420707Y-133082786D01*
X82420711Y-133082789D01*
X82551814Y-133170390D01*
X82551827Y-133170397D01*
X82673288Y-133220707D01*
X82697503Y-133230737D01*
X82852153Y-133261499D01*
X82852156Y-133261500D01*
X82852158Y-133261500D01*
X83009843Y-133261500D01*
X83022477Y-133258986D01*
X83071309Y-133249273D01*
X83140898Y-133255499D01*
X83196076Y-133298362D01*
X83219322Y-133364251D01*
X83219500Y-133370890D01*
X83219500Y-155569699D01*
X83199815Y-155636738D01*
X83147011Y-155682493D01*
X83134507Y-155687403D01*
X83101962Y-155698188D01*
X83050668Y-155715185D01*
X83050663Y-155715187D01*
X82901342Y-155807289D01*
X82777289Y-155931342D01*
X82685187Y-156080663D01*
X82685186Y-156080666D01*
X82630001Y-156247203D01*
X82630001Y-156247204D01*
X82630000Y-156247204D01*
X82619500Y-156349983D01*
X82619500Y-157150001D01*
X82619501Y-157150019D01*
X82630000Y-157252796D01*
X82630001Y-157252799D01*
X82685185Y-157419331D01*
X82685187Y-157419336D01*
X82777289Y-157568657D01*
X82870951Y-157662319D01*
X82904436Y-157723642D01*
X82899452Y-157793334D01*
X82870951Y-157837681D01*
X82777289Y-157931342D01*
X82685187Y-158080663D01*
X82685186Y-158080666D01*
X82630001Y-158247203D01*
X82630001Y-158247204D01*
X82630000Y-158247204D01*
X82619500Y-158349983D01*
X82619500Y-159150001D01*
X82619501Y-159150019D01*
X82630000Y-159252796D01*
X82630001Y-159252799D01*
X82659025Y-159340385D01*
X82685186Y-159419334D01*
X82777288Y-159568656D01*
X82901344Y-159692712D01*
X83050666Y-159784814D01*
X83134505Y-159812595D01*
X83191948Y-159852366D01*
X83218772Y-159916882D01*
X83219500Y-159930300D01*
X83219500Y-164605500D01*
X83199815Y-164672539D01*
X83147011Y-164718294D01*
X83095500Y-164729500D01*
X83055039Y-164729500D01*
X82920750Y-164744630D01*
X82920745Y-164744631D01*
X82750476Y-164804211D01*
X82597737Y-164900184D01*
X82470185Y-165027736D01*
X82461239Y-165041974D01*
X82408903Y-165088264D01*
X82356246Y-165100000D01*
X81824500Y-165100000D01*
X81757461Y-165080315D01*
X81711706Y-165027511D01*
X81700500Y-164976000D01*
X81700500Y-163964110D01*
X81700500Y-163964108D01*
X81666392Y-163836814D01*
X81663779Y-163832289D01*
X81657563Y-163821521D01*
X81600500Y-163722686D01*
X81507314Y-163629500D01*
X81450158Y-163596501D01*
X81393187Y-163563608D01*
X81309882Y-163541287D01*
X81265892Y-163529500D01*
X81265891Y-163529500D01*
X75424500Y-163529500D01*
X75357461Y-163509815D01*
X75311706Y-163457011D01*
X75300500Y-163405500D01*
X75300500Y-44747844D01*
X81450000Y-44747844D01*
X81456401Y-44807372D01*
X81456403Y-44807379D01*
X81506645Y-44942086D01*
X81506649Y-44942093D01*
X81592809Y-45057187D01*
X81592812Y-45057190D01*
X81707906Y-45143350D01*
X81707913Y-45143354D01*
X81842620Y-45193596D01*
X81842627Y-45193598D01*
X81902155Y-45199999D01*
X81902172Y-45200000D01*
X82300000Y-45200000D01*
X82800000Y-45200000D01*
X83197828Y-45200000D01*
X83197844Y-45199999D01*
X83257372Y-45193598D01*
X83257379Y-45193596D01*
X83392086Y-45143354D01*
X83392093Y-45143350D01*
X83507187Y-45057190D01*
X83507190Y-45057187D01*
X83593350Y-44942093D01*
X83593354Y-44942086D01*
X83643596Y-44807379D01*
X83643598Y-44807372D01*
X83649999Y-44747844D01*
X96950000Y-44747844D01*
X96956401Y-44807372D01*
X96956403Y-44807379D01*
X97006645Y-44942086D01*
X97006649Y-44942093D01*
X97092809Y-45057187D01*
X97092812Y-45057190D01*
X97207906Y-45143350D01*
X97207913Y-45143354D01*
X97342620Y-45193596D01*
X97342627Y-45193598D01*
X97402155Y-45199999D01*
X97402172Y-45200000D01*
X97800000Y-45200000D01*
X98300000Y-45200000D01*
X98697828Y-45200000D01*
X98697844Y-45199999D01*
X98757372Y-45193598D01*
X98757379Y-45193596D01*
X98892086Y-45143354D01*
X98892093Y-45143350D01*
X99007187Y-45057190D01*
X99007190Y-45057187D01*
X99093350Y-44942093D01*
X99093354Y-44942086D01*
X99143596Y-44807379D01*
X99143598Y-44807372D01*
X99149999Y-44747844D01*
X99150000Y-44747827D01*
X99150000Y-43850000D01*
X98300000Y-43850000D01*
X98300000Y-45200000D01*
X97800000Y-45200000D01*
X97800000Y-43850000D01*
X96950000Y-43850000D01*
X96950000Y-44747844D01*
X83649999Y-44747844D01*
X83650000Y-44747827D01*
X83650000Y-43850000D01*
X82800000Y-43850000D01*
X82800000Y-45200000D01*
X82300000Y-45200000D01*
X82300000Y-43850000D01*
X81450000Y-43850000D01*
X81450000Y-44747844D01*
X75300500Y-44747844D01*
X75300500Y-42452155D01*
X81450000Y-42452155D01*
X81450000Y-43350000D01*
X82300000Y-43350000D01*
X82800000Y-43350000D01*
X83650000Y-43350000D01*
X83650000Y-43273920D01*
X86499499Y-43273920D01*
X86528340Y-43418907D01*
X86528343Y-43418917D01*
X86584912Y-43555488D01*
X86584919Y-43555501D01*
X86667048Y-43678415D01*
X86667051Y-43678419D01*
X86771580Y-43782948D01*
X86771584Y-43782951D01*
X86894498Y-43865080D01*
X86894511Y-43865087D01*
X86949148Y-43887718D01*
X87031087Y-43921658D01*
X87031091Y-43921658D01*
X87031092Y-43921659D01*
X87176079Y-43950500D01*
X87176082Y-43950500D01*
X87323920Y-43950500D01*
X87421462Y-43931096D01*
X87468913Y-43921658D01*
X87605495Y-43865084D01*
X87728416Y-43782951D01*
X87832951Y-43678416D01*
X87915084Y-43555495D01*
X87971658Y-43418913D01*
X88000500Y-43273920D01*
X94479499Y-43273920D01*
X94508340Y-43418907D01*
X94508343Y-43418917D01*
X94564912Y-43555488D01*
X94564919Y-43555501D01*
X94647048Y-43678415D01*
X94647051Y-43678419D01*
X94751580Y-43782948D01*
X94751584Y-43782951D01*
X94874498Y-43865080D01*
X94874511Y-43865087D01*
X94929148Y-43887718D01*
X95011087Y-43921658D01*
X95011091Y-43921658D01*
X95011092Y-43921659D01*
X95156079Y-43950500D01*
X95156082Y-43950500D01*
X95303920Y-43950500D01*
X95401462Y-43931096D01*
X95448913Y-43921658D01*
X95585495Y-43865084D01*
X95708416Y-43782951D01*
X95713857Y-43777510D01*
X95780411Y-43710957D01*
X95812948Y-43678419D01*
X95812951Y-43678416D01*
X95895084Y-43555495D01*
X95951658Y-43418913D01*
X95980500Y-43273918D01*
X95980500Y-43126082D01*
X95980500Y-43126079D01*
X95951659Y-42981092D01*
X95951658Y-42981091D01*
X95951658Y-42981087D01*
X95925548Y-42918052D01*
X95895087Y-42844511D01*
X95895080Y-42844498D01*
X95812951Y-42721584D01*
X95812948Y-42721580D01*
X95708419Y-42617051D01*
X95708415Y-42617048D01*
X95610994Y-42551953D01*
X95585499Y-42534918D01*
X95585488Y-42534912D01*
X95448917Y-42478343D01*
X95448907Y-42478340D01*
X95317267Y-42452155D01*
X96950000Y-42452155D01*
X96950000Y-43350000D01*
X97800000Y-43350000D01*
X98300000Y-43350000D01*
X99150000Y-43350000D01*
X99150000Y-42452172D01*
X99149999Y-42452155D01*
X99143598Y-42392627D01*
X99143596Y-42392620D01*
X99093354Y-42257913D01*
X99093350Y-42257906D01*
X99007190Y-42142812D01*
X99007187Y-42142809D01*
X98892093Y-42056649D01*
X98892086Y-42056645D01*
X98757379Y-42006403D01*
X98757372Y-42006401D01*
X98697844Y-42000000D01*
X98300000Y-42000000D01*
X98300000Y-43350000D01*
X97800000Y-43350000D01*
X97800000Y-42000000D01*
X97402155Y-42000000D01*
X97342627Y-42006401D01*
X97342620Y-42006403D01*
X97207913Y-42056645D01*
X97207906Y-42056649D01*
X97092812Y-42142809D01*
X97092809Y-42142812D01*
X97006649Y-42257906D01*
X97006645Y-42257913D01*
X96956403Y-42392620D01*
X96956401Y-42392627D01*
X96950000Y-42452155D01*
X95317267Y-42452155D01*
X95303920Y-42449500D01*
X95303918Y-42449500D01*
X95156082Y-42449500D01*
X95156080Y-42449500D01*
X95011092Y-42478340D01*
X95011082Y-42478343D01*
X94874511Y-42534912D01*
X94874498Y-42534919D01*
X94751584Y-42617048D01*
X94751580Y-42617051D01*
X94647051Y-42721580D01*
X94647048Y-42721584D01*
X94564919Y-42844498D01*
X94564912Y-42844511D01*
X94508343Y-42981082D01*
X94508340Y-42981092D01*
X94479500Y-43126079D01*
X94479500Y-43126082D01*
X94479500Y-43273918D01*
X94479500Y-43273920D01*
X94479499Y-43273920D01*
X88000500Y-43273920D01*
X88000500Y-43273918D01*
X88000500Y-43126082D01*
X88000500Y-43126079D01*
X87971659Y-42981092D01*
X87971658Y-42981091D01*
X87971658Y-42981087D01*
X87945548Y-42918052D01*
X87915087Y-42844511D01*
X87915080Y-42844498D01*
X87832951Y-42721584D01*
X87832948Y-42721580D01*
X87728419Y-42617051D01*
X87728415Y-42617048D01*
X87605501Y-42534919D01*
X87605488Y-42534912D01*
X87468917Y-42478343D01*
X87468907Y-42478340D01*
X87323920Y-42449500D01*
X87323918Y-42449500D01*
X87176082Y-42449500D01*
X87176080Y-42449500D01*
X87031092Y-42478340D01*
X87031082Y-42478343D01*
X86894511Y-42534912D01*
X86894498Y-42534919D01*
X86771584Y-42617048D01*
X86771580Y-42617051D01*
X86667051Y-42721580D01*
X86667048Y-42721584D01*
X86584919Y-42844498D01*
X86584912Y-42844511D01*
X86528343Y-42981082D01*
X86528340Y-42981092D01*
X86499500Y-43126079D01*
X86499500Y-43126082D01*
X86499500Y-43273918D01*
X86499500Y-43273920D01*
X86499499Y-43273920D01*
X83650000Y-43273920D01*
X83650000Y-42452172D01*
X83649999Y-42452155D01*
X83643598Y-42392627D01*
X83643596Y-42392620D01*
X83593354Y-42257913D01*
X83593350Y-42257906D01*
X83507190Y-42142812D01*
X83507187Y-42142809D01*
X83392093Y-42056649D01*
X83392086Y-42056645D01*
X83257379Y-42006403D01*
X83257372Y-42006401D01*
X83197844Y-42000000D01*
X82800000Y-42000000D01*
X82800000Y-43350000D01*
X82300000Y-43350000D01*
X82300000Y-42000000D01*
X81902155Y-42000000D01*
X81842627Y-42006401D01*
X81842620Y-42006403D01*
X81707913Y-42056645D01*
X81707906Y-42056649D01*
X81592812Y-42142809D01*
X81592809Y-42142812D01*
X81506649Y-42257906D01*
X81506645Y-42257913D01*
X81456403Y-42392620D01*
X81456401Y-42392627D01*
X81450000Y-42452155D01*
X75300500Y-42452155D01*
X75300500Y-39154500D01*
X75320185Y-39087461D01*
X75372989Y-39041706D01*
X75424500Y-39030500D01*
X132775500Y-39030500D01*
X132842539Y-39050185D01*
G37*
%TD.AperFunction*%
%TA.AperFunction,Conductor*%
G36*
X129702705Y-98160486D02*
G01*
X129740478Y-98219265D01*
X129745500Y-98254197D01*
X129745500Y-100220500D01*
X129725815Y-100287539D01*
X129673011Y-100333294D01*
X129621500Y-100344500D01*
X128890000Y-100344500D01*
X128889998Y-100344500D01*
X128889975Y-100344501D01*
X128824384Y-100349746D01*
X128755989Y-100335468D01*
X128706170Y-100286479D01*
X128690500Y-100226141D01*
X128690500Y-99252768D01*
X128710185Y-99185729D01*
X128762989Y-99139974D01*
X128781566Y-99133222D01*
X128792236Y-99130283D01*
X128914566Y-99054540D01*
X129010601Y-98947401D01*
X129510601Y-98197401D01*
X129517186Y-98187154D01*
X129569991Y-98141402D01*
X129639150Y-98131460D01*
X129702705Y-98160486D01*
G37*
%TD.AperFunction*%
%TA.AperFunction,Conductor*%
G36*
X102301444Y-97743999D02*
G01*
X102340486Y-97789056D01*
X102344951Y-97797820D01*
X102469890Y-97969786D01*
X102620213Y-98120109D01*
X102792179Y-98245048D01*
X102792181Y-98245049D01*
X102792184Y-98245051D01*
X102801493Y-98249794D01*
X102852290Y-98297766D01*
X102869087Y-98365587D01*
X102846552Y-98431722D01*
X102801505Y-98470760D01*
X102792446Y-98475376D01*
X102792440Y-98475380D01*
X102738282Y-98514727D01*
X102738282Y-98514728D01*
X103370591Y-99147037D01*
X103307007Y-99164075D01*
X103192993Y-99229901D01*
X103099901Y-99322993D01*
X103034075Y-99437007D01*
X103017037Y-99500591D01*
X102384728Y-98868282D01*
X102384727Y-98868282D01*
X102345380Y-98922440D01*
X102340483Y-98932051D01*
X102292506Y-98982845D01*
X102224684Y-98999638D01*
X102158550Y-98977098D01*
X102119516Y-98932048D01*
X102114626Y-98922452D01*
X102075270Y-98868282D01*
X102075269Y-98868282D01*
X101442962Y-99500590D01*
X101425925Y-99437007D01*
X101360099Y-99322993D01*
X101267007Y-99229901D01*
X101152993Y-99164075D01*
X101089409Y-99147037D01*
X101721716Y-98514728D01*
X101667547Y-98475373D01*
X101667547Y-98475372D01*
X101658500Y-98470763D01*
X101607706Y-98422788D01*
X101590912Y-98354966D01*
X101613451Y-98288832D01*
X101658508Y-98249793D01*
X101667816Y-98245051D01*
X101784211Y-98160486D01*
X101839786Y-98120109D01*
X101839788Y-98120106D01*
X101839792Y-98120104D01*
X101990104Y-97969792D01*
X101990106Y-97969788D01*
X101990109Y-97969786D01*
X102115048Y-97797820D01*
X102115047Y-97797820D01*
X102115051Y-97797816D01*
X102119514Y-97789054D01*
X102167488Y-97738259D01*
X102235308Y-97721463D01*
X102301444Y-97743999D01*
G37*
%TD.AperFunction*%
%TA.AperFunction,Conductor*%
G36*
X128890000Y-95235500D02*
G01*
X129621500Y-95235500D01*
X129688539Y-95255185D01*
X129734294Y-95307989D01*
X129745500Y-95359500D01*
X129745500Y-97581073D01*
X129725815Y-97648112D01*
X129673011Y-97693867D01*
X129603853Y-97703811D01*
X129540297Y-97674786D01*
X129513732Y-97639918D01*
X129512791Y-97640453D01*
X129510602Y-97636600D01*
X129010602Y-96886600D01*
X128972031Y-96835968D01*
X128863295Y-96741747D01*
X128863294Y-96741746D01*
X128863290Y-96741744D01*
X128732419Y-96681976D01*
X128732414Y-96681975D01*
X128590000Y-96661500D01*
X128353869Y-96661500D01*
X128348842Y-96660500D01*
X128191158Y-96660500D01*
X128186131Y-96661500D01*
X127607500Y-96661500D01*
X127540461Y-96641815D01*
X127494706Y-96589011D01*
X127483500Y-96537500D01*
X127483500Y-95487097D01*
X127503185Y-95420058D01*
X127519819Y-95399416D01*
X127647416Y-95271819D01*
X127708739Y-95238334D01*
X127735097Y-95235500D01*
X128589984Y-95235500D01*
X128590000Y-95235500D01*
X128653522Y-95231493D01*
X128653526Y-95231492D01*
X128653527Y-95231492D01*
X128673755Y-95225919D01*
X128700104Y-95218660D01*
X128709729Y-95218053D01*
X128715389Y-95215469D01*
X128750679Y-95215469D01*
X128890000Y-95235500D01*
G37*
%TD.AperFunction*%
%TA.AperFunction,Conductor*%
G36*
X80034075Y-74422993D02*
G01*
X80099901Y-74537007D01*
X80192993Y-74630099D01*
X80307007Y-74695925D01*
X80370589Y-74712962D01*
X79738282Y-75345269D01*
X79738282Y-75345270D01*
X79792452Y-75384626D01*
X79792451Y-75384626D01*
X79801495Y-75389234D01*
X79852292Y-75437208D01*
X79869087Y-75505029D01*
X79846550Y-75571164D01*
X79801499Y-75610202D01*
X79792182Y-75614949D01*
X79620213Y-75739890D01*
X79469890Y-75890213D01*
X79344949Y-76062182D01*
X79340484Y-76070946D01*
X79292509Y-76121742D01*
X79224688Y-76138536D01*
X79158553Y-76115998D01*
X79119516Y-76070946D01*
X79115050Y-76062182D01*
X78990109Y-75890213D01*
X78839786Y-75739890D01*
X78667817Y-75614949D01*
X78658504Y-75610204D01*
X78607707Y-75562230D01*
X78590912Y-75494409D01*
X78613449Y-75428274D01*
X78658507Y-75389232D01*
X78667555Y-75384622D01*
X78721716Y-75345270D01*
X78721717Y-75345270D01*
X78089408Y-74712962D01*
X78152993Y-74695925D01*
X78267007Y-74630099D01*
X78360099Y-74537007D01*
X78425925Y-74422993D01*
X78442962Y-74359408D01*
X79075270Y-74991717D01*
X79075270Y-74991716D01*
X79114622Y-74937554D01*
X79119514Y-74927954D01*
X79167488Y-74877157D01*
X79235308Y-74860361D01*
X79301444Y-74882897D01*
X79340486Y-74927954D01*
X79345375Y-74937550D01*
X79384728Y-74991716D01*
X80017037Y-74359408D01*
X80034075Y-74422993D01*
G37*
%TD.AperFunction*%
%TA.AperFunction,Conductor*%
G36*
X103034075Y-74422993D02*
G01*
X103099901Y-74537007D01*
X103192993Y-74630099D01*
X103307007Y-74695925D01*
X103370590Y-74712962D01*
X102738282Y-75345269D01*
X102738282Y-75345270D01*
X102792452Y-75384626D01*
X102792451Y-75384626D01*
X102801495Y-75389234D01*
X102852292Y-75437208D01*
X102869087Y-75505029D01*
X102846550Y-75571164D01*
X102801499Y-75610202D01*
X102792182Y-75614949D01*
X102620213Y-75739890D01*
X102469890Y-75890213D01*
X102344949Y-76062182D01*
X102340484Y-76070946D01*
X102292509Y-76121742D01*
X102224688Y-76138536D01*
X102158553Y-76115998D01*
X102119516Y-76070946D01*
X102115050Y-76062182D01*
X101990109Y-75890213D01*
X101839786Y-75739890D01*
X101667820Y-75614951D01*
X101667115Y-75614591D01*
X101659054Y-75610485D01*
X101608259Y-75562512D01*
X101591463Y-75494692D01*
X101613999Y-75428556D01*
X101659054Y-75389515D01*
X101667816Y-75385051D01*
X101722572Y-75345269D01*
X101839786Y-75260109D01*
X101839788Y-75260106D01*
X101839792Y-75260104D01*
X101990104Y-75109792D01*
X101990106Y-75109788D01*
X101990109Y-75109786D01*
X102075890Y-74991717D01*
X102115051Y-74937816D01*
X102119793Y-74928508D01*
X102167763Y-74877711D01*
X102235583Y-74860911D01*
X102301719Y-74883445D01*
X102340763Y-74928500D01*
X102345373Y-74937547D01*
X102384728Y-74991716D01*
X103017037Y-74359408D01*
X103034075Y-74422993D01*
G37*
%TD.AperFunction*%
%TA.AperFunction,Conductor*%
G36*
X79301444Y-72343999D02*
G01*
X79340486Y-72389056D01*
X79344951Y-72397820D01*
X79469890Y-72569786D01*
X79620213Y-72720109D01*
X79792179Y-72845048D01*
X79792181Y-72845049D01*
X79792184Y-72845051D01*
X79801493Y-72849794D01*
X79852290Y-72897766D01*
X79869087Y-72965587D01*
X79846552Y-73031722D01*
X79801505Y-73070760D01*
X79792446Y-73075376D01*
X79792440Y-73075380D01*
X79738282Y-73114727D01*
X79738282Y-73114728D01*
X80370591Y-73747037D01*
X80307007Y-73764075D01*
X80192993Y-73829901D01*
X80099901Y-73922993D01*
X80034075Y-74037007D01*
X80017037Y-74100591D01*
X79384728Y-73468282D01*
X79384727Y-73468282D01*
X79345380Y-73522440D01*
X79340483Y-73532051D01*
X79292506Y-73582845D01*
X79224684Y-73599638D01*
X79158550Y-73577098D01*
X79119516Y-73532048D01*
X79114626Y-73522452D01*
X79075270Y-73468282D01*
X79075269Y-73468282D01*
X78442962Y-74100590D01*
X78425925Y-74037007D01*
X78360099Y-73922993D01*
X78267007Y-73829901D01*
X78152993Y-73764075D01*
X78089409Y-73747037D01*
X78721716Y-73114728D01*
X78667547Y-73075373D01*
X78667547Y-73075372D01*
X78658500Y-73070763D01*
X78607706Y-73022788D01*
X78590912Y-72954966D01*
X78613451Y-72888832D01*
X78658508Y-72849793D01*
X78667816Y-72845051D01*
X78747007Y-72787515D01*
X78839786Y-72720109D01*
X78839788Y-72720106D01*
X78839792Y-72720104D01*
X78990104Y-72569792D01*
X78990106Y-72569788D01*
X78990109Y-72569786D01*
X79115048Y-72397820D01*
X79115047Y-72397820D01*
X79115051Y-72397816D01*
X79119514Y-72389054D01*
X79167488Y-72338259D01*
X79235308Y-72321463D01*
X79301444Y-72343999D01*
G37*
%TD.AperFunction*%
%TA.AperFunction,Conductor*%
G36*
X102301444Y-72343999D02*
G01*
X102340486Y-72389056D01*
X102344951Y-72397820D01*
X102469890Y-72569786D01*
X102620213Y-72720109D01*
X102792179Y-72845048D01*
X102792181Y-72845049D01*
X102792184Y-72845051D01*
X102801493Y-72849794D01*
X102852290Y-72897766D01*
X102869087Y-72965587D01*
X102846552Y-73031722D01*
X102801505Y-73070760D01*
X102792446Y-73075376D01*
X102792440Y-73075380D01*
X102738282Y-73114727D01*
X102738282Y-73114728D01*
X103370591Y-73747037D01*
X103307007Y-73764075D01*
X103192993Y-73829901D01*
X103099901Y-73922993D01*
X103034075Y-74037007D01*
X103017037Y-74100591D01*
X102384728Y-73468282D01*
X102384727Y-73468282D01*
X102345380Y-73522440D01*
X102345376Y-73522446D01*
X102340760Y-73531505D01*
X102292781Y-73582297D01*
X102224959Y-73599087D01*
X102158826Y-73576543D01*
X102119794Y-73531493D01*
X102115051Y-73522184D01*
X102115049Y-73522181D01*
X102115048Y-73522179D01*
X101990109Y-73350213D01*
X101839786Y-73199890D01*
X101667820Y-73074951D01*
X101659600Y-73070763D01*
X101659054Y-73070485D01*
X101608259Y-73022512D01*
X101591463Y-72954692D01*
X101613999Y-72888556D01*
X101659054Y-72849515D01*
X101667816Y-72845051D01*
X101703462Y-72819153D01*
X101839786Y-72720109D01*
X101839788Y-72720106D01*
X101839792Y-72720104D01*
X101990104Y-72569792D01*
X101990106Y-72569788D01*
X101990109Y-72569786D01*
X102115048Y-72397820D01*
X102115047Y-72397820D01*
X102115051Y-72397816D01*
X102119514Y-72389054D01*
X102167488Y-72338259D01*
X102235308Y-72321463D01*
X102301444Y-72343999D01*
G37*
%TD.AperFunction*%
%TA.AperFunction,Conductor*%
G36*
X102075270Y-69911717D02*
G01*
X102075270Y-69911716D01*
X102114622Y-69857555D01*
X102119232Y-69848507D01*
X102167205Y-69797709D01*
X102235025Y-69780912D01*
X102301161Y-69803447D01*
X102340204Y-69848504D01*
X102344949Y-69857817D01*
X102469890Y-70029786D01*
X102620213Y-70180109D01*
X102792182Y-70305050D01*
X102800946Y-70309516D01*
X102851742Y-70357491D01*
X102868536Y-70425312D01*
X102845998Y-70491447D01*
X102800946Y-70530484D01*
X102792182Y-70534949D01*
X102620213Y-70659890D01*
X102469890Y-70810213D01*
X102344949Y-70982182D01*
X102340484Y-70990946D01*
X102292509Y-71041742D01*
X102224688Y-71058536D01*
X102158553Y-71035998D01*
X102119516Y-70990946D01*
X102115050Y-70982182D01*
X101990109Y-70810213D01*
X101839786Y-70659890D01*
X101667817Y-70534949D01*
X101658504Y-70530204D01*
X101607707Y-70482230D01*
X101590912Y-70414409D01*
X101613449Y-70348274D01*
X101658507Y-70309232D01*
X101667555Y-70304622D01*
X101721716Y-70265270D01*
X101721717Y-70265270D01*
X101089408Y-69632962D01*
X101152993Y-69615925D01*
X101267007Y-69550099D01*
X101360099Y-69457007D01*
X101425925Y-69342993D01*
X101442962Y-69279408D01*
X102075270Y-69911717D01*
G37*
%TD.AperFunction*%
%TA.AperFunction,Conductor*%
G36*
X102301444Y-67263999D02*
G01*
X102340486Y-67309056D01*
X102344951Y-67317820D01*
X102469890Y-67489786D01*
X102620213Y-67640109D01*
X102792182Y-67765050D01*
X102800946Y-67769516D01*
X102851742Y-67817491D01*
X102868536Y-67885312D01*
X102845998Y-67951447D01*
X102800946Y-67990484D01*
X102792182Y-67994949D01*
X102620213Y-68119890D01*
X102469890Y-68270213D01*
X102344949Y-68442182D01*
X102340202Y-68451499D01*
X102292227Y-68502293D01*
X102224405Y-68519087D01*
X102158271Y-68496548D01*
X102119234Y-68451495D01*
X102114626Y-68442452D01*
X102075270Y-68388282D01*
X102075269Y-68388282D01*
X101442962Y-69020590D01*
X101425925Y-68957007D01*
X101360099Y-68842993D01*
X101267007Y-68749901D01*
X101152993Y-68684075D01*
X101089409Y-68667037D01*
X101721716Y-68034728D01*
X101667547Y-67995373D01*
X101667547Y-67995372D01*
X101658500Y-67990763D01*
X101607706Y-67942788D01*
X101590912Y-67874966D01*
X101613451Y-67808832D01*
X101658508Y-67769793D01*
X101667816Y-67765051D01*
X101747007Y-67707515D01*
X101839786Y-67640109D01*
X101839788Y-67640106D01*
X101839792Y-67640104D01*
X101990104Y-67489792D01*
X101990106Y-67489788D01*
X101990109Y-67489786D01*
X102115048Y-67317820D01*
X102115047Y-67317820D01*
X102115051Y-67317816D01*
X102119514Y-67309054D01*
X102167488Y-67258259D01*
X102235308Y-67241463D01*
X102301444Y-67263999D01*
G37*
%TD.AperFunction*%
%TA.AperFunction,Conductor*%
G36*
X102075270Y-62291717D02*
G01*
X102075270Y-62291716D01*
X102114622Y-62237555D01*
X102119232Y-62228507D01*
X102167205Y-62177709D01*
X102235025Y-62160912D01*
X102301161Y-62183447D01*
X102340204Y-62228504D01*
X102344949Y-62237817D01*
X102469890Y-62409786D01*
X102620213Y-62560109D01*
X102792182Y-62685050D01*
X102800946Y-62689516D01*
X102851742Y-62737491D01*
X102868536Y-62805312D01*
X102845998Y-62871447D01*
X102800946Y-62910484D01*
X102792182Y-62914949D01*
X102620213Y-63039890D01*
X102469890Y-63190213D01*
X102344949Y-63362182D01*
X102340484Y-63370946D01*
X102292509Y-63421742D01*
X102224688Y-63438536D01*
X102158553Y-63415998D01*
X102119516Y-63370946D01*
X102115050Y-63362182D01*
X101990109Y-63190213D01*
X101839786Y-63039890D01*
X101667817Y-62914949D01*
X101658504Y-62910204D01*
X101607707Y-62862230D01*
X101590912Y-62794409D01*
X101613449Y-62728274D01*
X101658507Y-62689232D01*
X101667555Y-62684622D01*
X101721716Y-62645270D01*
X101721717Y-62645270D01*
X101089408Y-62012962D01*
X101152993Y-61995925D01*
X101267007Y-61930099D01*
X101360099Y-61837007D01*
X101425925Y-61722993D01*
X101442962Y-61659408D01*
X102075270Y-62291717D01*
G37*
%TD.AperFunction*%
%TA.AperFunction,Conductor*%
G36*
X102301444Y-59643999D02*
G01*
X102340484Y-59689054D01*
X102344591Y-59697115D01*
X102344951Y-59697820D01*
X102469890Y-59869786D01*
X102620213Y-60020109D01*
X102792182Y-60145050D01*
X102800946Y-60149516D01*
X102851742Y-60197491D01*
X102868536Y-60265312D01*
X102845998Y-60331447D01*
X102800946Y-60370484D01*
X102792182Y-60374949D01*
X102620213Y-60499890D01*
X102469890Y-60650213D01*
X102344949Y-60822182D01*
X102340202Y-60831499D01*
X102292227Y-60882293D01*
X102224405Y-60899087D01*
X102158271Y-60876548D01*
X102119234Y-60831495D01*
X102114626Y-60822452D01*
X102075270Y-60768282D01*
X102075269Y-60768282D01*
X101442962Y-61400590D01*
X101425925Y-61337007D01*
X101360099Y-61222993D01*
X101267007Y-61129901D01*
X101152993Y-61064075D01*
X101089409Y-61047037D01*
X101721716Y-60414728D01*
X101667547Y-60375373D01*
X101667547Y-60375372D01*
X101658500Y-60370763D01*
X101607706Y-60322788D01*
X101590912Y-60254966D01*
X101613451Y-60188832D01*
X101658508Y-60149793D01*
X101667816Y-60145051D01*
X101776043Y-60066420D01*
X101839786Y-60020109D01*
X101839788Y-60020106D01*
X101839792Y-60020104D01*
X101990104Y-59869792D01*
X101990106Y-59869788D01*
X101990109Y-59869786D01*
X102115048Y-59697820D01*
X102115047Y-59697820D01*
X102115051Y-59697816D01*
X102119514Y-59689054D01*
X102167488Y-59638259D01*
X102235308Y-59621463D01*
X102301444Y-59643999D01*
G37*
%TD.AperFunction*%
%TA.AperFunction,Conductor*%
G36*
X102075270Y-57211717D02*
G01*
X102075270Y-57211716D01*
X102114622Y-57157555D01*
X102119232Y-57148507D01*
X102167205Y-57097709D01*
X102235025Y-57080912D01*
X102301161Y-57103447D01*
X102340204Y-57148504D01*
X102344949Y-57157817D01*
X102469890Y-57329786D01*
X102620213Y-57480109D01*
X102792182Y-57605050D01*
X102800946Y-57609516D01*
X102851742Y-57657491D01*
X102868536Y-57725312D01*
X102845998Y-57791447D01*
X102800946Y-57830484D01*
X102792182Y-57834949D01*
X102620213Y-57959890D01*
X102469890Y-58110213D01*
X102344949Y-58282182D01*
X102340484Y-58290946D01*
X102292509Y-58341742D01*
X102224688Y-58358536D01*
X102158553Y-58335998D01*
X102119516Y-58290946D01*
X102115050Y-58282182D01*
X101990109Y-58110213D01*
X101839786Y-57959890D01*
X101667817Y-57834949D01*
X101658504Y-57830204D01*
X101607707Y-57782230D01*
X101590912Y-57714409D01*
X101613449Y-57648274D01*
X101658507Y-57609232D01*
X101667555Y-57604622D01*
X101721716Y-57565270D01*
X101721717Y-57565270D01*
X101089408Y-56932962D01*
X101152993Y-56915925D01*
X101267007Y-56850099D01*
X101360099Y-56757007D01*
X101425925Y-56642993D01*
X101442962Y-56579408D01*
X102075270Y-57211717D01*
G37*
%TD.AperFunction*%
%TA.AperFunction,Conductor*%
G36*
X102301444Y-54563999D02*
G01*
X102340486Y-54609056D01*
X102344951Y-54617820D01*
X102469890Y-54789786D01*
X102620213Y-54940109D01*
X102792182Y-55065050D01*
X102800946Y-55069516D01*
X102851742Y-55117491D01*
X102868536Y-55185312D01*
X102845998Y-55251447D01*
X102800946Y-55290484D01*
X102792182Y-55294949D01*
X102620213Y-55419890D01*
X102469890Y-55570213D01*
X102344949Y-55742182D01*
X102340202Y-55751499D01*
X102292227Y-55802293D01*
X102224405Y-55819087D01*
X102158271Y-55796548D01*
X102119234Y-55751495D01*
X102114626Y-55742452D01*
X102075270Y-55688282D01*
X102075269Y-55688282D01*
X101442962Y-56320590D01*
X101425925Y-56257007D01*
X101360099Y-56142993D01*
X101267007Y-56049901D01*
X101152993Y-55984075D01*
X101089408Y-55967037D01*
X101721716Y-55334728D01*
X101667547Y-55295373D01*
X101667547Y-55295372D01*
X101658500Y-55290763D01*
X101607706Y-55242788D01*
X101590912Y-55174966D01*
X101613451Y-55108832D01*
X101658508Y-55069793D01*
X101667816Y-55065051D01*
X101755338Y-55001463D01*
X101839786Y-54940109D01*
X101839788Y-54940106D01*
X101839792Y-54940104D01*
X101990104Y-54789792D01*
X101990106Y-54789788D01*
X101990109Y-54789786D01*
X102100907Y-54637284D01*
X102115051Y-54617816D01*
X102119514Y-54609054D01*
X102167488Y-54558259D01*
X102235308Y-54541463D01*
X102301444Y-54563999D01*
G37*
%TD.AperFunction*%
%TD*%
M02*
