M48
; DRILL file {KiCad 9.0.6-1.fc43} date 2026-03-30T07:03:18+0100
; FORMAT={-:-/ absolute / inch / decimal}
; #@! TF.CreationDate,2026-03-30T07:03:18+01:00
; #@! TF.GenerationSoftware,Kicad,Pcbnew,9.0.6-1.fc43
; #@! TF.FileFunction,Plated,1,2,PTH
FMAT,2
INCH
; #@! TA.AperFunction,Plated,PTH,ViaDrill
T1C0.0118
; #@! TA.AperFunction,Plated,PTH,ComponentDrill
T2C0.0394
; #@! TA.AperFunction,Plated,PTH,ComponentDrill
T3C0.0433
%
G90
G05
T1
X3.125Y-1.95
X3.125Y-2.575
X3.155Y-5.205
X3.225Y-2.575
X3.25Y-1.65
X3.255Y-2.765
X3.265Y-3.96
X3.265Y-5.215
X3.275Y-3.12
X3.275Y-3.405
X3.28Y-2.825
X3.325Y-2.5
X3.325Y-2.5988
X3.36Y-5.37
X3.375Y-2.045
X3.375Y-2.13
X3.375Y-3.365
X3.3764Y-2.4441
X3.39Y-2.325
X3.4236Y-3.2644
X3.445Y-4.225
X3.4686Y-3.53
X3.5Y-2.295
X3.5236Y-5.235
X3.525Y-2.6
X3.525Y-2.7
X3.55Y-2.725
X3.55Y-6.45
X3.5736Y-2.4
X3.59Y-2.575
X3.5984Y-2.0
X3.6Y-1.9
X3.6Y-2.375
X3.625Y-3.0224
X3.645Y-3.18
X3.65Y-2.3435
X3.65Y-2.375
X3.65Y-6.45
X3.665Y-2.5514
X3.675Y-2.0
X3.68Y-4.11
X3.695Y-4.385
X3.71Y-2.17
X3.7119Y-2.24
X3.725Y-1.95
X3.765Y-6.45
X3.775Y-2.6
X3.79Y-2.3007
X3.85Y-1.65
X3.85Y-2.025
X3.85Y-2.425
X3.85Y-2.725
X3.85Y-2.925
X3.855Y-3.375
X3.863Y-3.415
X3.865Y-6.445
X3.89Y-2.215
X3.9324Y-3.98
X3.96Y-6.445
X3.9797Y-4.125
X4.0Y-6.4
X4.05Y-6.375
X4.075Y-1.9
X4.09Y-5.33
X4.115Y-5.27
X4.145Y-2.11
X4.15Y-3.775
X4.15Y-5.265
X4.175Y-3.1988
X4.175Y-3.925
X4.215Y-2.04
X4.235Y-2.12
X4.265Y-2.87
X4.275Y-2.2007
X4.29Y-6.46
X4.325Y-2.625
X4.3764Y-5.395
X4.4Y-6.4
X4.43Y-6.455
X4.45Y-2.225
X4.46Y-6.42
X4.48Y-2.33
X4.55Y-2.3988
X4.56Y-6.43
X4.565Y-3.395
X4.585Y-2.44
X4.61Y-2.19
X4.63Y-2.705
X4.66Y-6.46
X4.663Y-3.26
X4.67Y-2.46
X4.675Y-2.4
X4.75Y-3.225
X4.775Y-6.35
X4.78Y-6.43
X4.8Y-3.025
X4.856Y-3.225
X4.9Y-3.375
X4.925Y-3.225
X4.925Y-3.8
X4.95Y-2.4
X4.955Y-6.415
X4.96Y-2.18
X4.97Y-3.595
X4.9718Y-3.825
X4.98Y-4.365
X4.985Y-4.255
X5.019Y-3.925
X5.05Y-2.45
X5.05Y-3.837
X5.1Y-3.375
X5.1Y-3.775
X5.1Y-3.925
X5.125Y-6.35
X5.175Y-3.925
X5.2Y-3.775
T2
X3.0693Y-2.0224
X3.0693Y-2.1224
X3.0693Y-2.2224
X3.0693Y-2.3224
X3.0693Y-2.4224
X3.0693Y-2.5224
X3.0693Y-2.6224
X3.0693Y-2.7224
X3.0693Y-2.8224
X3.0693Y-2.9224
X3.0693Y-3.0224
X3.0693Y-3.1224
X3.0693Y-3.2224
X3.0693Y-3.3224
X3.0693Y-3.4224
X3.0693Y-3.5224
X3.0693Y-3.6224
X3.0693Y-3.7224
X3.0693Y-3.8224
X3.0693Y-3.9224
X3.1693Y-2.0224
X3.1693Y-2.1224
X3.1693Y-2.2224
X3.1693Y-2.3224
X3.1693Y-2.4224
X3.1693Y-2.5224
X3.1693Y-2.6224
X3.1693Y-2.7224
X3.1693Y-2.8224
X3.1693Y-2.9224
X3.1693Y-3.0224
X3.1693Y-3.1224
X3.1693Y-3.2224
X3.1693Y-3.3224
X3.1693Y-3.4224
X3.1693Y-3.5224
X3.1693Y-3.6224
X3.1693Y-3.7224
X3.1693Y-3.8224
X3.1693Y-3.9224
X3.9748Y-2.0224
X3.9748Y-2.1224
X3.9748Y-2.2224
X3.9748Y-2.3224
X3.9748Y-2.4224
X3.9748Y-2.5224
X3.9748Y-2.6224
X3.9748Y-2.7224
X3.9748Y-2.8224
X3.9748Y-2.9224
X3.9748Y-3.0224
X3.9748Y-3.1224
X3.9748Y-3.2224
X3.9748Y-3.3224
X3.9748Y-3.4224
X3.9748Y-3.5224
X3.9748Y-3.6224
X3.9748Y-3.7224
X3.9748Y-3.8224
X3.9748Y-3.9224
X4.0748Y-2.0224
X4.0748Y-2.1224
X4.0748Y-2.2224
X4.0748Y-2.3224
X4.0748Y-2.4224
X4.0748Y-2.5224
X4.0748Y-2.6224
X4.0748Y-2.7224
X4.0748Y-2.8224
X4.0748Y-2.9224
X4.0748Y-3.0224
X4.0748Y-3.1224
X4.0748Y-3.2224
X4.0748Y-3.3224
X4.0748Y-3.4224
X4.0748Y-3.5224
X4.0748Y-3.6224
X4.0748Y-3.7224
X4.0748Y-3.8224
X4.0748Y-3.9224
X4.5559Y-2.2835
X4.6559Y-2.2835
X4.7559Y-2.2835
X4.8559Y-2.2835
T3
X4.2756Y-1.685
X4.2756Y-1.9409
X4.4528Y-1.685
X4.4528Y-1.9409
X4.6122Y-1.685
X4.6122Y-1.9409
X4.7894Y-1.685
X4.7894Y-1.9409
X4.9488Y-1.685
X4.9488Y-1.9409
X5.126Y-1.685
X5.126Y-1.9409
M30
