M48
; DRILL file KiCad 10.0.0-1.fc43 date 2026-04-23T20:01:41
; FORMAT={-:-/ absolute / metric / decimal}
; #@! TF.CreationDate,2026-04-23T20:01:41+01:00
; #@! TF.GenerationSoftware,Kicad,Pcbnew,10.0.0-1.fc43
; #@! TF.FileFunction,Plated,1,2,PTH
FMAT,2
METRIC
; #@! TA.AperFunction,Plated,PTH,ComponentDrill
T1C0.800
%
G90
G05
T1
X81.81Y-52.694
X81.81Y-56.504
X81.993Y-79.364
X81.993Y-83.174
X84.35Y-52.694
X84.35Y-56.504
X84.533Y-79.364
X84.533Y-83.174
X86.89Y-52.694
X86.89Y-56.504
X87.073Y-79.364
X87.073Y-83.174
X89.43Y-52.694
X89.43Y-56.504
X89.613Y-79.364
X89.613Y-83.174
X91.97Y-52.694
X91.97Y-56.504
X92.153Y-79.364
X92.153Y-83.174
X94.51Y-52.694
X94.51Y-56.504
X94.693Y-79.364
X94.693Y-83.174
X97.05Y-52.694
X97.05Y-56.504
X97.233Y-79.364
X97.233Y-83.174
X99.59Y-52.694
X99.59Y-56.504
X99.773Y-79.364
X99.773Y-83.174
X102.13Y-52.694
X102.13Y-56.504
X102.313Y-79.364
X102.313Y-83.174
X104.67Y-52.694
X104.67Y-56.504
X104.853Y-79.364
X104.853Y-83.174
X107.21Y-52.694
X107.21Y-56.504
X107.393Y-79.364
X107.393Y-83.174
X109.75Y-52.694
X109.75Y-56.504
X109.933Y-79.364
X109.933Y-83.174
X112.29Y-52.694
X112.29Y-56.504
X112.473Y-79.364
X112.473Y-83.174
X114.83Y-52.694
X114.83Y-56.504
X115.013Y-79.364
X115.013Y-83.174
X117.37Y-52.694
X117.37Y-56.504
X117.553Y-79.364
X117.553Y-83.174
X119.91Y-52.694
X119.91Y-56.504
X120.093Y-79.364
X120.093Y-83.174
X122.45Y-52.694
X122.45Y-56.504
X122.633Y-79.364
X122.633Y-83.174
M30
