%TF.GenerationSoftware,KiCad,Pcbnew,10.0.0-1.fc43*%
%TF.CreationDate,2026-04-23T20:01:43+01:00*%
%TF.ProjectId,doublke_cartridge_adapter,646f7562-6c6b-4655-9f63-617274726964,rev?*%
%TF.SameCoordinates,Original*%
%TF.FileFunction,Copper,L2,Bot*%
%TF.FilePolarity,Positive*%
%FSLAX46Y46*%
G04 Gerber Fmt 4.6, Leading zero omitted, Abs format (unit mm)*
G04 Created by KiCad (PCBNEW 10.0.0-1.fc43) date 2026-04-23 20:01:43*
%MOMM*%
%LPD*%
G01*
G04 APERTURE LIST*
G04 Aperture macros list*
%AMRoundRect*
0 Rectangle with rounded corners*
0 $1 Rounding radius*
0 $2 $3 $4 $5 $6 $7 $8 $9 X,Y pos of 4 corners*
0 Add a 4 corners polygon primitive as box body*
4,1,4,$2,$3,$4,$5,$6,$7,$8,$9,$2,$3,0*
0 Add four circle primitives for the rounded corners*
1,1,$1+$1,$2,$3*
1,1,$1+$1,$4,$5*
1,1,$1+$1,$6,$7*
1,1,$1+$1,$8,$9*
0 Add four rect primitives between the rounded corners*
20,1,$1+$1,$2,$3,$4,$5,0*
20,1,$1+$1,$4,$5,$6,$7,0*
20,1,$1+$1,$6,$7,$8,$9,0*
20,1,$1+$1,$8,$9,$2,$3,0*%
G04 Aperture macros list end*
%TA.AperFunction,ComponentPad*%
%ADD10RoundRect,0.190500X-0.444500X1.079500X-0.444500X-1.079500X0.444500X-1.079500X0.444500X1.079500X0*%
%TD*%
%TA.AperFunction,ConnectorPad*%
%ADD11RoundRect,0.300000X-0.700000X5.200000X-0.700000X-5.200000X0.700000X-5.200000X0.700000X5.200000X0*%
%TD*%
%TA.AperFunction,ConnectorPad*%
%ADD12RoundRect,0.300000X-0.700000X4.700000X-0.700000X-4.700000X0.700000X-4.700000X0.700000X4.700000X0*%
%TD*%
%TA.AperFunction,Conductor*%
%ADD13C,0.400000*%
%TD*%
G04 APERTURE END LIST*
D10*
%TO.P,J4,34,Pin_34_34*%
%TO.N,P18*%
X81993000Y-79364000D03*
%TO.P,J4,33,Pin_33_33*%
%TO.N,P17*%
X81993000Y-83174000D03*
%TO.P,J4,32,Pin_32_32*%
%TO.N,P19*%
X84533000Y-79364000D03*
%TO.P,J4,31,Pin_31_31*%
%TO.N,P16*%
X84533000Y-83174000D03*
%TO.P,J4,30,Pin_30_30*%
%TO.N,P20*%
X87073000Y-79364000D03*
%TO.P,J4,29,Pin_29_29*%
%TO.N,P15*%
X87073000Y-83174000D03*
%TO.P,J4,28,Pin_28_28*%
%TO.N,P21*%
X89613000Y-79364000D03*
%TO.P,J4,27,Pin_27_27*%
%TO.N,P14*%
X89613000Y-83174000D03*
%TO.P,J4,26,Pin_26_26*%
%TO.N,P22*%
X92153000Y-79364000D03*
%TO.P,J4,25,Pin_25_25*%
%TO.N,P13*%
X92153000Y-83174000D03*
%TO.P,J4,24,Pin_24_24*%
%TO.N,P23*%
X94693000Y-79364000D03*
%TO.P,J4,23,Pin_23_23*%
%TO.N,P12*%
X94693000Y-83174000D03*
%TO.P,J4,22,Pin_22_22*%
%TO.N,P24*%
X97233000Y-79364000D03*
%TO.P,J4,21,Pin_21_21*%
%TO.N,P11*%
X97233000Y-83174000D03*
%TO.P,J4,20,Pin_20_20*%
%TO.N,P25*%
X99773000Y-79364000D03*
%TO.P,J4,19,Pin_19_19*%
%TO.N,P10*%
X99773000Y-83174000D03*
%TO.P,J4,18,Pin_18_18*%
%TO.N,P26*%
X102313000Y-79364000D03*
%TO.P,J4,17,Pin_17_17*%
%TO.N,P9*%
X102313000Y-83174000D03*
%TO.P,J4,16,Pin_16_16*%
%TO.N,P27*%
X104853000Y-79364000D03*
%TO.P,J4,15,Pin_15_15*%
%TO.N,P8*%
X104853000Y-83174000D03*
%TO.P,J4,14,Pin_14_14*%
%TO.N,P28*%
X107393000Y-79364000D03*
%TO.P,J4,13,Pin_13_13*%
%TO.N,P7*%
X107393000Y-83174000D03*
%TO.P,J4,12,Pin_12_12*%
%TO.N,P29*%
X109933000Y-79364000D03*
%TO.P,J4,11,Pin_11_11*%
%TO.N,P6*%
X109933000Y-83174000D03*
%TO.P,J4,10,Pin_10_10*%
%TO.N,P30*%
X112473000Y-79364000D03*
%TO.P,J4,9,Pin_9_9*%
%TO.N,P5*%
X112473000Y-83174000D03*
%TO.P,J4,8,Pin_8_8*%
%TO.N,P31*%
X115013000Y-79364000D03*
%TO.P,J4,7,Pin_7_7*%
%TO.N,P4*%
X115013000Y-83174000D03*
%TO.P,J4,6,Pin_6_6*%
%TO.N,P32*%
X117553000Y-79364000D03*
%TO.P,J4,5,Pin_5_5*%
%TO.N,P3*%
X117553000Y-83174000D03*
%TO.P,J4,4,Pin_4_4*%
%TO.N,P33*%
X120093000Y-79364000D03*
%TO.P,J4,3,Pin_3_3*%
%TO.N,P2*%
X120093000Y-83174000D03*
%TO.P,J4,2,Pin_2_2*%
%TO.N,P34*%
X122633000Y-79364000D03*
%TO.P,J4,1,Pin_1_1*%
%TO.N,P1*%
X122633000Y-83174000D03*
%TD*%
%TO.P,J3,34,Pin_34_34*%
%TO.N,P18*%
X81810000Y-52694000D03*
%TO.P,J3,33,Pin_33_33*%
%TO.N,P17*%
X81810000Y-56504000D03*
%TO.P,J3,32,Pin_32_32*%
%TO.N,P19*%
X84350000Y-52694000D03*
%TO.P,J3,31,Pin_31_31*%
%TO.N,P16*%
X84350000Y-56504000D03*
%TO.P,J3,30,Pin_30_30*%
%TO.N,P20*%
X86890000Y-52694000D03*
%TO.P,J3,29,Pin_29_29*%
%TO.N,P15*%
X86890000Y-56504000D03*
%TO.P,J3,28,Pin_28_28*%
%TO.N,P21*%
X89430000Y-52694000D03*
%TO.P,J3,27,Pin_27_27*%
%TO.N,P14*%
X89430000Y-56504000D03*
%TO.P,J3,26,Pin_26_26*%
%TO.N,P22*%
X91970000Y-52694000D03*
%TO.P,J3,25,Pin_25_25*%
%TO.N,P13*%
X91970000Y-56504000D03*
%TO.P,J3,24,Pin_24_24*%
%TO.N,P23*%
X94510000Y-52694000D03*
%TO.P,J3,23,Pin_23_23*%
%TO.N,P12*%
X94510000Y-56504000D03*
%TO.P,J3,22,Pin_22_22*%
%TO.N,P24*%
X97050000Y-52694000D03*
%TO.P,J3,21,Pin_21_21*%
%TO.N,P11*%
X97050000Y-56504000D03*
%TO.P,J3,20,Pin_20_20*%
%TO.N,P25*%
X99590000Y-52694000D03*
%TO.P,J3,19,Pin_19_19*%
%TO.N,P10*%
X99590000Y-56504000D03*
%TO.P,J3,18,Pin_18_18*%
%TO.N,P26*%
X102130000Y-52694000D03*
%TO.P,J3,17,Pin_17_17*%
%TO.N,P9*%
X102130000Y-56504000D03*
%TO.P,J3,16,Pin_16_16*%
%TO.N,P27*%
X104670000Y-52694000D03*
%TO.P,J3,15,Pin_15_15*%
%TO.N,P8*%
X104670000Y-56504000D03*
%TO.P,J3,14,Pin_14_14*%
%TO.N,P28*%
X107210000Y-52694000D03*
%TO.P,J3,13,Pin_13_13*%
%TO.N,P7*%
X107210000Y-56504000D03*
%TO.P,J3,12,Pin_12_12*%
%TO.N,P29*%
X109750000Y-52694000D03*
%TO.P,J3,11,Pin_11_11*%
%TO.N,P6*%
X109750000Y-56504000D03*
%TO.P,J3,10,Pin_10_10*%
%TO.N,P30*%
X112290000Y-52694000D03*
%TO.P,J3,9,Pin_9_9*%
%TO.N,P5*%
X112290000Y-56504000D03*
%TO.P,J3,8,Pin_8_8*%
%TO.N,P31*%
X114830000Y-52694000D03*
%TO.P,J3,7,Pin_7_7*%
%TO.N,P4*%
X114830000Y-56504000D03*
%TO.P,J3,6,Pin_6_6*%
%TO.N,P32*%
X117370000Y-52694000D03*
%TO.P,J3,5,Pin_5_5*%
%TO.N,P3*%
X117370000Y-56504000D03*
%TO.P,J3,4,Pin_4_4*%
%TO.N,P33*%
X119910000Y-52694000D03*
%TO.P,J3,3,Pin_3_3*%
%TO.N,P2*%
X119910000Y-56504000D03*
%TO.P,J3,2,Pin_2_2*%
%TO.N,P34*%
X122450000Y-52694000D03*
%TO.P,J3,1,Pin_1_1*%
%TO.N,P1*%
X122450000Y-56504000D03*
%TD*%
D11*
%TO.P,J2,2,Pin_2_2*%
%TO.N,P34*%
X122682000Y-169206000D03*
%TO.P,J2,4,Pin_4_4*%
%TO.N,P33*%
X120142000Y-169206000D03*
D12*
%TO.P,J2,6,Pin_6_6*%
%TO.N,P32*%
X117602000Y-168706000D03*
%TO.P,J2,8,Pin_8_8*%
%TO.N,P31*%
X115062000Y-168706000D03*
%TO.P,J2,10,Pin_10_10*%
%TO.N,P30*%
X112522000Y-168706000D03*
%TO.P,J2,12,Pin_12_12*%
%TO.N,P29*%
X109982000Y-168706000D03*
%TO.P,J2,14,Pin_14_14*%
%TO.N,P28*%
X107442000Y-168706000D03*
%TO.P,J2,16,Pin_16_16*%
%TO.N,P27*%
X104902000Y-168706000D03*
%TO.P,J2,18,Pin_18_18*%
%TO.N,P26*%
X102362000Y-168706000D03*
%TO.P,J2,20,Pin_20_20*%
%TO.N,P25*%
X99822000Y-168706000D03*
%TO.P,J2,22,Pin_22_22*%
%TO.N,P24*%
X97282000Y-168706000D03*
%TO.P,J2,24,Pin_24_24*%
%TO.N,P23*%
X94742000Y-168706000D03*
%TO.P,J2,26,Pin_26_26*%
%TO.N,P22*%
X92202000Y-168706000D03*
%TO.P,J2,28,Pin_28_28*%
%TO.N,P21*%
X89662000Y-168706000D03*
%TO.P,J2,30,Pin_30_30*%
%TO.N,P20*%
X87122000Y-168706000D03*
D11*
%TO.P,J2,32,Pin_32_32*%
%TO.N,P19*%
X84582000Y-169206000D03*
%TO.P,J2,34,Pin_34_34*%
%TO.N,P18*%
X82042000Y-169206000D03*
%TD*%
%TO.N,P34*%
D13*
X122633000Y-79364000D02*
X121412000Y-78143000D01*
X121412000Y-78143000D02*
X121412000Y-53732000D01*
X121412000Y-53732000D02*
X122450000Y-52694000D01*
%TO.N,P33*%
X120093000Y-79364000D02*
X118875000Y-78146000D01*
X118875000Y-78146000D02*
X118875000Y-53729000D01*
X118875000Y-53729000D02*
X119910000Y-52694000D01*
%TO.N,P32*%
X117553000Y-79364000D02*
X116335000Y-78146000D01*
X116335000Y-78146000D02*
X116335000Y-53729000D01*
X116335000Y-53729000D02*
X117370000Y-52694000D01*
%TO.N,P31*%
X115013000Y-79364000D02*
X113795000Y-78146000D01*
X113795000Y-78146000D02*
X113795000Y-53729000D01*
X113795000Y-53729000D02*
X114830000Y-52694000D01*
%TO.N,P30*%
X112473000Y-79364000D02*
X111255000Y-78146000D01*
X111255000Y-78146000D02*
X111255000Y-53729000D01*
X111255000Y-53729000D02*
X112290000Y-52694000D01*
%TO.N,P29*%
X109933000Y-79364000D02*
X108245000Y-77676000D01*
X108245000Y-77676000D02*
X108245000Y-54199000D01*
X108245000Y-54199000D02*
X109750000Y-52694000D01*
%TO.N,P28*%
X107393000Y-79364000D02*
X106175000Y-78146000D01*
X106175000Y-78146000D02*
X106175000Y-53729000D01*
X106175000Y-53729000D02*
X107210000Y-52694000D01*
%TO.N,P27*%
X104853000Y-79364000D02*
X103165000Y-77676000D01*
X103165000Y-77676000D02*
X103165000Y-54199000D01*
X103165000Y-54199000D02*
X104670000Y-52694000D01*
%TO.N,P26*%
X102313000Y-79364000D02*
X101095000Y-78146000D01*
X101095000Y-78146000D02*
X101095000Y-53729000D01*
X101095000Y-53729000D02*
X102130000Y-52694000D01*
%TO.N,P25*%
X99773000Y-79364000D02*
X98555000Y-78146000D01*
X98555000Y-78146000D02*
X98555000Y-53729000D01*
X98555000Y-53729000D02*
X99590000Y-52694000D01*
%TO.N,P24*%
X97233000Y-79364000D02*
X96015000Y-78146000D01*
X96015000Y-78146000D02*
X96015000Y-53729000D01*
X96015000Y-53729000D02*
X97050000Y-52694000D01*
%TO.N,P23*%
X94693000Y-79364000D02*
X93475000Y-78146000D01*
X93475000Y-78146000D02*
X93475000Y-53729000D01*
X93475000Y-53729000D02*
X94510000Y-52694000D01*
%TO.N,P22*%
X92153000Y-79364000D02*
X90465000Y-77676000D01*
X90465000Y-77676000D02*
X90465000Y-54199000D01*
X90465000Y-54199000D02*
X91970000Y-52694000D01*
%TO.N,P21*%
X89613000Y-79364000D02*
X88392000Y-78143000D01*
X88392000Y-78143000D02*
X88392000Y-53732000D01*
X88392000Y-53732000D02*
X89430000Y-52694000D01*
%TO.N,P20*%
X87073000Y-79364000D02*
X85852000Y-78143000D01*
X85852000Y-78143000D02*
X85852000Y-53732000D01*
X85852000Y-53732000D02*
X86890000Y-52694000D01*
%TO.N,P19*%
X84533000Y-79364000D02*
X83315000Y-78146000D01*
X83315000Y-78146000D02*
X83315000Y-53729000D01*
X83315000Y-53729000D02*
X84350000Y-52694000D01*
%TO.N,P18*%
X81993000Y-79364000D02*
X80775000Y-78146000D01*
X80775000Y-78146000D02*
X80775000Y-53729000D01*
X80775000Y-53729000D02*
X81810000Y-52694000D01*
%TO.N,P20*%
X87122000Y-168706000D02*
X86038000Y-167622000D01*
X86038000Y-167622000D02*
X86038000Y-80399000D01*
X86038000Y-80399000D02*
X87073000Y-79364000D01*
%TO.N,P18*%
X82042000Y-169206000D02*
X80958000Y-168122000D01*
X80958000Y-168122000D02*
X80958000Y-80399000D01*
X80958000Y-80399000D02*
X81993000Y-79364000D01*
%TO.N,P19*%
X84582000Y-169206000D02*
X83498000Y-168122000D01*
X83498000Y-168122000D02*
X83498000Y-80399000D01*
X83498000Y-80399000D02*
X84533000Y-79364000D01*
%TO.N,P21*%
X89662000Y-168706000D02*
X88578000Y-167622000D01*
X88578000Y-80399000D02*
X89613000Y-79364000D01*
X88578000Y-167622000D02*
X88578000Y-80399000D01*
%TO.N,P22*%
X92202000Y-168706000D02*
X91118000Y-167622000D01*
X91118000Y-167622000D02*
X91118000Y-80399000D01*
X91118000Y-80399000D02*
X92153000Y-79364000D01*
%TO.N,P23*%
X94742000Y-168706000D02*
X94742000Y-163706001D01*
X94742000Y-163706001D02*
X93218000Y-162182001D01*
X93218000Y-162182001D02*
X93218000Y-80839000D01*
X93218000Y-80839000D02*
X94693000Y-79364000D01*
%TO.N,P24*%
X97282000Y-168706000D02*
X96198000Y-167622000D01*
X96198000Y-167622000D02*
X96198000Y-80399000D01*
X96198000Y-80399000D02*
X97233000Y-79364000D01*
%TO.N,P26*%
X102362000Y-168706000D02*
X101278000Y-167622000D01*
X101278000Y-167622000D02*
X101278000Y-80399000D01*
X101278000Y-80399000D02*
X102313000Y-79364000D01*
%TO.N,P25*%
X99822000Y-168706000D02*
X98738000Y-167622000D01*
X98738000Y-167622000D02*
X98738000Y-80399000D01*
X98738000Y-80399000D02*
X99773000Y-79364000D01*
%TO.N,P27*%
X104902000Y-168706000D02*
X103818000Y-167622000D01*
X103818000Y-167622000D02*
X103818000Y-80399000D01*
X103818000Y-80399000D02*
X104853000Y-79364000D01*
%TO.N,P28*%
X107442000Y-168706000D02*
X106358000Y-167622000D01*
X106358000Y-167622000D02*
X106358000Y-80399000D01*
X106358000Y-80399000D02*
X107393000Y-79364000D01*
%TO.N,P29*%
X109982000Y-168706000D02*
X108898000Y-167622000D01*
X108898000Y-167622000D02*
X108898000Y-80399000D01*
X108898000Y-80399000D02*
X109933000Y-79364000D01*
%TO.N,P30*%
X112522000Y-168706000D02*
X111438000Y-167622000D01*
X111438000Y-167622000D02*
X111438000Y-80399000D01*
X111438000Y-80399000D02*
X112473000Y-79364000D01*
%TO.N,P31*%
X115062000Y-168706000D02*
X113978000Y-167622000D01*
X113978000Y-167622000D02*
X113978000Y-80399000D01*
X113978000Y-80399000D02*
X115013000Y-79364000D01*
%TO.N,P32*%
X117602000Y-168706000D02*
X116518000Y-167622000D01*
X116518000Y-167622000D02*
X116518000Y-80399000D01*
X116518000Y-80399000D02*
X117553000Y-79364000D01*
%TO.N,P33*%
X120142000Y-169206000D02*
X119058000Y-168122000D01*
X119058000Y-168122000D02*
X119058000Y-80399000D01*
X119058000Y-80399000D02*
X120093000Y-79364000D01*
%TO.N,P34*%
X122682000Y-169206000D02*
X121598000Y-168122000D01*
X121598000Y-168122000D02*
X121598000Y-80399000D01*
X121598000Y-80399000D02*
X122633000Y-79364000D01*
%TD*%
M02*
