%TF.GenerationSoftware,KiCad,Pcbnew,10.0.0-1.fc43*%
%TF.CreationDate,2026-04-23T20:01:44+01:00*%
%TF.ProjectId,doublke_cartridge_adapter,646f7562-6c6b-4655-9f63-617274726964,rev?*%
%TF.SameCoordinates,Original*%
%TF.FileFunction,Soldermask,Bot*%
%TF.FilePolarity,Negative*%
%FSLAX46Y46*%
G04 Gerber Fmt 4.6, Leading zero omitted, Abs format (unit mm)*
G04 Created by KiCad (PCBNEW 10.0.0-1.fc43) date 2026-04-23 20:01:44*
%MOMM*%
%LPD*%
G01*
G04 APERTURE LIST*
G04 Aperture macros list*
%AMRoundRect*
0 Rectangle with rounded corners*
0 $1 Rounding radius*
0 $2 $3 $4 $5 $6 $7 $8 $9 X,Y pos of 4 corners*
0 Add a 4 corners polygon primitive as box body*
4,1,4,$2,$3,$4,$5,$6,$7,$8,$9,$2,$3,0*
0 Add four circle primitives for the rounded corners*
1,1,$1+$1,$2,$3*
1,1,$1+$1,$4,$5*
1,1,$1+$1,$6,$7*
1,1,$1+$1,$8,$9*
0 Add four rect primitives between the rounded corners*
20,1,$1+$1,$2,$3,$4,$5,0*
20,1,$1+$1,$4,$5,$6,$7,0*
20,1,$1+$1,$6,$7,$8,$9,0*
20,1,$1+$1,$8,$9,$2,$3,0*%
G04 Aperture macros list end*
%ADD10RoundRect,0.190500X-0.444500X1.079500X-0.444500X-1.079500X0.444500X-1.079500X0.444500X1.079500X0*%
%ADD11RoundRect,0.300000X-0.700000X5.200000X-0.700000X-5.200000X0.700000X-5.200000X0.700000X5.200000X0*%
%ADD12RoundRect,0.300000X-0.700000X4.700000X-0.700000X-4.700000X0.700000X-4.700000X0.700000X4.700000X0*%
G04 APERTURE END LIST*
D10*
%TO.C,J4*%
X81993000Y-79364000D03*
X81993000Y-83174000D03*
X84533000Y-79364000D03*
X84533000Y-83174000D03*
X87073000Y-79364000D03*
X87073000Y-83174000D03*
X89613000Y-79364000D03*
X89613000Y-83174000D03*
X92153000Y-79364000D03*
X92153000Y-83174000D03*
X94693000Y-79364000D03*
X94693000Y-83174000D03*
X97233000Y-79364000D03*
X97233000Y-83174000D03*
X99773000Y-79364000D03*
X99773000Y-83174000D03*
X102313000Y-79364000D03*
X102313000Y-83174000D03*
X104853000Y-79364000D03*
X104853000Y-83174000D03*
X107393000Y-79364000D03*
X107393000Y-83174000D03*
X109933000Y-79364000D03*
X109933000Y-83174000D03*
X112473000Y-79364000D03*
X112473000Y-83174000D03*
X115013000Y-79364000D03*
X115013000Y-83174000D03*
X117553000Y-79364000D03*
X117553000Y-83174000D03*
X120093000Y-79364000D03*
X120093000Y-83174000D03*
X122633000Y-79364000D03*
X122633000Y-83174000D03*
%TD*%
%TO.C,J3*%
X81810000Y-52694000D03*
X81810000Y-56504000D03*
X84350000Y-52694000D03*
X84350000Y-56504000D03*
X86890000Y-52694000D03*
X86890000Y-56504000D03*
X89430000Y-52694000D03*
X89430000Y-56504000D03*
X91970000Y-52694000D03*
X91970000Y-56504000D03*
X94510000Y-52694000D03*
X94510000Y-56504000D03*
X97050000Y-52694000D03*
X97050000Y-56504000D03*
X99590000Y-52694000D03*
X99590000Y-56504000D03*
X102130000Y-52694000D03*
X102130000Y-56504000D03*
X104670000Y-52694000D03*
X104670000Y-56504000D03*
X107210000Y-52694000D03*
X107210000Y-56504000D03*
X109750000Y-52694000D03*
X109750000Y-56504000D03*
X112290000Y-52694000D03*
X112290000Y-56504000D03*
X114830000Y-52694000D03*
X114830000Y-56504000D03*
X117370000Y-52694000D03*
X117370000Y-56504000D03*
X119910000Y-52694000D03*
X119910000Y-56504000D03*
X122450000Y-52694000D03*
X122450000Y-56504000D03*
%TD*%
D11*
%TO.C,J2*%
X122682000Y-169206000D03*
X120142000Y-169206000D03*
D12*
X117602000Y-168706000D03*
X115062000Y-168706000D03*
X112522000Y-168706000D03*
X109982000Y-168706000D03*
X107442000Y-168706000D03*
X104902000Y-168706000D03*
X102362000Y-168706000D03*
X99822000Y-168706000D03*
X97282000Y-168706000D03*
X94742000Y-168706000D03*
X92202000Y-168706000D03*
X89662000Y-168706000D03*
X87122000Y-168706000D03*
D11*
X84582000Y-169206000D03*
X82042000Y-169206000D03*
%TD*%
M02*
